<svg version="1.1" xmlns="http://www.w3.org/2000/svg" viewBox="0 0 1076.595238095238 1060.2380952380956" width="1076.595238095238" height="1060.2380952380956">
  <!-- svg-source:excalidraw -->
  
  <defs>
    <style class="style-fonts">
      @font-face {
        font-family: "Virgil";
        src: url("https://excalidraw.com/Virgil.woff2");
      }
      @font-face {
        font-family: "Cascadia";
        src: url("https://excalidraw.com/Cascadia.woff2");
      }
      @font-face {
        font-family: "Assistant";
        src: url("https://excalidraw.com/Assistant-Regular.woff2");
      }
    </style>
    
  </defs>
  <rect x="0" y="0" width="1076.595238095238" height="1060.2380952380956" fill="#ffffff"></rect><g stroke-linecap="round" transform="translate(598.8809523809526 392.9999999999993) rotate(0 62.5 109.07142857142856)"><path d="M0 0 C36.81 0.01, 70.81 -0.06, 125 0 M0 0 C40.15 1.83, 79.11 0.2, 125 0 M125 0 C124.76 61.17, 125.08 121.66, 125 218.14 M125 0 C124.85 58.04, 125.11 116.71, 125 218.14 M125 218.14 C78.55 218.32, 32.24 219.89, 0 218.14 M125 218.14 C82.76 218.58, 42.37 217.92, 0 218.14 M0 218.14 C1.54 151.15, 0.86 85.24, 0 0 M0 218.14 C-0.53 140.94, 0.21 63.52, 0 0" stroke="#1e1e1e" stroke-width="2" fill="none"></path></g><g stroke-linecap="round"><g transform="translate(599.8809523809526 423.9999999999993) rotate(0 61 -0.5)"><path d="M0 0 C32.9 -0.71, 65.82 0.39, 122 -1 M0 0 C31.55 -0.08, 64.82 0.49, 122 -1" stroke="#1e1e1e" stroke-width="2" fill="none"></path></g></g><mask></mask><g transform="translate(637.8809523809526 394.9999999999993) rotate(0 22.33997344970703 12.5)"><text x="0" y="0" font-family="Virgil, Segoe UI Emoji" font-size="20px" fill="#1e1e1e" text-anchor="start" style="white-space: pre;" direction="ltr" dominant-baseline="text-before-edge">User</text></g><g stroke-linecap="round"><g transform="translate(600.8809523809526 451.9999999999993) rotate(0 61.5 -0.5)"><path d="M0 0 C40.63 -1.32, 80.54 0.06, 123 -1 M0 0 C45.85 -0.33, 92.7 0.35, 123 -1" stroke="#1e1e1e" stroke-width="2" fill="none"></path></g></g><mask></mask><g stroke-linecap="round"><g transform="translate(598.8809523809526 477.9999999999993) rotate(0 61.5 -0.5)"><path d="M0 0 C24.79 0.94, 54.63 0.34, 123 -1 M0 0 C43.69 -0.83, 89.41 -1.61, 123 -1" stroke="#1e1e1e" stroke-width="2" fill="none"></path></g></g><mask></mask><g stroke-linecap="round"><g transform="translate(599.8809523809526 507.9999999999993) rotate(0 61.5 -0.5)"><path d="M0 0 C33.72 -0.88, 68.02 1.51, 123 -1 M0 0 C34.48 -0.97, 66.88 -0.62, 123 -1" stroke="#1e1e1e" stroke-width="2" fill="none"></path></g></g><mask></mask><g stroke-linecap="round"><g transform="translate(598.8809523809526 538.9999999999993) rotate(0 61.5 -0.5)"><path d="M0 0 C35.13 -2.87, 71.62 -0.95, 123 -1 M0 0 C26.37 -1.67, 53.27 -1.19, 123 -1" stroke="#1e1e1e" stroke-width="2" fill="none"></path></g></g><mask></mask><g stroke-linecap="round"><g transform="translate(600.8809523809526 565.9999999999993) rotate(0 61.5 -0.5)"><path d="M0 0 C43.85 1.61, 86.59 0.8, 123 -1 M0 0 C36.44 0.19, 72.4 -1.2, 123 -1" stroke="#1e1e1e" stroke-width="2" fill="none"></path></g></g><mask></mask><g transform="translate(625.8809523809526 427.4999999999993) rotate(0 35.21607208251953 10)"><text x="0" y="0" font-family="Virgil, Segoe UI Emoji" font-size="16px" fill="#1e1e1e" text-anchor="start" style="white-space: pre;" direction="ltr" dominant-baseline="text-before-edge">username</text></g><g transform="translate(624.8809523809526 457.4999999999993) rotate(0 36.456085205078125 10)"><text x="0" y="0" font-family="Virgil, Segoe UI Emoji" font-size="16px" fill="#1e1e1e" text-anchor="start" style="white-space: pre;" direction="ltr" dominant-baseline="text-before-edge">firstname</text></g><g transform="translate(625.8809523809526 485.4999999999993) rotate(0 34.816078186035156 10)"><text x="0" y="0" font-family="Virgil, Segoe UI Emoji" font-size="16px" fill="#1e1e1e" text-anchor="start" style="white-space: pre;" direction="ltr" dominant-baseline="text-before-edge">lastname</text></g><g transform="translate(623.8809523809526 512.4999999999993) rotate(0 35.264076232910156 10)"><text x="0" y="0" font-family="Virgil, Segoe UI Emoji" font-size="16px" fill="#1e1e1e" text-anchor="start" style="white-space: pre;" direction="ltr" dominant-baseline="text-before-edge">password</text></g><g transform="translate(612.8809523809526 579.9285714285708) rotate(0 49.26409912109375 10)"><text x="0" y="0" font-family="Virgil, Segoe UI Emoji" font-size="16px" fill="#1e1e1e" text-anchor="start" style="white-space: pre;" direction="ltr" dominant-baseline="text-before-edge">profileInfoId</text></g><g transform="translate(638.8809523809526 540.4999999999993) rotate(0 18.632041931152344 10)"><text x="0" y="0" font-family="Virgil, Segoe UI Emoji" font-size="16px" fill="#1e1e1e" text-anchor="start" style="white-space: pre;" direction="ltr" dominant-baseline="text-before-edge">email</text></g><g stroke-linecap="round" transform="translate(602.8809523809526 741.9999999999993) rotate(0 62.5 100)"><path d="M0 0 C37.92 -0.76, 78.25 -1.73, 125 0 M0 0 C35.55 1.81, 69.52 0.9, 125 0 M125 0 C125.22 55.42, 125.38 112.02, 125 200 M125 0 C123.58 70.01, 123.01 141.09, 125 200 M125 200 C81.52 200, 40.94 199.49, 0 200 M125 200 C79.42 200.05, 33.22 198.96, 0 200 M0 200 C1.05 144.45, 1.99 91.6, 0 0 M0 200 C-0.49 127.65, -1.12 55.21, 0 0" stroke="#1e1e1e" stroke-width="2" fill="none"></path></g><g stroke-linecap="round"><g transform="translate(603.8809523809526 772.9999999999993) rotate(0 61 -0.5)"><path d="M0 0 C41.05 1.44, 81.96 -0.81, 122 -1 M0 0 C43.01 -1.48, 84.18 -1.55, 122 -1" stroke="#1e1e1e" stroke-width="2" fill="none"></path></g></g><mask></mask><g transform="translate(613.8809523809526 744.9999999999993) rotate(0 52.11994171142578 12.5)"><text x="0" y="0" font-family="Virgil, Segoe UI Emoji" font-size="20px" fill="#1e1e1e" text-anchor="start" style="white-space: pre;" direction="ltr" dominant-baseline="text-before-edge">ProfileInfo</text></g><g stroke-linecap="round"><g transform="translate(604.8809523809526 800.9999999999993) rotate(0 61.5 -0.5)"><path d="M0 0 C32.3 -1.6, 69.07 -2.89, 123 -1 M0 0 C43.91 0.01, 88.69 0.08, 123 -1" stroke="#1e1e1e" stroke-width="2" fill="none"></path></g></g><mask></mask><g stroke-linecap="round"><g transform="translate(602.8809523809526 826.9999999999993) rotate(0 61.5 -0.5)"><path d="M0 0 C31.39 1.74, 62.19 1.72, 123 -1 M0 0 C48.13 0.48, 96.83 -1.59, 123 -1" stroke="#1e1e1e" stroke-width="2" fill="none"></path></g></g><mask></mask><g stroke-linecap="round"><g transform="translate(603.8809523809526 856.9999999999993) rotate(0 61.5 -0.5)"><path d="M0 0 C47.05 -1.54, 93.43 1.35, 123 -1 M0 0 C32.42 0.2, 62.25 -1, 123 -1" stroke="#1e1e1e" stroke-width="2" fill="none"></path></g></g><mask></mask><g stroke-linecap="round"><g transform="translate(602.8809523809526 887.9999999999993) rotate(0 61.5 -0.5)"><path d="M0 0 C24.46 0.38, 53.59 -1.85, 123 -1 M0 0 C37.43 -2.19, 73.65 -2.41, 123 -1" stroke="#1e1e1e" stroke-width="2" fill="none"></path></g></g><mask></mask><g stroke-linecap="round"><g transform="translate(604.8809523809526 914.9999999999993) rotate(0 61.5 -0.5)"><path d="M0 0 C35.55 2.44, 67.96 0.35, 123 -1 M0 0 C34.06 -1.29, 69 -1.61, 123 -1" stroke="#1e1e1e" stroke-width="2" fill="none"></path></g></g><mask></mask><g transform="translate(629.8809523809526 776.4999999999993) rotate(0 31.152061462402344 10)"><text x="0" y="0" font-family="Virgil, Segoe UI Emoji" font-size="16px" fill="#1e1e1e" text-anchor="start" style="white-space: pre;" direction="ltr" dominant-baseline="text-before-edge">fullname</text></g><g transform="translate(633.8809523809526 806.4999999999993) rotate(0 30.944068908691406 10)"><text x="0" y="0" font-family="Virgil, Segoe UI Emoji" font-size="16px" fill="#1e1e1e" text-anchor="start" style="white-space: pre;" direction="ltr" dominant-baseline="text-before-edge">address</text></g><g transform="translate(638.8809523809526 834.4999999999993) rotate(0 20.440040588378906 10)"><text x="0" y="0" font-family="Virgil, Segoe UI Emoji" font-size="16px" fill="#1e1e1e" text-anchor="start" style="white-space: pre;" direction="ltr" dominant-baseline="text-before-edge">phone</text></g><g transform="translate(621.8809523809526 862.4999999999993) rotate(0 44.83210754394531 10)"><text x="0" y="0" font-family="Virgil, Segoe UI Emoji" font-size="16px" fill="#1e1e1e" text-anchor="start" style="white-space: pre;" direction="ltr" dominant-baseline="text-before-edge">dateofbirth</text></g><g transform="translate(615.8809523809526 919.4999999999993) rotate(0 49.93611145019531 10)"><text x="0" y="0" font-family="Virgil, Segoe UI Emoji" font-size="16px" fill="#1e1e1e" text-anchor="start" style="white-space: pre;" direction="ltr" dominant-baseline="text-before-edge">aditionalInfo</text></g><g transform="translate(642.8809523809526 889.4999999999993) rotate(0 24.488052368164062 10)"><text x="0" y="0" font-family="Virgil, Segoe UI Emoji" font-size="16px" fill="#1e1e1e" text-anchor="start" style="white-space: pre;" direction="ltr" dominant-baseline="text-before-edge">gender</text></g><g stroke-linecap="round" transform="translate(308.7023809523812 487.321428571428) rotate(0 74 87.5)"><path d="M0 0 C34.77 2.75, 70.32 0.01, 148 0 M0 0 C48.9 1.03, 98.31 -0.42, 148 0 M148 0 C149.53 56.86, 148.19 114.32, 148 175 M148 0 C146.43 38.33, 148.25 75.26, 148 175 M148 175 C104.48 172.56, 62.82 175.67, 0 175 M148 175 C103.57 173.38, 60.95 173.65, 0 175 M0 175 C-0.49 130.41, 1.42 85, 0 0 M0 175 C1.62 112.67, 1.65 52.12, 0 0" stroke="#1e1e1e" stroke-width="2" fill="none"></path></g><g stroke-linecap="round"><g transform="translate(309.7023809523812 518.321428571428) rotate(0 73.5 0)"><path d="M0 0 C53.21 1.24, 102.04 0.35, 147 0 M0 0 C47.65 0.45, 93.38 0.42, 147 0" stroke="#1e1e1e" stroke-width="2" fill="none"></path></g></g><mask></mask><g transform="translate(320.7023809523812 490.321428571428) rotate(0 62.019935607910156 12.5)"><text x="0" y="0" font-family="Virgil, Segoe UI Emoji" font-size="20px" fill="#1e1e1e" text-anchor="start" style="white-space: pre;" direction="ltr" dominant-baseline="text-before-edge">Appointments</text></g><g stroke-linecap="round"><g transform="translate(310.7023809523812 546.321428571428) rotate(0 72.5 0)"><path d="M0 0 C45.06 -0.47, 92.71 -1.85, 145 0 M0 0 C41.21 -0.18, 84.5 0.44, 145 0" stroke="#1e1e1e" stroke-width="2" fill="none"></path></g></g><mask></mask><g stroke-linecap="round"><g transform="translate(308.7023809523812 572.321428571428) rotate(0 73 -0.5)"><path d="M0 0 C56.42 0.83, 110.85 -0.15, 146 -1 M0 0 C50.96 1.2, 102.27 1.41, 146 -1" stroke="#1e1e1e" stroke-width="2" fill="none"></path></g></g><mask></mask><g stroke-linecap="round"><g transform="translate(309.7023809523812 602.321428571428) rotate(0 73 -0.5)"><path d="M0 0 C55.22 -1.59, 109.42 -0.26, 146 -1 M0 0 C48.58 0.16, 97.6 -1.41, 146 -1" stroke="#1e1e1e" stroke-width="2" fill="none"></path></g></g><mask></mask><g stroke-linecap="round"><g transform="translate(308.7023809523812 633.321428571428) rotate(0 73.5 0)"><path d="M0 0 C35.35 -0.49, 73.16 0.33, 147 0 M0 0 C30.52 0.51, 58.9 -0.16, 147 0" stroke="#1e1e1e" stroke-width="2" fill="none"></path></g></g><mask></mask><g transform="translate(335.7023809523812 521.821428571428) rotate(0 37.09608459472656 10)"><text x="0" y="0" font-family="Virgil, Segoe UI Emoji" font-size="16px" fill="#1e1e1e" text-anchor="start" style="white-space: pre;" direction="ltr" dominant-baseline="text-before-edge">patientId</text></g><g transform="translate(339.7023809523812 551.821428571428) rotate(0 34.30406951904297 10)"><text x="0" y="0" font-family="Virgil, Segoe UI Emoji" font-size="16px" fill="#1e1e1e" text-anchor="start" style="white-space: pre;" direction="ltr" dominant-baseline="text-before-edge">doctorId</text></g><g transform="translate(345.7023809523812 577.821428571428) rotate(0 36.4080810546875 10)"><text x="0" y="0" font-family="Virgil, Segoe UI Emoji" font-size="16px" fill="#1e1e1e" text-anchor="start" style="white-space: pre;" direction="ltr" dominant-baseline="text-before-edge">dateTime</text></g><g transform="translate(344.7023809523812 606.821428571428) rotate(0 40.032081604003906 10)"><text x="0" y="0" font-family="Virgil, Segoe UI Emoji" font-size="16px" fill="#1e1e1e" text-anchor="start" style="white-space: pre;" direction="ltr" dominant-baseline="text-before-edge">symptomId</text></g><g transform="translate(348.7023809523812 633.821428571428) rotate(0 27.608062744140625 10)"><text x="0" y="0" font-family="Virgil, Segoe UI Emoji" font-size="16px" fill="#1e1e1e" text-anchor="start" style="white-space: pre;" direction="ltr" dominant-baseline="text-before-edge">status</text></g><g stroke-linecap="round" transform="translate(352.4523809523812 173.571428571428) rotate(0 74 72.5)"><path d="M0 0 C30.35 2.36, 60.46 -0.71, 148 0 M0 0 C56.09 -2, 112.52 -0.49, 148 0 M148 0 C147.49 41.94, 149.38 78.08, 148 145 M148 0 C148.07 39.63, 148.41 80.01, 148 145 M148 145 C96.68 143.1, 42.65 144.8, 0 145 M148 145 C106.07 144.96, 64.98 143.8, 0 145 M0 145 C-1.06 94.19, 1.16 44.83, 0 0 M0 145 C-0.68 89.05, 0.05 35.2, 0 0" stroke="#1e1e1e" stroke-width="2" fill="none"></path></g><g stroke-linecap="round"><g transform="translate(353.4523809523812 204.571428571428) rotate(0 73.5 0)"><path d="M0 0 C37.86 -0.31, 71.29 1.7, 147 0 M0 0 C29.91 0.05, 61.95 0.57, 147 0" stroke="#1e1e1e" stroke-width="2" fill="none"></path></g></g><mask></mask><g transform="translate(364.4523809523812 176.571428571428) rotate(0 64.83992767333984 12.5)"><text x="0" y="0" font-family="Virgil, Segoe UI Emoji" font-size="20px" fill="#1e1e1e" text-anchor="start" style="white-space: pre;" direction="ltr" dominant-baseline="text-before-edge">ChatMessage</text></g><g stroke-linecap="round"><g transform="translate(354.4523809523812 232.571428571428) rotate(0 72.5 0)"><path d="M0 0 C41.36 1.91, 84.27 2.12, 145 0 M0 0 C36.38 0.86, 71.78 1.1, 145 0" stroke="#1e1e1e" stroke-width="2" fill="none"></path></g></g><mask></mask><g stroke-linecap="round"><g transform="translate(352.4523809523812 258.571428571428) rotate(0 73 -0.5)"><path d="M0 0 C55.41 -0.97, 109.36 -0.6, 146 -1 M0 0 C34.47 -0.75, 69.41 -2.58, 146 -1" stroke="#1e1e1e" stroke-width="2" fill="none"></path></g></g><mask></mask><g stroke-linecap="round"><g transform="translate(353.4523809523812 288.571428571428) rotate(0 73 -0.5)"><path d="M0 0 C39.35 0.37, 81.27 -3.02, 146 -1 M0 0 C33.48 0.12, 64.58 0.86, 146 -1" stroke="#1e1e1e" stroke-width="2" fill="none"></path></g></g><mask></mask><g transform="translate(391.9523809523812 210.571428571428) rotate(0 33.73606872558594 10)"><text x="0" y="0" font-family="Virgil, Segoe UI Emoji" font-size="16px" fill="#1e1e1e" text-anchor="start" style="white-space: pre;" direction="ltr" dominant-baseline="text-before-edge">senderId</text></g><g transform="translate(383.4523809523812 238.071428571428) rotate(0 38.87207794189453 10)"><text x="0" y="0" font-family="Virgil, Segoe UI Emoji" font-size="16px" fill="#1e1e1e" text-anchor="start" style="white-space: pre;" direction="ltr" dominant-baseline="text-before-edge">receiverId</text></g><g transform="translate(389.4523809523812 264.071428571428) rotate(0 38.92008972167969 10)"><text x="0" y="0" font-family="Virgil, Segoe UI Emoji" font-size="16px" fill="#1e1e1e" text-anchor="start" style="white-space: pre;" direction="ltr" dominant-baseline="text-before-edge">timestamp</text></g><g transform="translate(388.4523809523812 293.071428571428) rotate(0 29.3360595703125 10)"><text x="0" y="0" font-family="Virgil, Segoe UI Emoji" font-size="16px" fill="#1e1e1e" text-anchor="start" style="white-space: pre;" direction="ltr" dominant-baseline="text-before-edge">content</text></g><g stroke-linecap="round" transform="translate(901.0238095238096 306.428571428571) rotate(0 82.5714285714285 103.21428571428567)"><path d="M0 0 C50.06 -2.86, 101.03 0.22, 165.14 0 M0 0 C34.48 -0.61, 66.22 -2.28, 165.14 0 M165.14 0 C162.7 69.47, 164.25 135.01, 165.14 206.43 M165.14 0 C163.97 41.87, 164.79 85.27, 165.14 206.43 M165.14 206.43 C127.45 206.26, 86.84 203.59, 0 206.43 M165.14 206.43 C120.69 206.08, 77.67 205.42, 0 206.43 M0 206.43 C-0.53 143.26, -0.75 81.07, 0 0 M0 206.43 C-1.96 153.51, -1.06 100.92, 0 0" stroke="#1e1e1e" stroke-width="2" fill="none"></path></g><g stroke-linecap="round"><g transform="translate(902.0238095238096 337.428571428571) rotate(0 81.35714285714283 0.7142857142857224)"><path d="M0 0 C41.95 0.72, 88.92 -0.76, 162.71 1.43 M0 0 C39.12 -2.07, 75.78 -0.47, 162.71 1.43" stroke="#1e1e1e" stroke-width="2" fill="none"></path></g></g><mask></mask><g transform="translate(920.1666666666667 309.428571428571) rotate(0 56.29993438720709 12.5)"><text x="0" y="0" font-family="Virgil, Segoe UI Emoji" font-size="20px" fill="#1e1e1e" text-anchor="start" style="white-space: pre;" direction="ltr" dominant-baseline="text-before-edge">Prescription</text></g><g stroke-linecap="round"><g transform="translate(901.5952380952381 365.428571428571) rotate(0 81.78571428571428 -0.7142857142857224)"><path d="M0 0 C46.15 -2.27, 88.75 0.95, 163.57 -1.43 M0 0 C62.47 1.33, 126.03 1.39, 163.57 -1.43" stroke="#1e1e1e" stroke-width="2" fill="none"></path></g></g><mask></mask><g stroke-linecap="round"><g transform="translate(901.0238095238096 391.428571428571) rotate(0 81.5714285714285 0.2142857142857224)"><path d="M0 0 C31.07 -2.12, 67.67 1.01, 163.14 0.43 M0 0 C61.85 0.92, 124.05 1.15, 163.14 0.43" stroke="#1e1e1e" stroke-width="2" fill="none"></path></g></g><mask></mask><g stroke-linecap="round"><g transform="translate(902.0238095238096 421.428571428571) rotate(0 82.28571428571416 -0.5)"><path d="M0 0 C47.49 2.97, 99.32 2.54, 164.57 -1 M0 0 C32.52 0.23, 65.82 0.13, 164.57 -1" stroke="#1e1e1e" stroke-width="2" fill="none"></path></g></g><mask></mask><g stroke-linecap="round"><g transform="translate(901.0238095238096 452.428571428571) rotate(0 82.78571428571428 0)"><path d="M0 0 C60.65 2.82, 119.48 -0.9, 165.57 0 M0 0 C35.69 0.54, 70.6 1.4, 165.57 0" stroke="#1e1e1e" stroke-width="2" fill="none"></path></g></g><mask></mask><g stroke-linecap="round"><g transform="translate(901.0238095238096 483.8571428571423) rotate(0 82.78571428571428 0)"><path d="M0 0 C48.27 0.06, 97.42 0.14, 165.57 0 M0 0 C38.81 1.6, 75.87 2.25, 165.57 0" stroke="#1e1e1e" stroke-width="2" fill="none"></path></g></g><mask></mask><g transform="translate(932.3095238095239 340.928571428571) rotate(0 37.096084594726506 10)"><text x="0" y="0" font-family="Virgil, Segoe UI Emoji" font-size="16px" fill="#1e1e1e" text-anchor="start" style="white-space: pre;" direction="ltr" dominant-baseline="text-before-edge">patientId</text></g><g transform="translate(932.0238095238096 370.928571428571) rotate(0 34.30406951904291 10)"><text x="0" y="0" font-family="Virgil, Segoe UI Emoji" font-size="16px" fill="#1e1e1e" text-anchor="start" style="white-space: pre;" direction="ltr" dominant-baseline="text-before-edge">doctorId</text></g><g transform="translate(938.0238095238096 396.928571428571) rotate(0 45.304092407226506 10)"><text x="0" y="0" font-family="Virgil, Segoe UI Emoji" font-size="16px" fill="#1e1e1e" text-anchor="start" style="white-space: pre;" direction="ltr" dominant-baseline="text-before-edge">dateIssued</text></g><g transform="translate(911.3095238095239 427.35714285714243) rotate(0 68.20815277099604 10)"><text x="0" y="0" font-family="Virgil, Segoe UI Emoji" font-size="16px" fill="#1e1e1e" text-anchor="start" style="white-space: pre;" direction="ltr" dominant-baseline="text-before-edge">medicationDetails</text></g><g transform="translate(908.8809523809523 458.64285714285666) rotate(0 74.79216003417963 10)"><text x="0" y="0" font-family="Virgil, Segoe UI Emoji" font-size="16px" fill="#1e1e1e" text-anchor="start" style="white-space: pre;" direction="ltr" dominant-baseline="text-before-edge">dosageInstructions</text></g><g transform="translate(947.4523809523807 490.0714285714281) rotate(0 34.08007049560541 10)"><text x="0" y="0" font-family="Virgil, Segoe UI Emoji" font-size="16px" fill="#1e1e1e" text-anchor="start" style="white-space: pre;" direction="ltr" dominant-baseline="text-before-edge">refillInfo</text></g><g stroke-linecap="round" transform="translate(921.3095238095241 555.8571428571421) rotate(0 62.50000000000006 58.49999999999994)"><path d="M0 0 C43.48 1.01, 88.91 0.31, 125 0 M0 0 C44.02 -0.1, 86.8 -1.87, 125 0 M125 0 C126.54 39.33, 123.81 74.57, 125 117 M125 0 C125.36 35.75, 124.64 71.92, 125 117 M125 117 C94.35 118.9, 64.39 116.88, 0 117 M125 117 C93.85 115.87, 60.59 117.09, 0 117 M0 117 C-2.59 84.57, -1.14 53.86, 0 0 M0 117 C0.93 79.97, 0.05 43, 0 0" stroke="#1e1e1e" stroke-width="2" fill="none"></path></g><g stroke-linecap="round"><g transform="translate(922.3095238095241 586.8571428571421) rotate(0 61.00000000000006 -0.5)"><path d="M0 0 C49.71 -1.08, 97.42 1.28, 122 -1 M0 0 C36.18 -0.9, 69.73 -1.29, 122 -1" stroke="#1e1e1e" stroke-width="2" fill="none"></path></g></g><mask></mask><g transform="translate(940.3095238095241 558.8571428571421) rotate(0 45.46994781494146 12.5)"><text x="0" y="0" font-family="Virgil, Segoe UI Emoji" font-size="20px" fill="#1e1e1e" text-anchor="start" style="white-space: pre;" direction="ltr" dominant-baseline="text-before-edge">UserType</text></g><g stroke-linecap="round"><g transform="translate(923.3095238095241 614.8571428571421) rotate(0 61.50000000000006 -0.5)"><path d="M0 0 C25.86 1.84, 50.32 2.24, 123 -1 M0 0 C45.8 -0.56, 93.84 -1.33, 123 -1" stroke="#1e1e1e" stroke-width="2" fill="none"></path></g></g><mask></mask><g stroke-linecap="round"><g transform="translate(921.3095238095241 640.8571428571421) rotate(0 61.50000000000006 -0.5)"><path d="M0 0 C45.85 -0.94, 91.37 0.5, 123 -1 M0 0 C47.63 1.14, 94.6 0.9, 123 -1" stroke="#1e1e1e" stroke-width="2" fill="none"></path></g></g><mask></mask><g transform="translate(948.3095238095241 590.3571428571421) rotate(0 28.184066772460994 10)"><text x="0" y="0" font-family="Virgil, Segoe UI Emoji" font-size="16px" fill="#1e1e1e" text-anchor="start" style="white-space: pre;" direction="ltr" dominant-baseline="text-before-edge">patient</text></g><g transform="translate(954.3095238095241 620.3571428571421) rotate(0 25.3920516967774 10)"><text x="0" y="0" font-family="Virgil, Segoe UI Emoji" font-size="16px" fill="#1e1e1e" text-anchor="start" style="white-space: pre;" direction="ltr" dominant-baseline="text-before-edge">doctor</text></g><g transform="translate(948.3095238095241 648.357142857142) rotate(0 34.840080261230526 10)"><text x="0" y="0" font-family="Virgil, Segoe UI Emoji" font-size="16px" fill="#1e1e1e" text-anchor="start" style="white-space: pre;" direction="ltr" dominant-baseline="text-before-edge">pharmacy</text></g><g stroke-linecap="round" transform="translate(12.50000000000017 777.9999999999993) rotate(0 85 71.35714285714278)"><path d="M0 0 C65.13 0.24, 132.53 0.12, 170 0 M0 0 C45.4 0.25, 92.26 -0.35, 170 0 M170 0 C169.66 31.36, 169.73 59.85, 170 142.71 M170 0 C169.81 51.39, 168 100.61, 170 142.71 M170 142.71 C125.62 145.73, 79.86 145.36, 0 142.71 M170 142.71 C105.31 144.7, 39.6 143.4, 0 142.71 M0 142.71 C-3.31 93.18, -2.26 41.62, 0 0 M0 142.71 C1.18 103.89, -0.6 67.72, 0 0" stroke="#1e1e1e" stroke-width="2" fill="none"></path></g><g stroke-linecap="round"><g transform="translate(13.50000000000017 808.9999999999993) rotate(0 84.57142857142856 -0.5)"><path d="M0 0 C43.12 1.14, 86.9 -0.44, 169.14 -1 M0 0 C48.37 0.89, 96.49 0.06, 169.14 -1" stroke="#1e1e1e" stroke-width="2" fill="none"></path></g></g><mask></mask><g transform="translate(17.88095238095258 779.3333333333326) rotate(0 79.19991302490234 12.5)"><text x="0" y="0" font-family="Virgil, Segoe UI Emoji" font-size="20px" fill="#1e1e1e" text-anchor="start" style="white-space: pre;" direction="ltr" dominant-baseline="text-before-edge">Medicine Details</text></g><g stroke-linecap="round"><g transform="translate(14.50000000000017 835.571428571428) rotate(0 85.07142857142856 -0.5)"><path d="M0 0 C43.78 -1.47, 89.17 -1.88, 170.14 -1 M0 0 C34.88 -0.52, 72.01 0.47, 170.14 -1" stroke="#1e1e1e" stroke-width="2" fill="none"></path></g></g><mask></mask><g stroke-linecap="round"><g transform="translate(12.50000000000017 862.9999999999993) rotate(0 85.78571428571428 -1.2142857142856656)"><path d="M0 0 C44.06 -0.08, 88.54 -2.26, 171.57 -2.43 M0 0 C44.56 1.34, 91.18 -0.08, 171.57 -2.43" stroke="#1e1e1e" stroke-width="2" fill="none"></path></g></g><mask></mask><g stroke-linecap="round"><g transform="translate(11.071428571428612 897.2857142857135) rotate(0 84.35714285714289 -1.2142857142856656)"><path d="M0 0 C68.2 -1.77, 134.16 -2.17, 168.71 -2.43 M0 0 C39.68 -2.09, 80.12 -1.65, 168.71 -2.43" stroke="#1e1e1e" stroke-width="2" fill="none"></path></g></g><mask></mask><g transform="translate(55.21428571428595 812.4999999999993) rotate(0 18.512039184570312 10)"><text x="0" y="0" font-family="Virgil, Segoe UI Emoji" font-size="16px" fill="#1e1e1e" text-anchor="start" style="white-space: pre;" direction="ltr" dominant-baseline="text-before-edge">name</text></g><g transform="translate(36.9285714285715 841.071428571428) rotate(0 40.86408996582031 10)"><text x="0" y="0" font-family="Virgil, Segoe UI Emoji" font-size="16px" fill="#1e1e1e" text-anchor="start" style="white-space: pre;" direction="ltr" dominant-baseline="text-before-edge">description</text></g><g transform="translate(30.92857142857173 870.4999999999993) rotate(0 45.448097229003906 10)"><text x="0" y="0" font-family="Virgil, Segoe UI Emoji" font-size="16px" fill="#1e1e1e" text-anchor="start" style="white-space: pre;" direction="ltr" dominant-baseline="text-before-edge">sideEffects</text></g><g stroke-linecap="round" transform="translate(257.02380952380986 713.238095238095) rotate(0 106.07142857142861 72.78571428571445)"><path d="M0 0 C59.51 -2.91, 119.06 -2.59, 212.14 0 M0 0 C71.24 0.91, 143.65 1.93, 212.14 0 M212.14 0 C213.42 37.16, 212.71 75.71, 212.14 145.57 M212.14 0 C211.6 57.73, 211.48 115.17, 212.14 145.57 M212.14 145.57 C134.75 143.32, 61.29 145.47, 0 145.57 M212.14 145.57 C130.43 146.45, 48.71 145.65, 0 145.57 M0 145.57 C0.6 107.39, -0.7 68.7, 0 0 M0 145.57 C2.26 112.62, 2.25 78.25, 0 0" stroke="#1e1e1e" stroke-width="2" fill="none"></path></g><g stroke-linecap="round"><g transform="translate(258.02380952380986 745.6666666666663) rotate(0 105.28571428571433 0.9285714285714448)"><path d="M0 0 C67.48 0.42, 136.9 2.15, 210.57 1.86 M0 0 C68.79 1.85, 138.83 2.17, 210.57 1.86" stroke="#1e1e1e" stroke-width="2" fill="none"></path></g></g><mask></mask><g transform="translate(317.02380952380986 717.6666666666663) rotate(0 38.359962463378906 12.5)"><text x="0" y="0" font-family="Virgil, Segoe UI Emoji" font-size="20px" fill="#1e1e1e" text-anchor="start" style="white-space: pre;" direction="ltr" dominant-baseline="text-before-edge">Medicine</text></g><g stroke-linecap="round"><g transform="translate(259.02380952380986 773.6666666666663) rotate(0 104.35714285714289 -0.5)"><path d="M0 0 C58.5 0.86, 120.1 -1.18, 208.71 -1 M0 0 C48.67 -0.45, 96.6 -0.45, 208.71 -1" stroke="#1e1e1e" stroke-width="2" fill="none"></path></g></g><mask></mask><g stroke-linecap="round"><g transform="translate(257.02380952380986 799.6666666666663) rotate(0 104.35714285714289 -1.2142857142856656)"><path d="M0 0 C44.06 1.36, 85.68 -0.89, 208.71 -2.43 M0 0 C57.13 -1.48, 114.85 -3.1, 208.71 -2.43" stroke="#1e1e1e" stroke-width="2" fill="none"></path></g></g><mask></mask><g stroke-linecap="round"><g transform="translate(259.88095238095275 829.6666666666663) rotate(0 104.35714285714289 -1.2142857142856656)"><path d="M0 0 C67.08 -0.44, 132.29 -3.96, 208.71 -2.43 M0 0 C56.16 1.29, 112.71 0.55, 208.71 -2.43" stroke="#1e1e1e" stroke-width="2" fill="none"></path></g></g><mask></mask><g transform="translate(322.5952380952385 750.5952380952376) rotate(0 43.752098083496094 10)"><text x="0" y="0" font-family="Virgil, Segoe UI Emoji" font-size="16px" fill="#1e1e1e" text-anchor="start" style="white-space: pre;" direction="ltr" dominant-baseline="text-before-edge">pharmacyId</text></g><g transform="translate(317.1666666666672 776.3095238095236) rotate(0 48.44810485839844 10)"><text x="0" y="0" font-family="Virgil, Segoe UI Emoji" font-size="16px" fill="#1e1e1e" text-anchor="start" style="white-space: pre;" direction="ltr" dominant-baseline="text-before-edge">medicationId</text></g><g transform="translate(324.02380952380986 807.1666666666663) rotate(0 41.040077209472656 10)"><text x="0" y="0" font-family="Virgil, Segoe UI Emoji" font-size="16px" fill="#1e1e1e" text-anchor="start" style="white-space: pre;" direction="ltr" dominant-baseline="text-before-edge">stockLevel</text></g><g transform="translate(341.16666666666674 835.380952380953) rotate(0 17.528038024902344 10)"><text x="0" y="0" font-family="Virgil, Segoe UI Emoji" font-size="16px" fill="#1e1e1e" text-anchor="start" style="white-space: pre;" direction="ltr" dominant-baseline="text-before-edge">price</text></g><g stroke-linecap="round" transform="translate(258.4523809523813 961.8095238095241) rotate(0 106.07142857142861 44.21428571428578)"><path d="M0 0 C55.92 2.02, 108.27 1.73, 212.14 0 M0 0 C44.04 -0.42, 86.54 0.1, 212.14 0 M212.14 0 C212.85 26.69, 212.08 56.45, 212.14 88.43 M212.14 0 C210.88 29.92, 210.98 60.15, 212.14 88.43 M212.14 88.43 C146.87 88.71, 78.89 89.79, 0 88.43 M212.14 88.43 C151.52 87.23, 92.26 88.15, 0 88.43 M0 88.43 C-0.34 55.54, -1.09 23.39, 0 0 M0 88.43 C-1.24 55.94, -0.31 24.53, 0 0" stroke="#1e1e1e" stroke-width="2" fill="none"></path></g><g stroke-linecap="round"><g transform="translate(259.4523809523813 994.2380952380954) rotate(0 105.28571428571433 0.9285714285714448)"><path d="M0 0 C53.81 -1.75, 106.04 -2.28, 210.57 1.86 M0 0 C68.92 -1, 138.69 -0.06, 210.57 1.86" stroke="#1e1e1e" stroke-width="2" fill="none"></path></g></g><mask></mask><g transform="translate(272.7380952380955 966.2380952380954) rotate(0 90.89990997314453 12.5)"><text x="0" y="0" font-family="Virgil, Segoe UI Emoji" font-size="20px" fill="#1e1e1e" text-anchor="start" style="white-space: pre;" direction="ltr" dominant-baseline="text-before-edge">PharmacyInventory</text></g><g stroke-linecap="round"><g transform="translate(260.4523809523813 1022.2380952380954) rotate(0 104.35714285714289 -0.5)"><path d="M0 0 C80.64 -1.35, 159.79 0.06, 208.71 -1 M0 0 C79.28 0.11, 158.17 0.34, 208.71 -1" stroke="#1e1e1e" stroke-width="2" fill="none"></path></g></g><mask></mask><g transform="translate(324.02380952381 999.1666666666667) rotate(0 43.752098083496094 10)"><text x="0" y="0" font-family="Virgil, Segoe UI Emoji" font-size="16px" fill="#1e1e1e" text-anchor="start" style="white-space: pre;" direction="ltr" dominant-baseline="text-before-edge">pharmacyId</text></g><g transform="translate(318.59523809523864 1024.8809523809527) rotate(0 48.44810485839844 10)"><text x="0" y="0" font-family="Virgil, Segoe UI Emoji" font-size="16px" fill="#1e1e1e" text-anchor="start" style="white-space: pre;" direction="ltr" dominant-baseline="text-before-edge">medicationId</text></g><g stroke-linecap="round" transform="translate(623.75 31.03571428571422) rotate(0 106.07142857142861 89.4523809523809)"><path d="M0 0 C53.52 -0.37, 105.61 0.03, 212.14 0 M0 0 C63.94 2.41, 129.07 1.95, 212.14 0 M212.14 0 C212.59 62.24, 213.13 124.25, 212.14 178.9 M212.14 0 C211.3 58.76, 210.76 115.95, 212.14 178.9 M212.14 178.9 C148.77 176.55, 85.73 179.28, 0 178.9 M212.14 178.9 C139.12 179.77, 67.74 179.88, 0 178.9 M0 178.9 C3.15 142.05, 1.77 104.84, 0 0 M0 178.9 C-1.46 141.05, -1.67 103.09, 0 0" stroke="#1e1e1e" stroke-width="2" fill="none"></path></g><g stroke-linecap="round"><g transform="translate(624.75 63.46428571428555) rotate(0 105.28571428571433 0.9285714285714448)"><path d="M0 0 C55.1 -0.06, 111.52 0.09, 210.57 1.86 M0 0 C56.71 1.78, 112.23 3.03, 210.57 1.86" stroke="#1e1e1e" stroke-width="2" fill="none"></path></g></g><mask></mask><g transform="translate(649.4166666666666 35.46428571428555) rotate(0 83.19991302490234 12.5)"><text x="0" y="0" font-family="Virgil, Segoe UI Emoji" font-size="20px" fill="#1e1e1e" text-anchor="start" style="white-space: pre;" direction="ltr" dominant-baseline="text-before-edge">MedicationOrders</text></g><g stroke-linecap="round"><g transform="translate(625.75 91.46428571428555) rotate(0 104.35714285714289 -0.5)"><path d="M0 0 C73.22 -0.73, 146.87 -2.77, 208.71 -1 M0 0 C45.05 0.88, 90.04 0.24, 208.71 -1" stroke="#1e1e1e" stroke-width="2" fill="none"></path></g></g><mask></mask><g stroke-linecap="round"><g transform="translate(623.75 117.46428571428555) rotate(0 104.35714285714289 -1.2142857142856656)"><path d="M0 0 C51.89 -0.66, 102.01 -2.17, 208.71 -2.43 M0 0 C80.41 -1.03, 159.93 -2.61, 208.71 -2.43" stroke="#1e1e1e" stroke-width="2" fill="none"></path></g></g><mask></mask><g stroke-linecap="round"><g transform="translate(626.6071428571429 147.46428571428555) rotate(0 104.35714285714289 -1.2142857142856656)"><path d="M0 0 C67.22 -2.48, 134.13 -0.2, 208.71 -2.43 M0 0 C55.86 -1.56, 110.62 -2.5, 208.71 -2.43" stroke="#1e1e1e" stroke-width="2" fill="none"></path></g></g><mask></mask><g stroke-linecap="round"><g transform="translate(624.9404761904763 177.46428571428555) rotate(0 104.35714285714289 -1.2142857142856656)"><path d="M0 0 C79.81 0.77, 157.79 -0.56, 208.71 -2.43 M0 0 C82.42 -1.44, 166.31 -3.58, 208.71 -2.43" stroke="#1e1e1e" stroke-width="2" fill="none"></path></g></g><mask></mask><g transform="translate(689.3214285714287 68.39285714285688) rotate(0 37.09608459472656 10)"><text x="0" y="0" font-family="Virgil, Segoe UI Emoji" font-size="16px" fill="#1e1e1e" text-anchor="start" style="white-space: pre;" direction="ltr" dominant-baseline="text-before-edge">patientId</text></g><g transform="translate(683.8928571428573 94.10714285714289) rotate(0 43.752098083496094 10)"><text x="0" y="0" font-family="Virgil, Segoe UI Emoji" font-size="16px" fill="#1e1e1e" text-anchor="start" style="white-space: pre;" direction="ltr" dominant-baseline="text-before-edge">pharmacyId</text></g><g transform="translate(679.0833333333334 123.29761904761881) rotate(0 52.608116149902344 10)"><text x="0" y="0" font-family="Virgil, Segoe UI Emoji" font-size="16px" fill="#1e1e1e" text-anchor="start" style="white-space: pre;" direction="ltr" dominant-baseline="text-before-edge">prescriptionId</text></g><g transform="translate(692.8928571428569 154.6071428571438) rotate(0 40.71208953857422 10)"><text x="0" y="0" font-family="Virgil, Segoe UI Emoji" font-size="16px" fill="#1e1e1e" text-anchor="start" style="white-space: pre;" direction="ltr" dominant-baseline="text-before-edge">orderDate</text></g><g transform="translate(697.892857142857 187.94047619047728) rotate(0 27.608062744140625 10)"><text x="0" y="0" font-family="Virgil, Segoe UI Emoji" font-size="16px" fill="#1e1e1e" text-anchor="start" style="white-space: pre;" direction="ltr" dominant-baseline="text-before-edge">status</text></g><g stroke-linecap="round" transform="translate(10 353.5357142857142) rotate(0 106.07142857142861 74.4523809523809)"><path d="M0 0 C49.11 -0.33, 101.13 -0.4, 212.14 0 M0 0 C49.5 -1.7, 100.22 -1.56, 212.14 0 M212.14 0 C213.75 45.77, 213.83 88.25, 212.14 148.9 M212.14 0 C210.93 32.42, 211.15 63.79, 212.14 148.9 M212.14 148.9 C158.76 148.91, 106.07 148.58, 0 148.9 M212.14 148.9 C131.95 149.16, 54.24 148.48, 0 148.9 M0 148.9 C-0.14 117.75, -2.42 87, 0 0 M0 148.9 C-2.11 89.07, -1.86 30.49, 0 0" stroke="#1e1e1e" stroke-width="2" fill="none"></path></g><g stroke-linecap="round"><g transform="translate(11 385.96428571428555) rotate(0 105.28571428571433 0.9285714285714448)"><path d="M0 0 C82.54 2.01, 163.84 2.13, 210.57 1.86 M0 0 C80.6 2.01, 161.18 2.99, 210.57 1.86" stroke="#1e1e1e" stroke-width="2" fill="none"></path></g></g><mask></mask><g transform="translate(35.66666666666663 357.96428571428555) rotate(0 76.05992126464844 12.5)"><text x="0" y="0" font-family="Virgil, Segoe UI Emoji" font-size="20px" fill="#1e1e1e" text-anchor="start" style="white-space: pre;" direction="ltr" dominant-baseline="text-before-edge">SymptomChecker</text></g><g stroke-linecap="round"><g transform="translate(12 413.96428571428555) rotate(0 104.35714285714289 -0.5)"><path d="M0 0 C43.39 -0.78, 86 1.87, 208.71 -1 M0 0 C45.18 0.35, 90.55 -0.35, 208.71 -1" stroke="#1e1e1e" stroke-width="2" fill="none"></path></g></g><mask></mask><g stroke-linecap="round"><g transform="translate(10 439.96428571428555) rotate(0 104.35714285714289 -1.2142857142856656)"><path d="M0 0 C75.42 -0.61, 154.81 -4.45, 208.71 -2.43 M0 0 C65.7 -0.59, 130.91 -1.9, 208.71 -2.43" stroke="#1e1e1e" stroke-width="2" fill="none"></path></g></g><mask></mask><g stroke-linecap="round"><g transform="translate(12.85714285714289 469.96428571428555) rotate(0 104.35714285714289 -1.2142857142856656)"><path d="M0 0 C57.9 2.24, 111.4 0.11, 208.71 -2.43 M0 0 C56.89 -1.13, 112.52 -0.76, 208.71 -2.43" stroke="#1e1e1e" stroke-width="2" fill="none"></path></g></g><mask></mask><g transform="translate(75.57142857142867 390.8928571428569) rotate(0 37.09608459472656 10)"><text x="0" y="0" font-family="Virgil, Segoe UI Emoji" font-size="16px" fill="#1e1e1e" text-anchor="start" style="white-space: pre;" direction="ltr" dominant-baseline="text-before-edge">patientId</text></g><g transform="translate(76.39285714285734 417.6071428571429) rotate(0 35.464073181152344 10)"><text x="0" y="0" font-family="Virgil, Segoe UI Emoji" font-size="16px" fill="#1e1e1e" text-anchor="start" style="white-space: pre;" direction="ltr" dominant-baseline="text-before-edge">symptoms</text></g><g transform="translate(65.33333333333337 445.7976190476188) rotate(0 51.78411102294922 10)"><text x="0" y="0" font-family="Virgil, Segoe UI Emoji" font-size="16px" fill="#1e1e1e" text-anchor="start" style="white-space: pre;" direction="ltr" dominant-baseline="text-before-edge">aiAssessment</text></g><g transform="translate(79.14285714285688 477.1071428571438) rotate(0 36.4080810546875 10)"><text x="0" y="0" font-family="Virgil, Segoe UI Emoji" font-size="16px" fill="#1e1e1e" text-anchor="start" style="white-space: pre;" direction="ltr" dominant-baseline="text-before-edge">dateTime</text></g><g stroke-linecap="round" transform="translate(908.8809523809526 881.9999999999993) rotate(0 62.5 58.5)"><path d="M0 0 C35.91 -2.07, 71.25 0.49, 125 0 M0 0 C32.68 -0.73, 67.08 -0.83, 125 0 M125 0 C127.18 39.5, 125.36 77.97, 125 117 M125 0 C124.58 39.28, 124.68 76.13, 125 117 M125 117 C76.06 115.93, 27.06 115.5, 0 117 M125 117 C81.22 117.05, 37.32 117.72, 0 117 M0 117 C0.13 83.44, 0.14 49.42, 0 0 M0 117 C-0.84 89.02, -0.45 62.05, 0 0" stroke="#1e1e1e" stroke-width="2" fill="none"></path></g><g stroke-linecap="round"><g transform="translate(909.8809523809526 912.9999999999993) rotate(0 61 -0.5)"><path d="M0 0 C29.42 0.31, 63.27 -1.7, 122 -1 M0 0 C28.92 1.08, 58.24 0.4, 122 -1" stroke="#1e1e1e" stroke-width="2" fill="none"></path></g></g><mask></mask><g transform="translate(927.8809523809526 884.9999999999993) rotate(0 33.489967346191406 12.5)"><text x="0" y="0" font-family="Virgil, Segoe UI Emoji" font-size="20px" fill="#1e1e1e" text-anchor="start" style="white-space: pre;" direction="ltr" dominant-baseline="text-before-edge">Gneder</text></g><g stroke-linecap="round"><g transform="translate(910.8809523809526 940.9999999999993) rotate(0 61.5 -0.5)"><path d="M0 0 C42.6 -1.68, 82.66 -1, 123 -1 M0 0 C29.92 -0.84, 61.42 -1.7, 123 -1" stroke="#1e1e1e" stroke-width="2" fill="none"></path></g></g><mask></mask><g stroke-linecap="round"><g transform="translate(908.8809523809526 966.9999999999993) rotate(0 61.5 -0.5)"><path d="M0 0 C24.69 -1.8, 51.1 -1.87, 123 -1 M0 0 C30.8 0.85, 60.74 1.16, 123 -1" stroke="#1e1e1e" stroke-width="2" fill="none"></path></g></g><mask></mask><g transform="translate(949.8809523809526 917.4999999999993) rotate(0 17.94403839111328 10)"><text x="0" y="0" font-family="Virgil, Segoe UI Emoji" font-size="16px" fill="#1e1e1e" text-anchor="start" style="white-space: pre;" direction="ltr" dominant-baseline="text-before-edge">Male</text></g><g transform="translate(941.8809523809526 946.4999999999993) rotate(0 25.848052978515625 10)"><text x="0" y="0" font-family="Virgil, Segoe UI Emoji" font-size="16px" fill="#1e1e1e" text-anchor="start" style="white-space: pre;" direction="ltr" dominant-baseline="text-before-edge">Female</text></g><g transform="translate(948.8809523809526 974.4999999999993) rotate(0 22.096054077148438 10)"><text x="0" y="0" font-family="Virgil, Segoe UI Emoji" font-size="16px" fill="#1e1e1e" text-anchor="start" style="white-space: pre;" direction="ltr" dominant-baseline="text-before-edge">Other</text></g><g stroke-linecap="round" transform="translate(29.13095238095275 629.9999999999995) rotate(0 62.5 58.5)"><path d="M0 0 C50.86 -0.16, 96.56 -0.38, 125 0 M0 0 C32.48 -0.23, 64.71 -1.19, 125 0 M125 0 C123.06 32.3, 125.74 62.74, 125 117 M125 0 C126.2 38.6, 126.6 75.16, 125 117 M125 117 C88.57 117.89, 50.87 118.15, 0 117 M125 117 C90.78 117.46, 54.65 117.4, 0 117 M0 117 C-1.34 73.95, 0.14 29.99, 0 0 M0 117 C0.35 92.71, -1.35 69.48, 0 0" stroke="#1e1e1e" stroke-width="2" fill="none"></path></g><g stroke-linecap="round"><g transform="translate(30.13095238095275 660.9999999999995) rotate(0 61 -0.5)"><path d="M0 0 C45.37 -3.22, 90.2 -2.53, 122 -1 M0 0 C25.98 -0.6, 50.5 -0.48, 122 -1" stroke="#1e1e1e" stroke-width="2" fill="none"></path></g></g><mask></mask><g transform="translate(56.13095238095275 632.9999999999995) rotate(0 35.15995788574219 12.5)"><text x="0" y="0" font-family="Virgil, Segoe UI Emoji" font-size="20px" fill="#1e1e1e" text-anchor="start" style="white-space: pre;" direction="ltr" dominant-baseline="text-before-edge">Status</text></g><g stroke-linecap="round"><g transform="translate(31.13095238095275 688.9999999999995) rotate(0 61.5 -0.5)"><path d="M0 0 C47.23 -0.03, 92.48 1.54, 123 -1 M0 0 C34.31 0.19, 69.43 0.85, 123 -1" stroke="#1e1e1e" stroke-width="2" fill="none"></path></g></g><mask></mask><g stroke-linecap="round"><g transform="translate(29.13095238095275 714.9999999999995) rotate(0 61.5 -0.5)"><path d="M0 0 C38.03 -2.19, 78.78 -1.02, 123 -1 M0 0 C42.88 0.1, 86.96 -1.04, 123 -1" stroke="#1e1e1e" stroke-width="2" fill="none"></path></g></g><mask></mask><g transform="translate(57.13095238095275 665.4999999999995) rotate(0 37.33607482910156 10)"><text x="0" y="0" font-family="Virgil, Segoe UI Emoji" font-size="16px" fill="#1e1e1e" text-anchor="start" style="white-space: pre;" direction="ltr" dominant-baseline="text-before-edge">Scheduled</text></g><g transform="translate(57.13095238095275 692.4999999999995) rotate(0 38.52007293701172 10)"><text x="0" y="0" font-family="Virgil, Segoe UI Emoji" font-size="16px" fill="#1e1e1e" text-anchor="start" style="white-space: pre;" direction="ltr" dominant-baseline="text-before-edge">Completed</text></g><g transform="translate(60.13095238095275 724.4999999999995) rotate(0 35.75206756591797 10)"><text x="0" y="0" font-family="Virgil, Segoe UI Emoji" font-size="16px" fill="#1e1e1e" text-anchor="start" style="white-space: pre;" direction="ltr" dominant-baseline="text-before-edge">Cancelled</text></g><g stroke-linecap="round" transform="translate(372.8809523809526 10) rotate(0 62.50000000000003 58.5)"><path d="M0 0 C30.14 -0.66, 61.32 -0.44, 125 0 M0 0 C43.61 -0.86, 86.28 -0.86, 125 0 M125 0 C126.17 28.79, 125.67 59.91, 125 117 M125 0 C125.1 42.07, 125.1 83.53, 125 117 M125 117 C88.44 119.06, 55.43 118.77, 0 117 M125 117 C97.86 117.79, 72.38 118.06, 0 117 M0 117 C-1.33 77.99, 1.32 43.17, 0 0 M0 117 C0.09 87.62, -0.89 58.92, 0 0" stroke="#1e1e1e" stroke-width="2" fill="none"></path></g><g stroke-linecap="round"><g transform="translate(373.8809523809526 41) rotate(0 61.00000000000003 -0.5)"><path d="M0 0 C41.87 0.21, 83.99 0.36, 122 -1 M0 0 C35.6 -0.57, 71.34 -2.1, 122 -1" stroke="#1e1e1e" stroke-width="2" fill="none"></path></g></g><mask></mask><g transform="translate(399.8809523809526 13) rotate(0 35.159957885742216 12.5)"><text x="0" y="0" font-family="Virgil, Segoe UI Emoji" font-size="20px" fill="#1e1e1e" text-anchor="start" style="white-space: pre;" direction="ltr" dominant-baseline="text-before-edge">Status</text></g><g stroke-linecap="round"><g transform="translate(374.8809523809526 69) rotate(0 61.50000000000003 -0.5)"><path d="M0 0 C34.98 0.34, 69.46 0.37, 123 -1 M0 0 C47.1 -1.79, 95.18 -2.44, 123 -1" stroke="#1e1e1e" stroke-width="2" fill="none"></path></g></g><mask></mask><g stroke-linecap="round"><g transform="translate(372.8809523809526 95) rotate(0 61.50000000000003 -0.5)"><path d="M0 0 C37.55 -0.55, 74.57 0.97, 123 -1 M0 0 C34.66 0.59, 69.55 -0.22, 123 -1" stroke="#1e1e1e" stroke-width="2" fill="none"></path></g></g><mask></mask><g transform="translate(400.8809523809526 45.5) rotate(0 27.44805908203128 10)"><text x="0" y="0" font-family="Virgil, Segoe UI Emoji" font-size="16px" fill="#1e1e1e" text-anchor="start" style="white-space: pre;" direction="ltr" dominant-baseline="text-before-edge">Pending</text></g><g transform="translate(400.8809523809526 72.5) rotate(0 38.52007293701175 10)"><text x="0" y="0" font-family="Virgil, Segoe UI Emoji" font-size="16px" fill="#1e1e1e" text-anchor="start" style="white-space: pre;" direction="ltr" dominant-baseline="text-before-edge">Completed</text></g><g transform="translate(403.8809523809526 104.5) rotate(0 35.752067565918 10)"><text x="0" y="0" font-family="Virgil, Segoe UI Emoji" font-size="16px" fill="#1e1e1e" text-anchor="start" style="white-space: pre;" direction="ltr" dominant-baseline="text-before-edge">Cancelled</text></g><g stroke-linecap="round"><g transform="translate(726.60959046702 578.350456470827) rotate(0 95.8499666712521 -2.6190409530081524)"><path d="M0 0 C52.7 -3.55, 108.32 -5.23, 191.7 -5.24 M0 0 C62.08 -0.4, 122.77 -1.78, 191.7 -5.24" stroke="#1e1e1e" stroke-width="2" fill="none"></path></g><g transform="translate(726.60959046702 578.350456470827) rotate(0 95.8499666712521 -2.6190409530081524)"><path d="M168.6 4.31 C174.52 0.54, 183.35 -2.34, 191.7 -5.24 M168.6 4.31 C176.62 1.81, 183.25 -0.95, 191.7 -5.24" stroke="#1e1e1e" stroke-width="2" fill="none"></path></g><g transform="translate(726.60959046702 578.350456470827) rotate(0 95.8499666712521 -2.6190409530081524)"><path d="M167.86 -12.77 C173.94 -11.81, 182.97 -9.94, 191.7 -5.24 M167.86 -12.77 C176.1 -9.79, 182.96 -7.07, 191.7 -5.24" stroke="#1e1e1e" stroke-width="2" fill="none"></path></g></g><mask></mask><g stroke-linecap="round"><g transform="translate(728.8809523809526 898.9999825595141) rotate(0 88.5 0.000005381034043239197)"><path d="M0 0 C46.74 0.61, 94.09 -2.4, 177 0 M0 0 C62.81 -2.23, 125.95 -2.59, 177 0" stroke="#1e1e1e" stroke-width="2" fill="none"></path></g><g transform="translate(728.8809523809526 898.9999825595141) rotate(0 88.5 0.000005381034043239197)"><path d="M153.25 7.79 C159.42 7.47, 166.29 2.4, 177 0 M153.25 7.79 C161.94 4.23, 170.97 1.11, 177 0" stroke="#1e1e1e" stroke-width="2" fill="none"></path></g><g transform="translate(728.8809523809526 898.9999825595141) rotate(0 88.5 0.000005381034043239197)"><path d="M153.79 -9.3 C159.98 -5.1, 166.7 -5.66, 177 0 M153.79 -9.3 C162.33 -6.83, 171.17 -3.91, 177 0" stroke="#1e1e1e" stroke-width="2" fill="none"></path></g></g><mask></mask><g stroke-linecap="round"><g transform="translate(310.88095238095264 649.2699988532532) rotate(0 -74.6734959422418 -0.16517378966608476)"><path d="M0 0 C-53.98 -1.04, -109.26 1.99, -149.35 -0.33 M0 0 C-47.23 0.53, -95.42 1.27, -149.35 -0.33" stroke="#1e1e1e" stroke-width="2" fill="none"></path></g><g transform="translate(310.88095238095264 649.2699988532532) rotate(0 -74.6734959422418 -0.16517378966608476)"><path d="M-125.7 -8.44 C-133.58 -6.6, -142.68 -0.47, -149.35 -0.33 M-125.7 -8.44 C-132.8 -6.18, -140.87 -2.75, -149.35 -0.33" stroke="#1e1e1e" stroke-width="2" fill="none"></path></g><g transform="translate(310.88095238095264 649.2699988532532) rotate(0 -74.6734959422418 -0.16517378966608476)"><path d="M-126.02 8.66 C-133.63 4.22, -142.61 4.07, -149.35 -0.33 M-126.02 8.66 C-133.02 5.46, -141 3.43, -149.35 -0.33" stroke="#1e1e1e" stroke-width="2" fill="none"></path></g></g><mask></mask><g stroke-linecap="round"><g transform="translate(622.1309523809524 176.37904692769348) rotate(0 -61.62499999999983 -66.74031527546737)"><path d="M0 0 C-28.11 -29.28, -54.51 -58.78, -123.25 -133.48 M0 0 C-36 -39.61, -71.65 -77.9, -123.25 -133.48" stroke="#1e1e1e" stroke-width="2" fill="none"></path></g><g transform="translate(622.1309523809524 176.37904692769348) rotate(0 -61.62499999999983 -66.74031527546737)"><path d="M-101 -122.08 C-106.17 -123.59, -109.86 -125.63, -123.25 -133.48 M-101 -122.08 C-108.32 -125.84, -114.23 -128.19, -123.25 -133.48" stroke="#1e1e1e" stroke-width="2" fill="none"></path></g><g transform="translate(622.1309523809524 176.37904692769348) rotate(0 -61.62499999999983 -66.74031527546737)"><path d="M-113.53 -110.45 C-115.9 -114.54, -116.77 -119.19, -123.25 -133.48 M-113.53 -110.45 C-117.06 -117.64, -119.28 -123.41, -123.25 -133.48" stroke="#1e1e1e" stroke-width="2" fill="none"></path></g></g><mask></mask><g stroke-linecap="round"><g transform="translate(663.9017244312157 610.4285714285708) rotate(0 -0.5199540228386468 63.78571428571428)"><path d="M0 0 C1.77 40.67, 0.98 82.26, -1.04 127.57 M0 0 C-1.04 47.82, 0.2 97.01, -1.04 127.57" stroke="#1e1e1e" stroke-width="2" fill="none"></path></g><g transform="translate(663.9017244312157 610.4285714285708) rotate(0 -0.5199540228386468 63.78571428571428)"><path d="M-9.17 103.93 C-4.8 111.09, -2.64 119.23, -1.04 127.57 M-9.17 103.93 C-6.79 112.17, -2.05 121.7, -1.04 127.57" stroke="#1e1e1e" stroke-width="2" fill="none"></path></g><g transform="translate(663.9017244312157 610.4285714285708) rotate(0 -0.5199540228386468 63.78571428571428)"><path d="M7.93 104.24 C6.79 111.4, 3.45 119.44, -1.04 127.57 M7.93 104.24 C3.78 112.24, 2 121.66, -1.04 127.57" stroke="#1e1e1e" stroke-width="2" fill="none"></path></g></g><mask></mask><g transform="translate(791.8809523809526 877.9999999999993) rotate(0 22.384048461914062 10)"><text x="0" y="0" font-family="Virgil, Segoe UI Emoji" font-size="16px" fill="#1e1e1e" text-anchor="start" style="white-space: pre;" direction="ltr" dominant-baseline="text-before-edge">ENUM</text></g><g transform="translate(234.13095238095264 628.9999999999995) rotate(0 22.384048461914062 10)"><text x="0" y="0" font-family="Virgil, Segoe UI Emoji" font-size="16px" fill="#1e1e1e" text-anchor="start" style="white-space: pre;" direction="ltr" dominant-baseline="text-before-edge">ENUM</text></g><g transform="translate(537.8809523809524 80.25) rotate(49.0450011600557 22.384048461914062 10)"><text x="0" y="0" font-family="Virgil, Segoe UI Emoji" font-size="16px" fill="#1e1e1e" text-anchor="start" style="white-space: pre;" direction="ltr" dominant-baseline="text-before-edge">ENUM</text></g><g stroke-linecap="round"><g transform="translate(596.8809523809526 413.35426103540453) rotate(0 -69.82779669536012 38.72052279989873)"><path d="M0 0 C-46.74 26.38, -97.17 52.23, -139.66 77.44 M0 0 C-42.24 22.71, -85.26 47.23, -139.66 77.44" stroke="#1e1e1e" stroke-width="2" fill="none"></path></g><g transform="translate(596.8809523809526 413.35426103540453) rotate(0 -69.82779669536012 38.72052279989873)"><path d="M-123.31 58.53 C-127.21 65.28, -134.32 70.56, -139.66 77.44 M-123.31 58.53 C-127.72 63.92, -133.11 70.59, -139.66 77.44" stroke="#1e1e1e" stroke-width="2" fill="none"></path></g><g transform="translate(596.8809523809526 413.35426103540453) rotate(0 -69.82779669536012 38.72052279989873)"><path d="M-114.97 73.46 C-121.94 74.9, -131.97 74.93, -139.66 77.44 M-114.97 73.46 C-121.87 74.26, -129.81 76.37, -139.66 77.44" stroke="#1e1e1e" stroke-width="2" fill="none"></path></g></g><mask></mask><g stroke-linecap="round"><g transform="translate(725.4523809523813 404.4018521026753) rotate(0 86.42857142857144 -40.41396895659352)"><path d="M0 0 C36.82 -13.98, 71.59 -30.9, 172.86 -80.83 M0 0 C63.28 -27.3, 127.24 -57.97, 172.86 -80.83" stroke="#1e1e1e" stroke-width="2" fill="none"></path></g><g transform="translate(725.4523809523813 404.4018521026753) rotate(0 86.42857142857144 -40.41396895659352)"><path d="M155.55 -62.79 C159.53 -65.15, 161.9 -68.99, 172.86 -80.83 M155.55 -62.79 C162.21 -68.43, 169.05 -76.03, 172.86 -80.83" stroke="#1e1e1e" stroke-width="2" fill="none"></path></g><g transform="translate(725.4523809523813 404.4018521026753) rotate(0 86.42857142857144 -40.41396895659352)"><path d="M148 -78.13 C153.45 -77.23, 157.39 -77.87, 172.86 -80.83 M148 -78.13 C157.56 -78.07, 167.17 -80.04, 172.86 -80.83" stroke="#1e1e1e" stroke-width="2" fill="none"></path></g></g><mask></mask><g transform="translate(53.785714285714164 898.5714285714294) rotate(0 20.3680419921875 10)"><text x="0" y="0" font-family="Virgil, Segoe UI Emoji" font-size="16px" fill="#1e1e1e" text-anchor="start" style="white-space: pre;" direction="ltr" dominant-baseline="text-before-edge">group</text></g><g stroke-linecap="round"><g transform="translate(254.35714285714323 788.309084715996) rotate(0 -33.14527166457401 0.6736537797888786)"><path d="M0 0 C-16.71 1.05, -31.36 1.14, -66.29 1.35 M0 0 C-17.71 0.25, -35.45 1.49, -66.29 1.35" stroke="#1e1e1e" stroke-width="2" fill="none"></path></g><g transform="translate(254.35714285714323 788.309084715996) rotate(0 -33.14527166457401 0.6736537797888786)"><path d="M-42.86 -7.37 C-49.86 -4.62, -54.79 -2.86, -66.29 1.35 M-42.86 -7.37 C-49.27 -5.3, -55.68 -2.11, -66.29 1.35" stroke="#1e1e1e" stroke-width="2" fill="none"></path></g><g transform="translate(254.35714285714323 788.309084715996) rotate(0 -33.14527166457401 0.6736537797888786)"><path d="M-42.74 9.73 C-49.71 8.59, -54.67 6.47, -66.29 1.35 M-42.74 9.73 C-49.13 7.28, -55.58 5.96, -66.29 1.35" stroke="#1e1e1e" stroke-width="2" fill="none"></path></g></g><mask></mask><g stroke-linecap="round"><g transform="translate(601.3545836349982 603.8972655819227) rotate(0 -63.90019117393098 177.9114158317842)"><path d="M0 0 C-41.43 112.4, -81.72 226.17, -127.8 355.82 M0 0 C-30.1 89.25, -62.74 178.22, -127.8 355.82" stroke="#1e1e1e" stroke-width="2" fill="none"></path></g><g transform="translate(601.3545836349982 603.8972655819227) rotate(0 -63.90019117393098 177.9114158317842)"><path d="M-127.76 330.82 C-126.87 337.48, -126.6 347.23, -127.8 355.82 M-127.76 330.82 C-127.52 337.47, -128.26 342.63, -127.8 355.82" stroke="#1e1e1e" stroke-width="2" fill="none"></path></g><g transform="translate(601.3545836349982 603.8972655819227) rotate(0 -63.90019117393098 177.9114158317842)"><path d="M-111.7 336.7 C-115.85 341.6, -120.67 349.49, -127.8 355.82 M-111.7 336.7 C-115.56 341.74, -120.35 345.42, -127.8 355.82" stroke="#1e1e1e" stroke-width="2" fill="none"></path></g></g><mask></mask><g stroke-linecap="round"><g transform="translate(987.5521266699137 306.33333333333314) rotate(0 -74.77011095400445 -86.30161047801022)"><path d="M0 0 C-29.72 -32.57, -60.8 -68.14, -149.54 -172.6 M0 0 C-37.41 -41.11, -73.22 -83.86, -149.54 -172.6" stroke="#1e1e1e" stroke-width="2" fill="none"></path></g><g transform="translate(987.5521266699137 306.33333333333314) rotate(0 -74.77011095400445 -86.30161047801022)"><path d="M-127.75 -160.34 C-130.71 -161.05, -136.35 -164.61, -149.54 -172.6 M-127.75 -160.34 C-133.8 -162.68, -138.64 -166.82, -149.54 -172.6" stroke="#1e1e1e" stroke-width="2" fill="none"></path></g><g transform="translate(987.5521266699137 306.33333333333314) rotate(0 -74.77011095400445 -86.30161047801022)"><path d="M-140.73 -149.21 C-141.16 -152.22, -144.19 -158.01, -149.54 -172.6 M-140.73 -149.21 C-143.69 -154.26, -145.39 -161.09, -149.54 -172.6" stroke="#1e1e1e" stroke-width="2" fill="none"></path></g></g><mask></mask><g stroke-linecap="round"><g transform="translate(653.0119047619047 390.08333333333314) rotate(0 14.375 -89.375)"><path d="M0 0 C11.75 -70.47, 23.62 -143.83, 28.75 -178.75 M0 0 C10.27 -56.02, 18.81 -111.37, 28.75 -178.75" stroke="#1e1e1e" stroke-width="2" fill="none"></path></g><g transform="translate(653.0119047619047 390.08333333333314) rotate(0 14.375 -89.375)"><path d="M33.72 -154.25 C31.97 -162.7, 30.36 -174.38, 28.75 -178.75 M33.72 -154.25 C32.29 -162.04, 30.29 -169.25, 28.75 -178.75" stroke="#1e1e1e" stroke-width="2" fill="none"></path></g><g transform="translate(653.0119047619047 390.08333333333314) rotate(0 14.375 -89.375)"><path d="M16.81 -156.78 C21.82 -164.39, 26.97 -175.06, 28.75 -178.75 M16.81 -156.78 C20.63 -163.83, 23.92 -170.25, 28.75 -178.75" stroke="#1e1e1e" stroke-width="2" fill="none"></path></g></g><mask></mask><g stroke-linecap="round"><g transform="translate(630.9036818886093 392.4015918541146) rotate(0 -65.1958885633523 -103.7583057062181)"><path d="M0 0 C-50.18 -79.19, -102.35 -160.23, -130.39 -207.52 M0 0 C-30.76 -51.34, -63.01 -102.52, -130.39 -207.52" stroke="#1e1e1e" stroke-width="2" fill="none"></path></g><g transform="translate(630.9036818886093 392.4015918541146) rotate(0 -65.1958885633523 -103.7583057062181)"><path d="M-110.53 -192.33 C-116.94 -197.24, -126.47 -203.6, -130.39 -207.52 M-110.53 -192.33 C-114.59 -196.13, -119.95 -200.48, -130.39 -207.52" stroke="#1e1e1e" stroke-width="2" fill="none"></path></g><g transform="translate(630.9036818886093 392.4015918541146) rotate(0 -65.1958885633523 -103.7583057062181)"><path d="M-124.94 -183.12 C-125.78 -191.7, -129.72 -201.65, -130.39 -207.52 M-124.94 -183.12 C-125.45 -189.07, -127.3 -195.66, -130.39 -207.52" stroke="#1e1e1e" stroke-width="2" fill="none"></path></g></g><mask></mask><g stroke-linecap="round"><g transform="translate(596.7619047619047 400.6202632445594) rotate(0 -186.25 -14.822802013872831)"><path d="M0 0 C-121.82 -7.95, -244.15 -19.09, -372.5 -29.65 M0 0 C-100.59 -6.63, -201.59 -14.31, -372.5 -29.65" stroke="#1e1e1e" stroke-width="2" fill="none"></path></g><g transform="translate(596.7619047619047 400.6202632445594) rotate(0 -186.25 -14.822802013872831)"><path d="M-348.35 -36.13 C-356.34 -33.14, -365.28 -33.42, -372.5 -29.65 M-348.35 -36.13 C-355.07 -34.18, -362.25 -31.9, -372.5 -29.65" stroke="#1e1e1e" stroke-width="2" fill="none"></path></g><g transform="translate(596.7619047619047 400.6202632445594) rotate(0 -186.25 -14.822802013872831)"><path d="M-349.84 -19.09 C-357.39 -21.68, -365.85 -27.52, -372.5 -29.65 M-349.84 -19.09 C-356.06 -21.75, -362.84 -24.07, -372.5 -29.65" stroke="#1e1e1e" stroke-width="2" fill="none"></path></g></g><mask></mask><g stroke-linecap="round"><g transform="translate(250.5119047619047 422.9707218101755) rotate(0 30 96.68130576157881)"><path d="M0 0 C0.01 52.92, 0.41 110.54, 1.25 192.11 M0 0 C2.28 74.65, 3.75 149.95, 1.25 192.11 M1.25 192.11 C23.55 191.89, 44.55 191.36, 60 193.36 M1.25 192.11 C18.39 192.22, 37.58 192.94, 60 193.36" stroke="#1e1e1e" stroke-width="2" fill="none"></path></g><g transform="translate(250.5119047619047 422.9707218101755) rotate(0 30 96.68130576157881)"><path d="M36.32 201.38 C43.79 197.7, 50.54 198.7, 60 193.36 M36.32 201.38 C45.47 197.64, 55.72 194.54, 60 193.36" stroke="#1e1e1e" stroke-width="2" fill="none"></path></g><g transform="translate(250.5119047619047 422.9707218101755) rotate(0 30 96.68130576157881)"><path d="M36.71 184.29 C43.97 185.44, 50.61 191.27, 60 193.36 M36.71 184.29 C45.86 187.24, 55.97 190.84, 60 193.36" stroke="#1e1e1e" stroke-width="2" fill="none"></path></g></g><mask></mask><g stroke-linecap="round"><g transform="translate(253.0119047619047 423.83333333333314) rotate(0 -14.375 -0.625)"><path d="M0 0 C-9.37 -1.26, -18.36 -0.23, -28.75 -1.25 M0 0 C-9.8 -0.19, -18.68 -1.29, -28.75 -1.25" stroke="#1e1e1e" stroke-width="2" fill="none"></path></g></g><mask></mask><g stroke-linecap="round"><g transform="translate(401.39312134693694 956.8809523809489) rotate(0 0.8853587990903975 -49.999999999999886)"><path d="M0 0 C0.17 -22.19, -0.13 -44.92, 1.77 -100 M0 0 C0.95 -27.83, 2.75 -56.33, 1.77 -100" stroke="#1e1e1e" stroke-width="2" fill="none"></path></g><g transform="translate(401.39312134693694 956.8809523809489) rotate(0 0.8853587990903975 -49.999999999999886)"><path d="M10.47 -76.56 C8.25 -81.93, 5.64 -87.74, 1.77 -100 M10.47 -76.56 C7.79 -83.01, 6.67 -90.09, 1.77 -100" stroke="#1e1e1e" stroke-width="2" fill="none"></path></g><g transform="translate(401.39312134693694 956.8809523809489) rotate(0 0.8853587990903975 -49.999999999999886)"><path d="M-6.63 -76.45 C-5.07 -81.69, -3.9 -87.53, 1.77 -100 M-6.63 -76.45 C-4.52 -82.88, -0.87 -89.99, 1.77 -100" stroke="#1e1e1e" stroke-width="2" fill="none"></path></g></g><mask></mask></svg>