<svg width="1363" height="297" viewBox="0 0 1363 297" fill="none" xmlns="http://www.w3.org/2000/svg">
<path d="M0 15C0 6.71573 6.71573 0 15 0H37V297H15C6.71573 297 0 290.284 0 282V15Z" fill="#0D4C92"/>
<path d="M37 0H1066V297H37V0Z" fill="#F0F0F0"/>
<path d="M97.6934 49.4062H102.158L108.732 68.1973L115.307 49.4062H119.771L110.525 75H106.939L97.6934 49.4062ZM95.2852 49.4062H99.7324L100.541 67.7227V75H95.2852V49.4062ZM117.732 49.4062H122.197V75H116.924V67.7227L117.732 49.4062ZM136.77 70.7109V62.2383C136.77 61.6289 136.67 61.1074 136.471 60.6738C136.271 60.2285 135.961 59.8828 135.539 59.6367C135.129 59.3906 134.596 59.2676 133.939 59.2676C133.377 59.2676 132.891 59.3672 132.48 59.5664C132.07 59.7539 131.754 60.0293 131.531 60.3926C131.309 60.7441 131.197 61.1602 131.197 61.6406H126.135C126.135 60.832 126.322 60.0645 126.697 59.3379C127.072 58.6113 127.617 57.9727 128.332 57.4219C129.047 56.8594 129.896 56.4199 130.881 56.1035C131.877 55.7871 132.99 55.6289 134.221 55.6289C135.697 55.6289 137.01 55.875 138.158 56.3672C139.307 56.8594 140.209 57.5977 140.865 58.582C141.533 59.5664 141.867 60.7969 141.867 62.2734V70.4121C141.867 71.4551 141.932 72.3105 142.061 72.9785C142.189 73.6348 142.377 74.209 142.623 74.7012V75H137.508C137.262 74.4844 137.074 73.8398 136.945 73.0664C136.828 72.2812 136.77 71.4961 136.77 70.7109ZM137.438 63.416L137.473 66.2812H134.643C133.975 66.2812 133.395 66.3574 132.902 66.5098C132.41 66.6621 132.006 66.8789 131.689 67.1602C131.373 67.4297 131.139 67.7461 130.986 68.1094C130.846 68.4727 130.775 68.8711 130.775 69.3047C130.775 69.7383 130.875 70.1309 131.074 70.4824C131.273 70.8223 131.561 71.0918 131.936 71.291C132.311 71.4785 132.75 71.5723 133.254 71.5723C134.016 71.5723 134.678 71.4199 135.24 71.1152C135.803 70.8105 136.236 70.4355 136.541 69.9902C136.857 69.5449 137.021 69.123 137.033 68.7246L138.369 70.8691C138.182 71.3496 137.924 71.8477 137.596 72.3633C137.279 72.8789 136.875 73.3652 136.383 73.8223C135.891 74.2676 135.299 74.6367 134.607 74.9297C133.916 75.2109 133.096 75.3516 132.146 75.3516C130.939 75.3516 129.844 75.1113 128.859 74.6309C127.887 74.1387 127.113 73.4648 126.539 72.6094C125.977 71.7422 125.695 70.7578 125.695 69.6562C125.695 68.6602 125.883 67.7754 126.258 67.002C126.633 66.2285 127.184 65.5781 127.91 65.0508C128.648 64.5117 129.568 64.1074 130.67 63.8379C131.771 63.5566 133.049 63.416 134.502 63.416H137.438ZM150.832 60.1289V75H145.77V55.9805H150.533L150.832 60.1289ZM156.562 55.8574L156.475 60.5508C156.229 60.5156 155.93 60.4863 155.578 60.4629C155.238 60.4277 154.928 60.4102 154.646 60.4102C153.932 60.4102 153.311 60.5039 152.783 60.6914C152.268 60.8672 151.834 61.1309 151.482 61.4824C151.143 61.834 150.885 62.2617 150.709 62.7656C150.545 63.2695 150.451 63.8438 150.428 64.4883L149.408 64.1719C149.408 62.9414 149.531 61.8105 149.777 60.7793C150.023 59.7363 150.381 58.8281 150.85 58.0547C151.33 57.2812 151.916 56.6836 152.607 56.2617C153.299 55.8398 154.09 55.6289 154.98 55.6289C155.262 55.6289 155.549 55.6523 155.842 55.6992C156.135 55.7344 156.375 55.7871 156.562 55.8574ZM164.701 70.0781L168.656 55.9805H171.873L170.836 61.5176L166.881 75H164.191L164.701 70.0781ZM162.697 55.9805L165.527 70.0605L165.791 75H162.627L157.811 55.9805H162.697ZM175.494 69.832L178.254 55.9805H183.158L178.342 75H175.195L175.494 69.832ZM172.312 55.9805L176.25 69.9727L176.795 75H174.088L170.133 61.5352L169.131 55.9805H172.312ZM195.973 70.7109V62.2383C195.973 61.6289 195.873 61.1074 195.674 60.6738C195.475 60.2285 195.164 59.8828 194.742 59.6367C194.332 59.3906 193.799 59.2676 193.143 59.2676C192.58 59.2676 192.094 59.3672 191.684 59.5664C191.273 59.7539 190.957 60.0293 190.734 60.3926C190.512 60.7441 190.4 61.1602 190.4 61.6406H185.338C185.338 60.832 185.525 60.0645 185.9 59.3379C186.275 58.6113 186.82 57.9727 187.535 57.4219C188.25 56.8594 189.1 56.4199 190.084 56.1035C191.08 55.7871 192.193 55.6289 193.424 55.6289C194.9 55.6289 196.213 55.875 197.361 56.3672C198.51 56.8594 199.412 57.5977 200.068 58.582C200.736 59.5664 201.07 60.7969 201.07 62.2734V70.4121C201.07 71.4551 201.135 72.3105 201.264 72.9785C201.393 73.6348 201.58 74.209 201.826 74.7012V75H196.711C196.465 74.4844 196.277 73.8398 196.148 73.0664C196.031 72.2812 195.973 71.4961 195.973 70.7109ZM196.641 63.416L196.676 66.2812H193.846C193.178 66.2812 192.598 66.3574 192.105 66.5098C191.613 66.6621 191.209 66.8789 190.893 67.1602C190.576 67.4297 190.342 67.7461 190.189 68.1094C190.049 68.4727 189.979 68.8711 189.979 69.3047C189.979 69.7383 190.078 70.1309 190.277 70.4824C190.477 70.8223 190.764 71.0918 191.139 71.291C191.514 71.4785 191.953 71.5723 192.457 71.5723C193.219 71.5723 193.881 71.4199 194.443 71.1152C195.006 70.8105 195.439 70.4355 195.744 69.9902C196.061 69.5449 196.225 69.123 196.236 68.7246L197.572 70.8691C197.385 71.3496 197.127 71.8477 196.799 72.3633C196.482 72.8789 196.078 73.3652 195.586 73.8223C195.094 74.2676 194.502 74.6367 193.811 74.9297C193.119 75.2109 192.299 75.3516 191.35 75.3516C190.143 75.3516 189.047 75.1113 188.062 74.6309C187.09 74.1387 186.316 73.4648 185.742 72.6094C185.18 71.7422 184.898 70.7578 184.898 69.6562C184.898 68.6602 185.086 67.7754 185.461 67.002C185.836 66.2285 186.387 65.5781 187.113 65.0508C187.852 64.5117 188.771 64.1074 189.873 63.8379C190.975 63.5566 192.252 63.416 193.705 63.416H196.641ZM235.277 61.6055V62.8184C235.277 64.7637 235.014 66.5098 234.486 68.0566C233.959 69.6035 233.215 70.9219 232.254 72.0117C231.293 73.0898 230.145 73.916 228.809 74.4902C227.484 75.0645 226.014 75.3516 224.396 75.3516C222.791 75.3516 221.32 75.0645 219.984 74.4902C218.66 73.916 217.512 73.0898 216.539 72.0117C215.566 70.9219 214.811 69.6035 214.271 68.0566C213.744 66.5098 213.48 64.7637 213.48 62.8184V61.6055C213.48 59.6484 213.744 57.9023 214.271 56.3672C214.799 54.8203 215.543 53.502 216.504 52.4121C217.477 51.3223 218.625 50.4902 219.949 49.916C221.285 49.3418 222.756 49.0547 224.361 49.0547C225.979 49.0547 227.449 49.3418 228.773 49.916C230.109 50.4902 231.258 51.3223 232.219 52.4121C233.191 53.502 233.941 54.8203 234.469 56.3672C235.008 57.9023 235.277 59.6484 235.277 61.6055ZM229.951 62.8184V61.5703C229.951 60.2109 229.828 59.0156 229.582 57.9844C229.336 56.9531 228.973 56.0859 228.492 55.3828C228.012 54.6797 227.426 54.1523 226.734 53.8008C226.043 53.4375 225.252 53.2559 224.361 53.2559C223.471 53.2559 222.68 53.4375 221.988 53.8008C221.309 54.1523 220.729 54.6797 220.248 55.3828C219.779 56.0859 219.422 56.9531 219.176 57.9844C218.93 59.0156 218.807 60.2109 218.807 61.5703V62.8184C218.807 64.166 218.93 65.3613 219.176 66.4043C219.422 67.4355 219.785 68.3086 220.266 69.0234C220.746 69.7266 221.332 70.2598 222.023 70.623C222.715 70.9863 223.506 71.168 224.396 71.168C225.287 71.168 226.078 70.9863 226.77 70.623C227.461 70.2598 228.041 69.7266 228.51 69.0234C228.979 68.3086 229.336 67.4355 229.582 66.4043C229.828 65.3613 229.951 64.166 229.951 62.8184ZM243.715 60.041V75H238.652V55.9805H243.398L243.715 60.041ZM242.977 64.8223H241.605C241.605 63.416 241.787 62.1504 242.15 61.0254C242.514 59.8887 243.023 58.9219 243.68 58.125C244.336 57.3164 245.115 56.7012 246.018 56.2793C246.932 55.8457 247.951 55.6289 249.076 55.6289C249.967 55.6289 250.781 55.7578 251.52 56.0156C252.258 56.2734 252.891 56.6836 253.418 57.2461C253.957 57.8086 254.367 58.5527 254.648 59.4785C254.941 60.4043 255.088 61.5352 255.088 62.8711V75H249.99V62.8535C249.99 62.0098 249.873 61.3535 249.639 60.8848C249.404 60.416 249.059 60.0879 248.602 59.9004C248.156 59.7012 247.605 59.6016 246.949 59.6016C246.27 59.6016 245.678 59.7363 245.174 60.0059C244.682 60.2754 244.271 60.6504 243.943 61.1309C243.627 61.5996 243.387 62.1504 243.223 62.7832C243.059 63.416 242.977 64.0957 242.977 64.8223ZM267.691 75.3516C266.215 75.3516 264.891 75.1172 263.719 74.6484C262.547 74.168 261.551 73.5059 260.73 72.6621C259.922 71.8184 259.301 70.8398 258.867 69.7266C258.434 68.6016 258.217 67.4062 258.217 66.1406V65.4375C258.217 63.9961 258.422 62.6777 258.832 61.4824C259.242 60.2871 259.828 59.25 260.59 58.3711C261.363 57.4922 262.301 56.8184 263.402 56.3496C264.504 55.8691 265.746 55.6289 267.129 55.6289C268.477 55.6289 269.672 55.8516 270.715 56.2969C271.758 56.7422 272.631 57.375 273.334 58.1953C274.049 59.0156 274.588 60 274.951 61.1484C275.314 62.2852 275.496 63.5508 275.496 64.9453V67.0547H260.379V63.6797H270.521V63.293C270.521 62.5898 270.393 61.9629 270.135 61.4121C269.889 60.8496 269.514 60.4043 269.01 60.0762C268.506 59.748 267.861 59.584 267.076 59.584C266.408 59.584 265.834 59.7305 265.354 60.0234C264.873 60.3164 264.48 60.7266 264.176 61.2539C263.883 61.7812 263.66 62.4023 263.508 63.1172C263.367 63.8203 263.297 64.5938 263.297 65.4375V66.1406C263.297 66.9023 263.402 67.6055 263.613 68.25C263.836 68.8945 264.146 69.4512 264.545 69.9199C264.955 70.3887 265.447 70.752 266.021 71.0098C266.607 71.2676 267.27 71.3965 268.008 71.3965C268.922 71.3965 269.771 71.2207 270.557 70.8691C271.354 70.5059 272.039 69.9609 272.613 69.2344L275.074 71.9062C274.676 72.4805 274.131 73.0312 273.439 73.5586C272.76 74.0859 271.939 74.5195 270.979 74.8594C270.018 75.1875 268.922 75.3516 267.691 75.3516ZM283.723 55.9805V75H278.643V55.9805H283.723ZM278.326 51.0234C278.326 50.2852 278.584 49.6758 279.1 49.1953C279.615 48.7148 280.307 48.4746 281.174 48.4746C282.029 48.4746 282.715 48.7148 283.23 49.1953C283.758 49.6758 284.021 50.2852 284.021 51.0234C284.021 51.7617 283.758 52.3711 283.23 52.8516C282.715 53.332 282.029 53.5723 281.174 53.5723C280.307 53.5723 279.615 53.332 279.1 52.8516C278.584 52.3711 278.326 51.7617 278.326 51.0234ZM298.189 69.7441C298.189 69.3809 298.084 69.0527 297.873 68.7598C297.662 68.4668 297.27 68.1973 296.695 67.9512C296.133 67.6934 295.318 67.459 294.252 67.248C293.291 67.0371 292.395 66.7734 291.562 66.457C290.742 66.1289 290.027 65.7363 289.418 65.2793C288.82 64.8223 288.352 64.2832 288.012 63.6621C287.672 63.0293 287.502 62.3086 287.502 61.5C287.502 60.7031 287.672 59.9531 288.012 59.25C288.363 58.5469 288.861 57.9258 289.506 57.3867C290.162 56.8359 290.959 56.4082 291.896 56.1035C292.846 55.7871 293.912 55.6289 295.096 55.6289C296.748 55.6289 298.166 55.8926 299.35 56.4199C300.545 56.9473 301.459 57.6738 302.092 58.5996C302.736 59.5137 303.059 60.5566 303.059 61.7285H297.996C297.996 61.2363 297.891 60.7969 297.68 60.4102C297.48 60.0117 297.164 59.7012 296.73 59.4785C296.309 59.2441 295.758 59.127 295.078 59.127C294.516 59.127 294.029 59.2266 293.619 59.4258C293.209 59.6133 292.893 59.8711 292.67 60.1992C292.459 60.5156 292.354 60.8672 292.354 61.2539C292.354 61.5469 292.412 61.8105 292.529 62.0449C292.658 62.2676 292.863 62.4727 293.145 62.6602C293.426 62.8477 293.789 63.0234 294.234 63.1875C294.691 63.3398 295.254 63.4805 295.922 63.6094C297.293 63.8906 298.518 64.2598 299.596 64.7168C300.674 65.1621 301.529 65.7715 302.162 66.5449C302.795 67.3066 303.111 68.3086 303.111 69.5508C303.111 70.3945 302.924 71.168 302.549 71.8711C302.174 72.5742 301.635 73.1895 300.932 73.7168C300.229 74.2324 299.385 74.6367 298.4 74.9297C297.428 75.2109 296.332 75.3516 295.113 75.3516C293.344 75.3516 291.844 75.0352 290.613 74.4023C289.395 73.7695 288.469 72.9668 287.836 71.9941C287.215 71.0098 286.904 70.002 286.904 68.9707H291.703C291.727 69.6621 291.902 70.2188 292.23 70.6406C292.57 71.0625 292.998 71.3672 293.514 71.5547C294.041 71.7422 294.609 71.8359 295.219 71.8359C295.875 71.8359 296.42 71.748 296.854 71.5723C297.287 71.3848 297.615 71.1387 297.838 70.834C298.072 70.5176 298.189 70.1543 298.189 69.7441Z" fill="#888888"/>
<path d="M100.793 100.188H108.613L117.5 127.887L126.387 100.188H134.207L120.672 140H114.328L100.793 100.188ZM96.0352 100.188H104.129L105.633 130.703V140H96.0352V100.188ZM130.871 100.188H138.992V140H129.367V130.703L130.871 100.188ZM159.035 140.547C156.629 140.547 154.478 140.173 152.582 139.426C150.686 138.66 149.082 137.612 147.77 136.281C146.475 134.951 145.482 133.419 144.789 131.688C144.115 129.956 143.777 128.124 143.777 126.191V125.152C143.777 122.983 144.078 120.978 144.68 119.137C145.281 117.277 146.174 115.655 147.359 114.27C148.544 112.884 150.03 111.809 151.816 111.043C153.603 110.259 155.681 109.867 158.051 109.867C160.147 109.867 162.025 110.204 163.684 110.879C165.342 111.553 166.746 112.52 167.895 113.777C169.061 115.035 169.945 116.557 170.547 118.344C171.167 120.13 171.477 122.135 171.477 124.359V128.105H147.305V122.336H162.48V121.625C162.499 120.641 162.326 119.802 161.961 119.109C161.615 118.417 161.104 117.888 160.43 117.523C159.755 117.159 158.935 116.977 157.969 116.977C156.966 116.977 156.137 117.195 155.48 117.633C154.842 118.07 154.341 118.672 153.977 119.438C153.63 120.185 153.384 121.051 153.238 122.035C153.092 123.02 153.02 124.059 153.02 125.152V126.191C153.02 127.285 153.165 128.279 153.457 129.172C153.767 130.065 154.204 130.831 154.77 131.469C155.353 132.089 156.046 132.572 156.848 132.918C157.668 133.264 158.598 133.438 159.637 133.438C160.895 133.438 162.134 133.201 163.355 132.727C164.577 132.253 165.625 131.469 166.5 130.375L170.684 135.352C170.082 136.208 169.225 137.038 168.113 137.84C167.02 138.642 165.707 139.298 164.176 139.809C162.645 140.301 160.931 140.547 159.035 140.547ZM192.23 133.219V98H201.5V140H193.188L192.23 133.219ZM174.074 125.562V124.988C174.074 122.746 174.32 120.704 174.812 118.863C175.305 117.004 176.034 115.409 177 114.078C177.966 112.729 179.169 111.69 180.609 110.961C182.049 110.232 183.708 109.867 185.586 109.867C187.263 109.867 188.73 110.259 189.988 111.043C191.246 111.809 192.322 112.884 193.215 114.27C194.108 115.655 194.837 117.277 195.402 119.137C195.967 120.978 196.396 122.965 196.688 125.098V125.781C196.396 127.786 195.967 129.682 195.402 131.469C194.837 133.237 194.108 134.805 193.215 136.172C192.322 137.539 191.237 138.615 189.961 139.398C188.703 140.164 187.227 140.547 185.531 140.547C183.654 140.547 181.995 140.173 180.555 139.426C179.133 138.678 177.939 137.63 176.973 136.281C176.025 134.932 175.305 133.346 174.812 131.523C174.32 129.701 174.074 127.714 174.074 125.562ZM183.289 124.988V125.562C183.289 126.674 183.362 127.704 183.508 128.652C183.654 129.6 183.9 130.439 184.246 131.168C184.611 131.879 185.085 132.435 185.668 132.836C186.27 133.237 187.008 133.438 187.883 133.438C189.068 133.438 190.043 133.155 190.809 132.59C191.592 132.025 192.167 131.223 192.531 130.184C192.914 129.145 193.078 127.923 193.023 126.52V124.359C193.06 123.156 192.978 122.099 192.777 121.188C192.577 120.258 192.258 119.483 191.82 118.863C191.401 118.243 190.863 117.779 190.207 117.469C189.569 117.141 188.812 116.977 187.938 116.977C187.081 116.977 186.352 117.177 185.75 117.578C185.167 117.979 184.693 118.544 184.328 119.273C183.964 119.984 183.699 120.832 183.535 121.816C183.371 122.783 183.289 123.84 183.289 124.988ZM229.801 126.52H239.371C239.243 129.29 238.496 131.733 237.129 133.848C235.762 135.962 233.866 137.612 231.441 138.797C229.035 139.964 226.191 140.547 222.91 140.547C220.249 140.547 217.87 140.1 215.773 139.207C213.695 138.314 211.927 137.029 210.469 135.352C209.029 133.674 207.926 131.642 207.16 129.254C206.413 126.866 206.039 124.177 206.039 121.188V119.027C206.039 116.038 206.431 113.349 207.215 110.961C208.017 108.555 209.147 106.513 210.605 104.836C212.082 103.141 213.85 101.846 215.91 100.953C217.97 100.06 220.258 99.6133 222.773 99.6133C226.237 99.6133 229.163 100.233 231.551 101.473C233.939 102.712 235.789 104.417 237.102 106.586C238.414 108.737 239.189 111.189 239.426 113.941H229.855C229.819 112.447 229.564 111.198 229.09 110.195C228.616 109.174 227.868 108.409 226.848 107.898C225.827 107.388 224.469 107.133 222.773 107.133C221.589 107.133 220.559 107.352 219.684 107.789C218.809 108.227 218.079 108.919 217.496 109.867C216.913 110.815 216.475 112.046 216.184 113.559C215.91 115.053 215.773 116.858 215.773 118.973V121.188C215.773 123.302 215.901 125.107 216.156 126.602C216.411 128.096 216.822 129.318 217.387 130.266C217.952 131.214 218.681 131.915 219.574 132.371C220.486 132.809 221.598 133.027 222.91 133.027C224.368 133.027 225.599 132.799 226.602 132.344C227.604 131.87 228.379 131.159 228.926 130.211C229.473 129.245 229.764 128.014 229.801 126.52ZM242.324 125.508V124.934C242.324 122.764 242.634 120.768 243.254 118.945C243.874 117.104 244.785 115.509 245.988 114.16C247.191 112.811 248.677 111.763 250.445 111.016C252.214 110.25 254.255 109.867 256.57 109.867C258.904 109.867 260.954 110.25 262.723 111.016C264.509 111.763 266.004 112.811 267.207 114.16C268.41 115.509 269.322 117.104 269.941 118.945C270.561 120.768 270.871 122.764 270.871 124.934V125.508C270.871 127.659 270.561 129.655 269.941 131.496C269.322 133.319 268.41 134.914 267.207 136.281C266.004 137.63 264.518 138.678 262.75 139.426C260.982 140.173 258.94 140.547 256.625 140.547C254.31 140.547 252.259 140.173 250.473 139.426C248.686 138.678 247.191 137.63 245.988 136.281C244.785 134.914 243.874 133.319 243.254 131.496C242.634 129.655 242.324 127.659 242.324 125.508ZM251.539 124.934V125.508C251.539 126.62 251.621 127.659 251.785 128.625C251.949 129.591 252.223 130.439 252.605 131.168C252.988 131.879 253.508 132.435 254.164 132.836C254.82 133.237 255.641 133.438 256.625 133.438C257.591 133.438 258.393 133.237 259.031 132.836C259.688 132.435 260.207 131.879 260.59 131.168C260.973 130.439 261.246 129.591 261.41 128.625C261.574 127.659 261.656 126.62 261.656 125.508V124.934C261.656 123.858 261.574 122.846 261.41 121.898C261.246 120.932 260.973 120.085 260.59 119.355C260.207 118.608 259.688 118.025 259.031 117.605C258.375 117.186 257.555 116.977 256.57 116.977C255.604 116.977 254.793 117.186 254.137 117.605C253.499 118.025 252.988 118.608 252.605 119.355C252.223 120.085 251.949 120.932 251.785 121.898C251.621 122.846 251.539 123.858 251.539 124.934ZM284.023 116.73V140H274.809V110.414H283.449L284.023 116.73ZM282.93 124.195L280.77 124.25C280.77 121.99 281.043 119.975 281.59 118.207C282.137 116.421 282.911 114.908 283.914 113.668C284.917 112.428 286.111 111.49 287.496 110.852C288.9 110.195 290.458 109.867 292.172 109.867C293.539 109.867 294.788 110.068 295.918 110.469C297.066 110.87 298.051 111.517 298.871 112.41C299.71 113.303 300.348 114.488 300.785 115.965C301.241 117.423 301.469 119.228 301.469 121.379V140H292.199V121.352C292.199 120.167 292.035 119.264 291.707 118.645C291.379 118.007 290.905 117.569 290.285 117.332C289.665 117.095 288.909 116.977 288.016 116.977C287.068 116.977 286.266 117.159 285.609 117.523C284.953 117.888 284.424 118.398 284.023 119.055C283.641 119.693 283.358 120.449 283.176 121.324C283.012 122.199 282.93 123.156 282.93 124.195ZM315.633 116.73V140H306.418V110.414H315.059L315.633 116.73ZM314.539 124.195L312.379 124.25C312.379 121.99 312.652 119.975 313.199 118.207C313.746 116.421 314.521 114.908 315.523 113.668C316.526 112.428 317.72 111.49 319.105 110.852C320.509 110.195 322.068 109.867 323.781 109.867C325.148 109.867 326.397 110.068 327.527 110.469C328.676 110.87 329.66 111.517 330.48 112.41C331.319 113.303 331.957 114.488 332.395 115.965C332.85 117.423 333.078 119.228 333.078 121.379V140H323.809V121.352C323.809 120.167 323.645 119.264 323.316 118.645C322.988 118.007 322.514 117.569 321.895 117.332C321.275 117.095 320.518 116.977 319.625 116.977C318.677 116.977 317.875 117.159 317.219 117.523C316.562 117.888 316.034 118.398 315.633 119.055C315.25 119.693 314.967 120.449 314.785 121.324C314.621 122.199 314.539 123.156 314.539 124.195ZM352.52 140.547C350.113 140.547 347.962 140.173 346.066 139.426C344.171 138.66 342.566 137.612 341.254 136.281C339.96 134.951 338.966 133.419 338.273 131.688C337.599 129.956 337.262 128.124 337.262 126.191V125.152C337.262 122.983 337.562 120.978 338.164 119.137C338.766 117.277 339.659 115.655 340.844 114.27C342.029 112.884 343.514 111.809 345.301 111.043C347.087 110.259 349.165 109.867 351.535 109.867C353.632 109.867 355.509 110.204 357.168 110.879C358.827 111.553 360.23 112.52 361.379 113.777C362.546 115.035 363.43 116.557 364.031 118.344C364.651 120.13 364.961 122.135 364.961 124.359V128.105H340.789V122.336H355.965V121.625C355.983 120.641 355.81 119.802 355.445 119.109C355.099 118.417 354.589 117.888 353.914 117.523C353.24 117.159 352.419 116.977 351.453 116.977C350.451 116.977 349.621 117.195 348.965 117.633C348.327 118.07 347.826 118.672 347.461 119.438C347.115 120.185 346.868 121.051 346.723 122.035C346.577 123.02 346.504 124.059 346.504 125.152V126.191C346.504 127.285 346.65 128.279 346.941 129.172C347.251 130.065 347.689 130.831 348.254 131.469C348.837 132.089 349.53 132.572 350.332 132.918C351.152 133.264 352.082 133.438 353.121 133.438C354.379 133.438 355.618 133.201 356.84 132.727C358.061 132.253 359.109 131.469 359.984 130.375L364.168 135.352C363.566 136.208 362.71 137.038 361.598 137.84C360.504 138.642 359.191 139.298 357.66 139.809C356.129 140.301 354.415 140.547 352.52 140.547ZM381.203 133.438C382.06 133.438 382.789 133.283 383.391 132.973C384.01 132.645 384.475 132.189 384.785 131.605C385.113 131.004 385.268 130.284 385.25 129.445H393.918C393.936 131.669 393.389 133.62 392.277 135.297C391.184 136.956 389.689 138.25 387.793 139.18C385.915 140.091 383.792 140.547 381.422 140.547C379.107 140.547 377.083 140.173 375.352 139.426C373.62 138.66 372.171 137.603 371.004 136.254C369.855 134.887 368.99 133.292 368.406 131.469C367.841 129.646 367.559 127.668 367.559 125.535V124.906C367.559 122.773 367.841 120.796 368.406 118.973C368.99 117.132 369.855 115.536 371.004 114.188C372.171 112.82 373.611 111.763 375.324 111.016C377.056 110.25 379.07 109.867 381.367 109.867C383.828 109.867 385.997 110.332 387.875 111.262C389.771 112.191 391.257 113.54 392.332 115.309C393.408 117.077 393.936 119.219 393.918 121.734H385.25C385.268 120.841 385.132 120.039 384.84 119.328C384.548 118.617 384.092 118.052 383.473 117.633C382.871 117.195 382.096 116.977 381.148 116.977C380.201 116.977 379.435 117.186 378.852 117.605C378.268 118.025 377.822 118.608 377.512 119.355C377.22 120.085 377.02 120.923 376.91 121.871C376.819 122.819 376.773 123.831 376.773 124.906V125.535C376.773 126.629 376.819 127.659 376.91 128.625C377.02 129.573 377.229 130.411 377.539 131.141C377.849 131.852 378.296 132.417 378.879 132.836C379.462 133.237 380.237 133.438 381.203 133.438ZM413.441 110.414V116.812H395.613V110.414H413.441ZM399.359 103.059H408.574V130.348C408.574 131.132 408.665 131.742 408.848 132.18C409.03 132.599 409.34 132.9 409.777 133.082C410.233 133.246 410.835 133.328 411.582 133.328C412.111 133.328 412.548 133.319 412.895 133.301C413.241 133.264 413.569 133.219 413.879 133.164V139.754C413.095 140.009 412.275 140.201 411.418 140.328C410.561 140.474 409.65 140.547 408.684 140.547C406.715 140.547 405.029 140.237 403.625 139.617C402.24 138.997 401.182 138.022 400.453 136.691C399.724 135.361 399.359 133.629 399.359 131.496V103.059Z" fill="black"/>
<rect x="93" y="178" width="946" height="77" rx="10" fill="#D3D3D3"/>
<rect x="111" y="196" width="98" height="41" rx="3" fill="#424242"/>
<rect x="111" y="196" width="98" height="41" rx="3" stroke="#424242" stroke-width="4"/>
<path d="M137.078 210.203V223H133.993V210.203H137.078ZM142.053 215.529V217.902H136.199V215.529H142.053ZM142.554 210.203V212.585H136.199V210.203H142.554ZM146.825 209.5V223H143.854V209.5H146.825ZM154.208 220.688V213.49H157.179V223H154.401L154.208 220.688ZM154.489 218.755L155.263 218.737C155.263 219.376 155.187 219.968 155.034 220.513C154.882 221.052 154.656 221.521 154.357 221.919C154.064 222.317 153.701 222.628 153.268 222.851C152.84 223.067 152.345 223.176 151.782 223.176C151.313 223.176 150.883 223.111 150.49 222.982C150.104 222.848 149.77 222.64 149.488 222.358C149.207 222.071 148.987 221.705 148.829 221.26C148.677 220.809 148.601 220.27 148.601 219.643V213.49H151.562V219.66C151.562 219.871 151.589 220.053 151.642 220.205C151.694 220.357 151.771 220.486 151.87 220.592C151.97 220.691 152.093 220.768 152.239 220.82C152.392 220.867 152.564 220.891 152.758 220.891C153.203 220.891 153.552 220.797 153.804 220.609C154.056 220.422 154.231 220.167 154.331 219.845C154.437 219.522 154.489 219.159 154.489 218.755ZM163.823 213.49V215.547H158.093V213.49H163.823ZM159.297 211.126H162.259V219.897C162.259 220.149 162.288 220.346 162.347 220.486C162.405 220.621 162.505 220.718 162.646 220.776C162.792 220.829 162.985 220.855 163.226 220.855C163.396 220.855 163.536 220.853 163.647 220.847C163.759 220.835 163.864 220.82 163.964 220.803V222.921C163.712 223.003 163.448 223.064 163.173 223.105C162.897 223.152 162.604 223.176 162.294 223.176C161.661 223.176 161.119 223.076 160.668 222.877C160.223 222.678 159.883 222.364 159.648 221.937C159.414 221.509 159.297 220.952 159.297 220.267V211.126ZM170.011 213.49V215.547H164.28V213.49H170.011ZM165.484 211.126H168.446V219.897C168.446 220.149 168.476 220.346 168.534 220.486C168.593 220.621 168.692 220.718 168.833 220.776C168.979 220.829 169.173 220.855 169.413 220.855C169.583 220.855 169.724 220.853 169.835 220.847C169.946 220.835 170.052 220.82 170.151 220.803V222.921C169.899 223.003 169.636 223.064 169.36 223.105C169.085 223.152 168.792 223.176 168.481 223.176C167.849 223.176 167.307 223.076 166.855 222.877C166.41 222.678 166.07 222.364 165.836 221.937C165.602 221.509 165.484 220.952 165.484 220.267V211.126ZM175.794 223.176C175.021 223.176 174.329 223.056 173.72 222.815C173.11 222.569 172.595 222.232 172.173 221.805C171.757 221.377 171.438 220.885 171.215 220.328C170.998 219.771 170.89 219.183 170.89 218.562V218.228C170.89 217.53 170.986 216.886 171.18 216.294C171.373 215.696 171.66 215.175 172.041 214.729C172.422 214.284 172.899 213.938 173.474 213.692C174.048 213.44 174.716 213.314 175.478 213.314C176.151 213.314 176.755 213.423 177.288 213.64C177.821 213.856 178.272 214.167 178.642 214.571C179.017 214.976 179.301 215.465 179.494 216.039C179.693 216.613 179.793 217.258 179.793 217.973V219.177H172.023V217.322H176.901V217.094C176.907 216.777 176.852 216.508 176.734 216.285C176.623 216.062 176.459 215.893 176.242 215.775C176.025 215.658 175.762 215.6 175.451 215.6C175.129 215.6 174.862 215.67 174.651 215.811C174.446 215.951 174.285 216.145 174.168 216.391C174.057 216.631 173.978 216.909 173.931 217.226C173.884 217.542 173.86 217.876 173.86 218.228V218.562C173.86 218.913 173.907 219.232 174.001 219.52C174.101 219.807 174.241 220.053 174.423 220.258C174.61 220.457 174.833 220.612 175.091 220.724C175.354 220.835 175.653 220.891 175.987 220.891C176.392 220.891 176.79 220.814 177.183 220.662C177.575 220.51 177.912 220.258 178.193 219.906L179.538 221.506C179.345 221.781 179.069 222.048 178.712 222.306C178.36 222.563 177.938 222.774 177.446 222.938C176.954 223.097 176.403 223.176 175.794 223.176ZM183.985 215.846V223H181.023V213.49H183.792L183.985 215.846ZM186.798 213.42L186.745 216.171C186.628 216.159 186.47 216.145 186.271 216.127C186.071 216.109 185.904 216.101 185.77 216.101C185.424 216.101 185.125 216.142 184.873 216.224C184.627 216.3 184.422 216.417 184.258 216.575C184.1 216.728 183.982 216.921 183.906 217.155C183.836 217.39 183.804 217.662 183.81 217.973L183.273 217.621C183.273 216.982 183.335 216.402 183.458 215.881C183.587 215.354 183.769 214.899 184.003 214.519C184.237 214.132 184.521 213.836 184.855 213.631C185.189 213.42 185.564 213.314 185.98 213.314C186.127 213.314 186.271 213.323 186.411 213.341C186.558 213.358 186.687 213.385 186.798 213.42Z" fill="white"/>
<rect x="229" y="196" width="79" height="41" rx="3" fill="#424242"/>
<rect x="229" y="196" width="79" height="41" rx="3" stroke="#424242" stroke-width="4"/>
<path d="M256.301 223H253.462L253.479 220.627H256.301C256.887 220.627 257.382 220.486 257.786 220.205C258.196 219.924 258.507 219.505 258.718 218.948C258.935 218.386 259.043 217.694 259.043 216.874V216.32C259.043 215.705 258.981 215.166 258.858 214.703C258.741 214.234 258.565 213.845 258.331 213.534C258.097 213.218 257.804 212.98 257.452 212.822C257.106 212.664 256.708 212.585 256.257 212.585H253.409V210.203H256.257C257.124 210.203 257.918 210.353 258.639 210.651C259.365 210.944 259.992 211.366 260.52 211.917C261.053 212.462 261.463 213.109 261.75 213.859C262.043 214.604 262.189 215.43 262.189 216.338V216.874C262.189 217.776 262.043 218.603 261.75 219.353C261.463 220.103 261.056 220.75 260.528 221.295C260.001 221.84 259.377 222.262 258.656 222.561C257.941 222.854 257.156 223 256.301 223ZM255.229 210.203V223H252.144V210.203H255.229ZM268.597 220.609V216.689C268.597 216.42 268.559 216.188 268.482 215.995C268.406 215.802 268.286 215.652 268.122 215.547C267.958 215.436 267.738 215.38 267.463 215.38C267.24 215.38 267.05 215.418 266.892 215.494C266.733 215.57 266.613 215.685 266.531 215.837C266.449 215.989 266.408 216.183 266.408 216.417H263.446C263.446 215.978 263.543 215.57 263.736 215.195C263.936 214.814 264.217 214.483 264.58 214.202C264.949 213.921 265.389 213.704 265.898 213.552C266.414 213.394 266.988 213.314 267.621 213.314C268.377 213.314 269.051 213.44 269.643 213.692C270.24 213.944 270.712 214.322 271.058 214.826C271.403 215.324 271.576 215.951 271.576 216.707V220.601C271.576 221.222 271.611 221.693 271.682 222.016C271.752 222.332 271.852 222.61 271.98 222.851V223H269.01C268.869 222.707 268.764 222.35 268.693 221.928C268.629 221.5 268.597 221.061 268.597 220.609ZM268.957 217.19L268.975 218.772H267.665C267.39 218.772 267.155 218.811 266.962 218.887C266.774 218.963 266.622 219.068 266.505 219.203C266.394 219.332 266.312 219.479 266.259 219.643C266.212 219.807 266.188 219.979 266.188 220.161C266.188 220.337 266.229 220.495 266.312 220.636C266.399 220.771 266.517 220.876 266.663 220.952C266.81 221.028 266.974 221.066 267.155 221.066C267.483 221.066 267.762 221.005 267.99 220.882C268.225 220.753 268.403 220.598 268.526 220.416C268.649 220.234 268.711 220.064 268.711 219.906L269.361 221.119C269.244 221.354 269.109 221.591 268.957 221.831C268.811 222.071 268.626 222.294 268.403 222.499C268.187 222.698 267.92 222.862 267.604 222.991C267.287 223.114 266.903 223.176 266.452 223.176C265.866 223.176 265.327 223.056 264.835 222.815C264.349 222.575 263.959 222.241 263.666 221.813C263.373 221.38 263.227 220.882 263.227 220.319C263.227 219.827 263.314 219.388 263.49 219.001C263.672 218.614 263.944 218.286 264.308 218.017C264.671 217.747 265.134 217.542 265.696 217.401C266.259 217.261 266.921 217.19 267.683 217.19H268.957ZM276.208 215.846V223H273.246V213.49H276.015L276.208 215.846ZM279.021 213.42L278.968 216.171C278.851 216.159 278.692 216.145 278.493 216.127C278.294 216.109 278.127 216.101 277.992 216.101C277.646 216.101 277.348 216.142 277.096 216.224C276.85 216.3 276.645 216.417 276.48 216.575C276.322 216.728 276.205 216.921 276.129 217.155C276.059 217.39 276.026 217.662 276.032 217.973L275.496 217.621C275.496 216.982 275.558 216.402 275.681 215.881C275.81 215.354 275.991 214.899 276.226 214.519C276.46 214.132 276.744 213.836 277.078 213.631C277.412 213.42 277.787 213.314 278.203 213.314C278.35 213.314 278.493 213.323 278.634 213.341C278.78 213.358 278.909 213.385 279.021 213.42ZM285.489 213.49V215.547H279.759V213.49H285.489ZM280.963 211.126H283.925V219.897C283.925 220.149 283.954 220.346 284.013 220.486C284.071 220.621 284.171 220.718 284.312 220.776C284.458 220.829 284.651 220.855 284.892 220.855C285.062 220.855 285.202 220.853 285.313 220.847C285.425 220.835 285.53 220.82 285.63 220.803V222.921C285.378 223.003 285.114 223.064 284.839 223.105C284.563 223.152 284.271 223.176 283.96 223.176C283.327 223.176 282.785 223.076 282.334 222.877C281.889 222.678 281.549 222.364 281.314 221.937C281.08 221.509 280.963 220.952 280.963 220.267V211.126Z" fill="white"/>
<rect x="328" y="196" width="107" height="41" rx="3" fill="#424242"/>
<rect x="328" y="196" width="107" height="41" rx="3" stroke="#424242" stroke-width="4"/>
<path d="M362.041 210.203V223H358.965L354.438 215.037V223H351.354V210.203H354.438L358.965 218.166V210.203H362.041ZM363.482 218.342V218.157C363.482 217.46 363.582 216.818 363.781 216.232C363.98 215.641 364.273 215.128 364.66 214.694C365.047 214.261 365.524 213.924 366.093 213.684C366.661 213.438 367.317 213.314 368.062 213.314C368.812 213.314 369.471 213.438 370.039 213.684C370.613 213.924 371.094 214.261 371.48 214.694C371.867 215.128 372.16 215.641 372.359 216.232C372.559 216.818 372.658 217.46 372.658 218.157V218.342C372.658 219.033 372.559 219.675 372.359 220.267C372.16 220.853 371.867 221.365 371.48 221.805C371.094 222.238 370.616 222.575 370.048 222.815C369.479 223.056 368.823 223.176 368.079 223.176C367.335 223.176 366.676 223.056 366.102 222.815C365.527 222.575 365.047 222.238 364.66 221.805C364.273 221.365 363.98 220.853 363.781 220.267C363.582 219.675 363.482 219.033 363.482 218.342ZM366.444 218.157V218.342C366.444 218.699 366.471 219.033 366.523 219.344C366.576 219.654 366.664 219.927 366.787 220.161C366.91 220.39 367.077 220.568 367.288 220.697C367.499 220.826 367.763 220.891 368.079 220.891C368.39 220.891 368.647 220.826 368.853 220.697C369.063 220.568 369.23 220.39 369.354 220.161C369.477 219.927 369.564 219.654 369.617 219.344C369.67 219.033 369.696 218.699 369.696 218.342V218.157C369.696 217.812 369.67 217.486 369.617 217.182C369.564 216.871 369.477 216.599 369.354 216.364C369.23 216.124 369.063 215.937 368.853 215.802C368.642 215.667 368.378 215.6 368.062 215.6C367.751 215.6 367.49 215.667 367.279 215.802C367.074 215.937 366.91 216.124 366.787 216.364C366.664 216.599 366.576 216.871 366.523 217.182C366.471 217.486 366.444 217.812 366.444 218.157ZM379.443 220.82V209.5H382.423V223H379.751L379.443 220.82ZM373.607 218.359V218.175C373.607 217.454 373.687 216.798 373.845 216.206C374.003 215.608 374.237 215.096 374.548 214.668C374.858 214.234 375.245 213.9 375.708 213.666C376.171 213.432 376.704 213.314 377.308 213.314C377.847 213.314 378.318 213.44 378.723 213.692C379.127 213.938 379.473 214.284 379.76 214.729C380.047 215.175 380.281 215.696 380.463 216.294C380.645 216.886 380.782 217.524 380.876 218.21V218.43C380.782 219.074 380.645 219.684 380.463 220.258C380.281 220.826 380.047 221.33 379.76 221.77C379.473 222.209 379.124 222.555 378.714 222.807C378.31 223.053 377.835 223.176 377.29 223.176C376.687 223.176 376.153 223.056 375.69 222.815C375.233 222.575 374.85 222.238 374.539 221.805C374.234 221.371 374.003 220.861 373.845 220.275C373.687 219.689 373.607 219.051 373.607 218.359ZM376.569 218.175V218.359C376.569 218.717 376.593 219.048 376.64 219.353C376.687 219.657 376.766 219.927 376.877 220.161C376.994 220.39 377.146 220.568 377.334 220.697C377.527 220.826 377.765 220.891 378.046 220.891C378.427 220.891 378.74 220.8 378.986 220.618C379.238 220.437 379.423 220.179 379.54 219.845C379.663 219.511 379.716 219.118 379.698 218.667V217.973C379.71 217.586 379.684 217.246 379.619 216.953C379.555 216.654 379.452 216.405 379.312 216.206C379.177 216.007 379.004 215.857 378.793 215.758C378.588 215.652 378.345 215.6 378.063 215.6C377.788 215.6 377.554 215.664 377.36 215.793C377.173 215.922 377.021 216.104 376.903 216.338C376.786 216.566 376.701 216.839 376.648 217.155C376.596 217.466 376.569 217.806 376.569 218.175ZM388.707 223.176C387.934 223.176 387.242 223.056 386.633 222.815C386.023 222.569 385.508 222.232 385.086 221.805C384.67 221.377 384.351 220.885 384.128 220.328C383.911 219.771 383.803 219.183 383.803 218.562V218.228C383.803 217.53 383.899 216.886 384.093 216.294C384.286 215.696 384.573 215.175 384.954 214.729C385.335 214.284 385.812 213.938 386.387 213.692C386.961 213.44 387.629 213.314 388.391 213.314C389.064 213.314 389.668 213.423 390.201 213.64C390.734 213.856 391.186 214.167 391.555 214.571C391.93 214.976 392.214 215.465 392.407 216.039C392.606 216.613 392.706 217.258 392.706 217.973V219.177H384.937V217.322H389.814V217.094C389.82 216.777 389.765 216.508 389.647 216.285C389.536 216.062 389.372 215.893 389.155 215.775C388.938 215.658 388.675 215.6 388.364 215.6C388.042 215.6 387.775 215.67 387.564 215.811C387.359 215.951 387.198 216.145 387.081 216.391C386.97 216.631 386.891 216.909 386.844 217.226C386.797 217.542 386.773 217.876 386.773 218.228V218.562C386.773 218.913 386.82 219.232 386.914 219.52C387.014 219.807 387.154 220.053 387.336 220.258C387.523 220.457 387.746 220.612 388.004 220.724C388.268 220.835 388.566 220.891 388.9 220.891C389.305 220.891 389.703 220.814 390.096 220.662C390.488 220.51 390.825 220.258 391.106 219.906L392.451 221.506C392.258 221.781 391.982 222.048 391.625 222.306C391.273 222.563 390.852 222.774 390.359 222.938C389.867 223.097 389.316 223.176 388.707 223.176ZM394.104 221.611C394.104 221.189 394.256 220.838 394.561 220.557C394.865 220.27 395.258 220.126 395.738 220.126C396.225 220.126 396.617 220.27 396.916 220.557C397.221 220.838 397.373 221.189 397.373 221.611C397.373 222.033 397.221 222.388 396.916 222.675C396.617 222.956 396.225 223.097 395.738 223.097C395.258 223.097 394.865 222.956 394.561 222.675C394.256 222.388 394.104 222.033 394.104 221.611ZM399.579 213.49H402.55V223.308C402.55 224.069 402.403 224.711 402.11 225.232C401.817 225.76 401.398 226.158 400.854 226.428C400.309 226.703 399.658 226.841 398.902 226.841C398.65 226.841 398.419 226.829 398.208 226.806C397.991 226.788 397.754 226.75 397.496 226.691V224.45C397.648 224.474 397.789 224.491 397.918 224.503C398.047 224.521 398.188 224.529 398.34 224.529C398.609 224.529 398.835 224.485 399.017 224.397C399.198 224.31 399.336 224.175 399.43 223.993C399.529 223.812 399.579 223.583 399.579 223.308V213.49ZM399.359 211.038C399.359 210.616 399.512 210.271 399.816 210.001C400.121 209.731 400.517 209.597 401.003 209.597C401.489 209.597 401.885 209.731 402.189 210.001C402.494 210.271 402.646 210.616 402.646 211.038C402.646 211.46 402.494 211.806 402.189 212.075C401.885 212.345 401.489 212.479 401.003 212.479C400.517 212.479 400.121 212.345 399.816 212.075C399.512 211.806 399.359 211.46 399.359 211.038ZM409.212 220.328C409.212 220.164 409.156 220.023 409.045 219.906C408.939 219.783 408.752 219.672 408.482 219.572C408.213 219.467 407.835 219.361 407.349 219.256C406.886 219.156 406.449 219.024 406.039 218.86C405.635 218.696 405.28 218.497 404.976 218.263C404.671 218.028 404.431 217.75 404.255 217.428C404.085 217.105 404 216.736 404 216.32C404 215.916 404.085 215.535 404.255 215.178C404.431 214.814 404.686 214.495 405.02 214.22C405.359 213.938 405.772 213.719 406.259 213.561C406.745 213.396 407.299 213.314 407.92 213.314C408.775 213.314 409.514 213.446 410.135 213.71C410.756 213.968 411.233 214.331 411.567 214.8C411.907 215.263 412.077 215.799 412.077 216.408H409.115C409.115 216.168 409.074 215.963 408.992 215.793C408.916 215.623 408.79 215.494 408.614 215.406C408.438 215.312 408.204 215.266 407.911 215.266C407.706 215.266 407.519 215.304 407.349 215.38C407.185 215.456 407.053 215.562 406.953 215.696C406.854 215.831 406.804 215.989 406.804 216.171C406.804 216.3 406.833 216.417 406.892 216.522C406.956 216.622 407.053 216.716 407.182 216.804C407.311 216.886 407.475 216.962 407.674 217.032C407.873 217.097 408.113 217.155 408.395 217.208C409.033 217.325 409.631 217.492 410.188 217.709C410.744 217.926 411.195 218.233 411.541 218.632C411.893 219.03 412.068 219.566 412.068 220.24C412.068 220.662 411.972 221.052 411.778 221.409C411.585 221.761 411.307 222.071 410.943 222.341C410.58 222.604 410.144 222.81 409.634 222.956C409.124 223.103 408.55 223.176 407.911 223.176C407.003 223.176 406.235 223.015 405.608 222.692C404.981 222.364 404.507 221.954 404.185 221.462C403.868 220.964 403.71 220.46 403.71 219.95H406.47C406.481 220.243 406.552 220.483 406.681 220.671C406.815 220.858 406.994 220.996 407.217 221.084C407.439 221.172 407.697 221.216 407.99 221.216C408.26 221.216 408.482 221.178 408.658 221.102C408.84 221.025 408.978 220.923 409.071 220.794C409.165 220.659 409.212 220.504 409.212 220.328Z" fill="white"/>
<rect x="455" y="196" width="142" height="41" rx="3" fill="#424242"/>
<rect x="455" y="196" width="142" height="41" rx="3" stroke="#424242" stroke-width="4"/>
<path d="M488.629 216.162V221.418C488.412 221.658 488.078 221.916 487.627 222.191C487.182 222.461 486.619 222.692 485.939 222.886C485.26 223.079 484.46 223.176 483.54 223.176C482.69 223.176 481.92 223.041 481.229 222.771C480.537 222.496 479.942 222.095 479.444 221.567C478.952 221.034 478.571 220.384 478.302 219.616C478.038 218.843 477.906 217.958 477.906 216.962V216.25C477.906 215.254 478.041 214.369 478.311 213.596C478.58 212.822 478.958 212.172 479.444 211.645C479.937 211.111 480.514 210.707 481.176 210.432C481.844 210.156 482.576 210.019 483.373 210.019C484.551 210.019 485.509 210.206 486.247 210.581C486.985 210.95 487.545 211.463 487.926 212.119C488.307 212.77 488.538 213.522 488.62 214.378H485.658C485.6 213.956 485.488 213.599 485.324 213.306C485.166 213.007 484.938 212.781 484.639 212.629C484.34 212.471 483.953 212.392 483.479 212.392C483.109 212.392 482.772 212.471 482.468 212.629C482.169 212.787 481.914 213.027 481.703 213.35C481.492 213.666 481.328 214.064 481.211 214.545C481.1 215.025 481.044 215.588 481.044 216.232V216.962C481.044 217.601 481.097 218.16 481.202 218.641C481.313 219.121 481.478 219.522 481.694 219.845C481.917 220.161 482.198 220.401 482.538 220.565C482.884 220.724 483.291 220.803 483.76 220.803C484.088 220.803 484.369 220.776 484.604 220.724C484.838 220.665 485.031 220.595 485.184 220.513C485.342 220.425 485.462 220.343 485.544 220.267V218.28H483.399V216.162H488.629ZM489.921 218.342V218.157C489.921 217.46 490.021 216.818 490.22 216.232C490.419 215.641 490.712 215.128 491.099 214.694C491.485 214.261 491.963 213.924 492.531 213.684C493.1 213.438 493.756 213.314 494.5 213.314C495.25 213.314 495.909 213.438 496.478 213.684C497.052 213.924 497.532 214.261 497.919 214.694C498.306 215.128 498.599 215.641 498.798 216.232C498.997 216.818 499.097 217.46 499.097 218.157V218.342C499.097 219.033 498.997 219.675 498.798 220.267C498.599 220.853 498.306 221.365 497.919 221.805C497.532 222.238 497.055 222.575 496.486 222.815C495.918 223.056 495.262 223.176 494.518 223.176C493.773 223.176 493.114 223.056 492.54 222.815C491.966 222.575 491.485 222.238 491.099 221.805C490.712 221.365 490.419 220.853 490.22 220.267C490.021 219.675 489.921 219.033 489.921 218.342ZM492.883 218.157V218.342C492.883 218.699 492.909 219.033 492.962 219.344C493.015 219.654 493.103 219.927 493.226 220.161C493.349 220.39 493.516 220.568 493.727 220.697C493.938 220.826 494.201 220.891 494.518 220.891C494.828 220.891 495.086 220.826 495.291 220.697C495.502 220.568 495.669 220.39 495.792 220.161C495.915 219.927 496.003 219.654 496.056 219.344C496.108 219.033 496.135 218.699 496.135 218.342V218.157C496.135 217.812 496.108 217.486 496.056 217.182C496.003 216.871 495.915 216.599 495.792 216.364C495.669 216.124 495.502 215.937 495.291 215.802C495.08 215.667 494.816 215.6 494.5 215.6C494.189 215.6 493.929 215.667 493.718 215.802C493.513 215.937 493.349 216.124 493.226 216.364C493.103 216.599 493.015 216.871 492.962 217.182C492.909 217.486 492.883 217.812 492.883 218.157ZM500.046 218.342V218.157C500.046 217.46 500.146 216.818 500.345 216.232C500.544 215.641 500.837 215.128 501.224 214.694C501.61 214.261 502.088 213.924 502.656 213.684C503.225 213.438 503.881 213.314 504.625 213.314C505.375 213.314 506.034 213.438 506.603 213.684C507.177 213.924 507.657 214.261 508.044 214.694C508.431 215.128 508.724 215.641 508.923 216.232C509.122 216.818 509.222 217.46 509.222 218.157V218.342C509.222 219.033 509.122 219.675 508.923 220.267C508.724 220.853 508.431 221.365 508.044 221.805C507.657 222.238 507.18 222.575 506.611 222.815C506.043 223.056 505.387 223.176 504.643 223.176C503.898 223.176 503.239 223.056 502.665 222.815C502.091 222.575 501.61 222.238 501.224 221.805C500.837 221.365 500.544 220.853 500.345 220.267C500.146 219.675 500.046 219.033 500.046 218.342ZM503.008 218.157V218.342C503.008 218.699 503.034 219.033 503.087 219.344C503.14 219.654 503.228 219.927 503.351 220.161C503.474 220.39 503.641 220.568 503.852 220.697C504.062 220.826 504.326 220.891 504.643 220.891C504.953 220.891 505.211 220.826 505.416 220.697C505.627 220.568 505.794 220.39 505.917 220.161C506.04 219.927 506.128 219.654 506.181 219.344C506.233 219.033 506.26 218.699 506.26 218.342V218.157C506.26 217.812 506.233 217.486 506.181 217.182C506.128 216.871 506.04 216.599 505.917 216.364C505.794 216.124 505.627 215.937 505.416 215.802C505.205 215.667 504.941 215.6 504.625 215.6C504.314 215.6 504.054 215.667 503.843 215.802C503.638 215.937 503.474 216.124 503.351 216.364C503.228 216.599 503.14 216.871 503.087 217.182C503.034 217.486 503.008 217.812 503.008 218.157ZM516.517 213.49H519.206V222.631C519.206 223.51 519.004 224.254 518.6 224.863C518.195 225.479 517.63 225.944 516.903 226.261C516.183 226.583 515.339 226.744 514.372 226.744C513.944 226.744 513.508 226.688 513.062 226.577C512.617 226.472 512.201 226.313 511.814 226.103C511.428 225.892 511.103 225.631 510.839 225.32L512.078 223.58C512.318 223.85 512.62 224.078 512.983 224.266C513.347 224.459 513.774 224.556 514.267 224.556C514.694 224.556 515.052 224.479 515.339 224.327C515.632 224.175 515.854 223.952 516.007 223.659C516.159 223.372 516.235 223.023 516.235 222.613V215.74L516.517 213.49ZM510.197 218.359V218.175C510.197 217.454 510.285 216.798 510.461 216.206C510.643 215.608 510.9 215.096 511.234 214.668C511.574 214.234 511.984 213.9 512.465 213.666C512.945 213.432 513.487 213.314 514.091 213.314C514.741 213.314 515.274 213.44 515.69 213.692C516.112 213.938 516.449 214.284 516.701 214.729C516.959 215.175 517.158 215.696 517.299 216.294C517.445 216.886 517.568 217.524 517.668 218.21V218.43C517.568 219.074 517.431 219.684 517.255 220.258C517.085 220.826 516.862 221.33 516.587 221.77C516.312 222.209 515.966 222.555 515.55 222.807C515.14 223.053 514.647 223.176 514.073 223.176C513.476 223.176 512.937 223.056 512.456 222.815C511.981 222.575 511.574 222.238 511.234 221.805C510.9 221.371 510.643 220.861 510.461 220.275C510.285 219.689 510.197 219.051 510.197 218.359ZM513.159 218.175V218.359C513.159 218.717 513.191 219.048 513.256 219.353C513.326 219.657 513.432 219.927 513.572 220.161C513.713 220.39 513.886 220.568 514.091 220.697C514.302 220.826 514.548 220.891 514.829 220.891C515.257 220.891 515.603 220.8 515.866 220.618C516.13 220.437 516.32 220.179 516.438 219.845C516.555 219.511 516.604 219.118 516.587 218.667V217.973C516.599 217.586 516.572 217.246 516.508 216.953C516.443 216.654 516.341 216.405 516.2 216.206C516.065 216.007 515.884 215.857 515.655 215.758C515.433 215.652 515.163 215.6 514.847 215.6C514.571 215.6 514.328 215.664 514.117 215.793C513.906 215.922 513.73 216.104 513.59 216.338C513.449 216.566 513.341 216.839 513.265 217.155C513.194 217.466 513.159 217.806 513.159 218.175ZM524.04 209.5V223H521.069V209.5H524.04ZM530.474 223.176C529.7 223.176 529.009 223.056 528.399 222.815C527.79 222.569 527.274 222.232 526.853 221.805C526.437 221.377 526.117 220.885 525.895 220.328C525.678 219.771 525.569 219.183 525.569 218.562V218.228C525.569 217.53 525.666 216.886 525.859 216.294C526.053 215.696 526.34 215.175 526.721 214.729C527.102 214.284 527.579 213.938 528.153 213.692C528.728 213.44 529.396 213.314 530.157 213.314C530.831 213.314 531.435 213.423 531.968 213.64C532.501 213.856 532.952 214.167 533.321 214.571C533.696 214.976 533.98 215.465 534.174 216.039C534.373 216.613 534.473 217.258 534.473 217.973V219.177H526.703V217.322H531.581V217.094C531.587 216.777 531.531 216.508 531.414 216.285C531.303 216.062 531.139 215.893 530.922 215.775C530.705 215.658 530.441 215.6 530.131 215.6C529.809 215.6 529.542 215.67 529.331 215.811C529.126 215.951 528.965 216.145 528.848 216.391C528.736 216.631 528.657 216.909 528.61 217.226C528.563 217.542 528.54 217.876 528.54 218.228V218.562C528.54 218.913 528.587 219.232 528.681 219.52C528.78 219.807 528.921 220.053 529.103 220.258C529.29 220.457 529.513 220.612 529.771 220.724C530.034 220.835 530.333 220.891 530.667 220.891C531.071 220.891 531.47 220.814 531.862 220.662C532.255 220.51 532.592 220.258 532.873 219.906L534.218 221.506C534.024 221.781 533.749 222.048 533.392 222.306C533.04 222.563 532.618 222.774 532.126 222.938C531.634 223.097 531.083 223.176 530.474 223.176ZM541.829 210.203H544.343L547.199 219.106L550.056 210.203H552.569L548.219 223H546.18L541.829 210.203ZM540.3 210.203H542.901L543.385 220.012V223H540.3V210.203ZM551.497 210.203H554.107V223H551.014V220.012L551.497 210.203ZM560.884 220.609V216.689C560.884 216.42 560.846 216.188 560.77 215.995C560.693 215.802 560.573 215.652 560.409 215.547C560.245 215.436 560.025 215.38 559.75 215.38C559.527 215.38 559.337 215.418 559.179 215.494C559.021 215.57 558.9 215.685 558.818 215.837C558.736 215.989 558.695 216.183 558.695 216.417H555.733C555.733 215.978 555.83 215.57 556.023 215.195C556.223 214.814 556.504 214.483 556.867 214.202C557.236 213.921 557.676 213.704 558.186 213.552C558.701 213.394 559.275 213.314 559.908 213.314C560.664 213.314 561.338 213.44 561.93 213.692C562.527 213.944 562.999 214.322 563.345 214.826C563.69 215.324 563.863 215.951 563.863 216.707V220.601C563.863 221.222 563.898 221.693 563.969 222.016C564.039 222.332 564.139 222.61 564.268 222.851V223H561.297C561.156 222.707 561.051 222.35 560.98 221.928C560.916 221.5 560.884 221.061 560.884 220.609ZM561.244 217.19L561.262 218.772H559.952C559.677 218.772 559.442 218.811 559.249 218.887C559.062 218.963 558.909 219.068 558.792 219.203C558.681 219.332 558.599 219.479 558.546 219.643C558.499 219.807 558.476 219.979 558.476 220.161C558.476 220.337 558.517 220.495 558.599 220.636C558.687 220.771 558.804 220.876 558.95 220.952C559.097 221.028 559.261 221.066 559.442 221.066C559.771 221.066 560.049 221.005 560.277 220.882C560.512 220.753 560.69 220.598 560.813 220.416C560.937 220.234 560.998 220.064 560.998 219.906L561.648 221.119C561.531 221.354 561.396 221.591 561.244 221.831C561.098 222.071 560.913 222.294 560.69 222.499C560.474 222.698 560.207 222.862 559.891 222.991C559.574 223.114 559.19 223.176 558.739 223.176C558.153 223.176 557.614 223.056 557.122 222.815C556.636 222.575 556.246 222.241 555.953 221.813C555.66 221.38 555.514 220.882 555.514 220.319C555.514 219.827 555.602 219.388 555.777 219.001C555.959 218.614 556.231 218.286 556.595 218.017C556.958 217.747 557.421 217.542 557.983 217.401C558.546 217.261 559.208 217.19 559.97 217.19H561.244ZM568.495 215.318V226.656H565.533V213.49H568.293L568.495 215.318ZM574.331 218.131V218.315C574.331 219.007 574.252 219.648 574.094 220.24C573.936 220.832 573.701 221.348 573.391 221.787C573.08 222.227 572.693 222.569 572.23 222.815C571.773 223.056 571.243 223.176 570.64 223.176C570.071 223.176 569.582 223.05 569.172 222.798C568.762 222.546 568.419 222.197 568.144 221.752C567.868 221.307 567.646 220.797 567.476 220.223C567.306 219.648 567.171 219.042 567.071 218.403V218.166C567.171 217.48 567.306 216.845 567.476 216.259C567.646 215.667 567.868 215.151 568.144 214.712C568.419 214.272 568.759 213.93 569.163 213.684C569.573 213.438 570.062 213.314 570.631 213.314C571.234 213.314 571.765 213.429 572.222 213.657C572.685 213.886 573.071 214.214 573.382 214.642C573.698 215.063 573.936 215.57 574.094 216.162C574.252 216.754 574.331 217.41 574.331 218.131ZM571.369 218.315V218.131C571.369 217.762 571.343 217.425 571.29 217.12C571.237 216.81 571.152 216.54 571.035 216.312C570.924 216.083 570.774 215.907 570.587 215.784C570.399 215.661 570.168 215.6 569.893 215.6C569.576 215.6 569.31 215.649 569.093 215.749C568.882 215.843 568.712 215.989 568.583 216.188C568.46 216.382 568.372 216.625 568.319 216.918C568.272 217.205 568.252 217.542 568.258 217.929V218.649C568.246 219.095 568.29 219.487 568.39 219.827C568.489 220.161 568.662 220.422 568.908 220.609C569.154 220.797 569.488 220.891 569.91 220.891C570.191 220.891 570.426 220.826 570.613 220.697C570.801 220.562 570.95 220.378 571.062 220.144C571.173 219.903 571.252 219.628 571.299 219.317C571.346 219.007 571.369 218.673 571.369 218.315Z" fill="white"/>
<rect x="617" y="196" width="114" height="41" rx="3" fill="#424242"/>
<rect x="617" y="196" width="114" height="41" rx="3" stroke="#424242" stroke-width="4"/>
<path d="M643.062 210.203V223H639.978V210.203H643.062ZM648.037 215.529V217.902H642.184V215.529H648.037ZM648.538 210.203V212.585H642.184V210.203H648.538ZM652.81 213.49V223H649.839V213.49H652.81ZM649.663 211.038C649.663 210.616 649.815 210.271 650.12 210.001C650.425 209.731 650.82 209.597 651.307 209.597C651.793 209.597 652.188 209.731 652.493 210.001C652.798 210.271 652.95 210.616 652.95 211.038C652.95 211.46 652.798 211.806 652.493 212.075C652.188 212.345 651.793 212.479 651.307 212.479C650.82 212.479 650.425 212.345 650.12 212.075C649.815 211.806 649.663 211.46 649.663 211.038ZM657.626 215.846V223H654.664V213.49H657.433L657.626 215.846ZM660.438 213.42L660.386 216.171C660.269 216.159 660.11 216.145 659.911 216.127C659.712 216.109 659.545 216.101 659.41 216.101C659.064 216.101 658.766 216.142 658.514 216.224C658.268 216.3 658.062 216.417 657.898 216.575C657.74 216.728 657.623 216.921 657.547 217.155C657.477 217.39 657.444 217.662 657.45 217.973L656.914 217.621C656.914 216.982 656.976 216.402 657.099 215.881C657.228 215.354 657.409 214.899 657.644 214.519C657.878 214.132 658.162 213.836 658.496 213.631C658.83 213.42 659.205 213.314 659.621 213.314C659.768 213.314 659.911 213.323 660.052 213.341C660.198 213.358 660.327 213.385 660.438 213.42ZM665.888 223.176C665.114 223.176 664.423 223.056 663.813 222.815C663.204 222.569 662.688 222.232 662.267 221.805C661.851 221.377 661.531 220.885 661.309 220.328C661.092 219.771 660.983 219.183 660.983 218.562V218.228C660.983 217.53 661.08 216.886 661.273 216.294C661.467 215.696 661.754 215.175 662.135 214.729C662.516 214.284 662.993 213.938 663.567 213.692C664.142 213.44 664.81 213.314 665.571 213.314C666.245 213.314 666.849 213.423 667.382 213.64C667.915 213.856 668.366 214.167 668.735 214.571C669.11 214.976 669.395 215.465 669.588 216.039C669.787 216.613 669.887 217.258 669.887 217.973V219.177H662.117V217.322H666.995V217.094C667.001 216.777 666.945 216.508 666.828 216.285C666.717 216.062 666.553 215.893 666.336 215.775C666.119 215.658 665.855 215.6 665.545 215.6C665.223 215.6 664.956 215.67 664.745 215.811C664.54 215.951 664.379 216.145 664.262 216.391C664.15 216.631 664.071 216.909 664.024 217.226C663.978 217.542 663.954 217.876 663.954 218.228V218.562C663.954 218.913 664.001 219.232 664.095 219.52C664.194 219.807 664.335 220.053 664.517 220.258C664.704 220.457 664.927 220.612 665.185 220.724C665.448 220.835 665.747 220.891 666.081 220.891C666.485 220.891 666.884 220.814 667.276 220.662C667.669 220.51 668.006 220.258 668.287 219.906L669.632 221.506C669.438 221.781 669.163 222.048 668.806 222.306C668.454 222.563 668.032 222.774 667.54 222.938C667.048 223.097 666.497 223.176 665.888 223.176ZM671.117 209.5H674.079V220.662L673.771 223H671.117V209.5ZM679.915 218.14V218.324C679.915 219.045 679.842 219.701 679.695 220.293C679.549 220.885 679.323 221.397 679.019 221.831C678.714 222.259 678.33 222.59 677.867 222.824C677.404 223.059 676.856 223.176 676.224 223.176C675.649 223.176 675.157 223.053 674.747 222.807C674.337 222.555 673.994 222.209 673.719 221.77C673.443 221.324 673.221 220.812 673.051 220.231C672.881 219.646 672.746 219.019 672.646 218.351V218.131C672.746 217.469 672.881 216.848 673.051 216.268C673.221 215.682 673.443 215.169 673.719 214.729C673.994 214.284 674.334 213.938 674.738 213.692C675.148 213.44 675.638 213.314 676.206 213.314C676.845 213.314 677.396 213.435 677.858 213.675C678.327 213.915 678.714 214.252 679.019 214.686C679.323 215.119 679.549 215.629 679.695 216.215C679.842 216.801 679.915 217.442 679.915 218.14ZM676.953 218.324V218.14C676.953 217.794 676.933 217.469 676.892 217.164C676.851 216.859 676.777 216.59 676.672 216.355C676.566 216.121 676.417 215.937 676.224 215.802C676.03 215.667 675.778 215.6 675.468 215.6C675.151 215.6 674.885 215.652 674.668 215.758C674.457 215.863 674.287 216.016 674.158 216.215C674.035 216.408 673.947 216.648 673.895 216.936C673.842 217.217 673.818 217.536 673.824 217.894V218.588C673.812 219.074 673.856 219.49 673.956 219.836C674.056 220.182 674.229 220.445 674.475 220.627C674.721 220.809 675.058 220.899 675.485 220.899C675.802 220.899 676.057 220.838 676.25 220.715C676.449 220.592 676.599 220.416 676.698 220.188C676.798 219.959 676.865 219.687 676.9 219.37C676.936 219.054 676.953 218.705 676.953 218.324ZM686.173 220.609V216.689C686.173 216.42 686.135 216.188 686.059 215.995C685.982 215.802 685.862 215.652 685.698 215.547C685.534 215.436 685.314 215.38 685.039 215.38C684.816 215.38 684.626 215.418 684.468 215.494C684.31 215.57 684.189 215.685 684.107 215.837C684.025 215.989 683.984 216.183 683.984 216.417H681.022C681.022 215.978 681.119 215.57 681.312 215.195C681.512 214.814 681.793 214.483 682.156 214.202C682.525 213.921 682.965 213.704 683.475 213.552C683.99 213.394 684.564 213.314 685.197 213.314C685.953 213.314 686.627 213.44 687.219 213.692C687.816 213.944 688.288 214.322 688.634 214.826C688.979 215.324 689.152 215.951 689.152 216.707V220.601C689.152 221.222 689.188 221.693 689.258 222.016C689.328 222.332 689.428 222.61 689.557 222.851V223H686.586C686.445 222.707 686.34 222.35 686.27 221.928C686.205 221.5 686.173 221.061 686.173 220.609ZM686.533 217.19L686.551 218.772H685.241C684.966 218.772 684.731 218.811 684.538 218.887C684.351 218.963 684.198 219.068 684.081 219.203C683.97 219.332 683.888 219.479 683.835 219.643C683.788 219.807 683.765 219.979 683.765 220.161C683.765 220.337 683.806 220.495 683.888 220.636C683.976 220.771 684.093 220.876 684.239 220.952C684.386 221.028 684.55 221.066 684.731 221.066C685.06 221.066 685.338 221.005 685.566 220.882C685.801 220.753 685.979 220.598 686.103 220.416C686.226 220.234 686.287 220.064 686.287 219.906L686.938 221.119C686.82 221.354 686.686 221.591 686.533 221.831C686.387 222.071 686.202 222.294 685.979 222.499C685.763 222.698 685.496 222.862 685.18 222.991C684.863 223.114 684.479 223.176 684.028 223.176C683.442 223.176 682.903 223.056 682.411 222.815C681.925 222.575 681.535 222.241 681.242 221.813C680.949 221.38 680.803 220.882 680.803 220.319C680.803 219.827 680.891 219.388 681.066 219.001C681.248 218.614 681.521 218.286 681.884 218.017C682.247 217.747 682.71 217.542 683.272 217.401C683.835 217.261 684.497 217.19 685.259 217.19H686.533ZM695.779 220.328C695.779 220.164 695.724 220.023 695.612 219.906C695.507 219.783 695.319 219.672 695.05 219.572C694.78 219.467 694.402 219.361 693.916 219.256C693.453 219.156 693.017 219.024 692.606 218.86C692.202 218.696 691.848 218.497 691.543 218.263C691.238 218.028 690.998 217.75 690.822 217.428C690.652 217.105 690.567 216.736 690.567 216.32C690.567 215.916 690.652 215.535 690.822 215.178C690.998 214.814 691.253 214.495 691.587 214.22C691.927 213.938 692.34 213.719 692.826 213.561C693.312 213.396 693.866 213.314 694.487 213.314C695.343 213.314 696.081 213.446 696.702 213.71C697.323 213.968 697.801 214.331 698.135 214.8C698.475 215.263 698.645 215.799 698.645 216.408H695.683C695.683 216.168 695.642 215.963 695.56 215.793C695.483 215.623 695.357 215.494 695.182 215.406C695.006 215.312 694.771 215.266 694.479 215.266C694.273 215.266 694.086 215.304 693.916 215.38C693.752 215.456 693.62 215.562 693.521 215.696C693.421 215.831 693.371 215.989 693.371 216.171C693.371 216.3 693.4 216.417 693.459 216.522C693.523 216.622 693.62 216.716 693.749 216.804C693.878 216.886 694.042 216.962 694.241 217.032C694.44 217.097 694.681 217.155 694.962 217.208C695.601 217.325 696.198 217.492 696.755 217.709C697.312 217.926 697.763 218.233 698.108 218.632C698.46 219.03 698.636 219.566 698.636 220.24C698.636 220.662 698.539 221.052 698.346 221.409C698.152 221.761 697.874 222.071 697.511 222.341C697.147 222.604 696.711 222.81 696.201 222.956C695.691 223.103 695.117 223.176 694.479 223.176C693.57 223.176 692.803 223.015 692.176 222.692C691.549 222.364 691.074 221.954 690.752 221.462C690.436 220.964 690.277 220.46 690.277 219.95H693.037C693.049 220.243 693.119 220.483 693.248 220.671C693.383 220.858 693.562 220.996 693.784 221.084C694.007 221.172 694.265 221.216 694.558 221.216C694.827 221.216 695.05 221.178 695.226 221.102C695.407 221.025 695.545 220.923 695.639 220.794C695.732 220.659 695.779 220.504 695.779 220.328ZM704.63 223.176C703.856 223.176 703.165 223.056 702.556 222.815C701.946 222.569 701.431 222.232 701.009 221.805C700.593 221.377 700.273 220.885 700.051 220.328C699.834 219.771 699.726 219.183 699.726 218.562V218.228C699.726 217.53 699.822 216.886 700.016 216.294C700.209 215.696 700.496 215.175 700.877 214.729C701.258 214.284 701.735 213.938 702.31 213.692C702.884 213.44 703.552 213.314 704.313 213.314C704.987 213.314 705.591 213.423 706.124 213.64C706.657 213.856 707.108 214.167 707.478 214.571C707.853 214.976 708.137 215.465 708.33 216.039C708.529 216.613 708.629 217.258 708.629 217.973V219.177H700.859V217.322H705.737V217.094C705.743 216.777 705.688 216.508 705.57 216.285C705.459 216.062 705.295 215.893 705.078 215.775C704.861 215.658 704.598 215.6 704.287 215.6C703.965 215.6 703.698 215.67 703.487 215.811C703.282 215.951 703.121 216.145 703.004 216.391C702.893 216.631 702.813 216.909 702.767 217.226C702.72 217.542 702.696 217.876 702.696 218.228V218.562C702.696 218.913 702.743 219.232 702.837 219.52C702.937 219.807 703.077 220.053 703.259 220.258C703.446 220.457 703.669 220.612 703.927 220.724C704.19 220.835 704.489 220.891 704.823 220.891C705.228 220.891 705.626 220.814 706.019 220.662C706.411 220.51 706.748 220.258 707.029 219.906L708.374 221.506C708.181 221.781 707.905 222.048 707.548 222.306C707.196 222.563 706.774 222.774 706.282 222.938C705.79 223.097 705.239 223.176 704.63 223.176Z" fill="white"/>
<rect x="751" y="196" width="124" height="41" rx="3" fill="#424242"/>
<rect x="751" y="196" width="124" height="41" rx="3" stroke="#424242" stroke-width="4"/>
<path d="M775.585 210.203H778.099L780.955 219.106L783.812 210.203H786.325L781.975 223H779.936L775.585 210.203ZM774.056 210.203H776.657L777.141 220.012V223H774.056V210.203ZM785.253 210.203H787.863V223H784.77V220.012L785.253 210.203ZM789.331 218.342V218.157C789.331 217.46 789.431 216.818 789.63 216.232C789.829 215.641 790.122 215.128 790.509 214.694C790.896 214.261 791.373 213.924 791.941 213.684C792.51 213.438 793.166 213.314 793.91 213.314C794.66 213.314 795.319 213.438 795.888 213.684C796.462 213.924 796.942 214.261 797.329 214.694C797.716 215.128 798.009 215.641 798.208 216.232C798.407 216.818 798.507 217.46 798.507 218.157V218.342C798.507 219.033 798.407 219.675 798.208 220.267C798.009 220.853 797.716 221.365 797.329 221.805C796.942 222.238 796.465 222.575 795.896 222.815C795.328 223.056 794.672 223.176 793.928 223.176C793.184 223.176 792.524 223.056 791.95 222.815C791.376 222.575 790.896 222.238 790.509 221.805C790.122 221.365 789.829 220.853 789.63 220.267C789.431 219.675 789.331 219.033 789.331 218.342ZM792.293 218.157V218.342C792.293 218.699 792.319 219.033 792.372 219.344C792.425 219.654 792.513 219.927 792.636 220.161C792.759 220.39 792.926 220.568 793.137 220.697C793.348 220.826 793.611 220.891 793.928 220.891C794.238 220.891 794.496 220.826 794.701 220.697C794.912 220.568 795.079 220.39 795.202 220.161C795.325 219.927 795.413 219.654 795.466 219.344C795.519 219.033 795.545 218.699 795.545 218.342V218.157C795.545 217.812 795.519 217.486 795.466 217.182C795.413 216.871 795.325 216.599 795.202 216.364C795.079 216.124 794.912 215.937 794.701 215.802C794.49 215.667 794.227 215.6 793.91 215.6C793.6 215.6 793.339 215.667 793.128 215.802C792.923 215.937 792.759 216.124 792.636 216.364C792.513 216.599 792.425 216.871 792.372 217.182C792.319 217.486 792.293 217.812 792.293 218.157ZM802.734 215.521V223H799.772V213.49H802.55L802.734 215.521ZM802.383 217.92L801.688 217.938C801.688 217.211 801.776 216.563 801.952 215.995C802.128 215.421 802.377 214.935 802.699 214.536C803.021 214.138 803.405 213.836 803.851 213.631C804.302 213.42 804.803 213.314 805.354 213.314C805.793 213.314 806.194 213.379 806.558 213.508C806.927 213.637 807.243 213.845 807.507 214.132C807.776 214.419 807.981 214.8 808.122 215.274C808.269 215.743 808.342 216.323 808.342 217.015V223H805.362V217.006C805.362 216.625 805.31 216.335 805.204 216.136C805.099 215.931 804.946 215.79 804.747 215.714C804.548 215.638 804.305 215.6 804.018 215.6C803.713 215.6 803.455 215.658 803.244 215.775C803.033 215.893 802.863 216.057 802.734 216.268C802.611 216.473 802.521 216.716 802.462 216.997C802.409 217.278 802.383 217.586 802.383 217.92ZM815.962 213.49H818.651V222.631C818.651 223.51 818.449 224.254 818.045 224.863C817.641 225.479 817.075 225.944 816.349 226.261C815.628 226.583 814.784 226.744 813.817 226.744C813.39 226.744 812.953 226.688 812.508 226.577C812.062 226.472 811.646 226.313 811.26 226.103C810.873 225.892 810.548 225.631 810.284 225.32L811.523 223.58C811.764 223.85 812.065 224.078 812.429 224.266C812.792 224.459 813.22 224.556 813.712 224.556C814.14 224.556 814.497 224.479 814.784 224.327C815.077 224.175 815.3 223.952 815.452 223.659C815.604 223.372 815.681 223.023 815.681 222.613V215.74L815.962 213.49ZM809.643 218.359V218.175C809.643 217.454 809.73 216.798 809.906 216.206C810.088 215.608 810.346 215.096 810.68 214.668C811.02 214.234 811.43 213.9 811.91 213.666C812.391 213.432 812.933 213.314 813.536 213.314C814.187 213.314 814.72 213.44 815.136 213.692C815.558 213.938 815.895 214.284 816.146 214.729C816.404 215.175 816.604 215.696 816.744 216.294C816.891 216.886 817.014 217.524 817.113 218.21V218.43C817.014 219.074 816.876 219.684 816.7 220.258C816.53 220.826 816.308 221.33 816.032 221.77C815.757 222.209 815.411 222.555 814.995 222.807C814.585 223.053 814.093 223.176 813.519 223.176C812.921 223.176 812.382 223.056 811.901 222.815C811.427 222.575 811.02 222.238 810.68 221.805C810.346 221.371 810.088 220.861 809.906 220.275C809.73 219.689 809.643 219.051 809.643 218.359ZM812.604 218.175V218.359C812.604 218.717 812.637 219.048 812.701 219.353C812.771 219.657 812.877 219.927 813.018 220.161C813.158 220.39 813.331 220.568 813.536 220.697C813.747 220.826 813.993 220.891 814.274 220.891C814.702 220.891 815.048 220.8 815.312 220.618C815.575 220.437 815.766 220.179 815.883 219.845C816 219.511 816.05 219.118 816.032 218.667V217.973C816.044 217.586 816.018 217.246 815.953 216.953C815.889 216.654 815.786 216.405 815.646 216.206C815.511 216.007 815.329 215.857 815.101 215.758C814.878 215.652 814.608 215.6 814.292 215.6C814.017 215.6 813.773 215.664 813.562 215.793C813.352 215.922 813.176 216.104 813.035 216.338C812.895 216.566 812.786 216.839 812.71 217.155C812.64 217.466 812.604 217.806 812.604 218.175ZM819.987 218.342V218.157C819.987 217.46 820.087 216.818 820.286 216.232C820.485 215.641 820.778 215.128 821.165 214.694C821.552 214.261 822.029 213.924 822.598 213.684C823.166 213.438 823.822 213.314 824.566 213.314C825.316 213.314 825.976 213.438 826.544 213.684C827.118 213.924 827.599 214.261 827.985 214.694C828.372 215.128 828.665 215.641 828.864 216.232C829.063 216.818 829.163 217.46 829.163 218.157V218.342C829.163 219.033 829.063 219.675 828.864 220.267C828.665 220.853 828.372 221.365 827.985 221.805C827.599 222.238 827.121 222.575 826.553 222.815C825.984 223.056 825.328 223.176 824.584 223.176C823.84 223.176 823.181 223.056 822.606 222.815C822.032 222.575 821.552 222.238 821.165 221.805C820.778 221.365 820.485 220.853 820.286 220.267C820.087 219.675 819.987 219.033 819.987 218.342ZM822.949 218.157V218.342C822.949 218.699 822.976 219.033 823.028 219.344C823.081 219.654 823.169 219.927 823.292 220.161C823.415 220.39 823.582 220.568 823.793 220.697C824.004 220.826 824.268 220.891 824.584 220.891C824.895 220.891 825.152 220.826 825.357 220.697C825.568 220.568 825.735 220.39 825.858 220.161C825.981 219.927 826.069 219.654 826.122 219.344C826.175 219.033 826.201 218.699 826.201 218.342V218.157C826.201 217.812 826.175 217.486 826.122 217.182C826.069 216.871 825.981 216.599 825.858 216.364C825.735 216.124 825.568 215.937 825.357 215.802C825.146 215.667 824.883 215.6 824.566 215.6C824.256 215.6 823.995 215.667 823.784 215.802C823.579 215.937 823.415 216.124 823.292 216.364C823.169 216.599 823.081 216.871 823.028 217.182C822.976 217.486 822.949 217.812 822.949 218.157ZM834.779 223H831.94L831.958 220.627H834.779C835.365 220.627 835.86 220.486 836.265 220.205C836.675 219.924 836.985 219.505 837.196 218.948C837.413 218.386 837.521 217.694 837.521 216.874V216.32C837.521 215.705 837.46 215.166 837.337 214.703C837.22 214.234 837.044 213.845 836.81 213.534C836.575 213.218 836.282 212.98 835.931 212.822C835.585 212.664 835.187 212.585 834.735 212.585H831.888V210.203H834.735C835.603 210.203 836.396 210.353 837.117 210.651C837.844 210.944 838.471 211.366 838.998 211.917C839.531 212.462 839.941 213.109 840.229 213.859C840.521 214.604 840.668 215.43 840.668 216.338V216.874C840.668 217.776 840.521 218.603 840.229 219.353C839.941 220.103 839.534 220.75 839.007 221.295C838.479 221.84 837.855 222.262 837.135 222.561C836.42 222.854 835.635 223 834.779 223ZM833.707 210.203V223H830.622V210.203H833.707ZM847.497 217.56H844.201L844.184 215.538H846.855C847.336 215.538 847.72 215.485 848.007 215.38C848.294 215.269 848.502 215.107 848.631 214.896C848.766 214.686 848.833 214.422 848.833 214.105C848.833 213.742 848.766 213.449 848.631 213.227C848.496 213.004 848.282 212.843 847.989 212.743C847.702 212.638 847.33 212.585 846.873 212.585H845.361V223H842.276V210.203H846.873C847.664 210.203 848.37 210.276 848.991 210.423C849.612 210.563 850.14 210.78 850.573 211.073C851.013 211.366 851.347 211.735 851.575 212.181C851.804 212.62 851.918 213.139 851.918 213.736C851.918 214.258 851.807 214.747 851.584 215.204C851.361 215.661 850.989 216.033 850.468 216.32C849.952 216.602 849.246 216.748 848.35 216.76L847.497 217.56ZM847.374 223H843.454L844.509 220.627H847.374C847.796 220.627 848.133 220.562 848.385 220.434C848.643 220.299 848.827 220.123 848.938 219.906C849.056 219.684 849.114 219.438 849.114 219.168C849.114 218.84 849.059 218.556 848.947 218.315C848.842 218.075 848.672 217.891 848.438 217.762C848.203 217.627 847.89 217.56 847.497 217.56H844.904L844.922 215.538H848.024L848.745 216.347C849.601 216.312 850.277 216.432 850.775 216.707C851.279 216.982 851.64 217.346 851.856 217.797C852.073 218.248 852.182 218.72 852.182 219.212C852.182 220.05 852 220.75 851.637 221.312C851.279 221.875 850.743 222.297 850.028 222.578C849.313 222.859 848.429 223 847.374 223Z" fill="white"/>
<rect x="895" y="196" width="128" height="41" rx="3" fill="#424242"/>
<rect x="895" y="196" width="128" height="41" rx="3" stroke="#424242" stroke-width="4"/>
<path d="M926.806 220.627V223H919.985V220.627H926.806ZM921.084 210.203V223H917.999V210.203H921.084ZM925.927 215.283V217.577H919.985V215.283H925.927ZM926.832 210.203V212.585H919.985V210.203H926.832ZM930.444 213.49L931.78 216.109L933.16 213.49H936.236L933.74 218.122L936.368 223H933.266L931.78 220.188L930.304 223H927.201L929.829 218.122L927.342 213.49H930.444ZM940.2 215.318V226.656H937.238V213.49H939.998L940.2 215.318ZM946.036 218.131V218.315C946.036 219.007 945.957 219.648 945.799 220.24C945.641 220.832 945.406 221.348 945.096 221.787C944.785 222.227 944.398 222.569 943.936 222.815C943.479 223.056 942.948 223.176 942.345 223.176C941.776 223.176 941.287 223.05 940.877 222.798C940.467 222.546 940.124 222.197 939.849 221.752C939.573 221.307 939.351 220.797 939.181 220.223C939.011 219.648 938.876 219.042 938.776 218.403V218.166C938.876 217.48 939.011 216.845 939.181 216.259C939.351 215.667 939.573 215.151 939.849 214.712C940.124 214.272 940.464 213.93 940.868 213.684C941.278 213.438 941.768 213.314 942.336 213.314C942.939 213.314 943.47 213.429 943.927 213.657C944.39 213.886 944.776 214.214 945.087 214.642C945.403 215.063 945.641 215.57 945.799 216.162C945.957 216.754 946.036 217.41 946.036 218.131ZM943.074 218.315V218.131C943.074 217.762 943.048 217.425 942.995 217.12C942.942 216.81 942.857 216.54 942.74 216.312C942.629 216.083 942.479 215.907 942.292 215.784C942.104 215.661 941.873 215.6 941.598 215.6C941.281 215.6 941.015 215.649 940.798 215.749C940.587 215.843 940.417 215.989 940.288 216.188C940.165 216.382 940.077 216.625 940.024 216.918C939.978 217.205 939.957 217.542 939.963 217.929V218.649C939.951 219.095 939.995 219.487 940.095 219.827C940.194 220.161 940.367 220.422 940.613 220.609C940.859 220.797 941.193 220.891 941.615 220.891C941.896 220.891 942.131 220.826 942.318 220.697C942.506 220.562 942.655 220.378 942.767 220.144C942.878 219.903 942.957 219.628 943.004 219.317C943.051 219.007 943.074 218.673 943.074 218.315ZM950.343 215.846V223H947.381V213.49H950.149L950.343 215.846ZM953.155 213.42L953.103 216.171C952.985 216.159 952.827 216.145 952.628 216.127C952.429 216.109 952.262 216.101 952.127 216.101C951.781 216.101 951.482 216.142 951.23 216.224C950.984 216.3 950.779 216.417 950.615 216.575C950.457 216.728 950.34 216.921 950.264 217.155C950.193 217.39 950.161 217.662 950.167 217.973L949.631 217.621C949.631 216.982 949.692 216.402 949.815 215.881C949.944 215.354 950.126 214.899 950.36 214.519C950.595 214.132 950.879 213.836 951.213 213.631C951.547 213.42 951.922 213.314 952.338 213.314C952.484 213.314 952.628 213.323 952.769 213.341C952.915 213.358 953.044 213.385 953.155 213.42ZM958.604 223.176C957.831 223.176 957.14 223.056 956.53 222.815C955.921 222.569 955.405 222.232 954.983 221.805C954.567 221.377 954.248 220.885 954.025 220.328C953.809 219.771 953.7 219.183 953.7 218.562V218.228C953.7 217.53 953.797 216.886 953.99 216.294C954.184 215.696 954.471 215.175 954.852 214.729C955.232 214.284 955.71 213.938 956.284 213.692C956.858 213.44 957.526 213.314 958.288 213.314C958.962 213.314 959.565 213.423 960.099 213.64C960.632 213.856 961.083 214.167 961.452 214.571C961.827 214.976 962.111 215.465 962.305 216.039C962.504 216.613 962.604 217.258 962.604 217.973V219.177H954.834V217.322H959.712V217.094C959.718 216.777 959.662 216.508 959.545 216.285C959.434 216.062 959.27 215.893 959.053 215.775C958.836 215.658 958.572 215.6 958.262 215.6C957.939 215.6 957.673 215.67 957.462 215.811C957.257 215.951 957.096 216.145 956.979 216.391C956.867 216.631 956.788 216.909 956.741 217.226C956.694 217.542 956.671 217.876 956.671 218.228V218.562C956.671 218.913 956.718 219.232 956.812 219.52C956.911 219.807 957.052 220.053 957.233 220.258C957.421 220.457 957.644 220.612 957.901 220.724C958.165 220.835 958.464 220.891 958.798 220.891C959.202 220.891 959.601 220.814 959.993 220.662C960.386 220.51 960.723 220.258 961.004 219.906L962.349 221.506C962.155 221.781 961.88 222.048 961.522 222.306C961.171 222.563 960.749 222.774 960.257 222.938C959.765 223.097 959.214 223.176 958.604 223.176ZM968.791 220.328C968.791 220.164 968.735 220.023 968.624 219.906C968.519 219.783 968.331 219.672 968.062 219.572C967.792 219.467 967.414 219.361 966.928 219.256C966.465 219.156 966.028 219.024 965.618 218.86C965.214 218.696 964.859 218.497 964.555 218.263C964.25 218.028 964.01 217.75 963.834 217.428C963.664 217.105 963.579 216.736 963.579 216.32C963.579 215.916 963.664 215.535 963.834 215.178C964.01 214.814 964.265 214.495 964.599 214.22C964.938 213.938 965.352 213.719 965.838 213.561C966.324 213.396 966.878 213.314 967.499 213.314C968.354 213.314 969.093 213.446 969.714 213.71C970.335 213.968 970.812 214.331 971.146 214.8C971.486 215.263 971.656 215.799 971.656 216.408H968.694C968.694 216.168 968.653 215.963 968.571 215.793C968.495 215.623 968.369 215.494 968.193 215.406C968.018 215.312 967.783 215.266 967.49 215.266C967.285 215.266 967.098 215.304 966.928 215.38C966.764 215.456 966.632 215.562 966.532 215.696C966.433 215.831 966.383 215.989 966.383 216.171C966.383 216.3 966.412 216.417 966.471 216.522C966.535 216.622 966.632 216.716 966.761 216.804C966.89 216.886 967.054 216.962 967.253 217.032C967.452 217.097 967.692 217.155 967.974 217.208C968.612 217.325 969.21 217.492 969.767 217.709C970.323 217.926 970.774 218.233 971.12 218.632C971.472 219.03 971.647 219.566 971.647 220.24C971.647 220.662 971.551 221.052 971.357 221.409C971.164 221.761 970.886 222.071 970.522 222.341C970.159 222.604 969.723 222.81 969.213 222.956C968.703 223.103 968.129 223.176 967.49 223.176C966.582 223.176 965.814 223.015 965.188 222.692C964.561 222.364 964.086 221.954 963.764 221.462C963.447 220.964 963.289 220.46 963.289 219.95H966.049C966.061 220.243 966.131 220.483 966.26 220.671C966.395 220.858 966.573 220.996 966.796 221.084C967.019 221.172 967.276 221.216 967.569 221.216C967.839 221.216 968.062 221.178 968.237 221.102C968.419 221.025 968.557 220.923 968.65 220.794C968.744 220.659 968.791 220.504 968.791 220.328ZM978.02 220.328C978.02 220.164 977.964 220.023 977.853 219.906C977.747 219.783 977.56 219.672 977.29 219.572C977.021 219.467 976.643 219.361 976.156 219.256C975.693 219.156 975.257 219.024 974.847 218.86C974.442 218.696 974.088 218.497 973.783 218.263C973.479 218.028 973.238 217.75 973.062 217.428C972.893 217.105 972.808 216.736 972.808 216.32C972.808 215.916 972.893 215.535 973.062 215.178C973.238 214.814 973.493 214.495 973.827 214.22C974.167 213.938 974.58 213.719 975.066 213.561C975.553 213.396 976.106 213.314 976.728 213.314C977.583 213.314 978.321 213.446 978.942 213.71C979.563 213.968 980.041 214.331 980.375 214.8C980.715 215.263 980.885 215.799 980.885 216.408H977.923C977.923 216.168 977.882 215.963 977.8 215.793C977.724 215.623 977.598 215.494 977.422 215.406C977.246 215.312 977.012 215.266 976.719 215.266C976.514 215.266 976.326 215.304 976.156 215.38C975.992 215.456 975.86 215.562 975.761 215.696C975.661 215.831 975.611 215.989 975.611 216.171C975.611 216.3 975.641 216.417 975.699 216.522C975.764 216.622 975.86 216.716 975.989 216.804C976.118 216.886 976.282 216.962 976.481 217.032C976.681 217.097 976.921 217.155 977.202 217.208C977.841 217.325 978.438 217.492 978.995 217.709C979.552 217.926 980.003 218.233 980.349 218.632C980.7 219.03 980.876 219.566 980.876 220.24C980.876 220.662 980.779 221.052 980.586 221.409C980.393 221.761 980.114 222.071 979.751 222.341C979.388 222.604 978.951 222.81 978.441 222.956C977.932 223.103 977.357 223.176 976.719 223.176C975.811 223.176 975.043 223.015 974.416 222.692C973.789 222.364 973.314 221.954 972.992 221.462C972.676 220.964 972.518 220.46 972.518 219.95H975.277C975.289 220.243 975.359 220.483 975.488 220.671C975.623 220.858 975.802 220.996 976.024 221.084C976.247 221.172 976.505 221.216 976.798 221.216C977.067 221.216 977.29 221.178 977.466 221.102C977.647 221.025 977.785 220.923 977.879 220.794C977.973 220.659 978.02 220.504 978.02 220.328ZM982.458 221.611C982.458 221.189 982.61 220.838 982.915 220.557C983.22 220.27 983.612 220.126 984.093 220.126C984.579 220.126 984.972 220.27 985.271 220.557C985.575 220.838 985.728 221.189 985.728 221.611C985.728 222.033 985.575 222.388 985.271 222.675C984.972 222.956 984.579 223.097 984.093 223.097C983.612 223.097 983.22 222.956 982.915 222.675C982.61 222.388 982.458 222.033 982.458 221.611ZM987.934 213.49H990.904V223.308C990.904 224.069 990.758 224.711 990.465 225.232C990.172 225.76 989.753 226.158 989.208 226.428C988.663 226.703 988.013 226.841 987.257 226.841C987.005 226.841 986.773 226.829 986.562 226.806C986.346 226.788 986.108 226.75 985.851 226.691V224.45C986.003 224.474 986.144 224.491 986.272 224.503C986.401 224.521 986.542 224.529 986.694 224.529C986.964 224.529 987.189 224.485 987.371 224.397C987.553 224.31 987.69 224.175 987.784 223.993C987.884 223.812 987.934 223.583 987.934 223.308V213.49ZM987.714 211.038C987.714 210.616 987.866 210.271 988.171 210.001C988.476 209.731 988.871 209.597 989.357 209.597C989.844 209.597 990.239 209.731 990.544 210.001C990.849 210.271 991.001 210.616 991.001 211.038C991.001 211.46 990.849 211.806 990.544 212.075C990.239 212.345 989.844 212.479 989.357 212.479C988.871 212.479 988.476 212.345 988.171 212.075C987.866 211.806 987.714 211.46 987.714 211.038ZM997.566 220.328C997.566 220.164 997.511 220.023 997.399 219.906C997.294 219.783 997.106 219.672 996.837 219.572C996.567 219.467 996.189 219.361 995.703 219.256C995.24 219.156 994.804 219.024 994.394 218.86C993.989 218.696 993.635 218.497 993.33 218.263C993.025 218.028 992.785 217.75 992.609 217.428C992.439 217.105 992.354 216.736 992.354 216.32C992.354 215.916 992.439 215.535 992.609 215.178C992.785 214.814 993.04 214.495 993.374 214.22C993.714 213.938 994.127 213.719 994.613 213.561C995.1 213.396 995.653 213.314 996.274 213.314C997.13 213.314 997.868 213.446 998.489 213.71C999.11 213.968 999.588 214.331 999.922 214.8C1000.26 215.263 1000.43 215.799 1000.43 216.408H997.47C997.47 216.168 997.429 215.963 997.347 215.793C997.271 215.623 997.145 215.494 996.969 215.406C996.793 215.312 996.559 215.266 996.266 215.266C996.061 215.266 995.873 215.304 995.703 215.38C995.539 215.456 995.407 215.562 995.308 215.696C995.208 215.831 995.158 215.989 995.158 216.171C995.158 216.3 995.188 216.417 995.246 216.522C995.311 216.622 995.407 216.716 995.536 216.804C995.665 216.886 995.829 216.962 996.028 217.032C996.228 217.097 996.468 217.155 996.749 217.208C997.388 217.325 997.985 217.492 998.542 217.709C999.099 217.926 999.55 218.233 999.896 218.632C1000.25 219.03 1000.42 219.566 1000.42 220.24C1000.42 220.662 1000.33 221.052 1000.13 221.409C999.939 221.761 999.661 222.071 999.298 222.341C998.935 222.604 998.498 222.81 997.988 222.956C997.479 223.103 996.904 223.176 996.266 223.176C995.357 223.176 994.59 223.015 993.963 222.692C993.336 222.364 992.861 221.954 992.539 221.462C992.223 220.964 992.064 220.46 992.064 219.95H994.824C994.836 220.243 994.906 220.483 995.035 220.671C995.17 220.858 995.349 220.996 995.571 221.084C995.794 221.172 996.052 221.216 996.345 221.216C996.614 221.216 996.837 221.178 997.013 221.102C997.194 221.025 997.332 220.923 997.426 220.794C997.52 220.659 997.566 220.504 997.566 220.328Z" fill="white"/>
<path d="M1066 0H1348C1356.28 0 1363 6.71573 1363 15V282C1363 290.284 1356.28 297 1348 297H1066V0Z" fill="white"/>
<path d="M1147.73 72.6334L1206.04 24.2597C1209.72 21.2048 1215.05 21.1862 1218.75 24.2154L1299.43 90.2067C1301.06 91.5361 1302 93.5251 1302 95.625V125.893C1302 131.416 1297.52 135.893 1292 135.893H1143.03C1137.51 135.893 1133.03 140.37 1133.03 145.893V155.614C1133.03 161.137 1137.51 165.614 1143.03 165.614H1292C1297.52 165.614 1302 170.092 1302 175.614V187.41C1302 192.933 1297.52 197.41 1292 197.41H1222.37C1216.85 197.41 1212.37 201.888 1212.37 207.41V213.862" stroke="#0D4C92" stroke-width="9"/>
<circle cx="1152" cy="78.1511" r="20.5" fill="white" stroke="#0D4C92" stroke-width="9"/>
<path d="M1161.75 78.0489C1161.75 83.8936 1157.19 88.5978 1151.62 88.5978C1146.05 88.5978 1141.5 83.8936 1141.5 78.0489C1141.5 72.2042 1146.05 67.5 1151.62 67.5C1157.19 67.5 1161.75 72.2042 1161.75 78.0489Z" fill="#0D4C92" stroke="#0D4C92"/>
<path d="M1186 281V241.5C1186 227.417 1197.42 216 1211.5 216V216C1225.58 216 1237 227.417 1237 241.5V281" stroke="#0D4C92" stroke-width="9"/>
<path d="M1195 277C1195 274.791 1193.21 273 1191 273H1183V281H1191C1193.21 281 1195 279.209 1195 277Z" fill="#0D4C92"/>
<path d="M1227 277C1227 279.209 1228.79 281 1231 281H1239V273H1231C1228.79 273 1227 274.791 1227 277Z" fill="#0D4C92"/>
<rect x="1202.01" y="45.1156" width="9.65692" height="10.0445" rx="1" fill="#0D4C92"/>
<rect x="1202.01" y="57.1689" width="9.65692" height="10.0445" rx="1" fill="#0D4C92"/>
<rect x="1212.99" y="45.1156" width="9.65692" height="10.0445" rx="1" fill="#0D4C92"/>
<rect x="1212.99" y="57.1689" width="9.65692" height="10.0445" rx="1" fill="#0D4C92"/>
</svg>
