<svg width="1363" height="163" viewBox="0 0 1363 163" fill="none" xmlns="http://www.w3.org/2000/svg">
<path d="M0 15C0 6.71573 6.71573 0 15 0H37V163H15C6.71573 163 0 156.284 0 148V15Z" fill="#424242"/>
<rect width="1097" height="163" transform="translate(37)" fill="#F0F0F0"/>
<path d="M101.906 53.9219L94.3945 51.2383V48.0859L104.602 52.375V54.6367L101.906 53.9219ZM94.3945 56.1719L101.918 53.4297L104.602 52.7852V55.0352L94.3945 59.3242V56.1719ZM114.504 43.9375H117.48L121.863 56.4648L126.246 43.9375H129.223L123.059 61H120.668L114.504 43.9375ZM112.898 43.9375H115.863L116.402 56.1484V61H112.898V43.9375ZM127.863 43.9375H130.84V61H127.324V56.1484L127.863 43.9375ZM139.547 61.2344C138.562 61.2344 137.68 61.0781 136.898 60.7656C136.117 60.4453 135.453 60.0039 134.906 59.4414C134.367 58.8789 133.953 58.2266 133.664 57.4844C133.375 56.7344 133.23 55.9375 133.23 55.0938V54.625C133.23 53.6641 133.367 52.7852 133.641 51.9883C133.914 51.1914 134.305 50.5 134.812 49.9141C135.328 49.3281 135.953 48.8789 136.688 48.5664C137.422 48.2461 138.25 48.0859 139.172 48.0859C140.07 48.0859 140.867 48.2344 141.562 48.5312C142.258 48.8281 142.84 49.25 143.309 49.7969C143.785 50.3438 144.145 51 144.387 51.7656C144.629 52.5234 144.75 53.3672 144.75 54.2969V55.7031H134.672V53.4531H141.434V53.1953C141.434 52.7266 141.348 52.3086 141.176 51.9414C141.012 51.5664 140.762 51.2695 140.426 51.0508C140.09 50.832 139.66 50.7227 139.137 50.7227C138.691 50.7227 138.309 50.8203 137.988 51.0156C137.668 51.2109 137.406 51.4844 137.203 51.8359C137.008 52.1875 136.859 52.6016 136.758 53.0781C136.664 53.5469 136.617 54.0625 136.617 54.625V55.0938C136.617 55.6016 136.688 56.0703 136.828 56.5C136.977 56.9297 137.184 57.3008 137.449 57.6133C137.723 57.9258 138.051 58.168 138.434 58.3398C138.824 58.5117 139.266 58.5977 139.758 58.5977C140.367 58.5977 140.934 58.4805 141.457 58.2461C141.988 58.0039 142.445 57.6406 142.828 57.1562L144.469 58.9375C144.203 59.3203 143.84 59.6875 143.379 60.0391C142.926 60.3906 142.379 60.6797 141.738 60.9062C141.098 61.125 140.367 61.2344 139.547 61.2344ZM154.16 58.2344V43H157.559V61H154.5L154.16 58.2344ZM146.145 54.8125V54.5664C146.145 53.5977 146.254 52.7188 146.473 51.9297C146.691 51.1328 147.012 50.4492 147.434 49.8789C147.855 49.3086 148.375 48.8672 148.992 48.5547C149.609 48.2422 150.312 48.0859 151.102 48.0859C151.844 48.0859 152.492 48.2422 153.047 48.5547C153.609 48.8672 154.086 49.3125 154.477 49.8906C154.875 50.4609 155.195 51.1367 155.438 51.918C155.68 52.6914 155.855 53.5391 155.965 54.4609V55C155.855 55.8828 155.68 56.7031 155.438 57.4609C155.195 58.2188 154.875 58.8828 154.477 59.4531C154.086 60.0156 153.609 60.4531 153.047 60.7656C152.484 61.0781 151.828 61.2344 151.078 61.2344C150.289 61.2344 149.586 61.0742 148.969 60.7539C148.359 60.4336 147.844 59.9844 147.422 59.4062C147.008 58.8281 146.691 58.1484 146.473 57.3672C146.254 56.5859 146.145 55.7344 146.145 54.8125ZM149.52 54.5664V54.8125C149.52 55.3359 149.559 55.8242 149.637 56.2773C149.723 56.7305 149.859 57.1328 150.047 57.4844C150.242 57.8281 150.492 58.0977 150.797 58.293C151.109 58.4805 151.488 58.5742 151.934 58.5742C152.512 58.5742 152.988 58.4453 153.363 58.1875C153.738 57.9219 154.023 57.5586 154.219 57.0977C154.422 56.6367 154.539 56.1055 154.57 55.5039V53.9688C154.547 53.4766 154.477 53.0352 154.359 52.6445C154.25 52.2461 154.086 51.9062 153.867 51.625C153.656 51.3438 153.391 51.125 153.07 50.9688C152.758 50.8125 152.387 50.7344 151.957 50.7344C151.52 50.7344 151.145 50.8359 150.832 51.0391C150.52 51.2344 150.266 51.5039 150.07 51.8477C149.883 52.1914 149.742 52.5977 149.648 53.0664C149.562 53.5273 149.52 54.0273 149.52 54.5664ZM170.297 55.3398H173.801C173.73 56.4883 173.414 57.5078 172.852 58.3984C172.297 59.2891 171.52 59.9844 170.52 60.4844C169.527 60.9844 168.332 61.2344 166.934 61.2344C165.84 61.2344 164.859 61.0469 163.992 60.6719C163.125 60.2891 162.383 59.7422 161.766 59.0312C161.156 58.3203 160.691 57.4609 160.371 56.4531C160.051 55.4453 159.891 54.3164 159.891 53.0664V51.8828C159.891 50.6328 160.055 49.5039 160.383 48.4961C160.719 47.4805 161.195 46.6172 161.812 45.9062C162.438 45.1953 163.184 44.6484 164.051 44.2656C164.918 43.8828 165.887 43.6914 166.957 43.6914C168.379 43.6914 169.578 43.9492 170.555 44.4648C171.539 44.9805 172.301 45.6914 172.84 46.5977C173.387 47.5039 173.715 48.5352 173.824 49.6914H170.309C170.27 49.0039 170.133 48.4219 169.898 47.9453C169.664 47.4609 169.309 47.0977 168.832 46.8555C168.363 46.6055 167.738 46.4805 166.957 46.4805C166.371 46.4805 165.859 46.5898 165.422 46.8086C164.984 47.0273 164.617 47.3594 164.32 47.8047C164.023 48.25 163.801 48.8125 163.652 49.4922C163.512 50.1641 163.441 50.9531 163.441 51.8594V53.0664C163.441 53.9492 163.508 54.7266 163.641 55.3984C163.773 56.0625 163.977 56.625 164.25 57.0859C164.531 57.5391 164.891 57.8828 165.328 58.1172C165.773 58.3438 166.309 58.457 166.934 58.457C167.668 58.457 168.273 58.3398 168.75 58.1055C169.227 57.8711 169.59 57.5234 169.84 57.0625C170.098 56.6016 170.25 56.0273 170.297 55.3398ZM175.359 54.7891V54.543C175.359 53.6133 175.492 52.7578 175.758 51.9766C176.023 51.1875 176.41 50.5039 176.918 49.9258C177.426 49.3477 178.051 48.8984 178.793 48.5781C179.535 48.25 180.387 48.0859 181.348 48.0859C182.309 48.0859 183.164 48.25 183.914 48.5781C184.664 48.8984 185.293 49.3477 185.801 49.9258C186.316 50.5039 186.707 51.1875 186.973 51.9766C187.238 52.7578 187.371 53.6133 187.371 54.543V54.7891C187.371 55.7109 187.238 56.5664 186.973 57.3555C186.707 58.1367 186.316 58.8203 185.801 59.4062C185.293 59.9844 184.668 60.4336 183.926 60.7539C183.184 61.0742 182.332 61.2344 181.371 61.2344C180.41 61.2344 179.555 61.0742 178.805 60.7539C178.062 60.4336 177.434 59.9844 176.918 59.4062C176.41 58.8203 176.023 58.1367 175.758 57.3555C175.492 56.5664 175.359 55.7109 175.359 54.7891ZM178.734 54.543V54.7891C178.734 55.3203 178.781 55.8164 178.875 56.2773C178.969 56.7383 179.117 57.1445 179.32 57.4961C179.531 57.8398 179.805 58.1094 180.141 58.3047C180.477 58.5 180.887 58.5977 181.371 58.5977C181.84 58.5977 182.242 58.5 182.578 58.3047C182.914 58.1094 183.184 57.8398 183.387 57.4961C183.59 57.1445 183.738 56.7383 183.832 56.2773C183.934 55.8164 183.984 55.3203 183.984 54.7891V54.543C183.984 54.0273 183.934 53.543 183.832 53.0898C183.738 52.6289 183.586 52.2227 183.375 51.8711C183.172 51.5117 182.902 51.2305 182.566 51.0273C182.23 50.8242 181.824 50.7227 181.348 50.7227C180.871 50.7227 180.465 50.8242 180.129 51.0273C179.801 51.2305 179.531 51.5117 179.32 51.8711C179.117 52.2227 178.969 52.6289 178.875 53.0898C178.781 53.543 178.734 54.0273 178.734 54.543ZM192.75 51.0273V61H189.375V48.3203H192.539L192.75 51.0273ZM192.258 54.2148H191.344C191.344 53.2773 191.465 52.4336 191.707 51.6836C191.949 50.9258 192.289 50.2812 192.727 49.75C193.164 49.2109 193.684 48.8008 194.285 48.5195C194.895 48.2305 195.574 48.0859 196.324 48.0859C196.918 48.0859 197.461 48.1719 197.953 48.3438C198.445 48.5156 198.867 48.7891 199.219 49.1641C199.578 49.5391 199.852 50.0352 200.039 50.6523C200.234 51.2695 200.332 52.0234 200.332 52.9141V61H196.934V52.9023C196.934 52.3398 196.855 51.9023 196.699 51.5898C196.543 51.2773 196.312 51.0586 196.008 50.9336C195.711 50.8008 195.344 50.7344 194.906 50.7344C194.453 50.7344 194.059 50.8242 193.723 51.0039C193.395 51.1836 193.121 51.4336 192.902 51.7539C192.691 52.0664 192.531 52.4336 192.422 52.8555C192.312 53.2773 192.258 53.7305 192.258 54.2148ZM206.203 51.0273V61H202.828V48.3203H205.992L206.203 51.0273ZM205.711 54.2148H204.797C204.797 53.2773 204.918 52.4336 205.16 51.6836C205.402 50.9258 205.742 50.2812 206.18 49.75C206.617 49.2109 207.137 48.8008 207.738 48.5195C208.348 48.2305 209.027 48.0859 209.777 48.0859C210.371 48.0859 210.914 48.1719 211.406 48.3438C211.898 48.5156 212.32 48.7891 212.672 49.1641C213.031 49.5391 213.305 50.0352 213.492 50.6523C213.688 51.2695 213.785 52.0234 213.785 52.9141V61H210.387V52.9023C210.387 52.3398 210.309 51.9023 210.152 51.5898C209.996 51.2773 209.766 51.0586 209.461 50.9336C209.164 50.8008 208.797 50.7344 208.359 50.7344C207.906 50.7344 207.512 50.8242 207.176 51.0039C206.848 51.1836 206.574 51.4336 206.355 51.7539C206.145 52.0664 205.984 52.4336 205.875 52.8555C205.766 53.2773 205.711 53.7305 205.711 54.2148ZM222.188 61.2344C221.203 61.2344 220.32 61.0781 219.539 60.7656C218.758 60.4453 218.094 60.0039 217.547 59.4414C217.008 58.8789 216.594 58.2266 216.305 57.4844C216.016 56.7344 215.871 55.9375 215.871 55.0938V54.625C215.871 53.6641 216.008 52.7852 216.281 51.9883C216.555 51.1914 216.945 50.5 217.453 49.9141C217.969 49.3281 218.594 48.8789 219.328 48.5664C220.062 48.2461 220.891 48.0859 221.812 48.0859C222.711 48.0859 223.508 48.2344 224.203 48.5312C224.898 48.8281 225.48 49.25 225.949 49.7969C226.426 50.3438 226.785 51 227.027 51.7656C227.27 52.5234 227.391 53.3672 227.391 54.2969V55.7031H217.312V53.4531H224.074V53.1953C224.074 52.7266 223.988 52.3086 223.816 51.9414C223.652 51.5664 223.402 51.2695 223.066 51.0508C222.73 50.832 222.301 50.7227 221.777 50.7227C221.332 50.7227 220.949 50.8203 220.629 51.0156C220.309 51.2109 220.047 51.4844 219.844 51.8359C219.648 52.1875 219.5 52.6016 219.398 53.0781C219.305 53.5469 219.258 54.0625 219.258 54.625V55.0938C219.258 55.6016 219.328 56.0703 219.469 56.5C219.617 56.9297 219.824 57.3008 220.09 57.6133C220.363 57.9258 220.691 58.168 221.074 58.3398C221.465 58.5117 221.906 58.5977 222.398 58.5977C223.008 58.5977 223.574 58.4805 224.098 58.2461C224.629 58.0039 225.086 57.6406 225.469 57.1562L227.109 58.9375C226.844 59.3203 226.48 59.6875 226.02 60.0391C225.566 60.3906 225.02 60.6797 224.379 60.9062C223.738 61.125 223.008 61.2344 222.188 61.2344ZM234.551 58.5977C234.965 58.5977 235.332 58.5195 235.652 58.3633C235.973 58.1992 236.223 57.9727 236.402 57.6836C236.59 57.3867 236.688 57.0391 236.695 56.6406H239.871C239.863 57.5312 239.625 58.3242 239.156 59.0195C238.688 59.707 238.059 60.25 237.27 60.6484C236.48 61.0391 235.598 61.2344 234.621 61.2344C233.637 61.2344 232.777 61.0703 232.043 60.7422C231.316 60.4141 230.711 59.9609 230.227 59.3828C229.742 58.7969 229.379 58.1172 229.137 57.3438C228.895 56.5625 228.773 55.7266 228.773 54.8359V54.4961C228.773 53.5977 228.895 52.7617 229.137 51.9883C229.379 51.207 229.742 50.5273 230.227 49.9492C230.711 49.3633 231.316 48.9062 232.043 48.5781C232.77 48.25 233.621 48.0859 234.598 48.0859C235.637 48.0859 236.547 48.2852 237.328 48.6836C238.117 49.082 238.734 49.6523 239.18 50.3945C239.633 51.1289 239.863 52 239.871 53.0078H236.695C236.688 52.5859 236.598 52.2031 236.426 51.8594C236.262 51.5156 236.02 51.2422 235.699 51.0391C235.387 50.8281 235 50.7227 234.539 50.7227C234.047 50.7227 233.645 50.8281 233.332 51.0391C233.02 51.2422 232.777 51.5234 232.605 51.8828C232.434 52.2344 232.312 52.6367 232.242 53.0898C232.18 53.5352 232.148 54.0039 232.148 54.4961V54.8359C232.148 55.3281 232.18 55.8008 232.242 56.2539C232.305 56.707 232.422 57.1094 232.594 57.4609C232.773 57.8125 233.02 58.0898 233.332 58.293C233.645 58.4961 234.051 58.5977 234.551 58.5977ZM248.039 48.3203V50.7109H240.656V48.3203H248.039ZM242.484 45.1914H245.859V57.1797C245.859 57.5469 245.906 57.8281 246 58.0234C246.102 58.2188 246.25 58.3555 246.445 58.4336C246.641 58.5039 246.887 58.5391 247.184 58.5391C247.395 58.5391 247.582 58.5312 247.746 58.5156C247.918 58.4922 248.062 58.4688 248.18 58.4453L248.191 60.9297C247.902 61.0234 247.59 61.0977 247.254 61.1523C246.918 61.207 246.547 61.2344 246.141 61.2344C245.398 61.2344 244.75 61.1133 244.195 60.8711C243.648 60.6211 243.227 60.2227 242.93 59.6758C242.633 59.1289 242.484 58.4102 242.484 57.5195V45.1914Z" fill="#888888"/>
<path d="M114.117 84.875H122.344V107.164C122.344 109.82 121.789 112.07 120.68 113.914C119.57 115.742 118.016 117.125 116.016 118.062C114.016 119 111.664 119.469 108.961 119.469C106.289 119.469 103.938 119 101.906 118.062C99.8906 117.125 98.3125 115.742 97.1719 113.914C96.0469 112.07 95.4844 109.82 95.4844 107.164V84.875H103.734V107.164C103.734 108.57 103.938 109.719 104.344 110.609C104.75 111.484 105.344 112.125 106.125 112.531C106.906 112.938 107.852 113.141 108.961 113.141C110.086 113.141 111.031 112.938 111.797 112.531C112.562 112.125 113.141 111.484 113.531 110.609C113.922 109.719 114.117 108.57 114.117 107.164V84.875ZM134.906 99.0547V119H127.008V93.6406H134.414L134.906 99.0547ZM133.969 105.453L132.117 105.5C132.117 103.562 132.352 101.836 132.82 100.32C133.289 98.7891 133.953 97.4922 134.812 96.4297C135.672 95.3672 136.695 94.5625 137.883 94.0156C139.086 93.4531 140.422 93.1719 141.891 93.1719C143.062 93.1719 144.133 93.3438 145.102 93.6875C146.086 94.0312 146.93 94.5859 147.633 95.3516C148.352 96.1172 148.898 97.1328 149.273 98.3984C149.664 99.6484 149.859 101.195 149.859 103.039V119H141.914V103.016C141.914 102 141.773 101.227 141.492 100.695C141.211 100.148 140.805 99.7734 140.273 99.5703C139.742 99.3672 139.094 99.2656 138.328 99.2656C137.516 99.2656 136.828 99.4219 136.266 99.7344C135.703 100.047 135.25 100.484 134.906 101.047C134.578 101.594 134.336 102.242 134.18 102.992C134.039 103.742 133.969 104.562 133.969 105.453ZM162.586 93.6406V119H154.664V93.6406H162.586ZM154.195 87.1016C154.195 85.9766 154.602 85.0547 155.414 84.3359C156.227 83.6172 157.281 83.2578 158.578 83.2578C159.875 83.2578 160.93 83.6172 161.742 84.3359C162.555 85.0547 162.961 85.9766 162.961 87.1016C162.961 88.2266 162.555 89.1484 161.742 89.8672C160.93 90.5859 159.875 90.9453 158.578 90.9453C157.281 90.9453 156.227 90.5859 155.414 89.8672C154.602 89.1484 154.195 88.2266 154.195 87.1016ZM180.82 93.6406V99.125H165.539V93.6406H180.82ZM168.75 87.3359H176.648V110.727C176.648 111.398 176.727 111.922 176.883 112.297C177.039 112.656 177.305 112.914 177.68 113.07C178.07 113.211 178.586 113.281 179.227 113.281C179.68 113.281 180.055 113.273 180.352 113.258C180.648 113.227 180.93 113.188 181.195 113.141V118.789C180.523 119.008 179.82 119.172 179.086 119.281C178.352 119.406 177.57 119.469 176.742 119.469C175.055 119.469 173.609 119.203 172.406 118.672C171.219 118.141 170.312 117.305 169.688 116.164C169.062 115.023 168.75 113.539 168.75 111.711V87.3359ZM211.406 84.875V119H203.18V84.875H211.406ZM221.672 84.875V91.2266H193.148V84.875H221.672ZM234.961 119.469C232.898 119.469 231.055 119.148 229.43 118.508C227.805 117.852 226.43 116.953 225.305 115.812C224.195 114.672 223.344 113.359 222.75 111.875C222.172 110.391 221.883 108.82 221.883 107.164V106.273C221.883 104.414 222.141 102.695 222.656 101.117C223.172 99.5234 223.938 98.1328 224.953 96.9453C225.969 95.7578 227.242 94.8359 228.773 94.1797C230.305 93.5078 232.086 93.1719 234.117 93.1719C235.914 93.1719 237.523 93.4609 238.945 94.0391C240.367 94.6172 241.57 95.4453 242.555 96.5234C243.555 97.6016 244.312 98.9062 244.828 100.438C245.359 101.969 245.625 103.688 245.625 105.594V108.805H224.906V103.859H237.914V103.25C237.93 102.406 237.781 101.688 237.469 101.094C237.172 100.5 236.734 100.047 236.156 99.7344C235.578 99.4219 234.875 99.2656 234.047 99.2656C233.188 99.2656 232.477 99.4531 231.914 99.8281C231.367 100.203 230.938 100.719 230.625 101.375C230.328 102.016 230.117 102.758 229.992 103.602C229.867 104.445 229.805 105.336 229.805 106.273V107.164C229.805 108.102 229.93 108.953 230.18 109.719C230.445 110.484 230.82 111.141 231.305 111.688C231.805 112.219 232.398 112.633 233.086 112.93C233.789 113.227 234.586 113.375 235.477 113.375C236.555 113.375 237.617 113.172 238.664 112.766C239.711 112.359 240.609 111.688 241.359 110.75L244.945 115.016C244.43 115.75 243.695 116.461 242.742 117.148C241.805 117.836 240.68 118.398 239.367 118.836C238.055 119.258 236.586 119.469 234.961 119.469ZM262.125 111.875C262.125 111.438 261.977 111.062 261.68 110.75C261.398 110.422 260.898 110.125 260.18 109.859C259.461 109.578 258.453 109.297 257.156 109.016C255.922 108.75 254.758 108.398 253.664 107.961C252.586 107.523 251.641 106.992 250.828 106.367C250.016 105.742 249.375 105 248.906 104.141C248.453 103.281 248.227 102.297 248.227 101.188C248.227 100.109 248.453 99.0938 248.906 98.1406C249.375 97.1719 250.055 96.3203 250.945 95.5859C251.852 94.8359 252.953 94.25 254.25 93.8281C255.547 93.3906 257.023 93.1719 258.68 93.1719C260.961 93.1719 262.93 93.5234 264.586 94.2266C266.242 94.9141 267.516 95.8828 268.406 97.1328C269.312 98.3672 269.766 99.7969 269.766 101.422H261.867C261.867 100.781 261.758 100.234 261.539 99.7812C261.336 99.3281 261 98.9844 260.531 98.75C260.062 98.5 259.438 98.375 258.656 98.375C258.109 98.375 257.609 98.4766 257.156 98.6797C256.719 98.8828 256.367 99.1641 256.102 99.5234C255.836 99.8828 255.703 100.305 255.703 100.789C255.703 101.133 255.781 101.445 255.938 101.727C256.109 101.992 256.367 102.242 256.711 102.477C257.055 102.695 257.492 102.898 258.023 103.086C258.555 103.258 259.195 103.414 259.945 103.555C261.648 103.867 263.242 104.312 264.727 104.891C266.211 105.469 267.414 106.289 268.336 107.352C269.273 108.414 269.742 109.844 269.742 111.641C269.742 112.766 269.484 113.805 268.969 114.758C268.453 115.695 267.711 116.523 266.742 117.242C265.773 117.945 264.609 118.492 263.25 118.883C261.891 119.273 260.359 119.469 258.656 119.469C256.234 119.469 254.188 119.039 252.516 118.18C250.844 117.305 249.578 116.211 248.719 114.898C247.875 113.57 247.453 112.227 247.453 110.867H254.812C254.844 111.648 255.031 112.289 255.375 112.789C255.734 113.289 256.211 113.656 256.805 113.891C257.398 114.125 258.086 114.242 258.867 114.242C259.586 114.242 260.18 114.141 260.648 113.938C261.133 113.734 261.5 113.461 261.75 113.117C262 112.758 262.125 112.344 262.125 111.875ZM286.805 93.6406V99.125H271.523V93.6406H286.805ZM274.734 87.3359H282.633V110.727C282.633 111.398 282.711 111.922 282.867 112.297C283.023 112.656 283.289 112.914 283.664 113.07C284.055 113.211 284.57 113.281 285.211 113.281C285.664 113.281 286.039 113.273 286.336 113.258C286.633 113.227 286.914 113.188 287.18 113.141V118.789C286.508 119.008 285.805 119.172 285.07 119.281C284.336 119.406 283.555 119.469 282.727 119.469C281.039 119.469 279.594 119.203 278.391 118.672C277.203 118.141 276.297 117.305 275.672 116.164C275.047 115.023 274.734 113.539 274.734 111.711V87.3359ZM298.289 93.6406V119H290.367V93.6406H298.289ZM289.898 87.1016C289.898 85.9766 290.305 85.0547 291.117 84.3359C291.93 83.6172 292.984 83.2578 294.281 83.2578C295.578 83.2578 296.633 83.6172 297.445 84.3359C298.258 85.0547 298.664 85.9766 298.664 87.1016C298.664 88.2266 298.258 89.1484 297.445 89.8672C296.633 90.5859 295.578 90.9453 294.281 90.9453C292.984 90.9453 291.93 90.5859 291.117 89.8672C290.305 89.1484 289.898 88.2266 289.898 87.1016ZM310.922 99.0547V119H303.023V93.6406H310.43L310.922 99.0547ZM309.984 105.453L308.133 105.5C308.133 103.562 308.367 101.836 308.836 100.32C309.305 98.7891 309.969 97.4922 310.828 96.4297C311.688 95.3672 312.711 94.5625 313.898 94.0156C315.102 93.4531 316.438 93.1719 317.906 93.1719C319.078 93.1719 320.148 93.3438 321.117 93.6875C322.102 94.0312 322.945 94.5859 323.648 95.3516C324.367 96.1172 324.914 97.1328 325.289 98.3984C325.68 99.6484 325.875 101.195 325.875 103.039V119H317.93V103.016C317.93 102 317.789 101.227 317.508 100.695C317.227 100.148 316.82 99.7734 316.289 99.5703C315.758 99.3672 315.109 99.2656 314.344 99.2656C313.531 99.2656 312.844 99.4219 312.281 99.7344C311.719 100.047 311.266 100.484 310.922 101.047C310.594 101.594 310.352 102.242 310.195 102.992C310.055 103.742 309.984 104.562 309.984 105.453ZM346.195 93.6406H353.367V118.016C353.367 120.359 352.828 122.344 351.75 123.969C350.672 125.609 349.164 126.852 347.227 127.695C345.305 128.555 343.055 128.984 340.477 128.984C339.336 128.984 338.172 128.836 336.984 128.539C335.797 128.258 334.688 127.836 333.656 127.273C332.625 126.711 331.758 126.016 331.055 125.188L334.359 120.547C335 121.266 335.805 121.875 336.773 122.375C337.742 122.891 338.883 123.148 340.195 123.148C341.336 123.148 342.289 122.945 343.055 122.539C343.836 122.133 344.43 121.539 344.836 120.758C345.242 119.992 345.445 119.062 345.445 117.969V99.6406L346.195 93.6406ZM329.344 106.625V106.133C329.344 104.211 329.578 102.461 330.047 100.883C330.531 99.2891 331.219 97.9219 332.109 96.7812C333.016 95.625 334.109 94.7344 335.391 94.1094C336.672 93.4844 338.117 93.1719 339.727 93.1719C341.461 93.1719 342.883 93.5078 343.992 94.1797C345.117 94.8359 346.016 95.7578 346.688 96.9453C347.375 98.1328 347.906 99.5234 348.281 101.117C348.672 102.695 349 104.398 349.266 106.227V106.812C349 108.531 348.633 110.156 348.164 111.688C347.711 113.203 347.117 114.547 346.383 115.719C345.648 116.891 344.727 117.812 343.617 118.484C342.523 119.141 341.211 119.469 339.68 119.469C338.086 119.469 336.648 119.148 335.367 118.508C334.102 117.867 333.016 116.969 332.109 115.812C331.219 114.656 330.531 113.297 330.047 111.734C329.578 110.172 329.344 108.469 329.344 106.625ZM337.242 106.133V106.625C337.242 107.578 337.328 108.461 337.5 109.273C337.688 110.086 337.969 110.805 338.344 111.43C338.719 112.039 339.18 112.516 339.727 112.859C340.289 113.203 340.945 113.375 341.695 113.375C342.836 113.375 343.758 113.133 344.461 112.648C345.164 112.164 345.672 111.477 345.984 110.586C346.297 109.695 346.43 108.648 346.383 107.445V105.594C346.414 104.562 346.344 103.656 346.172 102.875C346 102.078 345.727 101.414 345.352 100.883C344.992 100.352 344.508 99.9531 343.898 99.6875C343.305 99.4062 342.586 99.2656 341.742 99.2656C341.008 99.2656 340.359 99.4375 339.797 99.7812C339.234 100.125 338.766 100.609 338.391 101.234C338.016 101.844 337.727 102.57 337.523 103.414C337.336 104.242 337.242 105.148 337.242 106.133Z" fill="black"/>
<path d="M1134 0H1348C1356.28 0 1363 6.71573 1363 15V148C1363 156.284 1356.28 163 1348 163H1134V0Z" fill="#0D4C92"/>
<path d="M1210.62 43.625H1286.38V119.375H1210.62V43.625Z" fill="white" fill-opacity="0.01"/>
<path d="M1276.91 72.0312V105.172C1276.91 107.787 1274.79 109.906 1272.17 109.906H1224.83C1222.21 109.906 1220.09 107.787 1220.09 105.172V57.8281C1220.09 55.2134 1222.21 53.0938 1224.83 53.0938H1261.12" stroke="white" stroke-width="7.24" stroke-linecap="round" stroke-linejoin="round"/>
<path d="M1232.72 75.1875L1248.5 87.8125L1276.91 53.0938" stroke="white" stroke-width="7.24" stroke-linecap="round" stroke-linejoin="round"/>
</svg>
