<svg width="1363" height="297" viewBox="0 0 1363 297" fill="none" xmlns="http://www.w3.org/2000/svg">
<path d="M0 15C0 6.71573 6.71573 0 15 0H37V297H15C6.71573 297 0 290.284 0 282V15Z" fill="#0D4C92"/>
<path d="M37 0H1066V297H37V0Z" fill="#F0F0F0"/>
<path d="M97.6934 49.4062H102.158L108.732 68.1973L115.307 49.4062H119.771L110.525 75H106.939L97.6934 49.4062ZM95.2852 49.4062H99.7324L100.541 67.7227V75H95.2852V49.4062ZM117.732 49.4062H122.197V75H116.924V67.7227L117.732 49.4062ZM136.77 70.7109V62.2383C136.77 61.6289 136.67 61.1074 136.471 60.6738C136.271 60.2285 135.961 59.8828 135.539 59.6367C135.129 59.3906 134.596 59.2676 133.939 59.2676C133.377 59.2676 132.891 59.3672 132.48 59.5664C132.07 59.7539 131.754 60.0293 131.531 60.3926C131.309 60.7441 131.197 61.1602 131.197 61.6406H126.135C126.135 60.832 126.322 60.0645 126.697 59.3379C127.072 58.6113 127.617 57.9727 128.332 57.4219C129.047 56.8594 129.896 56.4199 130.881 56.1035C131.877 55.7871 132.99 55.6289 134.221 55.6289C135.697 55.6289 137.01 55.875 138.158 56.3672C139.307 56.8594 140.209 57.5977 140.865 58.582C141.533 59.5664 141.867 60.7969 141.867 62.2734V70.4121C141.867 71.4551 141.932 72.3105 142.061 72.9785C142.189 73.6348 142.377 74.209 142.623 74.7012V75H137.508C137.262 74.4844 137.074 73.8398 136.945 73.0664C136.828 72.2812 136.77 71.4961 136.77 70.7109ZM137.438 63.416L137.473 66.2812H134.643C133.975 66.2812 133.395 66.3574 132.902 66.5098C132.41 66.6621 132.006 66.8789 131.689 67.1602C131.373 67.4297 131.139 67.7461 130.986 68.1094C130.846 68.4727 130.775 68.8711 130.775 69.3047C130.775 69.7383 130.875 70.1309 131.074 70.4824C131.273 70.8223 131.561 71.0918 131.936 71.291C132.311 71.4785 132.75 71.5723 133.254 71.5723C134.016 71.5723 134.678 71.4199 135.24 71.1152C135.803 70.8105 136.236 70.4355 136.541 69.9902C136.857 69.5449 137.021 69.123 137.033 68.7246L138.369 70.8691C138.182 71.3496 137.924 71.8477 137.596 72.3633C137.279 72.8789 136.875 73.3652 136.383 73.8223C135.891 74.2676 135.299 74.6367 134.607 74.9297C133.916 75.2109 133.096 75.3516 132.146 75.3516C130.939 75.3516 129.844 75.1113 128.859 74.6309C127.887 74.1387 127.113 73.4648 126.539 72.6094C125.977 71.7422 125.695 70.7578 125.695 69.6562C125.695 68.6602 125.883 67.7754 126.258 67.002C126.633 66.2285 127.184 65.5781 127.91 65.0508C128.648 64.5117 129.568 64.1074 130.67 63.8379C131.771 63.5566 133.049 63.416 134.502 63.416H137.438ZM150.832 60.1289V75H145.77V55.9805H150.533L150.832 60.1289ZM156.562 55.8574L156.475 60.5508C156.229 60.5156 155.93 60.4863 155.578 60.4629C155.238 60.4277 154.928 60.4102 154.646 60.4102C153.932 60.4102 153.311 60.5039 152.783 60.6914C152.268 60.8672 151.834 61.1309 151.482 61.4824C151.143 61.834 150.885 62.2617 150.709 62.7656C150.545 63.2695 150.451 63.8438 150.428 64.4883L149.408 64.1719C149.408 62.9414 149.531 61.8105 149.777 60.7793C150.023 59.7363 150.381 58.8281 150.85 58.0547C151.33 57.2812 151.916 56.6836 152.607 56.2617C153.299 55.8398 154.09 55.6289 154.98 55.6289C155.262 55.6289 155.549 55.6523 155.842 55.6992C156.135 55.7344 156.375 55.7871 156.562 55.8574ZM164.701 70.0781L168.656 55.9805H171.873L170.836 61.5176L166.881 75H164.191L164.701 70.0781ZM162.697 55.9805L165.527 70.0605L165.791 75H162.627L157.811 55.9805H162.697ZM175.494 69.832L178.254 55.9805H183.158L178.342 75H175.195L175.494 69.832ZM172.312 55.9805L176.25 69.9727L176.795 75H174.088L170.133 61.5352L169.131 55.9805H172.312ZM195.973 70.7109V62.2383C195.973 61.6289 195.873 61.1074 195.674 60.6738C195.475 60.2285 195.164 59.8828 194.742 59.6367C194.332 59.3906 193.799 59.2676 193.143 59.2676C192.58 59.2676 192.094 59.3672 191.684 59.5664C191.273 59.7539 190.957 60.0293 190.734 60.3926C190.512 60.7441 190.4 61.1602 190.4 61.6406H185.338C185.338 60.832 185.525 60.0645 185.9 59.3379C186.275 58.6113 186.82 57.9727 187.535 57.4219C188.25 56.8594 189.1 56.4199 190.084 56.1035C191.08 55.7871 192.193 55.6289 193.424 55.6289C194.9 55.6289 196.213 55.875 197.361 56.3672C198.51 56.8594 199.412 57.5977 200.068 58.582C200.736 59.5664 201.07 60.7969 201.07 62.2734V70.4121C201.07 71.4551 201.135 72.3105 201.264 72.9785C201.393 73.6348 201.58 74.209 201.826 74.7012V75H196.711C196.465 74.4844 196.277 73.8398 196.148 73.0664C196.031 72.2812 195.973 71.4961 195.973 70.7109ZM196.641 63.416L196.676 66.2812H193.846C193.178 66.2812 192.598 66.3574 192.105 66.5098C191.613 66.6621 191.209 66.8789 190.893 67.1602C190.576 67.4297 190.342 67.7461 190.189 68.1094C190.049 68.4727 189.979 68.8711 189.979 69.3047C189.979 69.7383 190.078 70.1309 190.277 70.4824C190.477 70.8223 190.764 71.0918 191.139 71.291C191.514 71.4785 191.953 71.5723 192.457 71.5723C193.219 71.5723 193.881 71.4199 194.443 71.1152C195.006 70.8105 195.439 70.4355 195.744 69.9902C196.061 69.5449 196.225 69.123 196.236 68.7246L197.572 70.8691C197.385 71.3496 197.127 71.8477 196.799 72.3633C196.482 72.8789 196.078 73.3652 195.586 73.8223C195.094 74.2676 194.502 74.6367 193.811 74.9297C193.119 75.2109 192.299 75.3516 191.35 75.3516C190.143 75.3516 189.047 75.1113 188.062 74.6309C187.09 74.1387 186.316 73.4648 185.742 72.6094C185.18 71.7422 184.898 70.7578 184.898 69.6562C184.898 68.6602 185.086 67.7754 185.461 67.002C185.836 66.2285 186.387 65.5781 187.113 65.0508C187.852 64.5117 188.771 64.1074 189.873 63.8379C190.975 63.5566 192.252 63.416 193.705 63.416H196.641ZM235.277 61.6055V62.8184C235.277 64.7637 235.014 66.5098 234.486 68.0566C233.959 69.6035 233.215 70.9219 232.254 72.0117C231.293 73.0898 230.145 73.916 228.809 74.4902C227.484 75.0645 226.014 75.3516 224.396 75.3516C222.791 75.3516 221.32 75.0645 219.984 74.4902C218.66 73.916 217.512 73.0898 216.539 72.0117C215.566 70.9219 214.811 69.6035 214.271 68.0566C213.744 66.5098 213.48 64.7637 213.48 62.8184V61.6055C213.48 59.6484 213.744 57.9023 214.271 56.3672C214.799 54.8203 215.543 53.502 216.504 52.4121C217.477 51.3223 218.625 50.4902 219.949 49.916C221.285 49.3418 222.756 49.0547 224.361 49.0547C225.979 49.0547 227.449 49.3418 228.773 49.916C230.109 50.4902 231.258 51.3223 232.219 52.4121C233.191 53.502 233.941 54.8203 234.469 56.3672C235.008 57.9023 235.277 59.6484 235.277 61.6055ZM229.951 62.8184V61.5703C229.951 60.2109 229.828 59.0156 229.582 57.9844C229.336 56.9531 228.973 56.0859 228.492 55.3828C228.012 54.6797 227.426 54.1523 226.734 53.8008C226.043 53.4375 225.252 53.2559 224.361 53.2559C223.471 53.2559 222.68 53.4375 221.988 53.8008C221.309 54.1523 220.729 54.6797 220.248 55.3828C219.779 56.0859 219.422 56.9531 219.176 57.9844C218.93 59.0156 218.807 60.2109 218.807 61.5703V62.8184C218.807 64.166 218.93 65.3613 219.176 66.4043C219.422 67.4355 219.785 68.3086 220.266 69.0234C220.746 69.7266 221.332 70.2598 222.023 70.623C222.715 70.9863 223.506 71.168 224.396 71.168C225.287 71.168 226.078 70.9863 226.77 70.623C227.461 70.2598 228.041 69.7266 228.51 69.0234C228.979 68.3086 229.336 67.4355 229.582 66.4043C229.828 65.3613 229.951 64.166 229.951 62.8184ZM243.715 60.041V75H238.652V55.9805H243.398L243.715 60.041ZM242.977 64.8223H241.605C241.605 63.416 241.787 62.1504 242.15 61.0254C242.514 59.8887 243.023 58.9219 243.68 58.125C244.336 57.3164 245.115 56.7012 246.018 56.2793C246.932 55.8457 247.951 55.6289 249.076 55.6289C249.967 55.6289 250.781 55.7578 251.52 56.0156C252.258 56.2734 252.891 56.6836 253.418 57.2461C253.957 57.8086 254.367 58.5527 254.648 59.4785C254.941 60.4043 255.088 61.5352 255.088 62.8711V75H249.99V62.8535C249.99 62.0098 249.873 61.3535 249.639 60.8848C249.404 60.416 249.059 60.0879 248.602 59.9004C248.156 59.7012 247.605 59.6016 246.949 59.6016C246.27 59.6016 245.678 59.7363 245.174 60.0059C244.682 60.2754 244.271 60.6504 243.943 61.1309C243.627 61.5996 243.387 62.1504 243.223 62.7832C243.059 63.416 242.977 64.0957 242.977 64.8223ZM267.691 75.3516C266.215 75.3516 264.891 75.1172 263.719 74.6484C262.547 74.168 261.551 73.5059 260.73 72.6621C259.922 71.8184 259.301 70.8398 258.867 69.7266C258.434 68.6016 258.217 67.4062 258.217 66.1406V65.4375C258.217 63.9961 258.422 62.6777 258.832 61.4824C259.242 60.2871 259.828 59.25 260.59 58.3711C261.363 57.4922 262.301 56.8184 263.402 56.3496C264.504 55.8691 265.746 55.6289 267.129 55.6289C268.477 55.6289 269.672 55.8516 270.715 56.2969C271.758 56.7422 272.631 57.375 273.334 58.1953C274.049 59.0156 274.588 60 274.951 61.1484C275.314 62.2852 275.496 63.5508 275.496 64.9453V67.0547H260.379V63.6797H270.521V63.293C270.521 62.5898 270.393 61.9629 270.135 61.4121C269.889 60.8496 269.514 60.4043 269.01 60.0762C268.506 59.748 267.861 59.584 267.076 59.584C266.408 59.584 265.834 59.7305 265.354 60.0234C264.873 60.3164 264.48 60.7266 264.176 61.2539C263.883 61.7812 263.66 62.4023 263.508 63.1172C263.367 63.8203 263.297 64.5938 263.297 65.4375V66.1406C263.297 66.9023 263.402 67.6055 263.613 68.25C263.836 68.8945 264.146 69.4512 264.545 69.9199C264.955 70.3887 265.447 70.752 266.021 71.0098C266.607 71.2676 267.27 71.3965 268.008 71.3965C268.922 71.3965 269.771 71.2207 270.557 70.8691C271.354 70.5059 272.039 69.9609 272.613 69.2344L275.074 71.9062C274.676 72.4805 274.131 73.0312 273.439 73.5586C272.76 74.0859 271.939 74.5195 270.979 74.8594C270.018 75.1875 268.922 75.3516 267.691 75.3516ZM283.723 55.9805V75H278.643V55.9805H283.723ZM278.326 51.0234C278.326 50.2852 278.584 49.6758 279.1 49.1953C279.615 48.7148 280.307 48.4746 281.174 48.4746C282.029 48.4746 282.715 48.7148 283.23 49.1953C283.758 49.6758 284.021 50.2852 284.021 51.0234C284.021 51.7617 283.758 52.3711 283.23 52.8516C282.715 53.332 282.029 53.5723 281.174 53.5723C280.307 53.5723 279.615 53.332 279.1 52.8516C278.584 52.3711 278.326 51.7617 278.326 51.0234ZM298.189 69.7441C298.189 69.3809 298.084 69.0527 297.873 68.7598C297.662 68.4668 297.27 68.1973 296.695 67.9512C296.133 67.6934 295.318 67.459 294.252 67.248C293.291 67.0371 292.395 66.7734 291.562 66.457C290.742 66.1289 290.027 65.7363 289.418 65.2793C288.82 64.8223 288.352 64.2832 288.012 63.6621C287.672 63.0293 287.502 62.3086 287.502 61.5C287.502 60.7031 287.672 59.9531 288.012 59.25C288.363 58.5469 288.861 57.9258 289.506 57.3867C290.162 56.8359 290.959 56.4082 291.896 56.1035C292.846 55.7871 293.912 55.6289 295.096 55.6289C296.748 55.6289 298.166 55.8926 299.35 56.4199C300.545 56.9473 301.459 57.6738 302.092 58.5996C302.736 59.5137 303.059 60.5566 303.059 61.7285H297.996C297.996 61.2363 297.891 60.7969 297.68 60.4102C297.48 60.0117 297.164 59.7012 296.73 59.4785C296.309 59.2441 295.758 59.127 295.078 59.127C294.516 59.127 294.029 59.2266 293.619 59.4258C293.209 59.6133 292.893 59.8711 292.67 60.1992C292.459 60.5156 292.354 60.8672 292.354 61.2539C292.354 61.5469 292.412 61.8105 292.529 62.0449C292.658 62.2676 292.863 62.4727 293.145 62.6602C293.426 62.8477 293.789 63.0234 294.234 63.1875C294.691 63.3398 295.254 63.4805 295.922 63.6094C297.293 63.8906 298.518 64.2598 299.596 64.7168C300.674 65.1621 301.529 65.7715 302.162 66.5449C302.795 67.3066 303.111 68.3086 303.111 69.5508C303.111 70.3945 302.924 71.168 302.549 71.8711C302.174 72.5742 301.635 73.1895 300.932 73.7168C300.229 74.2324 299.385 74.6367 298.4 74.9297C297.428 75.2109 296.332 75.3516 295.113 75.3516C293.344 75.3516 291.844 75.0352 290.613 74.4023C289.395 73.7695 288.469 72.9668 287.836 71.9941C287.215 71.0098 286.904 70.002 286.904 68.9707H291.703C291.727 69.6621 291.902 70.2188 292.23 70.6406C292.57 71.0625 292.998 71.3672 293.514 71.5547C294.041 71.7422 294.609 71.8359 295.219 71.8359C295.875 71.8359 296.42 71.748 296.854 71.5723C297.287 71.3848 297.615 71.1387 297.838 70.834C298.072 70.5176 298.189 70.1543 298.189 69.7441Z" fill="#888888"/>
<path d="M100.793 100.188H108.613L117.5 127.887L126.387 100.188H134.207L120.672 140H114.328L100.793 100.188ZM96.0352 100.188H104.129L105.633 130.703V140H96.0352V100.188ZM130.871 100.188H138.992V140H129.367V130.703L130.871 100.188ZM159.035 140.547C156.629 140.547 154.478 140.173 152.582 139.426C150.686 138.66 149.082 137.612 147.77 136.281C146.475 134.951 145.482 133.419 144.789 131.688C144.115 129.956 143.777 128.124 143.777 126.191V125.152C143.777 122.983 144.078 120.978 144.68 119.137C145.281 117.277 146.174 115.655 147.359 114.27C148.544 112.884 150.03 111.809 151.816 111.043C153.603 110.259 155.681 109.867 158.051 109.867C160.147 109.867 162.025 110.204 163.684 110.879C165.342 111.553 166.746 112.52 167.895 113.777C169.061 115.035 169.945 116.557 170.547 118.344C171.167 120.13 171.477 122.135 171.477 124.359V128.105H147.305V122.336H162.48V121.625C162.499 120.641 162.326 119.802 161.961 119.109C161.615 118.417 161.104 117.888 160.43 117.523C159.755 117.159 158.935 116.977 157.969 116.977C156.966 116.977 156.137 117.195 155.48 117.633C154.842 118.07 154.341 118.672 153.977 119.438C153.63 120.185 153.384 121.051 153.238 122.035C153.092 123.02 153.02 124.059 153.02 125.152V126.191C153.02 127.285 153.165 128.279 153.457 129.172C153.767 130.065 154.204 130.831 154.77 131.469C155.353 132.089 156.046 132.572 156.848 132.918C157.668 133.264 158.598 133.438 159.637 133.438C160.895 133.438 162.134 133.201 163.355 132.727C164.577 132.253 165.625 131.469 166.5 130.375L170.684 135.352C170.082 136.208 169.225 137.038 168.113 137.84C167.02 138.642 165.707 139.298 164.176 139.809C162.645 140.301 160.931 140.547 159.035 140.547ZM192.23 133.219V98H201.5V140H193.188L192.23 133.219ZM174.074 125.562V124.988C174.074 122.746 174.32 120.704 174.812 118.863C175.305 117.004 176.034 115.409 177 114.078C177.966 112.729 179.169 111.69 180.609 110.961C182.049 110.232 183.708 109.867 185.586 109.867C187.263 109.867 188.73 110.259 189.988 111.043C191.246 111.809 192.322 112.884 193.215 114.27C194.108 115.655 194.837 117.277 195.402 119.137C195.967 120.978 196.396 122.965 196.688 125.098V125.781C196.396 127.786 195.967 129.682 195.402 131.469C194.837 133.237 194.108 134.805 193.215 136.172C192.322 137.539 191.237 138.615 189.961 139.398C188.703 140.164 187.227 140.547 185.531 140.547C183.654 140.547 181.995 140.173 180.555 139.426C179.133 138.678 177.939 137.63 176.973 136.281C176.025 134.932 175.305 133.346 174.812 131.523C174.32 129.701 174.074 127.714 174.074 125.562ZM183.289 124.988V125.562C183.289 126.674 183.362 127.704 183.508 128.652C183.654 129.6 183.9 130.439 184.246 131.168C184.611 131.879 185.085 132.435 185.668 132.836C186.27 133.237 187.008 133.438 187.883 133.438C189.068 133.438 190.043 133.155 190.809 132.59C191.592 132.025 192.167 131.223 192.531 130.184C192.914 129.145 193.078 127.923 193.023 126.52V124.359C193.06 123.156 192.978 122.099 192.777 121.188C192.577 120.258 192.258 119.483 191.82 118.863C191.401 118.243 190.863 117.779 190.207 117.469C189.569 117.141 188.812 116.977 187.938 116.977C187.081 116.977 186.352 117.177 185.75 117.578C185.167 117.979 184.693 118.544 184.328 119.273C183.964 119.984 183.699 120.832 183.535 121.816C183.371 122.783 183.289 123.84 183.289 124.988ZM229.801 126.52H239.371C239.243 129.29 238.496 131.733 237.129 133.848C235.762 135.962 233.866 137.612 231.441 138.797C229.035 139.964 226.191 140.547 222.91 140.547C220.249 140.547 217.87 140.1 215.773 139.207C213.695 138.314 211.927 137.029 210.469 135.352C209.029 133.674 207.926 131.642 207.16 129.254C206.413 126.866 206.039 124.177 206.039 121.188V119.027C206.039 116.038 206.431 113.349 207.215 110.961C208.017 108.555 209.147 106.513 210.605 104.836C212.082 103.141 213.85 101.846 215.91 100.953C217.97 100.06 220.258 99.6133 222.773 99.6133C226.237 99.6133 229.163 100.233 231.551 101.473C233.939 102.712 235.789 104.417 237.102 106.586C238.414 108.737 239.189 111.189 239.426 113.941H229.855C229.819 112.447 229.564 111.198 229.09 110.195C228.616 109.174 227.868 108.409 226.848 107.898C225.827 107.388 224.469 107.133 222.773 107.133C221.589 107.133 220.559 107.352 219.684 107.789C218.809 108.227 218.079 108.919 217.496 109.867C216.913 110.815 216.475 112.046 216.184 113.559C215.91 115.053 215.773 116.858 215.773 118.973V121.188C215.773 123.302 215.901 125.107 216.156 126.602C216.411 128.096 216.822 129.318 217.387 130.266C217.952 131.214 218.681 131.915 219.574 132.371C220.486 132.809 221.598 133.027 222.91 133.027C224.368 133.027 225.599 132.799 226.602 132.344C227.604 131.87 228.379 131.159 228.926 130.211C229.473 129.245 229.764 128.014 229.801 126.52ZM242.324 125.508V124.934C242.324 122.764 242.634 120.768 243.254 118.945C243.874 117.104 244.785 115.509 245.988 114.16C247.191 112.811 248.677 111.763 250.445 111.016C252.214 110.25 254.255 109.867 256.57 109.867C258.904 109.867 260.954 110.25 262.723 111.016C264.509 111.763 266.004 112.811 267.207 114.16C268.41 115.509 269.322 117.104 269.941 118.945C270.561 120.768 270.871 122.764 270.871 124.934V125.508C270.871 127.659 270.561 129.655 269.941 131.496C269.322 133.319 268.41 134.914 267.207 136.281C266.004 137.63 264.518 138.678 262.75 139.426C260.982 140.173 258.94 140.547 256.625 140.547C254.31 140.547 252.259 140.173 250.473 139.426C248.686 138.678 247.191 137.63 245.988 136.281C244.785 134.914 243.874 133.319 243.254 131.496C242.634 129.655 242.324 127.659 242.324 125.508ZM251.539 124.934V125.508C251.539 126.62 251.621 127.659 251.785 128.625C251.949 129.591 252.223 130.439 252.605 131.168C252.988 131.879 253.508 132.435 254.164 132.836C254.82 133.237 255.641 133.438 256.625 133.438C257.591 133.438 258.393 133.237 259.031 132.836C259.688 132.435 260.207 131.879 260.59 131.168C260.973 130.439 261.246 129.591 261.41 128.625C261.574 127.659 261.656 126.62 261.656 125.508V124.934C261.656 123.858 261.574 122.846 261.41 121.898C261.246 120.932 260.973 120.085 260.59 119.355C260.207 118.608 259.688 118.025 259.031 117.605C258.375 117.186 257.555 116.977 256.57 116.977C255.604 116.977 254.793 117.186 254.137 117.605C253.499 118.025 252.988 118.608 252.605 119.355C252.223 120.085 251.949 120.932 251.785 121.898C251.621 122.846 251.539 123.858 251.539 124.934ZM284.023 116.73V140H274.809V110.414H283.449L284.023 116.73ZM282.93 124.195L280.77 124.25C280.77 121.99 281.043 119.975 281.59 118.207C282.137 116.421 282.911 114.908 283.914 113.668C284.917 112.428 286.111 111.49 287.496 110.852C288.9 110.195 290.458 109.867 292.172 109.867C293.539 109.867 294.788 110.068 295.918 110.469C297.066 110.87 298.051 111.517 298.871 112.41C299.71 113.303 300.348 114.488 300.785 115.965C301.241 117.423 301.469 119.228 301.469 121.379V140H292.199V121.352C292.199 120.167 292.035 119.264 291.707 118.645C291.379 118.007 290.905 117.569 290.285 117.332C289.665 117.095 288.909 116.977 288.016 116.977C287.068 116.977 286.266 117.159 285.609 117.523C284.953 117.888 284.424 118.398 284.023 119.055C283.641 119.693 283.358 120.449 283.176 121.324C283.012 122.199 282.93 123.156 282.93 124.195ZM315.633 116.73V140H306.418V110.414H315.059L315.633 116.73ZM314.539 124.195L312.379 124.25C312.379 121.99 312.652 119.975 313.199 118.207C313.746 116.421 314.521 114.908 315.523 113.668C316.526 112.428 317.72 111.49 319.105 110.852C320.509 110.195 322.068 109.867 323.781 109.867C325.148 109.867 326.397 110.068 327.527 110.469C328.676 110.87 329.66 111.517 330.48 112.41C331.319 113.303 331.957 114.488 332.395 115.965C332.85 117.423 333.078 119.228 333.078 121.379V140H323.809V121.352C323.809 120.167 323.645 119.264 323.316 118.645C322.988 118.007 322.514 117.569 321.895 117.332C321.275 117.095 320.518 116.977 319.625 116.977C318.677 116.977 317.875 117.159 317.219 117.523C316.562 117.888 316.034 118.398 315.633 119.055C315.25 119.693 314.967 120.449 314.785 121.324C314.621 122.199 314.539 123.156 314.539 124.195ZM352.52 140.547C350.113 140.547 347.962 140.173 346.066 139.426C344.171 138.66 342.566 137.612 341.254 136.281C339.96 134.951 338.966 133.419 338.273 131.688C337.599 129.956 337.262 128.124 337.262 126.191V125.152C337.262 122.983 337.562 120.978 338.164 119.137C338.766 117.277 339.659 115.655 340.844 114.27C342.029 112.884 343.514 111.809 345.301 111.043C347.087 110.259 349.165 109.867 351.535 109.867C353.632 109.867 355.509 110.204 357.168 110.879C358.827 111.553 360.23 112.52 361.379 113.777C362.546 115.035 363.43 116.557 364.031 118.344C364.651 120.13 364.961 122.135 364.961 124.359V128.105H340.789V122.336H355.965V121.625C355.983 120.641 355.81 119.802 355.445 119.109C355.099 118.417 354.589 117.888 353.914 117.523C353.24 117.159 352.419 116.977 351.453 116.977C350.451 116.977 349.621 117.195 348.965 117.633C348.327 118.07 347.826 118.672 347.461 119.438C347.115 120.185 346.868 121.051 346.723 122.035C346.577 123.02 346.504 124.059 346.504 125.152V126.191C346.504 127.285 346.65 128.279 346.941 129.172C347.251 130.065 347.689 130.831 348.254 131.469C348.837 132.089 349.53 132.572 350.332 132.918C351.152 133.264 352.082 133.438 353.121 133.438C354.379 133.438 355.618 133.201 356.84 132.727C358.061 132.253 359.109 131.469 359.984 130.375L364.168 135.352C363.566 136.208 362.71 137.038 361.598 137.84C360.504 138.642 359.191 139.298 357.66 139.809C356.129 140.301 354.415 140.547 352.52 140.547ZM381.203 133.438C382.06 133.438 382.789 133.283 383.391 132.973C384.01 132.645 384.475 132.189 384.785 131.605C385.113 131.004 385.268 130.284 385.25 129.445H393.918C393.936 131.669 393.389 133.62 392.277 135.297C391.184 136.956 389.689 138.25 387.793 139.18C385.915 140.091 383.792 140.547 381.422 140.547C379.107 140.547 377.083 140.173 375.352 139.426C373.62 138.66 372.171 137.603 371.004 136.254C369.855 134.887 368.99 133.292 368.406 131.469C367.841 129.646 367.559 127.668 367.559 125.535V124.906C367.559 122.773 367.841 120.796 368.406 118.973C368.99 117.132 369.855 115.536 371.004 114.188C372.171 112.82 373.611 111.763 375.324 111.016C377.056 110.25 379.07 109.867 381.367 109.867C383.828 109.867 385.997 110.332 387.875 111.262C389.771 112.191 391.257 113.54 392.332 115.309C393.408 117.077 393.936 119.219 393.918 121.734H385.25C385.268 120.841 385.132 120.039 384.84 119.328C384.548 118.617 384.092 118.052 383.473 117.633C382.871 117.195 382.096 116.977 381.148 116.977C380.201 116.977 379.435 117.186 378.852 117.605C378.268 118.025 377.822 118.608 377.512 119.355C377.22 120.085 377.02 120.923 376.91 121.871C376.819 122.819 376.773 123.831 376.773 124.906V125.535C376.773 126.629 376.819 127.659 376.91 128.625C377.02 129.573 377.229 130.411 377.539 131.141C377.849 131.852 378.296 132.417 378.879 132.836C379.462 133.237 380.237 133.438 381.203 133.438ZM413.441 110.414V116.812H395.613V110.414H413.441ZM399.359 103.059H408.574V130.348C408.574 131.132 408.665 131.742 408.848 132.18C409.03 132.599 409.34 132.9 409.777 133.082C410.233 133.246 410.835 133.328 411.582 133.328C412.111 133.328 412.548 133.319 412.895 133.301C413.241 133.264 413.569 133.219 413.879 133.164V139.754C413.095 140.009 412.275 140.201 411.418 140.328C410.561 140.474 409.65 140.547 408.684 140.547C406.715 140.547 405.029 140.237 403.625 139.617C402.24 138.997 401.182 138.022 400.453 136.691C399.724 135.361 399.359 133.629 399.359 131.496V103.059Z" fill="black"/>
<rect x="93" y="178" width="917" height="77" rx="10" fill="#D3D3D3"/>
<rect x="111" y="196" width="98" height="41" rx="3" fill="#424242"/>
<rect x="111" y="196" width="98" height="41" rx="3" stroke="#424242" stroke-width="4"/>
<path d="M137.078 210.203V223H133.993V210.203H137.078ZM142.053 215.529V217.902H136.199V215.529H142.053ZM142.554 210.203V212.585H136.199V210.203H142.554ZM146.825 209.5V223H143.854V209.5H146.825ZM154.208 220.688V213.49H157.179V223H154.401L154.208 220.688ZM154.489 218.755L155.263 218.737C155.263 219.376 155.187 219.968 155.034 220.513C154.882 221.052 154.656 221.521 154.357 221.919C154.064 222.317 153.701 222.628 153.268 222.851C152.84 223.067 152.345 223.176 151.782 223.176C151.313 223.176 150.883 223.111 150.49 222.982C150.104 222.848 149.77 222.64 149.488 222.358C149.207 222.071 148.987 221.705 148.829 221.26C148.677 220.809 148.601 220.27 148.601 219.643V213.49H151.562V219.66C151.562 219.871 151.589 220.053 151.642 220.205C151.694 220.357 151.771 220.486 151.87 220.592C151.97 220.691 152.093 220.768 152.239 220.82C152.392 220.867 152.564 220.891 152.758 220.891C153.203 220.891 153.552 220.797 153.804 220.609C154.056 220.422 154.231 220.167 154.331 219.845C154.437 219.522 154.489 219.159 154.489 218.755ZM163.823 213.49V215.547H158.093V213.49H163.823ZM159.297 211.126H162.259V219.897C162.259 220.149 162.288 220.346 162.347 220.486C162.405 220.621 162.505 220.718 162.646 220.776C162.792 220.829 162.985 220.855 163.226 220.855C163.396 220.855 163.536 220.853 163.647 220.847C163.759 220.835 163.864 220.82 163.964 220.803V222.921C163.712 223.003 163.448 223.064 163.173 223.105C162.897 223.152 162.604 223.176 162.294 223.176C161.661 223.176 161.119 223.076 160.668 222.877C160.223 222.678 159.883 222.364 159.648 221.937C159.414 221.509 159.297 220.952 159.297 220.267V211.126ZM170.011 213.49V215.547H164.28V213.49H170.011ZM165.484 211.126H168.446V219.897C168.446 220.149 168.476 220.346 168.534 220.486C168.593 220.621 168.692 220.718 168.833 220.776C168.979 220.829 169.173 220.855 169.413 220.855C169.583 220.855 169.724 220.853 169.835 220.847C169.946 220.835 170.052 220.82 170.151 220.803V222.921C169.899 223.003 169.636 223.064 169.36 223.105C169.085 223.152 168.792 223.176 168.481 223.176C167.849 223.176 167.307 223.076 166.855 222.877C166.41 222.678 166.07 222.364 165.836 221.937C165.602 221.509 165.484 220.952 165.484 220.267V211.126ZM175.794 223.176C175.021 223.176 174.329 223.056 173.72 222.815C173.11 222.569 172.595 222.232 172.173 221.805C171.757 221.377 171.438 220.885 171.215 220.328C170.998 219.771 170.89 219.183 170.89 218.562V218.228C170.89 217.53 170.986 216.886 171.18 216.294C171.373 215.696 171.66 215.175 172.041 214.729C172.422 214.284 172.899 213.938 173.474 213.692C174.048 213.44 174.716 213.314 175.478 213.314C176.151 213.314 176.755 213.423 177.288 213.64C177.821 213.856 178.272 214.167 178.642 214.571C179.017 214.976 179.301 215.465 179.494 216.039C179.693 216.613 179.793 217.258 179.793 217.973V219.177H172.023V217.322H176.901V217.094C176.907 216.777 176.852 216.508 176.734 216.285C176.623 216.062 176.459 215.893 176.242 215.775C176.025 215.658 175.762 215.6 175.451 215.6C175.129 215.6 174.862 215.67 174.651 215.811C174.446 215.951 174.285 216.145 174.168 216.391C174.057 216.631 173.978 216.909 173.931 217.226C173.884 217.542 173.86 217.876 173.86 218.228V218.562C173.86 218.913 173.907 219.232 174.001 219.52C174.101 219.807 174.241 220.053 174.423 220.258C174.61 220.457 174.833 220.612 175.091 220.724C175.354 220.835 175.653 220.891 175.987 220.891C176.392 220.891 176.79 220.814 177.183 220.662C177.575 220.51 177.912 220.258 178.193 219.906L179.538 221.506C179.345 221.781 179.069 222.048 178.712 222.306C178.36 222.563 177.938 222.774 177.446 222.938C176.954 223.097 176.403 223.176 175.794 223.176ZM183.985 215.846V223H181.023V213.49H183.792L183.985 215.846ZM186.798 213.42L186.745 216.171C186.628 216.159 186.47 216.145 186.271 216.127C186.071 216.109 185.904 216.101 185.77 216.101C185.424 216.101 185.125 216.142 184.873 216.224C184.627 216.3 184.422 216.417 184.258 216.575C184.1 216.728 183.982 216.921 183.906 217.155C183.836 217.39 183.804 217.662 183.81 217.973L183.273 217.621C183.273 216.982 183.335 216.402 183.458 215.881C183.587 215.354 183.769 214.899 184.003 214.519C184.237 214.132 184.521 213.836 184.855 213.631C185.189 213.42 185.564 213.314 185.98 213.314C186.127 213.314 186.271 213.323 186.411 213.341C186.558 213.358 186.687 213.385 186.798 213.42Z" fill="white"/>
<rect x="229" y="196" width="79" height="41" rx="3" fill="#424242"/>
<rect x="229" y="196" width="79" height="41" rx="3" stroke="#424242" stroke-width="4"/>
<path d="M256.301 223H253.462L253.479 220.627H256.301C256.887 220.627 257.382 220.486 257.786 220.205C258.196 219.924 258.507 219.505 258.718 218.948C258.935 218.386 259.043 217.694 259.043 216.874V216.32C259.043 215.705 258.981 215.166 258.858 214.703C258.741 214.234 258.565 213.845 258.331 213.534C258.097 213.218 257.804 212.98 257.452 212.822C257.106 212.664 256.708 212.585 256.257 212.585H253.409V210.203H256.257C257.124 210.203 257.918 210.353 258.639 210.651C259.365 210.944 259.992 211.366 260.52 211.917C261.053 212.462 261.463 213.109 261.75 213.859C262.043 214.604 262.189 215.43 262.189 216.338V216.874C262.189 217.776 262.043 218.603 261.75 219.353C261.463 220.103 261.056 220.75 260.528 221.295C260.001 221.84 259.377 222.262 258.656 222.561C257.941 222.854 257.156 223 256.301 223ZM255.229 210.203V223H252.144V210.203H255.229ZM268.597 220.609V216.689C268.597 216.42 268.559 216.188 268.482 215.995C268.406 215.802 268.286 215.652 268.122 215.547C267.958 215.436 267.738 215.38 267.463 215.38C267.24 215.38 267.05 215.418 266.892 215.494C266.733 215.57 266.613 215.685 266.531 215.837C266.449 215.989 266.408 216.183 266.408 216.417H263.446C263.446 215.978 263.543 215.57 263.736 215.195C263.936 214.814 264.217 214.483 264.58 214.202C264.949 213.921 265.389 213.704 265.898 213.552C266.414 213.394 266.988 213.314 267.621 213.314C268.377 213.314 269.051 213.44 269.643 213.692C270.24 213.944 270.712 214.322 271.058 214.826C271.403 215.324 271.576 215.951 271.576 216.707V220.601C271.576 221.222 271.611 221.693 271.682 222.016C271.752 222.332 271.852 222.61 271.98 222.851V223H269.01C268.869 222.707 268.764 222.35 268.693 221.928C268.629 221.5 268.597 221.061 268.597 220.609ZM268.957 217.19L268.975 218.772H267.665C267.39 218.772 267.155 218.811 266.962 218.887C266.774 218.963 266.622 219.068 266.505 219.203C266.394 219.332 266.312 219.479 266.259 219.643C266.212 219.807 266.188 219.979 266.188 220.161C266.188 220.337 266.229 220.495 266.312 220.636C266.399 220.771 266.517 220.876 266.663 220.952C266.81 221.028 266.974 221.066 267.155 221.066C267.483 221.066 267.762 221.005 267.99 220.882C268.225 220.753 268.403 220.598 268.526 220.416C268.649 220.234 268.711 220.064 268.711 219.906L269.361 221.119C269.244 221.354 269.109 221.591 268.957 221.831C268.811 222.071 268.626 222.294 268.403 222.499C268.187 222.698 267.92 222.862 267.604 222.991C267.287 223.114 266.903 223.176 266.452 223.176C265.866 223.176 265.327 223.056 264.835 222.815C264.349 222.575 263.959 222.241 263.666 221.813C263.373 221.38 263.227 220.882 263.227 220.319C263.227 219.827 263.314 219.388 263.49 219.001C263.672 218.614 263.944 218.286 264.308 218.017C264.671 217.747 265.134 217.542 265.696 217.401C266.259 217.261 266.921 217.19 267.683 217.19H268.957ZM276.208 215.846V223H273.246V213.49H276.015L276.208 215.846ZM279.021 213.42L278.968 216.171C278.851 216.159 278.692 216.145 278.493 216.127C278.294 216.109 278.127 216.101 277.992 216.101C277.646 216.101 277.348 216.142 277.096 216.224C276.85 216.3 276.645 216.417 276.48 216.575C276.322 216.728 276.205 216.921 276.129 217.155C276.059 217.39 276.026 217.662 276.032 217.973L275.496 217.621C275.496 216.982 275.558 216.402 275.681 215.881C275.81 215.354 275.991 214.899 276.226 214.519C276.46 214.132 276.744 213.836 277.078 213.631C277.412 213.42 277.787 213.314 278.203 213.314C278.35 213.314 278.493 213.323 278.634 213.341C278.78 213.358 278.909 213.385 279.021 213.42ZM285.489 213.49V215.547H279.759V213.49H285.489ZM280.963 211.126H283.925V219.897C283.925 220.149 283.954 220.346 284.013 220.486C284.071 220.621 284.171 220.718 284.312 220.776C284.458 220.829 284.651 220.855 284.892 220.855C285.062 220.855 285.202 220.853 285.313 220.847C285.425 220.835 285.53 220.82 285.63 220.803V222.921C285.378 223.003 285.114 223.064 284.839 223.105C284.563 223.152 284.271 223.176 283.96 223.176C283.327 223.176 282.785 223.076 282.334 222.877C281.889 222.678 281.549 222.364 281.314 221.937C281.08 221.509 280.963 220.952 280.963 220.267V211.126Z" fill="white"/>
<rect x="328" y="196" width="109" height="41" rx="3" fill="#424242"/>
<rect x="328" y="196" width="109" height="41" rx="3" stroke="#424242" stroke-width="4"/>
<path d="M362.118 210.203V223H359.042L354.516 215.037V223H351.431V210.203H354.516L359.042 218.166V210.203H362.118ZM363.56 218.342V218.157C363.56 217.46 363.659 216.818 363.858 216.232C364.058 215.641 364.351 215.128 364.737 214.694C365.124 214.261 365.602 213.924 366.17 213.684C366.738 213.438 367.395 213.314 368.139 213.314C368.889 213.314 369.548 213.438 370.116 213.684C370.69 213.924 371.171 214.261 371.558 214.694C371.944 215.128 372.237 215.641 372.437 216.232C372.636 216.818 372.735 217.46 372.735 218.157V218.342C372.735 219.033 372.636 219.675 372.437 220.267C372.237 220.853 371.944 221.365 371.558 221.805C371.171 222.238 370.693 222.575 370.125 222.815C369.557 223.056 368.9 223.176 368.156 223.176C367.412 223.176 366.753 223.056 366.179 222.815C365.604 222.575 365.124 222.238 364.737 221.805C364.351 221.365 364.058 220.853 363.858 220.267C363.659 219.675 363.56 219.033 363.56 218.342ZM366.521 218.157V218.342C366.521 218.699 366.548 219.033 366.601 219.344C366.653 219.654 366.741 219.927 366.864 220.161C366.987 220.39 367.154 220.568 367.365 220.697C367.576 220.826 367.84 220.891 368.156 220.891C368.467 220.891 368.725 220.826 368.93 220.697C369.141 220.568 369.308 220.39 369.431 220.161C369.554 219.927 369.642 219.654 369.694 219.344C369.747 219.033 369.773 218.699 369.773 218.342V218.157C369.773 217.812 369.747 217.486 369.694 217.182C369.642 216.871 369.554 216.599 369.431 216.364C369.308 216.124 369.141 215.937 368.93 215.802C368.719 215.667 368.455 215.6 368.139 215.6C367.828 215.6 367.567 215.667 367.356 215.802C367.151 215.937 366.987 216.124 366.864 216.364C366.741 216.599 366.653 216.871 366.601 217.182C366.548 217.486 366.521 217.812 366.521 218.157ZM379.521 220.82V209.5H382.5V223H379.828L379.521 220.82ZM373.685 218.359V218.175C373.685 217.454 373.764 216.798 373.922 216.206C374.08 215.608 374.314 215.096 374.625 214.668C374.936 214.234 375.322 213.9 375.785 213.666C376.248 213.432 376.781 213.314 377.385 213.314C377.924 213.314 378.396 213.44 378.8 213.692C379.204 213.938 379.55 214.284 379.837 214.729C380.124 215.175 380.358 215.696 380.54 216.294C380.722 216.886 380.859 217.524 380.953 218.21V218.43C380.859 219.074 380.722 219.684 380.54 220.258C380.358 220.826 380.124 221.33 379.837 221.77C379.55 222.209 379.201 222.555 378.791 222.807C378.387 223.053 377.912 223.176 377.367 223.176C376.764 223.176 376.23 223.056 375.768 222.815C375.311 222.575 374.927 222.238 374.616 221.805C374.312 221.371 374.08 220.861 373.922 220.275C373.764 219.689 373.685 219.051 373.685 218.359ZM376.646 218.175V218.359C376.646 218.717 376.67 219.048 376.717 219.353C376.764 219.657 376.843 219.927 376.954 220.161C377.071 220.39 377.224 220.568 377.411 220.697C377.604 220.826 377.842 220.891 378.123 220.891C378.504 220.891 378.817 220.8 379.063 220.618C379.315 220.437 379.5 220.179 379.617 219.845C379.74 219.511 379.793 219.118 379.775 218.667V217.973C379.787 217.586 379.761 217.246 379.696 216.953C379.632 216.654 379.529 216.405 379.389 216.206C379.254 216.007 379.081 215.857 378.87 215.758C378.665 215.652 378.422 215.6 378.141 215.6C377.865 215.6 377.631 215.664 377.438 215.793C377.25 215.922 377.098 216.104 376.98 216.338C376.863 216.566 376.778 216.839 376.726 217.155C376.673 217.466 376.646 217.806 376.646 218.175ZM388.784 223.176C388.011 223.176 387.319 223.056 386.71 222.815C386.101 222.569 385.585 222.232 385.163 221.805C384.747 221.377 384.428 220.885 384.205 220.328C383.988 219.771 383.88 219.183 383.88 218.562V218.228C383.88 217.53 383.977 216.886 384.17 216.294C384.363 215.696 384.65 215.175 385.031 214.729C385.412 214.284 385.89 213.938 386.464 213.692C387.038 213.44 387.706 213.314 388.468 213.314C389.142 213.314 389.745 213.423 390.278 213.64C390.812 213.856 391.263 214.167 391.632 214.571C392.007 214.976 392.291 215.465 392.484 216.039C392.684 216.613 392.783 217.258 392.783 217.973V219.177H385.014V217.322H389.892V217.094C389.897 216.777 389.842 216.508 389.725 216.285C389.613 216.062 389.449 215.893 389.232 215.775C389.016 215.658 388.752 215.6 388.441 215.6C388.119 215.6 387.853 215.67 387.642 215.811C387.437 215.951 387.275 216.145 387.158 216.391C387.047 216.631 386.968 216.909 386.921 217.226C386.874 217.542 386.851 217.876 386.851 218.228V218.562C386.851 218.913 386.897 219.232 386.991 219.52C387.091 219.807 387.231 220.053 387.413 220.258C387.601 220.457 387.823 220.612 388.081 220.724C388.345 220.835 388.644 220.891 388.978 220.891C389.382 220.891 389.78 220.814 390.173 220.662C390.565 220.51 390.902 220.258 391.184 219.906L392.528 221.506C392.335 221.781 392.06 222.048 391.702 222.306C391.351 222.563 390.929 222.774 390.437 222.938C389.944 223.097 389.394 223.176 388.784 223.176ZM399.217 218.983V210.203H402.293V218.983C402.293 219.839 402.097 220.58 401.704 221.207C401.317 221.834 400.79 222.32 400.122 222.666C399.46 223.006 398.716 223.176 397.89 223.176C397.034 223.176 396.272 223.032 395.604 222.745C394.942 222.458 394.421 222.016 394.04 221.418C393.665 220.82 393.478 220.059 393.478 219.133H396.571C396.571 219.566 396.621 219.906 396.721 220.152C396.82 220.393 396.967 220.562 397.16 220.662C397.359 220.756 397.603 220.803 397.89 220.803C398.171 220.803 398.408 220.732 398.602 220.592C398.801 220.445 398.953 220.237 399.059 219.968C399.164 219.692 399.217 219.364 399.217 218.983ZM410.845 219.599C410.845 219.399 410.815 219.221 410.757 219.062C410.698 218.898 410.59 218.746 410.432 218.605C410.273 218.465 410.045 218.324 409.746 218.184C409.453 218.037 409.066 217.885 408.586 217.727C408.023 217.539 407.481 217.328 406.96 217.094C406.438 216.854 405.973 216.575 405.562 216.259C405.152 215.937 404.827 215.562 404.587 215.134C404.347 214.7 404.227 214.196 404.227 213.622C404.227 213.071 404.35 212.576 404.596 212.137C404.842 211.691 405.185 211.313 405.624 211.003C406.069 210.687 406.591 210.446 407.188 210.282C407.786 210.112 408.439 210.027 409.148 210.027C410.086 210.027 410.912 210.191 411.627 210.52C412.348 210.842 412.91 211.302 413.314 211.899C413.725 212.491 413.93 213.191 413.93 214H410.862C410.862 213.678 410.795 213.394 410.66 213.147C410.531 212.901 410.335 212.708 410.071 212.567C409.808 212.427 409.477 212.356 409.078 212.356C408.691 212.356 408.366 212.415 408.103 212.532C407.839 212.649 407.64 212.808 407.505 213.007C407.37 213.2 407.303 213.414 407.303 213.648C407.303 213.842 407.355 214.018 407.461 214.176C407.572 214.328 407.728 214.472 407.927 214.606C408.132 214.741 408.378 214.87 408.665 214.993C408.958 215.116 409.286 215.236 409.649 215.354C410.329 215.57 410.933 215.813 411.46 216.083C411.993 216.347 412.441 216.648 412.805 216.988C413.174 217.322 413.452 217.703 413.64 218.131C413.833 218.559 413.93 219.042 413.93 219.581C413.93 220.155 413.818 220.665 413.596 221.11C413.373 221.556 413.054 221.934 412.638 222.244C412.222 222.549 411.724 222.78 411.144 222.938C410.563 223.097 409.916 223.176 409.201 223.176C408.545 223.176 407.897 223.094 407.259 222.93C406.626 222.76 406.052 222.502 405.536 222.156C405.021 221.805 404.607 221.356 404.297 220.812C403.992 220.261 403.84 219.607 403.84 218.852H406.934C406.934 219.227 406.983 219.543 407.083 219.801C407.183 220.059 407.329 220.267 407.522 220.425C407.716 220.577 407.953 220.688 408.234 220.759C408.516 220.823 408.838 220.855 409.201 220.855C409.594 220.855 409.91 220.8 410.15 220.688C410.391 220.571 410.566 220.419 410.678 220.231C410.789 220.038 410.845 219.827 410.845 219.599Z" fill="white"/>
<rect x="457" y="196" width="142" height="41" rx="3" fill="#424242"/>
<rect x="457" y="196" width="142" height="41" rx="3" stroke="#424242" stroke-width="4"/>
<path d="M490.629 216.162V221.418C490.412 221.658 490.078 221.916 489.627 222.191C489.182 222.461 488.619 222.692 487.939 222.886C487.26 223.079 486.46 223.176 485.54 223.176C484.69 223.176 483.92 223.041 483.229 222.771C482.537 222.496 481.942 222.095 481.444 221.567C480.952 221.034 480.571 220.384 480.302 219.616C480.038 218.843 479.906 217.958 479.906 216.962V216.25C479.906 215.254 480.041 214.369 480.311 213.596C480.58 212.822 480.958 212.172 481.444 211.645C481.937 211.111 482.514 210.707 483.176 210.432C483.844 210.156 484.576 210.019 485.373 210.019C486.551 210.019 487.509 210.206 488.247 210.581C488.985 210.95 489.545 211.463 489.926 212.119C490.307 212.77 490.538 213.522 490.62 214.378H487.658C487.6 213.956 487.488 213.599 487.324 213.306C487.166 213.007 486.938 212.781 486.639 212.629C486.34 212.471 485.953 212.392 485.479 212.392C485.109 212.392 484.772 212.471 484.468 212.629C484.169 212.787 483.914 213.027 483.703 213.35C483.492 213.666 483.328 214.064 483.211 214.545C483.1 215.025 483.044 215.588 483.044 216.232V216.962C483.044 217.601 483.097 218.16 483.202 218.641C483.313 219.121 483.478 219.522 483.694 219.845C483.917 220.161 484.198 220.401 484.538 220.565C484.884 220.724 485.291 220.803 485.76 220.803C486.088 220.803 486.369 220.776 486.604 220.724C486.838 220.665 487.031 220.595 487.184 220.513C487.342 220.425 487.462 220.343 487.544 220.267V218.28H485.399V216.162H490.629ZM491.921 218.342V218.157C491.921 217.46 492.021 216.818 492.22 216.232C492.419 215.641 492.712 215.128 493.099 214.694C493.485 214.261 493.963 213.924 494.531 213.684C495.1 213.438 495.756 213.314 496.5 213.314C497.25 213.314 497.909 213.438 498.478 213.684C499.052 213.924 499.532 214.261 499.919 214.694C500.306 215.128 500.599 215.641 500.798 216.232C500.997 216.818 501.097 217.46 501.097 218.157V218.342C501.097 219.033 500.997 219.675 500.798 220.267C500.599 220.853 500.306 221.365 499.919 221.805C499.532 222.238 499.055 222.575 498.486 222.815C497.918 223.056 497.262 223.176 496.518 223.176C495.773 223.176 495.114 223.056 494.54 222.815C493.966 222.575 493.485 222.238 493.099 221.805C492.712 221.365 492.419 220.853 492.22 220.267C492.021 219.675 491.921 219.033 491.921 218.342ZM494.883 218.157V218.342C494.883 218.699 494.909 219.033 494.962 219.344C495.015 219.654 495.103 219.927 495.226 220.161C495.349 220.39 495.516 220.568 495.727 220.697C495.938 220.826 496.201 220.891 496.518 220.891C496.828 220.891 497.086 220.826 497.291 220.697C497.502 220.568 497.669 220.39 497.792 220.161C497.915 219.927 498.003 219.654 498.056 219.344C498.108 219.033 498.135 218.699 498.135 218.342V218.157C498.135 217.812 498.108 217.486 498.056 217.182C498.003 216.871 497.915 216.599 497.792 216.364C497.669 216.124 497.502 215.937 497.291 215.802C497.08 215.667 496.816 215.6 496.5 215.6C496.189 215.6 495.929 215.667 495.718 215.802C495.513 215.937 495.349 216.124 495.226 216.364C495.103 216.599 495.015 216.871 494.962 217.182C494.909 217.486 494.883 217.812 494.883 218.157ZM502.046 218.342V218.157C502.046 217.46 502.146 216.818 502.345 216.232C502.544 215.641 502.837 215.128 503.224 214.694C503.61 214.261 504.088 213.924 504.656 213.684C505.225 213.438 505.881 213.314 506.625 213.314C507.375 213.314 508.034 213.438 508.603 213.684C509.177 213.924 509.657 214.261 510.044 214.694C510.431 215.128 510.724 215.641 510.923 216.232C511.122 216.818 511.222 217.46 511.222 218.157V218.342C511.222 219.033 511.122 219.675 510.923 220.267C510.724 220.853 510.431 221.365 510.044 221.805C509.657 222.238 509.18 222.575 508.611 222.815C508.043 223.056 507.387 223.176 506.643 223.176C505.898 223.176 505.239 223.056 504.665 222.815C504.091 222.575 503.61 222.238 503.224 221.805C502.837 221.365 502.544 220.853 502.345 220.267C502.146 219.675 502.046 219.033 502.046 218.342ZM505.008 218.157V218.342C505.008 218.699 505.034 219.033 505.087 219.344C505.14 219.654 505.228 219.927 505.351 220.161C505.474 220.39 505.641 220.568 505.852 220.697C506.062 220.826 506.326 220.891 506.643 220.891C506.953 220.891 507.211 220.826 507.416 220.697C507.627 220.568 507.794 220.39 507.917 220.161C508.04 219.927 508.128 219.654 508.181 219.344C508.233 219.033 508.26 218.699 508.26 218.342V218.157C508.26 217.812 508.233 217.486 508.181 217.182C508.128 216.871 508.04 216.599 507.917 216.364C507.794 216.124 507.627 215.937 507.416 215.802C507.205 215.667 506.941 215.6 506.625 215.6C506.314 215.6 506.054 215.667 505.843 215.802C505.638 215.937 505.474 216.124 505.351 216.364C505.228 216.599 505.14 216.871 505.087 217.182C505.034 217.486 505.008 217.812 505.008 218.157ZM518.517 213.49H521.206V222.631C521.206 223.51 521.004 224.254 520.6 224.863C520.195 225.479 519.63 225.944 518.903 226.261C518.183 226.583 517.339 226.744 516.372 226.744C515.944 226.744 515.508 226.688 515.062 226.577C514.617 226.472 514.201 226.313 513.814 226.103C513.428 225.892 513.103 225.631 512.839 225.32L514.078 223.58C514.318 223.85 514.62 224.078 514.983 224.266C515.347 224.459 515.774 224.556 516.267 224.556C516.694 224.556 517.052 224.479 517.339 224.327C517.632 224.175 517.854 223.952 518.007 223.659C518.159 223.372 518.235 223.023 518.235 222.613V215.74L518.517 213.49ZM512.197 218.359V218.175C512.197 217.454 512.285 216.798 512.461 216.206C512.643 215.608 512.9 215.096 513.234 214.668C513.574 214.234 513.984 213.9 514.465 213.666C514.945 213.432 515.487 213.314 516.091 213.314C516.741 213.314 517.274 213.44 517.69 213.692C518.112 213.938 518.449 214.284 518.701 214.729C518.959 215.175 519.158 215.696 519.299 216.294C519.445 216.886 519.568 217.524 519.668 218.21V218.43C519.568 219.074 519.431 219.684 519.255 220.258C519.085 220.826 518.862 221.33 518.587 221.77C518.312 222.209 517.966 222.555 517.55 222.807C517.14 223.053 516.647 223.176 516.073 223.176C515.476 223.176 514.937 223.056 514.456 222.815C513.981 222.575 513.574 222.238 513.234 221.805C512.9 221.371 512.643 220.861 512.461 220.275C512.285 219.689 512.197 219.051 512.197 218.359ZM515.159 218.175V218.359C515.159 218.717 515.191 219.048 515.256 219.353C515.326 219.657 515.432 219.927 515.572 220.161C515.713 220.39 515.886 220.568 516.091 220.697C516.302 220.826 516.548 220.891 516.829 220.891C517.257 220.891 517.603 220.8 517.866 220.618C518.13 220.437 518.32 220.179 518.438 219.845C518.555 219.511 518.604 219.118 518.587 218.667V217.973C518.599 217.586 518.572 217.246 518.508 216.953C518.443 216.654 518.341 216.405 518.2 216.206C518.065 216.007 517.884 215.857 517.655 215.758C517.433 215.652 517.163 215.6 516.847 215.6C516.571 215.6 516.328 215.664 516.117 215.793C515.906 215.922 515.73 216.104 515.59 216.338C515.449 216.566 515.341 216.839 515.265 217.155C515.194 217.466 515.159 217.806 515.159 218.175ZM526.04 209.5V223H523.069V209.5H526.04ZM532.474 223.176C531.7 223.176 531.009 223.056 530.399 222.815C529.79 222.569 529.274 222.232 528.853 221.805C528.437 221.377 528.117 220.885 527.895 220.328C527.678 219.771 527.569 219.183 527.569 218.562V218.228C527.569 217.53 527.666 216.886 527.859 216.294C528.053 215.696 528.34 215.175 528.721 214.729C529.102 214.284 529.579 213.938 530.153 213.692C530.728 213.44 531.396 213.314 532.157 213.314C532.831 213.314 533.435 213.423 533.968 213.64C534.501 213.856 534.952 214.167 535.321 214.571C535.696 214.976 535.98 215.465 536.174 216.039C536.373 216.613 536.473 217.258 536.473 217.973V219.177H528.703V217.322H533.581V217.094C533.587 216.777 533.531 216.508 533.414 216.285C533.303 216.062 533.139 215.893 532.922 215.775C532.705 215.658 532.441 215.6 532.131 215.6C531.809 215.6 531.542 215.67 531.331 215.811C531.126 215.951 530.965 216.145 530.848 216.391C530.736 216.631 530.657 216.909 530.61 217.226C530.563 217.542 530.54 217.876 530.54 218.228V218.562C530.54 218.913 530.587 219.232 530.681 219.52C530.78 219.807 530.921 220.053 531.103 220.258C531.29 220.457 531.513 220.612 531.771 220.724C532.034 220.835 532.333 220.891 532.667 220.891C533.071 220.891 533.47 220.814 533.862 220.662C534.255 220.51 534.592 220.258 534.873 219.906L536.218 221.506C536.024 221.781 535.749 222.048 535.392 222.306C535.04 222.563 534.618 222.774 534.126 222.938C533.634 223.097 533.083 223.176 532.474 223.176ZM543.829 210.203H546.343L549.199 219.106L552.056 210.203H554.569L550.219 223H548.18L543.829 210.203ZM542.3 210.203H544.901L545.385 220.012V223H542.3V210.203ZM553.497 210.203H556.107V223H553.014V220.012L553.497 210.203ZM562.884 220.609V216.689C562.884 216.42 562.846 216.188 562.77 215.995C562.693 215.802 562.573 215.652 562.409 215.547C562.245 215.436 562.025 215.38 561.75 215.38C561.527 215.38 561.337 215.418 561.179 215.494C561.021 215.57 560.9 215.685 560.818 215.837C560.736 215.989 560.695 216.183 560.695 216.417H557.733C557.733 215.978 557.83 215.57 558.023 215.195C558.223 214.814 558.504 214.483 558.867 214.202C559.236 213.921 559.676 213.704 560.186 213.552C560.701 213.394 561.275 213.314 561.908 213.314C562.664 213.314 563.338 213.44 563.93 213.692C564.527 213.944 564.999 214.322 565.345 214.826C565.69 215.324 565.863 215.951 565.863 216.707V220.601C565.863 221.222 565.898 221.693 565.969 222.016C566.039 222.332 566.139 222.61 566.268 222.851V223H563.297C563.156 222.707 563.051 222.35 562.98 221.928C562.916 221.5 562.884 221.061 562.884 220.609ZM563.244 217.19L563.262 218.772H561.952C561.677 218.772 561.442 218.811 561.249 218.887C561.062 218.963 560.909 219.068 560.792 219.203C560.681 219.332 560.599 219.479 560.546 219.643C560.499 219.807 560.476 219.979 560.476 220.161C560.476 220.337 560.517 220.495 560.599 220.636C560.687 220.771 560.804 220.876 560.95 220.952C561.097 221.028 561.261 221.066 561.442 221.066C561.771 221.066 562.049 221.005 562.277 220.882C562.512 220.753 562.69 220.598 562.813 220.416C562.937 220.234 562.998 220.064 562.998 219.906L563.648 221.119C563.531 221.354 563.396 221.591 563.244 221.831C563.098 222.071 562.913 222.294 562.69 222.499C562.474 222.698 562.207 222.862 561.891 222.991C561.574 223.114 561.19 223.176 560.739 223.176C560.153 223.176 559.614 223.056 559.122 222.815C558.636 222.575 558.246 222.241 557.953 221.813C557.66 221.38 557.514 220.882 557.514 220.319C557.514 219.827 557.602 219.388 557.777 219.001C557.959 218.614 558.231 218.286 558.595 218.017C558.958 217.747 559.421 217.542 559.983 217.401C560.546 217.261 561.208 217.19 561.97 217.19H563.244ZM570.495 215.318V226.656H567.533V213.49H570.293L570.495 215.318ZM576.331 218.131V218.315C576.331 219.007 576.252 219.648 576.094 220.24C575.936 220.832 575.701 221.348 575.391 221.787C575.08 222.227 574.693 222.569 574.23 222.815C573.773 223.056 573.243 223.176 572.64 223.176C572.071 223.176 571.582 223.05 571.172 222.798C570.762 222.546 570.419 222.197 570.144 221.752C569.868 221.307 569.646 220.797 569.476 220.223C569.306 219.648 569.171 219.042 569.071 218.403V218.166C569.171 217.48 569.306 216.845 569.476 216.259C569.646 215.667 569.868 215.151 570.144 214.712C570.419 214.272 570.759 213.93 571.163 213.684C571.573 213.438 572.062 213.314 572.631 213.314C573.234 213.314 573.765 213.429 574.222 213.657C574.685 213.886 575.071 214.214 575.382 214.642C575.698 215.063 575.936 215.57 576.094 216.162C576.252 216.754 576.331 217.41 576.331 218.131ZM573.369 218.315V218.131C573.369 217.762 573.343 217.425 573.29 217.12C573.237 216.81 573.152 216.54 573.035 216.312C572.924 216.083 572.774 215.907 572.587 215.784C572.399 215.661 572.168 215.6 571.893 215.6C571.576 215.6 571.31 215.649 571.093 215.749C570.882 215.843 570.712 215.989 570.583 216.188C570.46 216.382 570.372 216.625 570.319 216.918C570.272 217.205 570.252 217.542 570.258 217.929V218.649C570.246 219.095 570.29 219.487 570.39 219.827C570.489 220.161 570.662 220.422 570.908 220.609C571.154 220.797 571.488 220.891 571.91 220.891C572.191 220.891 572.426 220.826 572.613 220.697C572.801 220.562 572.95 220.378 573.062 220.144C573.173 219.903 573.252 219.628 573.299 219.317C573.346 219.007 573.369 218.673 573.369 218.315Z" fill="white"/>
<rect x="619" y="196" width="114" height="41" rx="3" fill="#424242"/>
<rect x="619" y="196" width="114" height="41" rx="3" stroke="#424242" stroke-width="4"/>
<path d="M645.062 210.203V223H641.978V210.203H645.062ZM650.037 215.529V217.902H644.184V215.529H650.037ZM650.538 210.203V212.585H644.184V210.203H650.538ZM654.81 213.49V223H651.839V213.49H654.81ZM651.663 211.038C651.663 210.616 651.815 210.271 652.12 210.001C652.425 209.731 652.82 209.597 653.307 209.597C653.793 209.597 654.188 209.731 654.493 210.001C654.798 210.271 654.95 210.616 654.95 211.038C654.95 211.46 654.798 211.806 654.493 212.075C654.188 212.345 653.793 212.479 653.307 212.479C652.82 212.479 652.425 212.345 652.12 212.075C651.815 211.806 651.663 211.46 651.663 211.038ZM659.626 215.846V223H656.664V213.49H659.433L659.626 215.846ZM662.438 213.42L662.386 216.171C662.269 216.159 662.11 216.145 661.911 216.127C661.712 216.109 661.545 216.101 661.41 216.101C661.064 216.101 660.766 216.142 660.514 216.224C660.268 216.3 660.062 216.417 659.898 216.575C659.74 216.728 659.623 216.921 659.547 217.155C659.477 217.39 659.444 217.662 659.45 217.973L658.914 217.621C658.914 216.982 658.976 216.402 659.099 215.881C659.228 215.354 659.409 214.899 659.644 214.519C659.878 214.132 660.162 213.836 660.496 213.631C660.83 213.42 661.205 213.314 661.621 213.314C661.768 213.314 661.911 213.323 662.052 213.341C662.198 213.358 662.327 213.385 662.438 213.42ZM667.888 223.176C667.114 223.176 666.423 223.056 665.813 222.815C665.204 222.569 664.688 222.232 664.267 221.805C663.851 221.377 663.531 220.885 663.309 220.328C663.092 219.771 662.983 219.183 662.983 218.562V218.228C662.983 217.53 663.08 216.886 663.273 216.294C663.467 215.696 663.754 215.175 664.135 214.729C664.516 214.284 664.993 213.938 665.567 213.692C666.142 213.44 666.81 213.314 667.571 213.314C668.245 213.314 668.849 213.423 669.382 213.64C669.915 213.856 670.366 214.167 670.735 214.571C671.11 214.976 671.395 215.465 671.588 216.039C671.787 216.613 671.887 217.258 671.887 217.973V219.177H664.117V217.322H668.995V217.094C669.001 216.777 668.945 216.508 668.828 216.285C668.717 216.062 668.553 215.893 668.336 215.775C668.119 215.658 667.855 215.6 667.545 215.6C667.223 215.6 666.956 215.67 666.745 215.811C666.54 215.951 666.379 216.145 666.262 216.391C666.15 216.631 666.071 216.909 666.024 217.226C665.978 217.542 665.954 217.876 665.954 218.228V218.562C665.954 218.913 666.001 219.232 666.095 219.52C666.194 219.807 666.335 220.053 666.517 220.258C666.704 220.457 666.927 220.612 667.185 220.724C667.448 220.835 667.747 220.891 668.081 220.891C668.485 220.891 668.884 220.814 669.276 220.662C669.669 220.51 670.006 220.258 670.287 219.906L671.632 221.506C671.438 221.781 671.163 222.048 670.806 222.306C670.454 222.563 670.032 222.774 669.54 222.938C669.048 223.097 668.497 223.176 667.888 223.176ZM673.117 209.5H676.079V220.662L675.771 223H673.117V209.5ZM681.915 218.14V218.324C681.915 219.045 681.842 219.701 681.695 220.293C681.549 220.885 681.323 221.397 681.019 221.831C680.714 222.259 680.33 222.59 679.867 222.824C679.404 223.059 678.856 223.176 678.224 223.176C677.649 223.176 677.157 223.053 676.747 222.807C676.337 222.555 675.994 222.209 675.719 221.77C675.443 221.324 675.221 220.812 675.051 220.231C674.881 219.646 674.746 219.019 674.646 218.351V218.131C674.746 217.469 674.881 216.848 675.051 216.268C675.221 215.682 675.443 215.169 675.719 214.729C675.994 214.284 676.334 213.938 676.738 213.692C677.148 213.44 677.638 213.314 678.206 213.314C678.845 213.314 679.396 213.435 679.858 213.675C680.327 213.915 680.714 214.252 681.019 214.686C681.323 215.119 681.549 215.629 681.695 216.215C681.842 216.801 681.915 217.442 681.915 218.14ZM678.953 218.324V218.14C678.953 217.794 678.933 217.469 678.892 217.164C678.851 216.859 678.777 216.59 678.672 216.355C678.566 216.121 678.417 215.937 678.224 215.802C678.03 215.667 677.778 215.6 677.468 215.6C677.151 215.6 676.885 215.652 676.668 215.758C676.457 215.863 676.287 216.016 676.158 216.215C676.035 216.408 675.947 216.648 675.895 216.936C675.842 217.217 675.818 217.536 675.824 217.894V218.588C675.812 219.074 675.856 219.49 675.956 219.836C676.056 220.182 676.229 220.445 676.475 220.627C676.721 220.809 677.058 220.899 677.485 220.899C677.802 220.899 678.057 220.838 678.25 220.715C678.449 220.592 678.599 220.416 678.698 220.188C678.798 219.959 678.865 219.687 678.9 219.37C678.936 219.054 678.953 218.705 678.953 218.324ZM688.173 220.609V216.689C688.173 216.42 688.135 216.188 688.059 215.995C687.982 215.802 687.862 215.652 687.698 215.547C687.534 215.436 687.314 215.38 687.039 215.38C686.816 215.38 686.626 215.418 686.468 215.494C686.31 215.57 686.189 215.685 686.107 215.837C686.025 215.989 685.984 216.183 685.984 216.417H683.022C683.022 215.978 683.119 215.57 683.312 215.195C683.512 214.814 683.793 214.483 684.156 214.202C684.525 213.921 684.965 213.704 685.475 213.552C685.99 213.394 686.564 213.314 687.197 213.314C687.953 213.314 688.627 213.44 689.219 213.692C689.816 213.944 690.288 214.322 690.634 214.826C690.979 215.324 691.152 215.951 691.152 216.707V220.601C691.152 221.222 691.188 221.693 691.258 222.016C691.328 222.332 691.428 222.61 691.557 222.851V223H688.586C688.445 222.707 688.34 222.35 688.27 221.928C688.205 221.5 688.173 221.061 688.173 220.609ZM688.533 217.19L688.551 218.772H687.241C686.966 218.772 686.731 218.811 686.538 218.887C686.351 218.963 686.198 219.068 686.081 219.203C685.97 219.332 685.888 219.479 685.835 219.643C685.788 219.807 685.765 219.979 685.765 220.161C685.765 220.337 685.806 220.495 685.888 220.636C685.976 220.771 686.093 220.876 686.239 220.952C686.386 221.028 686.55 221.066 686.731 221.066C687.06 221.066 687.338 221.005 687.566 220.882C687.801 220.753 687.979 220.598 688.103 220.416C688.226 220.234 688.287 220.064 688.287 219.906L688.938 221.119C688.82 221.354 688.686 221.591 688.533 221.831C688.387 222.071 688.202 222.294 687.979 222.499C687.763 222.698 687.496 222.862 687.18 222.991C686.863 223.114 686.479 223.176 686.028 223.176C685.442 223.176 684.903 223.056 684.411 222.815C683.925 222.575 683.535 222.241 683.242 221.813C682.949 221.38 682.803 220.882 682.803 220.319C682.803 219.827 682.891 219.388 683.066 219.001C683.248 218.614 683.521 218.286 683.884 218.017C684.247 217.747 684.71 217.542 685.272 217.401C685.835 217.261 686.497 217.19 687.259 217.19H688.533ZM697.779 220.328C697.779 220.164 697.724 220.023 697.612 219.906C697.507 219.783 697.319 219.672 697.05 219.572C696.78 219.467 696.402 219.361 695.916 219.256C695.453 219.156 695.017 219.024 694.606 218.86C694.202 218.696 693.848 218.497 693.543 218.263C693.238 218.028 692.998 217.75 692.822 217.428C692.652 217.105 692.567 216.736 692.567 216.32C692.567 215.916 692.652 215.535 692.822 215.178C692.998 214.814 693.253 214.495 693.587 214.22C693.927 213.938 694.34 213.719 694.826 213.561C695.312 213.396 695.866 213.314 696.487 213.314C697.343 213.314 698.081 213.446 698.702 213.71C699.323 213.968 699.801 214.331 700.135 214.8C700.475 215.263 700.645 215.799 700.645 216.408H697.683C697.683 216.168 697.642 215.963 697.56 215.793C697.483 215.623 697.357 215.494 697.182 215.406C697.006 215.312 696.771 215.266 696.479 215.266C696.273 215.266 696.086 215.304 695.916 215.38C695.752 215.456 695.62 215.562 695.521 215.696C695.421 215.831 695.371 215.989 695.371 216.171C695.371 216.3 695.4 216.417 695.459 216.522C695.523 216.622 695.62 216.716 695.749 216.804C695.878 216.886 696.042 216.962 696.241 217.032C696.44 217.097 696.681 217.155 696.962 217.208C697.601 217.325 698.198 217.492 698.755 217.709C699.312 217.926 699.763 218.233 700.108 218.632C700.46 219.03 700.636 219.566 700.636 220.24C700.636 220.662 700.539 221.052 700.346 221.409C700.152 221.761 699.874 222.071 699.511 222.341C699.147 222.604 698.711 222.81 698.201 222.956C697.691 223.103 697.117 223.176 696.479 223.176C695.57 223.176 694.803 223.015 694.176 222.692C693.549 222.364 693.074 221.954 692.752 221.462C692.436 220.964 692.277 220.46 692.277 219.95H695.037C695.049 220.243 695.119 220.483 695.248 220.671C695.383 220.858 695.562 220.996 695.784 221.084C696.007 221.172 696.265 221.216 696.558 221.216C696.827 221.216 697.05 221.178 697.226 221.102C697.407 221.025 697.545 220.923 697.639 220.794C697.732 220.659 697.779 220.504 697.779 220.328ZM706.63 223.176C705.856 223.176 705.165 223.056 704.556 222.815C703.946 222.569 703.431 222.232 703.009 221.805C702.593 221.377 702.273 220.885 702.051 220.328C701.834 219.771 701.726 219.183 701.726 218.562V218.228C701.726 217.53 701.822 216.886 702.016 216.294C702.209 215.696 702.496 215.175 702.877 214.729C703.258 214.284 703.735 213.938 704.31 213.692C704.884 213.44 705.552 213.314 706.313 213.314C706.987 213.314 707.591 213.423 708.124 213.64C708.657 213.856 709.108 214.167 709.478 214.571C709.853 214.976 710.137 215.465 710.33 216.039C710.529 216.613 710.629 217.258 710.629 217.973V219.177H702.859V217.322H707.737V217.094C707.743 216.777 707.688 216.508 707.57 216.285C707.459 216.062 707.295 215.893 707.078 215.775C706.861 215.658 706.598 215.6 706.287 215.6C705.965 215.6 705.698 215.67 705.487 215.811C705.282 215.951 705.121 216.145 705.004 216.391C704.893 216.631 704.813 216.909 704.767 217.226C704.72 217.542 704.696 217.876 704.696 218.228V218.562C704.696 218.913 704.743 219.232 704.837 219.52C704.937 219.807 705.077 220.053 705.259 220.258C705.446 220.457 705.669 220.612 705.927 220.724C706.19 220.835 706.489 220.891 706.823 220.891C707.228 220.891 707.626 220.814 708.019 220.662C708.411 220.51 708.748 220.258 709.029 219.906L710.374 221.506C710.181 221.781 709.905 222.048 709.548 222.306C709.196 222.563 708.774 222.774 708.282 222.938C707.79 223.097 707.239 223.176 706.63 223.176Z" fill="white"/>
<rect x="753" y="196" width="124" height="41" rx="3" fill="#424242"/>
<rect x="753" y="196" width="124" height="41" rx="3" stroke="#424242" stroke-width="4"/>
<path d="M777.585 210.203H780.099L782.955 219.106L785.812 210.203H788.325L783.975 223H781.936L777.585 210.203ZM776.056 210.203H778.657L779.141 220.012V223H776.056V210.203ZM787.253 210.203H789.863V223H786.77V220.012L787.253 210.203ZM791.331 218.342V218.157C791.331 217.46 791.431 216.818 791.63 216.232C791.829 215.641 792.122 215.128 792.509 214.694C792.896 214.261 793.373 213.924 793.941 213.684C794.51 213.438 795.166 213.314 795.91 213.314C796.66 213.314 797.319 213.438 797.888 213.684C798.462 213.924 798.942 214.261 799.329 214.694C799.716 215.128 800.009 215.641 800.208 216.232C800.407 216.818 800.507 217.46 800.507 218.157V218.342C800.507 219.033 800.407 219.675 800.208 220.267C800.009 220.853 799.716 221.365 799.329 221.805C798.942 222.238 798.465 222.575 797.896 222.815C797.328 223.056 796.672 223.176 795.928 223.176C795.184 223.176 794.524 223.056 793.95 222.815C793.376 222.575 792.896 222.238 792.509 221.805C792.122 221.365 791.829 220.853 791.63 220.267C791.431 219.675 791.331 219.033 791.331 218.342ZM794.293 218.157V218.342C794.293 218.699 794.319 219.033 794.372 219.344C794.425 219.654 794.513 219.927 794.636 220.161C794.759 220.39 794.926 220.568 795.137 220.697C795.348 220.826 795.611 220.891 795.928 220.891C796.238 220.891 796.496 220.826 796.701 220.697C796.912 220.568 797.079 220.39 797.202 220.161C797.325 219.927 797.413 219.654 797.466 219.344C797.519 219.033 797.545 218.699 797.545 218.342V218.157C797.545 217.812 797.519 217.486 797.466 217.182C797.413 216.871 797.325 216.599 797.202 216.364C797.079 216.124 796.912 215.937 796.701 215.802C796.49 215.667 796.227 215.6 795.91 215.6C795.6 215.6 795.339 215.667 795.128 215.802C794.923 215.937 794.759 216.124 794.636 216.364C794.513 216.599 794.425 216.871 794.372 217.182C794.319 217.486 794.293 217.812 794.293 218.157ZM804.734 215.521V223H801.772V213.49H804.55L804.734 215.521ZM804.383 217.92L803.688 217.938C803.688 217.211 803.776 216.563 803.952 215.995C804.128 215.421 804.377 214.935 804.699 214.536C805.021 214.138 805.405 213.836 805.851 213.631C806.302 213.42 806.803 213.314 807.354 213.314C807.793 213.314 808.194 213.379 808.558 213.508C808.927 213.637 809.243 213.845 809.507 214.132C809.776 214.419 809.981 214.8 810.122 215.274C810.269 215.743 810.342 216.323 810.342 217.015V223H807.362V217.006C807.362 216.625 807.31 216.335 807.204 216.136C807.099 215.931 806.946 215.79 806.747 215.714C806.548 215.638 806.305 215.6 806.018 215.6C805.713 215.6 805.455 215.658 805.244 215.775C805.033 215.893 804.863 216.057 804.734 216.268C804.611 216.473 804.521 216.716 804.462 216.997C804.409 217.278 804.383 217.586 804.383 217.92ZM817.962 213.49H820.651V222.631C820.651 223.51 820.449 224.254 820.045 224.863C819.641 225.479 819.075 225.944 818.349 226.261C817.628 226.583 816.784 226.744 815.817 226.744C815.39 226.744 814.953 226.688 814.508 226.577C814.062 226.472 813.646 226.313 813.26 226.103C812.873 225.892 812.548 225.631 812.284 225.32L813.523 223.58C813.764 223.85 814.065 224.078 814.429 224.266C814.792 224.459 815.22 224.556 815.712 224.556C816.14 224.556 816.497 224.479 816.784 224.327C817.077 224.175 817.3 223.952 817.452 223.659C817.604 223.372 817.681 223.023 817.681 222.613V215.74L817.962 213.49ZM811.643 218.359V218.175C811.643 217.454 811.73 216.798 811.906 216.206C812.088 215.608 812.346 215.096 812.68 214.668C813.02 214.234 813.43 213.9 813.91 213.666C814.391 213.432 814.933 213.314 815.536 213.314C816.187 213.314 816.72 213.44 817.136 213.692C817.558 213.938 817.895 214.284 818.146 214.729C818.404 215.175 818.604 215.696 818.744 216.294C818.891 216.886 819.014 217.524 819.113 218.21V218.43C819.014 219.074 818.876 219.684 818.7 220.258C818.53 220.826 818.308 221.33 818.032 221.77C817.757 222.209 817.411 222.555 816.995 222.807C816.585 223.053 816.093 223.176 815.519 223.176C814.921 223.176 814.382 223.056 813.901 222.815C813.427 222.575 813.02 222.238 812.68 221.805C812.346 221.371 812.088 220.861 811.906 220.275C811.73 219.689 811.643 219.051 811.643 218.359ZM814.604 218.175V218.359C814.604 218.717 814.637 219.048 814.701 219.353C814.771 219.657 814.877 219.927 815.018 220.161C815.158 220.39 815.331 220.568 815.536 220.697C815.747 220.826 815.993 220.891 816.274 220.891C816.702 220.891 817.048 220.8 817.312 220.618C817.575 220.437 817.766 220.179 817.883 219.845C818 219.511 818.05 219.118 818.032 218.667V217.973C818.044 217.586 818.018 217.246 817.953 216.953C817.889 216.654 817.786 216.405 817.646 216.206C817.511 216.007 817.329 215.857 817.101 215.758C816.878 215.652 816.608 215.6 816.292 215.6C816.017 215.6 815.773 215.664 815.562 215.793C815.352 215.922 815.176 216.104 815.035 216.338C814.895 216.566 814.786 216.839 814.71 217.155C814.64 217.466 814.604 217.806 814.604 218.175ZM821.987 218.342V218.157C821.987 217.46 822.087 216.818 822.286 216.232C822.485 215.641 822.778 215.128 823.165 214.694C823.552 214.261 824.029 213.924 824.598 213.684C825.166 213.438 825.822 213.314 826.566 213.314C827.316 213.314 827.976 213.438 828.544 213.684C829.118 213.924 829.599 214.261 829.985 214.694C830.372 215.128 830.665 215.641 830.864 216.232C831.063 216.818 831.163 217.46 831.163 218.157V218.342C831.163 219.033 831.063 219.675 830.864 220.267C830.665 220.853 830.372 221.365 829.985 221.805C829.599 222.238 829.121 222.575 828.553 222.815C827.984 223.056 827.328 223.176 826.584 223.176C825.84 223.176 825.181 223.056 824.606 222.815C824.032 222.575 823.552 222.238 823.165 221.805C822.778 221.365 822.485 220.853 822.286 220.267C822.087 219.675 821.987 219.033 821.987 218.342ZM824.949 218.157V218.342C824.949 218.699 824.976 219.033 825.028 219.344C825.081 219.654 825.169 219.927 825.292 220.161C825.415 220.39 825.582 220.568 825.793 220.697C826.004 220.826 826.268 220.891 826.584 220.891C826.895 220.891 827.152 220.826 827.357 220.697C827.568 220.568 827.735 220.39 827.858 220.161C827.981 219.927 828.069 219.654 828.122 219.344C828.175 219.033 828.201 218.699 828.201 218.342V218.157C828.201 217.812 828.175 217.486 828.122 217.182C828.069 216.871 827.981 216.599 827.858 216.364C827.735 216.124 827.568 215.937 827.357 215.802C827.146 215.667 826.883 215.6 826.566 215.6C826.256 215.6 825.995 215.667 825.784 215.802C825.579 215.937 825.415 216.124 825.292 216.364C825.169 216.599 825.081 216.871 825.028 217.182C824.976 217.486 824.949 217.812 824.949 218.157ZM836.779 223H833.94L833.958 220.627H836.779C837.365 220.627 837.86 220.486 838.265 220.205C838.675 219.924 838.985 219.505 839.196 218.948C839.413 218.386 839.521 217.694 839.521 216.874V216.32C839.521 215.705 839.46 215.166 839.337 214.703C839.22 214.234 839.044 213.845 838.81 213.534C838.575 213.218 838.282 212.98 837.931 212.822C837.585 212.664 837.187 212.585 836.735 212.585H833.888V210.203H836.735C837.603 210.203 838.396 210.353 839.117 210.651C839.844 210.944 840.471 211.366 840.998 211.917C841.531 212.462 841.941 213.109 842.229 213.859C842.521 214.604 842.668 215.43 842.668 216.338V216.874C842.668 217.776 842.521 218.603 842.229 219.353C841.941 220.103 841.534 220.75 841.007 221.295C840.479 221.84 839.855 222.262 839.135 222.561C838.42 222.854 837.635 223 836.779 223ZM835.707 210.203V223H832.622V210.203H835.707ZM849.497 217.56H846.201L846.184 215.538H848.855C849.336 215.538 849.72 215.485 850.007 215.38C850.294 215.269 850.502 215.107 850.631 214.896C850.766 214.686 850.833 214.422 850.833 214.105C850.833 213.742 850.766 213.449 850.631 213.227C850.496 213.004 850.282 212.843 849.989 212.743C849.702 212.638 849.33 212.585 848.873 212.585H847.361V223H844.276V210.203H848.873C849.664 210.203 850.37 210.276 850.991 210.423C851.612 210.563 852.14 210.78 852.573 211.073C853.013 211.366 853.347 211.735 853.575 212.181C853.804 212.62 853.918 213.139 853.918 213.736C853.918 214.258 853.807 214.747 853.584 215.204C853.361 215.661 852.989 216.033 852.468 216.32C851.952 216.602 851.246 216.748 850.35 216.76L849.497 217.56ZM849.374 223H845.454L846.509 220.627H849.374C849.796 220.627 850.133 220.562 850.385 220.434C850.643 220.299 850.827 220.123 850.938 219.906C851.056 219.684 851.114 219.438 851.114 219.168C851.114 218.84 851.059 218.556 850.947 218.315C850.842 218.075 850.672 217.891 850.438 217.762C850.203 217.627 849.89 217.56 849.497 217.56H846.904L846.922 215.538H850.024L850.745 216.347C851.601 216.312 852.277 216.432 852.775 216.707C853.279 216.982 853.64 217.346 853.856 217.797C854.073 218.248 854.182 218.72 854.182 219.212C854.182 220.05 854 220.75 853.637 221.312C853.279 221.875 852.743 222.297 852.028 222.578C851.313 222.859 850.429 223 849.374 223Z" fill="white"/>
<path d="M1066 0H1348C1356.28 0 1363 6.71573 1363 15V282C1363 290.284 1356.28 297 1348 297H1066V0Z" fill="white"/>
<path d="M1147.73 72.6334L1206.04 24.2597C1209.72 21.2048 1215.05 21.1862 1218.75 24.2154L1299.43 90.2067C1301.06 91.5361 1302 93.5251 1302 95.625V125.893C1302 131.416 1297.52 135.893 1292 135.893H1143.03C1137.51 135.893 1133.03 140.37 1133.03 145.893V155.614C1133.03 161.137 1137.51 165.614 1143.03 165.614H1292C1297.52 165.614 1302 170.092 1302 175.614V187.41C1302 192.933 1297.52 197.41 1292 197.41H1222.37C1216.85 197.41 1212.37 201.888 1212.37 207.41V213.862" stroke="#0D4C92" stroke-width="9"/>
<circle cx="1152" cy="78.1511" r="20.5" fill="white" stroke="#0D4C92" stroke-width="9"/>
<path d="M1161.75 78.0489C1161.75 83.8936 1157.19 88.5978 1151.62 88.5978C1146.05 88.5978 1141.5 83.8936 1141.5 78.0489C1141.5 72.2042 1146.05 67.5 1151.62 67.5C1157.19 67.5 1161.75 72.2042 1161.75 78.0489Z" fill="#0D4C92" stroke="#0D4C92"/>
<path d="M1186 281V241.5C1186 227.417 1197.42 216 1211.5 216V216C1225.58 216 1237 227.417 1237 241.5V281" stroke="#0D4C92" stroke-width="9"/>
<path d="M1195 277C1195 274.791 1193.21 273 1191 273H1183V281H1191C1193.21 281 1195 279.209 1195 277V277Z" fill="#0D4C92"/>
<path d="M1227 277C1227 279.209 1228.79 281 1231 281H1239V273H1231C1228.79 273 1227 274.791 1227 277V277Z" fill="#0D4C92"/>
<rect x="1202.01" y="45.1156" width="9.65692" height="10.0445" rx="1" fill="#0D4C92"/>
<rect x="1202.01" y="57.1689" width="9.65692" height="10.0445" rx="1" fill="#0D4C92"/>
<rect x="1212.99" y="45.1156" width="9.65692" height="10.0445" rx="1" fill="#0D4C92"/>
<rect x="1212.99" y="57.1689" width="9.65692" height="10.0445" rx="1" fill="#0D4C92"/>
</svg>
