<svg width="1363" height="163" viewBox="0 0 1363 163" fill="none" xmlns="http://www.w3.org/2000/svg">
<path d="M0 15C0 6.71573 6.71573 0 15 0H37V163H15C6.71573 163 0 156.284 0 148V15Z" fill="#424242"/>
<rect width="1097" height="163" transform="translate(37)" fill="#F0F0F0"/>
<path d="M101.906 53.9219L94.3945 51.2383V48.0859L104.602 52.375V54.6367L101.906 53.9219ZM94.3945 56.1719L101.918 53.4297L104.602 52.7852V55.0352L94.3945 59.3242V56.1719ZM114.504 43.9375H117.48L121.863 56.4648L126.246 43.9375H129.223L123.059 61H120.668L114.504 43.9375ZM112.898 43.9375H115.863L116.402 56.1484V61H112.898V43.9375ZM127.863 43.9375H130.84V61H127.324V56.1484L127.863 43.9375ZM139.547 61.2344C138.562 61.2344 137.68 61.0781 136.898 60.7656C136.117 60.4453 135.453 60.0039 134.906 59.4414C134.367 58.8789 133.953 58.2266 133.664 57.4844C133.375 56.7344 133.23 55.9375 133.23 55.0938V54.625C133.23 53.6641 133.367 52.7852 133.641 51.9883C133.914 51.1914 134.305 50.5 134.812 49.9141C135.328 49.3281 135.953 48.8789 136.688 48.5664C137.422 48.2461 138.25 48.0859 139.172 48.0859C140.07 48.0859 140.867 48.2344 141.562 48.5312C142.258 48.8281 142.84 49.25 143.309 49.7969C143.785 50.3438 144.145 51 144.387 51.7656C144.629 52.5234 144.75 53.3672 144.75 54.2969V55.7031H134.672V53.4531H141.434V53.1953C141.434 52.7266 141.348 52.3086 141.176 51.9414C141.012 51.5664 140.762 51.2695 140.426 51.0508C140.09 50.832 139.66 50.7227 139.137 50.7227C138.691 50.7227 138.309 50.8203 137.988 51.0156C137.668 51.2109 137.406 51.4844 137.203 51.8359C137.008 52.1875 136.859 52.6016 136.758 53.0781C136.664 53.5469 136.617 54.0625 136.617 54.625V55.0938C136.617 55.6016 136.688 56.0703 136.828 56.5C136.977 56.9297 137.184 57.3008 137.449 57.6133C137.723 57.9258 138.051 58.168 138.434 58.3398C138.824 58.5117 139.266 58.5977 139.758 58.5977C140.367 58.5977 140.934 58.4805 141.457 58.2461C141.988 58.0039 142.445 57.6406 142.828 57.1562L144.469 58.9375C144.203 59.3203 143.84 59.6875 143.379 60.0391C142.926 60.3906 142.379 60.6797 141.738 60.9062C141.098 61.125 140.367 61.2344 139.547 61.2344ZM154.16 58.2344V43H157.559V61H154.5L154.16 58.2344ZM146.145 54.8125V54.5664C146.145 53.5977 146.254 52.7188 146.473 51.9297C146.691 51.1328 147.012 50.4492 147.434 49.8789C147.855 49.3086 148.375 48.8672 148.992 48.5547C149.609 48.2422 150.312 48.0859 151.102 48.0859C151.844 48.0859 152.492 48.2422 153.047 48.5547C153.609 48.8672 154.086 49.3125 154.477 49.8906C154.875 50.4609 155.195 51.1367 155.438 51.918C155.68 52.6914 155.855 53.5391 155.965 54.4609V55C155.855 55.8828 155.68 56.7031 155.438 57.4609C155.195 58.2188 154.875 58.8828 154.477 59.4531C154.086 60.0156 153.609 60.4531 153.047 60.7656C152.484 61.0781 151.828 61.2344 151.078 61.2344C150.289 61.2344 149.586 61.0742 148.969 60.7539C148.359 60.4336 147.844 59.9844 147.422 59.4062C147.008 58.8281 146.691 58.1484 146.473 57.3672C146.254 56.5859 146.145 55.7344 146.145 54.8125ZM149.52 54.5664V54.8125C149.52 55.3359 149.559 55.8242 149.637 56.2773C149.723 56.7305 149.859 57.1328 150.047 57.4844C150.242 57.8281 150.492 58.0977 150.797 58.293C151.109 58.4805 151.488 58.5742 151.934 58.5742C152.512 58.5742 152.988 58.4453 153.363 58.1875C153.738 57.9219 154.023 57.5586 154.219 57.0977C154.422 56.6367 154.539 56.1055 154.57 55.5039V53.9688C154.547 53.4766 154.477 53.0352 154.359 52.6445C154.25 52.2461 154.086 51.9062 153.867 51.625C153.656 51.3438 153.391 51.125 153.07 50.9688C152.758 50.8125 152.387 50.7344 151.957 50.7344C151.52 50.7344 151.145 50.8359 150.832 51.0391C150.52 51.2344 150.266 51.5039 150.07 51.8477C149.883 52.1914 149.742 52.5977 149.648 53.0664C149.562 53.5273 149.52 54.0273 149.52 54.5664ZM170.297 55.3398H173.801C173.73 56.4883 173.414 57.5078 172.852 58.3984C172.297 59.2891 171.52 59.9844 170.52 60.4844C169.527 60.9844 168.332 61.2344 166.934 61.2344C165.84 61.2344 164.859 61.0469 163.992 60.6719C163.125 60.2891 162.383 59.7422 161.766 59.0312C161.156 58.3203 160.691 57.4609 160.371 56.4531C160.051 55.4453 159.891 54.3164 159.891 53.0664V51.8828C159.891 50.6328 160.055 49.5039 160.383 48.4961C160.719 47.4805 161.195 46.6172 161.812 45.9062C162.438 45.1953 163.184 44.6484 164.051 44.2656C164.918 43.8828 165.887 43.6914 166.957 43.6914C168.379 43.6914 169.578 43.9492 170.555 44.4648C171.539 44.9805 172.301 45.6914 172.84 46.5977C173.387 47.5039 173.715 48.5352 173.824 49.6914H170.309C170.27 49.0039 170.133 48.4219 169.898 47.9453C169.664 47.4609 169.309 47.0977 168.832 46.8555C168.363 46.6055 167.738 46.4805 166.957 46.4805C166.371 46.4805 165.859 46.5898 165.422 46.8086C164.984 47.0273 164.617 47.3594 164.32 47.8047C164.023 48.25 163.801 48.8125 163.652 49.4922C163.512 50.1641 163.441 50.9531 163.441 51.8594V53.0664C163.441 53.9492 163.508 54.7266 163.641 55.3984C163.773 56.0625 163.977 56.625 164.25 57.0859C164.531 57.5391 164.891 57.8828 165.328 58.1172C165.773 58.3438 166.309 58.457 166.934 58.457C167.668 58.457 168.273 58.3398 168.75 58.1055C169.227 57.8711 169.59 57.5234 169.84 57.0625C170.098 56.6016 170.25 56.0273 170.297 55.3398ZM175.359 54.7891V54.543C175.359 53.6133 175.492 52.7578 175.758 51.9766C176.023 51.1875 176.41 50.5039 176.918 49.9258C177.426 49.3477 178.051 48.8984 178.793 48.5781C179.535 48.25 180.387 48.0859 181.348 48.0859C182.309 48.0859 183.164 48.25 183.914 48.5781C184.664 48.8984 185.293 49.3477 185.801 49.9258C186.316 50.5039 186.707 51.1875 186.973 51.9766C187.238 52.7578 187.371 53.6133 187.371 54.543V54.7891C187.371 55.7109 187.238 56.5664 186.973 57.3555C186.707 58.1367 186.316 58.8203 185.801 59.4062C185.293 59.9844 184.668 60.4336 183.926 60.7539C183.184 61.0742 182.332 61.2344 181.371 61.2344C180.41 61.2344 179.555 61.0742 178.805 60.7539C178.062 60.4336 177.434 59.9844 176.918 59.4062C176.41 58.8203 176.023 58.1367 175.758 57.3555C175.492 56.5664 175.359 55.7109 175.359 54.7891ZM178.734 54.543V54.7891C178.734 55.3203 178.781 55.8164 178.875 56.2773C178.969 56.7383 179.117 57.1445 179.32 57.4961C179.531 57.8398 179.805 58.1094 180.141 58.3047C180.477 58.5 180.887 58.5977 181.371 58.5977C181.84 58.5977 182.242 58.5 182.578 58.3047C182.914 58.1094 183.184 57.8398 183.387 57.4961C183.59 57.1445 183.738 56.7383 183.832 56.2773C183.934 55.8164 183.984 55.3203 183.984 54.7891V54.543C183.984 54.0273 183.934 53.543 183.832 53.0898C183.738 52.6289 183.586 52.2227 183.375 51.8711C183.172 51.5117 182.902 51.2305 182.566 51.0273C182.23 50.8242 181.824 50.7227 181.348 50.7227C180.871 50.7227 180.465 50.8242 180.129 51.0273C179.801 51.2305 179.531 51.5117 179.32 51.8711C179.117 52.2227 178.969 52.6289 178.875 53.0898C178.781 53.543 178.734 54.0273 178.734 54.543ZM192.75 51.0273V61H189.375V48.3203H192.539L192.75 51.0273ZM192.258 54.2148H191.344C191.344 53.2773 191.465 52.4336 191.707 51.6836C191.949 50.9258 192.289 50.2812 192.727 49.75C193.164 49.2109 193.684 48.8008 194.285 48.5195C194.895 48.2305 195.574 48.0859 196.324 48.0859C196.918 48.0859 197.461 48.1719 197.953 48.3438C198.445 48.5156 198.867 48.7891 199.219 49.1641C199.578 49.5391 199.852 50.0352 200.039 50.6523C200.234 51.2695 200.332 52.0234 200.332 52.9141V61H196.934V52.9023C196.934 52.3398 196.855 51.9023 196.699 51.5898C196.543 51.2773 196.312 51.0586 196.008 50.9336C195.711 50.8008 195.344 50.7344 194.906 50.7344C194.453 50.7344 194.059 50.8242 193.723 51.0039C193.395 51.1836 193.121 51.4336 192.902 51.7539C192.691 52.0664 192.531 52.4336 192.422 52.8555C192.312 53.2773 192.258 53.7305 192.258 54.2148ZM206.203 51.0273V61H202.828V48.3203H205.992L206.203 51.0273ZM205.711 54.2148H204.797C204.797 53.2773 204.918 52.4336 205.16 51.6836C205.402 50.9258 205.742 50.2812 206.18 49.75C206.617 49.2109 207.137 48.8008 207.738 48.5195C208.348 48.2305 209.027 48.0859 209.777 48.0859C210.371 48.0859 210.914 48.1719 211.406 48.3438C211.898 48.5156 212.32 48.7891 212.672 49.1641C213.031 49.5391 213.305 50.0352 213.492 50.6523C213.688 51.2695 213.785 52.0234 213.785 52.9141V61H210.387V52.9023C210.387 52.3398 210.309 51.9023 210.152 51.5898C209.996 51.2773 209.766 51.0586 209.461 50.9336C209.164 50.8008 208.797 50.7344 208.359 50.7344C207.906 50.7344 207.512 50.8242 207.176 51.0039C206.848 51.1836 206.574 51.4336 206.355 51.7539C206.145 52.0664 205.984 52.4336 205.875 52.8555C205.766 53.2773 205.711 53.7305 205.711 54.2148ZM222.188 61.2344C221.203 61.2344 220.32 61.0781 219.539 60.7656C218.758 60.4453 218.094 60.0039 217.547 59.4414C217.008 58.8789 216.594 58.2266 216.305 57.4844C216.016 56.7344 215.871 55.9375 215.871 55.0938V54.625C215.871 53.6641 216.008 52.7852 216.281 51.9883C216.555 51.1914 216.945 50.5 217.453 49.9141C217.969 49.3281 218.594 48.8789 219.328 48.5664C220.062 48.2461 220.891 48.0859 221.812 48.0859C222.711 48.0859 223.508 48.2344 224.203 48.5312C224.898 48.8281 225.48 49.25 225.949 49.7969C226.426 50.3438 226.785 51 227.027 51.7656C227.27 52.5234 227.391 53.3672 227.391 54.2969V55.7031H217.312V53.4531H224.074V53.1953C224.074 52.7266 223.988 52.3086 223.816 51.9414C223.652 51.5664 223.402 51.2695 223.066 51.0508C222.73 50.832 222.301 50.7227 221.777 50.7227C221.332 50.7227 220.949 50.8203 220.629 51.0156C220.309 51.2109 220.047 51.4844 219.844 51.8359C219.648 52.1875 219.5 52.6016 219.398 53.0781C219.305 53.5469 219.258 54.0625 219.258 54.625V55.0938C219.258 55.6016 219.328 56.0703 219.469 56.5C219.617 56.9297 219.824 57.3008 220.09 57.6133C220.363 57.9258 220.691 58.168 221.074 58.3398C221.465 58.5117 221.906 58.5977 222.398 58.5977C223.008 58.5977 223.574 58.4805 224.098 58.2461C224.629 58.0039 225.086 57.6406 225.469 57.1562L227.109 58.9375C226.844 59.3203 226.48 59.6875 226.02 60.0391C225.566 60.3906 225.02 60.6797 224.379 60.9062C223.738 61.125 223.008 61.2344 222.188 61.2344ZM234.551 58.5977C234.965 58.5977 235.332 58.5195 235.652 58.3633C235.973 58.1992 236.223 57.9727 236.402 57.6836C236.59 57.3867 236.688 57.0391 236.695 56.6406H239.871C239.863 57.5312 239.625 58.3242 239.156 59.0195C238.688 59.707 238.059 60.25 237.27 60.6484C236.48 61.0391 235.598 61.2344 234.621 61.2344C233.637 61.2344 232.777 61.0703 232.043 60.7422C231.316 60.4141 230.711 59.9609 230.227 59.3828C229.742 58.7969 229.379 58.1172 229.137 57.3438C228.895 56.5625 228.773 55.7266 228.773 54.8359V54.4961C228.773 53.5977 228.895 52.7617 229.137 51.9883C229.379 51.207 229.742 50.5273 230.227 49.9492C230.711 49.3633 231.316 48.9062 232.043 48.5781C232.77 48.25 233.621 48.0859 234.598 48.0859C235.637 48.0859 236.547 48.2852 237.328 48.6836C238.117 49.082 238.734 49.6523 239.18 50.3945C239.633 51.1289 239.863 52 239.871 53.0078H236.695C236.688 52.5859 236.598 52.2031 236.426 51.8594C236.262 51.5156 236.02 51.2422 235.699 51.0391C235.387 50.8281 235 50.7227 234.539 50.7227C234.047 50.7227 233.645 50.8281 233.332 51.0391C233.02 51.2422 232.777 51.5234 232.605 51.8828C232.434 52.2344 232.312 52.6367 232.242 53.0898C232.18 53.5352 232.148 54.0039 232.148 54.4961V54.8359C232.148 55.3281 232.18 55.8008 232.242 56.2539C232.305 56.707 232.422 57.1094 232.594 57.4609C232.773 57.8125 233.02 58.0898 233.332 58.293C233.645 58.4961 234.051 58.5977 234.551 58.5977ZM248.039 48.3203V50.7109H240.656V48.3203H248.039ZM242.484 45.1914H245.859V57.1797C245.859 57.5469 245.906 57.8281 246 58.0234C246.102 58.2188 246.25 58.3555 246.445 58.4336C246.641 58.5039 246.887 58.5391 247.184 58.5391C247.395 58.5391 247.582 58.5312 247.746 58.5156C247.918 58.4922 248.062 58.4688 248.18 58.4453L248.191 60.9297C247.902 61.0234 247.59 61.0977 247.254 61.1523C246.918 61.207 246.547 61.2344 246.141 61.2344C245.398 61.2344 244.75 61.1133 244.195 60.8711C243.648 60.6211 243.227 60.2227 242.93 59.6758C242.633 59.1289 242.484 58.4102 242.484 57.5195V45.1914Z" fill="#888888"/>
<path d="M104.344 84.875V119H96.1406V84.875H104.344ZM117.727 99.0078V119H109.828V93.6406H117.234L117.727 99.0078ZM116.766 105.453L114.961 105.5C114.961 103.719 115.172 102.078 115.594 100.578C116.016 99.0781 116.641 97.7734 117.469 96.6641C118.297 95.5547 119.312 94.6953 120.516 94.0859C121.734 93.4766 123.141 93.1719 124.734 93.1719C125.844 93.1719 126.852 93.3438 127.758 93.6875C128.664 94.0156 129.445 94.5391 130.102 95.2578C130.758 95.9609 131.258 96.8828 131.602 98.0234C131.961 99.1484 132.141 100.5 132.141 102.078V119H124.242V103.086C124.242 102.008 124.117 101.195 123.867 100.648C123.633 100.102 123.289 99.7344 122.836 99.5469C122.383 99.3594 121.828 99.2656 121.172 99.2656C120.484 99.2656 119.867 99.4219 119.32 99.7344C118.773 100.047 118.305 100.484 117.914 101.047C117.539 101.594 117.25 102.242 117.047 102.992C116.859 103.742 116.766 104.562 116.766 105.453ZM131.25 105.453L129.047 105.5C129.047 103.719 129.242 102.078 129.633 100.578C130.039 99.0781 130.641 97.7734 131.438 96.6641C132.25 95.5547 133.258 94.6953 134.461 94.0859C135.664 93.4766 137.062 93.1719 138.656 93.1719C139.812 93.1719 140.875 93.3438 141.844 93.6875C142.812 94.0312 143.648 94.5859 144.352 95.3516C145.055 96.1172 145.602 97.1328 145.992 98.3984C146.383 99.6484 146.578 101.195 146.578 103.039V119H138.656V103.039C138.656 101.992 138.531 101.203 138.281 100.672C138.047 100.125 137.703 99.7578 137.25 99.5703C136.797 99.3672 136.258 99.2656 135.633 99.2656C134.883 99.2656 134.234 99.4219 133.688 99.7344C133.141 100.047 132.68 100.484 132.305 101.047C131.945 101.594 131.68 102.242 131.508 102.992C131.336 103.742 131.25 104.562 131.25 105.453ZM159.07 98.5156V128.75H151.172V93.6406H158.531L159.07 98.5156ZM174.633 106.016V106.508C174.633 108.352 174.422 110.062 174 111.641C173.578 113.219 172.953 114.594 172.125 115.766C171.297 116.938 170.266 117.852 169.031 118.508C167.812 119.148 166.398 119.469 164.789 119.469C163.273 119.469 161.969 119.133 160.875 118.461C159.781 117.789 158.867 116.859 158.133 115.672C157.398 114.484 156.805 113.125 156.352 111.594C155.898 110.062 155.539 108.445 155.273 106.742V106.109C155.539 104.281 155.898 102.586 156.352 101.023C156.805 99.4453 157.398 98.0703 158.133 96.8984C158.867 95.7266 159.773 94.8125 160.852 94.1562C161.945 93.5 163.25 93.1719 164.766 93.1719C166.375 93.1719 167.789 93.4766 169.008 94.0859C170.242 94.6953 171.273 95.5703 172.102 96.7109C172.945 97.8359 173.578 99.1875 174 100.766C174.422 102.344 174.633 104.094 174.633 106.016ZM166.734 106.508V106.016C166.734 105.031 166.664 104.133 166.523 103.32C166.383 102.492 166.156 101.773 165.844 101.164C165.547 100.555 165.148 100.086 164.648 99.7578C164.148 99.4297 163.531 99.2656 162.797 99.2656C161.953 99.2656 161.242 99.3984 160.664 99.6641C160.102 99.9141 159.648 100.305 159.305 100.836C158.977 101.352 158.742 102 158.602 102.781C158.477 103.547 158.422 104.445 158.438 105.477V107.398C158.406 108.586 158.523 109.633 158.789 110.539C159.055 111.43 159.516 112.125 160.172 112.625C160.828 113.125 161.719 113.375 162.844 113.375C163.594 113.375 164.219 113.203 164.719 112.859C165.219 112.5 165.617 112.008 165.914 111.383C166.211 110.742 166.422 110.008 166.547 109.18C166.672 108.352 166.734 107.461 166.734 106.508ZM186.492 83V119H178.57V83H186.492ZM203.648 119.469C201.586 119.469 199.742 119.148 198.117 118.508C196.492 117.852 195.117 116.953 193.992 115.812C192.883 114.672 192.031 113.359 191.438 111.875C190.859 110.391 190.57 108.82 190.57 107.164V106.273C190.57 104.414 190.828 102.695 191.344 101.117C191.859 99.5234 192.625 98.1328 193.641 96.9453C194.656 95.7578 195.93 94.8359 197.461 94.1797C198.992 93.5078 200.773 93.1719 202.805 93.1719C204.602 93.1719 206.211 93.4609 207.633 94.0391C209.055 94.6172 210.258 95.4453 211.242 96.5234C212.242 97.6016 213 98.9062 213.516 100.438C214.047 101.969 214.312 103.688 214.312 105.594V108.805H193.594V103.859H206.602V103.25C206.617 102.406 206.469 101.688 206.156 101.094C205.859 100.5 205.422 100.047 204.844 99.7344C204.266 99.4219 203.562 99.2656 202.734 99.2656C201.875 99.2656 201.164 99.4531 200.602 99.8281C200.055 100.203 199.625 100.719 199.312 101.375C199.016 102.016 198.805 102.758 198.68 103.602C198.555 104.445 198.492 105.336 198.492 106.273V107.164C198.492 108.102 198.617 108.953 198.867 109.719C199.133 110.484 199.508 111.141 199.992 111.688C200.492 112.219 201.086 112.633 201.773 112.93C202.477 113.227 203.273 113.375 204.164 113.375C205.242 113.375 206.305 113.172 207.352 112.766C208.398 112.359 209.297 111.688 210.047 110.75L213.633 115.016C213.117 115.75 212.383 116.461 211.43 117.148C210.492 117.836 209.367 118.398 208.055 118.836C206.742 119.258 205.273 119.469 203.648 119.469ZM225.492 99.0078V119H217.594V93.6406H225L225.492 99.0078ZM224.531 105.453L222.727 105.5C222.727 103.719 222.938 102.078 223.359 100.578C223.781 99.0781 224.406 97.7734 225.234 96.6641C226.062 95.5547 227.078 94.6953 228.281 94.0859C229.5 93.4766 230.906 93.1719 232.5 93.1719C233.609 93.1719 234.617 93.3438 235.523 93.6875C236.43 94.0156 237.211 94.5391 237.867 95.2578C238.523 95.9609 239.023 96.8828 239.367 98.0234C239.727 99.1484 239.906 100.5 239.906 102.078V119H232.008V103.086C232.008 102.008 231.883 101.195 231.633 100.648C231.398 100.102 231.055 99.7344 230.602 99.5469C230.148 99.3594 229.594 99.2656 228.938 99.2656C228.25 99.2656 227.633 99.4219 227.086 99.7344C226.539 100.047 226.07 100.484 225.68 101.047C225.305 101.594 225.016 102.242 224.812 102.992C224.625 103.742 224.531 104.562 224.531 105.453ZM239.016 105.453L236.812 105.5C236.812 103.719 237.008 102.078 237.398 100.578C237.805 99.0781 238.406 97.7734 239.203 96.6641C240.016 95.5547 241.023 94.6953 242.227 94.0859C243.43 93.4766 244.828 93.1719 246.422 93.1719C247.578 93.1719 248.641 93.3438 249.609 93.6875C250.578 94.0312 251.414 94.5859 252.117 95.3516C252.82 96.1172 253.367 97.1328 253.758 98.3984C254.148 99.6484 254.344 101.195 254.344 103.039V119H246.422V103.039C246.422 101.992 246.297 101.203 246.047 100.672C245.812 100.125 245.469 99.7578 245.016 99.5703C244.562 99.3672 244.023 99.2656 243.398 99.2656C242.648 99.2656 242 99.4219 241.453 99.7344C240.906 100.047 240.445 100.484 240.07 101.047C239.711 101.594 239.445 102.242 239.273 102.992C239.102 103.742 239.016 104.562 239.016 105.453ZM271.148 119.469C269.086 119.469 267.242 119.148 265.617 118.508C263.992 117.852 262.617 116.953 261.492 115.812C260.383 114.672 259.531 113.359 258.938 111.875C258.359 110.391 258.07 108.82 258.07 107.164V106.273C258.07 104.414 258.328 102.695 258.844 101.117C259.359 99.5234 260.125 98.1328 261.141 96.9453C262.156 95.7578 263.43 94.8359 264.961 94.1797C266.492 93.5078 268.273 93.1719 270.305 93.1719C272.102 93.1719 273.711 93.4609 275.133 94.0391C276.555 94.6172 277.758 95.4453 278.742 96.5234C279.742 97.6016 280.5 98.9062 281.016 100.438C281.547 101.969 281.812 103.688 281.812 105.594V108.805H261.094V103.859H274.102V103.25C274.117 102.406 273.969 101.688 273.656 101.094C273.359 100.5 272.922 100.047 272.344 99.7344C271.766 99.4219 271.062 99.2656 270.234 99.2656C269.375 99.2656 268.664 99.4531 268.102 99.8281C267.555 100.203 267.125 100.719 266.812 101.375C266.516 102.016 266.305 102.758 266.18 103.602C266.055 104.445 265.992 105.336 265.992 106.273V107.164C265.992 108.102 266.117 108.953 266.367 109.719C266.633 110.484 267.008 111.141 267.492 111.688C267.992 112.219 268.586 112.633 269.273 112.93C269.977 113.227 270.773 113.375 271.664 113.375C272.742 113.375 273.805 113.172 274.852 112.766C275.898 112.359 276.797 111.688 277.547 110.75L281.133 115.016C280.617 115.75 279.883 116.461 278.93 117.148C277.992 117.836 276.867 118.398 275.555 118.836C274.242 119.258 272.773 119.469 271.148 119.469ZM292.781 99.0547V119H284.883V93.6406H292.289L292.781 99.0547ZM291.844 105.453L289.992 105.5C289.992 103.562 290.227 101.836 290.695 100.32C291.164 98.7891 291.828 97.4922 292.688 96.4297C293.547 95.3672 294.57 94.5625 295.758 94.0156C296.961 93.4531 298.297 93.1719 299.766 93.1719C300.938 93.1719 302.008 93.3438 302.977 93.6875C303.961 94.0312 304.805 94.5859 305.508 95.3516C306.227 96.1172 306.773 97.1328 307.148 98.3984C307.539 99.6484 307.734 101.195 307.734 103.039V119H299.789V103.016C299.789 102 299.648 101.227 299.367 100.695C299.086 100.148 298.68 99.7734 298.148 99.5703C297.617 99.3672 296.969 99.2656 296.203 99.2656C295.391 99.2656 294.703 99.4219 294.141 99.7344C293.578 100.047 293.125 100.484 292.781 101.047C292.453 101.594 292.211 102.242 292.055 102.992C291.914 103.742 291.844 104.562 291.844 105.453ZM325.477 93.6406V99.125H310.195V93.6406H325.477ZM313.406 87.3359H321.305V110.727C321.305 111.398 321.383 111.922 321.539 112.297C321.695 112.656 321.961 112.914 322.336 113.07C322.727 113.211 323.242 113.281 323.883 113.281C324.336 113.281 324.711 113.273 325.008 113.258C325.305 113.227 325.586 113.188 325.852 113.141V118.789C325.18 119.008 324.477 119.172 323.742 119.281C323.008 119.406 322.227 119.469 321.398 119.469C319.711 119.469 318.266 119.203 317.062 118.672C315.875 118.141 314.969 117.305 314.344 116.164C313.719 115.023 313.406 113.539 313.406 111.711V87.3359ZM341.789 112.625V102.172C341.789 101.453 341.688 100.836 341.484 100.32C341.281 99.8047 340.961 99.4062 340.523 99.125C340.086 98.8281 339.5 98.6797 338.766 98.6797C338.172 98.6797 337.664 98.7812 337.242 98.9844C336.82 99.1875 336.5 99.4922 336.281 99.8984C336.062 100.305 335.953 100.82 335.953 101.445H328.055C328.055 100.273 328.312 99.1875 328.828 98.1875C329.359 97.1719 330.109 96.2891 331.078 95.5391C332.062 94.7891 333.234 94.2109 334.594 93.8047C335.969 93.3828 337.5 93.1719 339.188 93.1719C341.203 93.1719 343 93.5078 344.578 94.1797C346.172 94.8516 347.43 95.8594 348.352 97.2031C349.273 98.5312 349.734 100.203 349.734 102.219V112.602C349.734 114.258 349.828 115.516 350.016 116.375C350.203 117.219 350.469 117.961 350.812 118.602V119H342.891C342.516 118.219 342.234 117.266 342.047 116.141C341.875 115 341.789 113.828 341.789 112.625ZM342.75 103.508L342.797 107.727H339.305C338.57 107.727 337.945 107.828 337.43 108.031C336.93 108.234 336.523 108.516 336.211 108.875C335.914 109.219 335.695 109.609 335.555 110.047C335.43 110.484 335.367 110.945 335.367 111.43C335.367 111.898 335.477 112.32 335.695 112.695C335.93 113.055 336.242 113.336 336.633 113.539C337.023 113.742 337.461 113.844 337.945 113.844C338.82 113.844 339.562 113.68 340.172 113.352C340.797 113.008 341.273 112.594 341.602 112.109C341.93 111.625 342.094 111.172 342.094 110.75L343.828 113.984C343.516 114.609 343.156 115.242 342.75 115.883C342.359 116.523 341.867 117.117 341.273 117.664C340.695 118.195 339.984 118.633 339.141 118.977C338.297 119.305 337.273 119.469 336.07 119.469C334.508 119.469 333.07 119.148 331.758 118.508C330.461 117.867 329.422 116.977 328.641 115.836C327.859 114.68 327.469 113.352 327.469 111.852C327.469 110.539 327.703 109.367 328.172 108.336C328.656 107.305 329.383 106.43 330.352 105.711C331.32 104.992 332.555 104.445 334.055 104.07C335.555 103.695 337.32 103.508 339.352 103.508H342.75ZM367.477 93.6406V99.125H352.195V93.6406H367.477ZM355.406 87.3359H363.305V110.727C363.305 111.398 363.383 111.922 363.539 112.297C363.695 112.656 363.961 112.914 364.336 113.07C364.727 113.211 365.242 113.281 365.883 113.281C366.336 113.281 366.711 113.273 367.008 113.258C367.305 113.227 367.586 113.188 367.852 113.141V118.789C367.18 119.008 366.477 119.172 365.742 119.281C365.008 119.406 364.227 119.469 363.398 119.469C361.711 119.469 360.266 119.203 359.062 118.672C357.875 118.141 356.969 117.305 356.344 116.164C355.719 115.023 355.406 113.539 355.406 111.711V87.3359ZM378.961 93.6406V119H371.039V93.6406H378.961ZM370.57 87.1016C370.57 85.9766 370.977 85.0547 371.789 84.3359C372.602 83.6172 373.656 83.2578 374.953 83.2578C376.25 83.2578 377.305 83.6172 378.117 84.3359C378.93 85.0547 379.336 85.9766 379.336 87.1016C379.336 88.2266 378.93 89.1484 378.117 89.8672C377.305 90.5859 376.25 90.9453 374.953 90.9453C373.656 90.9453 372.602 90.5859 371.789 89.8672C370.977 89.1484 370.57 88.2266 370.57 87.1016ZM382.852 106.578V106.086C382.852 104.227 383.117 102.516 383.648 100.953C384.18 99.375 384.961 98.0078 385.992 96.8516C387.023 95.6953 388.297 94.7969 389.812 94.1562C391.328 93.5 393.078 93.1719 395.062 93.1719C397.062 93.1719 398.82 93.5 400.336 94.1562C401.867 94.7969 403.148 95.6953 404.18 96.8516C405.211 98.0078 405.992 99.375 406.523 100.953C407.055 102.516 407.32 104.227 407.32 106.086V106.578C407.32 108.422 407.055 110.133 406.523 111.711C405.992 113.273 405.211 114.641 404.18 115.812C403.148 116.969 401.875 117.867 400.359 118.508C398.844 119.148 397.094 119.469 395.109 119.469C393.125 119.469 391.367 119.148 389.836 118.508C388.305 117.867 387.023 116.969 385.992 115.812C384.961 114.641 384.18 113.273 383.648 111.711C383.117 110.133 382.852 108.422 382.852 106.578ZM390.75 106.086V106.578C390.75 107.531 390.82 108.422 390.961 109.25C391.102 110.078 391.336 110.805 391.664 111.43C391.992 112.039 392.438 112.516 393 112.859C393.562 113.203 394.266 113.375 395.109 113.375C395.938 113.375 396.625 113.203 397.172 112.859C397.734 112.516 398.18 112.039 398.508 111.43C398.836 110.805 399.07 110.078 399.211 109.25C399.352 108.422 399.422 107.531 399.422 106.578V106.086C399.422 105.164 399.352 104.297 399.211 103.484C399.07 102.656 398.836 101.93 398.508 101.305C398.18 100.664 397.734 100.164 397.172 99.8047C396.609 99.4453 395.906 99.2656 395.062 99.2656C394.234 99.2656 393.539 99.4453 392.977 99.8047C392.43 100.164 391.992 100.664 391.664 101.305C391.336 101.93 391.102 102.656 390.961 103.484C390.82 104.297 390.75 105.164 390.75 106.086ZM418.594 99.0547V119H410.695V93.6406H418.102L418.594 99.0547ZM417.656 105.453L415.805 105.5C415.805 103.562 416.039 101.836 416.508 100.32C416.977 98.7891 417.641 97.4922 418.5 96.4297C419.359 95.3672 420.383 94.5625 421.57 94.0156C422.773 93.4531 424.109 93.1719 425.578 93.1719C426.75 93.1719 427.82 93.3438 428.789 93.6875C429.773 94.0312 430.617 94.5859 431.32 95.3516C432.039 96.1172 432.586 97.1328 432.961 98.3984C433.352 99.6484 433.547 101.195 433.547 103.039V119H425.602V103.016C425.602 102 425.461 101.227 425.18 100.695C424.898 100.148 424.492 99.7734 423.961 99.5703C423.43 99.3672 422.781 99.2656 422.016 99.2656C421.203 99.2656 420.516 99.4219 419.953 99.7344C419.391 100.047 418.938 100.484 418.594 101.047C418.266 101.594 418.023 102.242 417.867 102.992C417.727 103.742 417.656 104.562 417.656 105.453Z" fill="black"/>
<path d="M1134 0H1348C1356.28 0 1363 6.71573 1363 15V148C1363 156.284 1356.28 163 1348 163H1134V0Z" fill="#0D4C92"/>
<path d="M1281 46.5H1216L1213.5 49V114L1216 116.5H1281L1283.5 114V49L1281 46.5ZM1278.5 111.5H1233.5V101.5H1245C1246.5 104.5 1250 106.5 1253.5 106.5C1259 106.5 1263.5 102 1263.5 96.5C1263.5 91 1259 86.5 1253.5 86.5C1248 86.5 1243.5 91 1243.5 96.5H1228.5V111.5H1218.5V51.5H1228.5V63C1225.5 64.5 1223.5 68 1223.5 71.5C1223.5 77 1228 81.5 1233.5 81.5C1239 81.5 1243.5 77 1243.5 71.5H1253.5C1253.5 77 1258 81.5 1263.5 81.5C1269 81.5 1273.5 77 1273.5 71.5C1273.5 66 1269 61.5 1263.5 61.5C1260 61.5 1256.5 63.5 1255 66.5H1242C1240.5 63.5 1237 61.5 1233.5 61.5V51.5H1278.5V111.5ZM1248.5 96.5C1248.5 93.5 1250.5 91.5 1253.5 91.5C1256.5 91.5 1258.5 93.5 1258.5 96.5C1258.5 99.5 1256.5 101.5 1253.5 101.5C1250.5 101.5 1248.5 99.5 1248.5 96.5ZM1233.5 66.5C1236.5 66.5 1238.5 68.5 1238.5 71.5C1238.5 74.5 1236.5 76.5 1233.5 76.5C1230.5 76.5 1228.5 74.5 1228.5 71.5C1228.5 68.5 1230.5 66.5 1233.5 66.5ZM1263.5 66.5C1266.5 66.5 1268.5 68.5 1268.5 71.5C1268.5 74.5 1266.5 76.5 1263.5 76.5C1260.5 76.5 1258.5 74.5 1258.5 71.5C1258.5 68.5 1260.5 66.5 1263.5 66.5Z" fill="white"/>
</svg>
