<svg width="1363" height="163" viewBox="0 0 1363 163" fill="none" xmlns="http://www.w3.org/2000/svg">
<path d="M0 15C0 6.71573 6.71573 0 15 0H37V163H15C6.71573 163 0 156.284 0 148V15Z" fill="#424242"/>
<rect width="1097" height="163" transform="translate(37)" fill="#F0F0F0"/>
<path d="M101.906 53.9219L94.3945 51.2383V48.0859L104.602 52.375V54.6367L101.906 53.9219ZM94.3945 56.1719L101.918 53.4297L104.602 52.7852V55.0352L94.3945 59.3242V56.1719ZM114.504 43.9375H117.48L121.863 56.4648L126.246 43.9375H129.223L123.059 61H120.668L114.504 43.9375ZM112.898 43.9375H115.863L116.402 56.1484V61H112.898V43.9375ZM127.863 43.9375H130.84V61H127.324V56.1484L127.863 43.9375ZM139.547 61.2344C138.562 61.2344 137.68 61.0781 136.898 60.7656C136.117 60.4453 135.453 60.0039 134.906 59.4414C134.367 58.8789 133.953 58.2266 133.664 57.4844C133.375 56.7344 133.23 55.9375 133.23 55.0938V54.625C133.23 53.6641 133.367 52.7852 133.641 51.9883C133.914 51.1914 134.305 50.5 134.812 49.9141C135.328 49.3281 135.953 48.8789 136.688 48.5664C137.422 48.2461 138.25 48.0859 139.172 48.0859C140.07 48.0859 140.867 48.2344 141.562 48.5312C142.258 48.8281 142.84 49.25 143.309 49.7969C143.785 50.3438 144.145 51 144.387 51.7656C144.629 52.5234 144.75 53.3672 144.75 54.2969V55.7031H134.672V53.4531H141.434V53.1953C141.434 52.7266 141.348 52.3086 141.176 51.9414C141.012 51.5664 140.762 51.2695 140.426 51.0508C140.09 50.832 139.66 50.7227 139.137 50.7227C138.691 50.7227 138.309 50.8203 137.988 51.0156C137.668 51.2109 137.406 51.4844 137.203 51.8359C137.008 52.1875 136.859 52.6016 136.758 53.0781C136.664 53.5469 136.617 54.0625 136.617 54.625V55.0938C136.617 55.6016 136.688 56.0703 136.828 56.5C136.977 56.9297 137.184 57.3008 137.449 57.6133C137.723 57.9258 138.051 58.168 138.434 58.3398C138.824 58.5117 139.266 58.5977 139.758 58.5977C140.367 58.5977 140.934 58.4805 141.457 58.2461C141.988 58.0039 142.445 57.6406 142.828 57.1562L144.469 58.9375C144.203 59.3203 143.84 59.6875 143.379 60.0391C142.926 60.3906 142.379 60.6797 141.738 60.9062C141.098 61.125 140.367 61.2344 139.547 61.2344ZM154.16 58.2344V43H157.559V61H154.5L154.16 58.2344ZM146.145 54.8125V54.5664C146.145 53.5977 146.254 52.7188 146.473 51.9297C146.691 51.1328 147.012 50.4492 147.434 49.8789C147.855 49.3086 148.375 48.8672 148.992 48.5547C149.609 48.2422 150.312 48.0859 151.102 48.0859C151.844 48.0859 152.492 48.2422 153.047 48.5547C153.609 48.8672 154.086 49.3125 154.477 49.8906C154.875 50.4609 155.195 51.1367 155.438 51.918C155.68 52.6914 155.855 53.5391 155.965 54.4609V55C155.855 55.8828 155.68 56.7031 155.438 57.4609C155.195 58.2188 154.875 58.8828 154.477 59.4531C154.086 60.0156 153.609 60.4531 153.047 60.7656C152.484 61.0781 151.828 61.2344 151.078 61.2344C150.289 61.2344 149.586 61.0742 148.969 60.7539C148.359 60.4336 147.844 59.9844 147.422 59.4062C147.008 58.8281 146.691 58.1484 146.473 57.3672C146.254 56.5859 146.145 55.7344 146.145 54.8125ZM149.52 54.5664V54.8125C149.52 55.3359 149.559 55.8242 149.637 56.2773C149.723 56.7305 149.859 57.1328 150.047 57.4844C150.242 57.8281 150.492 58.0977 150.797 58.293C151.109 58.4805 151.488 58.5742 151.934 58.5742C152.512 58.5742 152.988 58.4453 153.363 58.1875C153.738 57.9219 154.023 57.5586 154.219 57.0977C154.422 56.6367 154.539 56.1055 154.57 55.5039V53.9688C154.547 53.4766 154.477 53.0352 154.359 52.6445C154.25 52.2461 154.086 51.9062 153.867 51.625C153.656 51.3438 153.391 51.125 153.07 50.9688C152.758 50.8125 152.387 50.7344 151.957 50.7344C151.52 50.7344 151.145 50.8359 150.832 51.0391C150.52 51.2344 150.266 51.5039 150.07 51.8477C149.883 52.1914 149.742 52.5977 149.648 53.0664C149.562 53.5273 149.52 54.0273 149.52 54.5664ZM170.297 55.3398H173.801C173.73 56.4883 173.414 57.5078 172.852 58.3984C172.297 59.2891 171.52 59.9844 170.52 60.4844C169.527 60.9844 168.332 61.2344 166.934 61.2344C165.84 61.2344 164.859 61.0469 163.992 60.6719C163.125 60.2891 162.383 59.7422 161.766 59.0312C161.156 58.3203 160.691 57.4609 160.371 56.4531C160.051 55.4453 159.891 54.3164 159.891 53.0664V51.8828C159.891 50.6328 160.055 49.5039 160.383 48.4961C160.719 47.4805 161.195 46.6172 161.812 45.9062C162.438 45.1953 163.184 44.6484 164.051 44.2656C164.918 43.8828 165.887 43.6914 166.957 43.6914C168.379 43.6914 169.578 43.9492 170.555 44.4648C171.539 44.9805 172.301 45.6914 172.84 46.5977C173.387 47.5039 173.715 48.5352 173.824 49.6914H170.309C170.27 49.0039 170.133 48.4219 169.898 47.9453C169.664 47.4609 169.309 47.0977 168.832 46.8555C168.363 46.6055 167.738 46.4805 166.957 46.4805C166.371 46.4805 165.859 46.5898 165.422 46.8086C164.984 47.0273 164.617 47.3594 164.32 47.8047C164.023 48.25 163.801 48.8125 163.652 49.4922C163.512 50.1641 163.441 50.9531 163.441 51.8594V53.0664C163.441 53.9492 163.508 54.7266 163.641 55.3984C163.773 56.0625 163.977 56.625 164.25 57.0859C164.531 57.5391 164.891 57.8828 165.328 58.1172C165.773 58.3438 166.309 58.457 166.934 58.457C167.668 58.457 168.273 58.3398 168.75 58.1055C169.227 57.8711 169.59 57.5234 169.84 57.0625C170.098 56.6016 170.25 56.0273 170.297 55.3398ZM175.359 54.7891V54.543C175.359 53.6133 175.492 52.7578 175.758 51.9766C176.023 51.1875 176.41 50.5039 176.918 49.9258C177.426 49.3477 178.051 48.8984 178.793 48.5781C179.535 48.25 180.387 48.0859 181.348 48.0859C182.309 48.0859 183.164 48.25 183.914 48.5781C184.664 48.8984 185.293 49.3477 185.801 49.9258C186.316 50.5039 186.707 51.1875 186.973 51.9766C187.238 52.7578 187.371 53.6133 187.371 54.543V54.7891C187.371 55.7109 187.238 56.5664 186.973 57.3555C186.707 58.1367 186.316 58.8203 185.801 59.4062C185.293 59.9844 184.668 60.4336 183.926 60.7539C183.184 61.0742 182.332 61.2344 181.371 61.2344C180.41 61.2344 179.555 61.0742 178.805 60.7539C178.062 60.4336 177.434 59.9844 176.918 59.4062C176.41 58.8203 176.023 58.1367 175.758 57.3555C175.492 56.5664 175.359 55.7109 175.359 54.7891ZM178.734 54.543V54.7891C178.734 55.3203 178.781 55.8164 178.875 56.2773C178.969 56.7383 179.117 57.1445 179.32 57.4961C179.531 57.8398 179.805 58.1094 180.141 58.3047C180.477 58.5 180.887 58.5977 181.371 58.5977C181.84 58.5977 182.242 58.5 182.578 58.3047C182.914 58.1094 183.184 57.8398 183.387 57.4961C183.59 57.1445 183.738 56.7383 183.832 56.2773C183.934 55.8164 183.984 55.3203 183.984 54.7891V54.543C183.984 54.0273 183.934 53.543 183.832 53.0898C183.738 52.6289 183.586 52.2227 183.375 51.8711C183.172 51.5117 182.902 51.2305 182.566 51.0273C182.23 50.8242 181.824 50.7227 181.348 50.7227C180.871 50.7227 180.465 50.8242 180.129 51.0273C179.801 51.2305 179.531 51.5117 179.32 51.8711C179.117 52.2227 178.969 52.6289 178.875 53.0898C178.781 53.543 178.734 54.0273 178.734 54.543ZM192.75 51.0273V61H189.375V48.3203H192.539L192.75 51.0273ZM192.258 54.2148H191.344C191.344 53.2773 191.465 52.4336 191.707 51.6836C191.949 50.9258 192.289 50.2812 192.727 49.75C193.164 49.2109 193.684 48.8008 194.285 48.5195C194.895 48.2305 195.574 48.0859 196.324 48.0859C196.918 48.0859 197.461 48.1719 197.953 48.3438C198.445 48.5156 198.867 48.7891 199.219 49.1641C199.578 49.5391 199.852 50.0352 200.039 50.6523C200.234 51.2695 200.332 52.0234 200.332 52.9141V61H196.934V52.9023C196.934 52.3398 196.855 51.9023 196.699 51.5898C196.543 51.2773 196.312 51.0586 196.008 50.9336C195.711 50.8008 195.344 50.7344 194.906 50.7344C194.453 50.7344 194.059 50.8242 193.723 51.0039C193.395 51.1836 193.121 51.4336 192.902 51.7539C192.691 52.0664 192.531 52.4336 192.422 52.8555C192.312 53.2773 192.258 53.7305 192.258 54.2148ZM206.203 51.0273V61H202.828V48.3203H205.992L206.203 51.0273ZM205.711 54.2148H204.797C204.797 53.2773 204.918 52.4336 205.16 51.6836C205.402 50.9258 205.742 50.2812 206.18 49.75C206.617 49.2109 207.137 48.8008 207.738 48.5195C208.348 48.2305 209.027 48.0859 209.777 48.0859C210.371 48.0859 210.914 48.1719 211.406 48.3438C211.898 48.5156 212.32 48.7891 212.672 49.1641C213.031 49.5391 213.305 50.0352 213.492 50.6523C213.688 51.2695 213.785 52.0234 213.785 52.9141V61H210.387V52.9023C210.387 52.3398 210.309 51.9023 210.152 51.5898C209.996 51.2773 209.766 51.0586 209.461 50.9336C209.164 50.8008 208.797 50.7344 208.359 50.7344C207.906 50.7344 207.512 50.8242 207.176 51.0039C206.848 51.1836 206.574 51.4336 206.355 51.7539C206.145 52.0664 205.984 52.4336 205.875 52.8555C205.766 53.2773 205.711 53.7305 205.711 54.2148ZM222.188 61.2344C221.203 61.2344 220.32 61.0781 219.539 60.7656C218.758 60.4453 218.094 60.0039 217.547 59.4414C217.008 58.8789 216.594 58.2266 216.305 57.4844C216.016 56.7344 215.871 55.9375 215.871 55.0938V54.625C215.871 53.6641 216.008 52.7852 216.281 51.9883C216.555 51.1914 216.945 50.5 217.453 49.9141C217.969 49.3281 218.594 48.8789 219.328 48.5664C220.062 48.2461 220.891 48.0859 221.812 48.0859C222.711 48.0859 223.508 48.2344 224.203 48.5312C224.898 48.8281 225.48 49.25 225.949 49.7969C226.426 50.3438 226.785 51 227.027 51.7656C227.27 52.5234 227.391 53.3672 227.391 54.2969V55.7031H217.312V53.4531H224.074V53.1953C224.074 52.7266 223.988 52.3086 223.816 51.9414C223.652 51.5664 223.402 51.2695 223.066 51.0508C222.73 50.832 222.301 50.7227 221.777 50.7227C221.332 50.7227 220.949 50.8203 220.629 51.0156C220.309 51.2109 220.047 51.4844 219.844 51.8359C219.648 52.1875 219.5 52.6016 219.398 53.0781C219.305 53.5469 219.258 54.0625 219.258 54.625V55.0938C219.258 55.6016 219.328 56.0703 219.469 56.5C219.617 56.9297 219.824 57.3008 220.09 57.6133C220.363 57.9258 220.691 58.168 221.074 58.3398C221.465 58.5117 221.906 58.5977 222.398 58.5977C223.008 58.5977 223.574 58.4805 224.098 58.2461C224.629 58.0039 225.086 57.6406 225.469 57.1562L227.109 58.9375C226.844 59.3203 226.48 59.6875 226.02 60.0391C225.566 60.3906 225.02 60.6797 224.379 60.9062C223.738 61.125 223.008 61.2344 222.188 61.2344ZM234.551 58.5977C234.965 58.5977 235.332 58.5195 235.652 58.3633C235.973 58.1992 236.223 57.9727 236.402 57.6836C236.59 57.3867 236.688 57.0391 236.695 56.6406H239.871C239.863 57.5312 239.625 58.3242 239.156 59.0195C238.688 59.707 238.059 60.25 237.27 60.6484C236.48 61.0391 235.598 61.2344 234.621 61.2344C233.637 61.2344 232.777 61.0703 232.043 60.7422C231.316 60.4141 230.711 59.9609 230.227 59.3828C229.742 58.7969 229.379 58.1172 229.137 57.3438C228.895 56.5625 228.773 55.7266 228.773 54.8359V54.4961C228.773 53.5977 228.895 52.7617 229.137 51.9883C229.379 51.207 229.742 50.5273 230.227 49.9492C230.711 49.3633 231.316 48.9062 232.043 48.5781C232.77 48.25 233.621 48.0859 234.598 48.0859C235.637 48.0859 236.547 48.2852 237.328 48.6836C238.117 49.082 238.734 49.6523 239.18 50.3945C239.633 51.1289 239.863 52 239.871 53.0078H236.695C236.688 52.5859 236.598 52.2031 236.426 51.8594C236.262 51.5156 236.02 51.2422 235.699 51.0391C235.387 50.8281 235 50.7227 234.539 50.7227C234.047 50.7227 233.645 50.8281 233.332 51.0391C233.02 51.2422 232.777 51.5234 232.605 51.8828C232.434 52.2344 232.312 52.6367 232.242 53.0898C232.18 53.5352 232.148 54.0039 232.148 54.4961V54.8359C232.148 55.3281 232.18 55.8008 232.242 56.2539C232.305 56.707 232.422 57.1094 232.594 57.4609C232.773 57.8125 233.02 58.0898 233.332 58.293C233.645 58.4961 234.051 58.5977 234.551 58.5977ZM248.039 48.3203V50.7109H240.656V48.3203H248.039ZM242.484 45.1914H245.859V57.1797C245.859 57.5469 245.906 57.8281 246 58.0234C246.102 58.2188 246.25 58.3555 246.445 58.4336C246.641 58.5039 246.887 58.5391 247.184 58.5391C247.395 58.5391 247.582 58.5312 247.746 58.5156C247.918 58.4922 248.062 58.4688 248.18 58.4453L248.191 60.9297C247.902 61.0234 247.59 61.0977 247.254 61.1523C246.918 61.207 246.547 61.2344 246.141 61.2344C245.398 61.2344 244.75 61.1133 244.195 60.8711C243.648 60.6211 243.227 60.2227 242.93 59.6758C242.633 59.1289 242.484 58.4102 242.484 57.5195V45.1914Z" fill="#888888"/>
<path d="M118.594 98.4219V104.75H101.086V98.4219H118.594ZM103.828 84.875V119H95.6016V84.875H103.828ZM124.125 84.875V119H115.922V84.875H124.125ZM127.992 106.578V106.086C127.992 104.227 128.258 102.516 128.789 100.953C129.32 99.375 130.102 98.0078 131.133 96.8516C132.164 95.6953 133.438 94.7969 134.953 94.1562C136.469 93.5 138.219 93.1719 140.203 93.1719C142.203 93.1719 143.961 93.5 145.477 94.1562C147.008 94.7969 148.289 95.6953 149.32 96.8516C150.352 98.0078 151.133 99.375 151.664 100.953C152.195 102.516 152.461 104.227 152.461 106.086V106.578C152.461 108.422 152.195 110.133 151.664 111.711C151.133 113.273 150.352 114.641 149.32 115.812C148.289 116.969 147.016 117.867 145.5 118.508C143.984 119.148 142.234 119.469 140.25 119.469C138.266 119.469 136.508 119.148 134.977 118.508C133.445 117.867 132.164 116.969 131.133 115.812C130.102 114.641 129.32 113.273 128.789 111.711C128.258 110.133 127.992 108.422 127.992 106.578ZM135.891 106.086V106.578C135.891 107.531 135.961 108.422 136.102 109.25C136.242 110.078 136.477 110.805 136.805 111.43C137.133 112.039 137.578 112.516 138.141 112.859C138.703 113.203 139.406 113.375 140.25 113.375C141.078 113.375 141.766 113.203 142.312 112.859C142.875 112.516 143.32 112.039 143.648 111.43C143.977 110.805 144.211 110.078 144.352 109.25C144.492 108.422 144.562 107.531 144.562 106.578V106.086C144.562 105.164 144.492 104.297 144.352 103.484C144.211 102.656 143.977 101.93 143.648 101.305C143.32 100.664 142.875 100.164 142.312 99.8047C141.75 99.4453 141.047 99.2656 140.203 99.2656C139.375 99.2656 138.68 99.4453 138.117 99.8047C137.57 100.164 137.133 100.664 136.805 101.305C136.477 101.93 136.242 102.656 136.102 103.484C135.961 104.297 135.891 105.164 135.891 106.086ZM163.688 111.453L168.375 93.6406H173.32L171.562 102.57L166.922 119H162.961L163.688 111.453ZM161.836 93.6406L164.742 111.312L165.07 119H160.266L154.266 93.6406H161.836ZM177.492 110.938L180.422 93.6406H187.992L182.039 119H177.234L177.492 110.938ZM173.883 93.6406L178.617 111.406L179.344 119H175.336L170.789 102.617L169.102 93.6406H173.883ZM218.297 84.875V119H210.07V84.875H218.297ZM228.562 84.875V91.2266H200.039V84.875H228.562ZM225.773 106.578V106.086C225.773 104.227 226.039 102.516 226.57 100.953C227.102 99.375 227.883 98.0078 228.914 96.8516C229.945 95.6953 231.219 94.7969 232.734 94.1562C234.25 93.5 236 93.1719 237.984 93.1719C239.984 93.1719 241.742 93.5 243.258 94.1562C244.789 94.7969 246.07 95.6953 247.102 96.8516C248.133 98.0078 248.914 99.375 249.445 100.953C249.977 102.516 250.242 104.227 250.242 106.086V106.578C250.242 108.422 249.977 110.133 249.445 111.711C248.914 113.273 248.133 114.641 247.102 115.812C246.07 116.969 244.797 117.867 243.281 118.508C241.766 119.148 240.016 119.469 238.031 119.469C236.047 119.469 234.289 119.148 232.758 118.508C231.227 117.867 229.945 116.969 228.914 115.812C227.883 114.641 227.102 113.273 226.57 111.711C226.039 110.133 225.773 108.422 225.773 106.578ZM233.672 106.086V106.578C233.672 107.531 233.742 108.422 233.883 109.25C234.023 110.078 234.258 110.805 234.586 111.43C234.914 112.039 235.359 112.516 235.922 112.859C236.484 113.203 237.188 113.375 238.031 113.375C238.859 113.375 239.547 113.203 240.094 112.859C240.656 112.516 241.102 112.039 241.43 111.43C241.758 110.805 241.992 110.078 242.133 109.25C242.273 108.422 242.344 107.531 242.344 106.578V106.086C242.344 105.164 242.273 104.297 242.133 103.484C241.992 102.656 241.758 101.93 241.43 101.305C241.102 100.664 240.656 100.164 240.094 99.8047C239.531 99.4453 238.828 99.2656 237.984 99.2656C237.156 99.2656 236.461 99.4453 235.898 99.8047C235.352 100.164 234.914 100.664 234.586 101.305C234.258 101.93 234.023 102.656 233.883 103.484C233.742 104.297 233.672 105.164 233.672 106.086ZM266.086 84.875H279.516C282.141 84.875 284.422 85.2656 286.359 86.0469C288.297 86.8281 289.789 87.9844 290.836 89.5156C291.898 91.0469 292.43 92.9375 292.43 95.1875C292.43 97.1406 292.125 98.7734 291.516 100.086C290.906 101.398 290.055 102.484 288.961 103.344C287.883 104.188 286.625 104.883 285.188 105.43L282.492 106.953H271.219L271.172 100.602H279.516C280.562 100.602 281.43 100.414 282.117 100.039C282.805 99.6641 283.32 99.1328 283.664 98.4453C284.023 97.7422 284.203 96.9062 284.203 95.9375C284.203 94.9531 284.023 94.1094 283.664 93.4062C283.305 92.7031 282.773 92.1641 282.07 91.7891C281.383 91.4141 280.531 91.2266 279.516 91.2266H274.312V119H266.086V84.875ZM284.766 119L277.219 103.906L285.938 103.859L293.578 118.648V119H284.766ZM311.836 112.836V93.6406H319.758V119H312.352L311.836 112.836ZM312.586 107.68L314.648 107.633C314.648 109.336 314.445 110.914 314.039 112.367C313.633 113.805 313.031 115.055 312.234 116.117C311.453 117.18 310.484 118.008 309.328 118.602C308.188 119.18 306.867 119.469 305.367 119.469C304.117 119.469 302.969 119.297 301.922 118.953C300.891 118.594 300 118.039 299.25 117.289C298.5 116.523 297.914 115.547 297.492 114.359C297.086 113.156 296.883 111.719 296.883 110.047V93.6406H304.781V110.094C304.781 110.656 304.852 111.141 304.992 111.547C305.133 111.953 305.336 112.297 305.602 112.578C305.867 112.844 306.195 113.047 306.586 113.188C306.992 113.312 307.453 113.375 307.969 113.375C309.156 113.375 310.086 113.125 310.758 112.625C311.43 112.125 311.898 111.445 312.164 110.586C312.445 109.727 312.586 108.758 312.586 107.68ZM331.875 99.0547V119H323.977V93.6406H331.383L331.875 99.0547ZM330.938 105.453L329.086 105.5C329.086 103.562 329.32 101.836 329.789 100.32C330.258 98.7891 330.922 97.4922 331.781 96.4297C332.641 95.3672 333.664 94.5625 334.852 94.0156C336.055 93.4531 337.391 93.1719 338.859 93.1719C340.031 93.1719 341.102 93.3438 342.07 93.6875C343.055 94.0312 343.898 94.5859 344.602 95.3516C345.32 96.1172 345.867 97.1328 346.242 98.3984C346.633 99.6484 346.828 101.195 346.828 103.039V119H338.883V103.016C338.883 102 338.742 101.227 338.461 100.695C338.18 100.148 337.773 99.7734 337.242 99.5703C336.711 99.3672 336.062 99.2656 335.297 99.2656C334.484 99.2656 333.797 99.4219 333.234 99.7344C332.672 100.047 332.219 100.484 331.875 101.047C331.547 101.594 331.305 102.242 331.148 102.992C331.008 103.742 330.938 104.562 330.938 105.453ZM363.773 108.195H357.047C357.047 106.82 357.141 105.609 357.328 104.562C357.531 103.5 357.875 102.547 358.359 101.703C358.844 100.859 359.5 100.078 360.328 99.3594C361.062 98.75 361.695 98.1641 362.227 97.6016C362.758 97.0391 363.164 96.4688 363.445 95.8906C363.727 95.3125 363.867 94.6953 363.867 94.0391C363.867 93.2266 363.75 92.5625 363.516 92.0469C363.297 91.5312 362.961 91.1484 362.508 90.8984C362.07 90.6328 361.516 90.5 360.844 90.5C360.297 90.5 359.781 90.6328 359.297 90.8984C358.828 91.1641 358.445 91.5781 358.148 92.1406C357.852 92.6875 357.688 93.4141 357.656 94.3203H349.711C349.758 91.9922 350.273 90.1016 351.258 88.6484C352.258 87.1797 353.586 86.1094 355.242 85.4375C356.914 84.75 358.781 84.4062 360.844 84.4062C363.125 84.4062 365.086 84.7578 366.727 85.4609C368.367 86.1641 369.625 87.2109 370.5 88.6016C371.375 89.9766 371.812 91.6719 371.812 93.6875C371.812 95.0312 371.555 96.2031 371.039 97.2031C370.539 98.1875 369.859 99.1094 369 99.9688C368.156 100.812 367.211 101.719 366.164 102.688C365.258 103.484 364.641 104.297 364.312 105.125C363.984 105.938 363.805 106.961 363.773 108.195ZM356.086 115.32C356.086 114.195 356.492 113.258 357.305 112.508C358.117 111.742 359.172 111.359 360.469 111.359C361.766 111.359 362.82 111.742 363.633 112.508C364.445 113.258 364.852 114.195 364.852 115.32C364.852 116.445 364.445 117.391 363.633 118.156C362.82 118.906 361.766 119.281 360.469 119.281C359.172 119.281 358.117 118.906 357.305 118.156C356.492 117.391 356.086 116.445 356.086 115.32Z" fill="black"/>
<path d="M1134 0H1348C1356.28 0 1363 6.71573 1363 15V148C1363 156.284 1356.28 163 1348 163H1134V0Z" fill="#0D4C92"/>
<path d="M1260.62 78.8078C1263.81 78.8078 1266.93 79.7552 1269.59 81.5302C1272.25 83.3052 1274.32 85.8281 1275.54 88.7798C1276.76 91.7315 1277.08 94.9795 1276.46 98.1131C1275.84 101.247 1274.3 104.125 1272.04 106.384C1269.78 108.643 1266.9 110.182 1263.77 110.805C1260.63 111.428 1257.39 111.108 1254.43 109.886C1251.48 108.663 1248.96 106.593 1247.18 103.936C1245.41 101.28 1244.46 98.1565 1244.46 94.9616C1244.46 90.6774 1246.16 86.5686 1249.19 83.5392C1252.22 80.5097 1256.33 78.8078 1260.62 78.8078ZM1260.62 73.4232C1256.36 73.4232 1252.19 74.6864 1248.65 77.0531C1245.11 79.4198 1242.35 82.7836 1240.72 86.7192C1239.09 90.6549 1238.66 94.9855 1239.49 99.1636C1240.32 103.342 1242.37 107.179 1245.39 110.192C1248.4 113.204 1252.24 115.255 1256.41 116.086C1260.59 116.917 1264.92 116.491 1268.86 114.861C1272.79 113.23 1276.16 110.47 1278.52 106.928C1280.89 103.386 1282.15 99.2215 1282.15 94.9616C1282.15 89.2493 1279.88 83.7709 1275.85 79.7317C1271.81 75.6924 1266.33 73.4232 1260.62 73.4232Z" fill="white"/>
<path d="M1274.08 46.4999H1220.23C1218.8 46.4999 1217.43 47.0672 1216.42 48.0771C1215.41 49.0869 1214.85 50.4565 1214.85 51.8845V105.731C1214.85 107.159 1215.41 108.528 1216.42 109.538C1217.43 110.548 1218.8 111.115 1220.23 111.115H1231V105.731H1220.23V68.0383H1279.46V51.8845C1279.46 50.4565 1278.89 49.0869 1277.88 48.0771C1276.87 47.0672 1275.5 46.4999 1274.08 46.4999ZM1220.23 62.6537V51.8845H1274.08V62.6537H1220.23Z" fill="white"/>
<path d="M1255.23 86.8848V103.039L1268.69 94.9617L1255.23 86.8848Z" fill="white"/>
</svg>
