<svg width="1363" height="297" viewBox="0 0 1363 297" fill="none" xmlns="http://www.w3.org/2000/svg">
<path d="M0 15C0 6.71573 6.71573 0 15 0H37V297H15C6.71573 297 0 290.284 0 282V15Z" fill="#0D4C92"/>
<path d="M37 0H1066V297H37V0Z" fill="#F0F0F0"/>
<path d="M97.6934 49.4062H102.158L108.732 68.1973L115.307 49.4062H119.771L110.525 75H106.939L97.6934 49.4062ZM95.2852 49.4062H99.7324L100.541 67.7227V75H95.2852V49.4062ZM117.732 49.4062H122.197V75H116.924V67.7227L117.732 49.4062ZM136.77 70.7109V62.2383C136.77 61.6289 136.67 61.1074 136.471 60.6738C136.271 60.2285 135.961 59.8828 135.539 59.6367C135.129 59.3906 134.596 59.2676 133.939 59.2676C133.377 59.2676 132.891 59.3672 132.48 59.5664C132.07 59.7539 131.754 60.0293 131.531 60.3926C131.309 60.7441 131.197 61.1602 131.197 61.6406H126.135C126.135 60.832 126.322 60.0645 126.697 59.3379C127.072 58.6113 127.617 57.9727 128.332 57.4219C129.047 56.8594 129.896 56.4199 130.881 56.1035C131.877 55.7871 132.99 55.6289 134.221 55.6289C135.697 55.6289 137.01 55.875 138.158 56.3672C139.307 56.8594 140.209 57.5977 140.865 58.582C141.533 59.5664 141.867 60.7969 141.867 62.2734V70.4121C141.867 71.4551 141.932 72.3105 142.061 72.9785C142.189 73.6348 142.377 74.209 142.623 74.7012V75H137.508C137.262 74.4844 137.074 73.8398 136.945 73.0664C136.828 72.2812 136.77 71.4961 136.77 70.7109ZM137.438 63.416L137.473 66.2812H134.643C133.975 66.2812 133.395 66.3574 132.902 66.5098C132.41 66.6621 132.006 66.8789 131.689 67.1602C131.373 67.4297 131.139 67.7461 130.986 68.1094C130.846 68.4727 130.775 68.8711 130.775 69.3047C130.775 69.7383 130.875 70.1309 131.074 70.4824C131.273 70.8223 131.561 71.0918 131.936 71.291C132.311 71.4785 132.75 71.5723 133.254 71.5723C134.016 71.5723 134.678 71.4199 135.24 71.1152C135.803 70.8105 136.236 70.4355 136.541 69.9902C136.857 69.5449 137.021 69.123 137.033 68.7246L138.369 70.8691C138.182 71.3496 137.924 71.8477 137.596 72.3633C137.279 72.8789 136.875 73.3652 136.383 73.8223C135.891 74.2676 135.299 74.6367 134.607 74.9297C133.916 75.2109 133.096 75.3516 132.146 75.3516C130.939 75.3516 129.844 75.1113 128.859 74.6309C127.887 74.1387 127.113 73.4648 126.539 72.6094C125.977 71.7422 125.695 70.7578 125.695 69.6562C125.695 68.6602 125.883 67.7754 126.258 67.002C126.633 66.2285 127.184 65.5781 127.91 65.0508C128.648 64.5117 129.568 64.1074 130.67 63.8379C131.771 63.5566 133.049 63.416 134.502 63.416H137.438ZM150.832 60.1289V75H145.77V55.9805H150.533L150.832 60.1289ZM156.562 55.8574L156.475 60.5508C156.229 60.5156 155.93 60.4863 155.578 60.4629C155.238 60.4277 154.928 60.4102 154.646 60.4102C153.932 60.4102 153.311 60.5039 152.783 60.6914C152.268 60.8672 151.834 61.1309 151.482 61.4824C151.143 61.834 150.885 62.2617 150.709 62.7656C150.545 63.2695 150.451 63.8438 150.428 64.4883L149.408 64.1719C149.408 62.9414 149.531 61.8105 149.777 60.7793C150.023 59.7363 150.381 58.8281 150.85 58.0547C151.33 57.2812 151.916 56.6836 152.607 56.2617C153.299 55.8398 154.09 55.6289 154.98 55.6289C155.262 55.6289 155.549 55.6523 155.842 55.6992C156.135 55.7344 156.375 55.7871 156.562 55.8574ZM164.701 70.0781L168.656 55.9805H171.873L170.836 61.5176L166.881 75H164.191L164.701 70.0781ZM162.697 55.9805L165.527 70.0605L165.791 75H162.627L157.811 55.9805H162.697ZM175.494 69.832L178.254 55.9805H183.158L178.342 75H175.195L175.494 69.832ZM172.312 55.9805L176.25 69.9727L176.795 75H174.088L170.133 61.5352L169.131 55.9805H172.312ZM195.973 70.7109V62.2383C195.973 61.6289 195.873 61.1074 195.674 60.6738C195.475 60.2285 195.164 59.8828 194.742 59.6367C194.332 59.3906 193.799 59.2676 193.143 59.2676C192.58 59.2676 192.094 59.3672 191.684 59.5664C191.273 59.7539 190.957 60.0293 190.734 60.3926C190.512 60.7441 190.4 61.1602 190.4 61.6406H185.338C185.338 60.832 185.525 60.0645 185.9 59.3379C186.275 58.6113 186.82 57.9727 187.535 57.4219C188.25 56.8594 189.1 56.4199 190.084 56.1035C191.08 55.7871 192.193 55.6289 193.424 55.6289C194.9 55.6289 196.213 55.875 197.361 56.3672C198.51 56.8594 199.412 57.5977 200.068 58.582C200.736 59.5664 201.07 60.7969 201.07 62.2734V70.4121C201.07 71.4551 201.135 72.3105 201.264 72.9785C201.393 73.6348 201.58 74.209 201.826 74.7012V75H196.711C196.465 74.4844 196.277 73.8398 196.148 73.0664C196.031 72.2812 195.973 71.4961 195.973 70.7109ZM196.641 63.416L196.676 66.2812H193.846C193.178 66.2812 192.598 66.3574 192.105 66.5098C191.613 66.6621 191.209 66.8789 190.893 67.1602C190.576 67.4297 190.342 67.7461 190.189 68.1094C190.049 68.4727 189.979 68.8711 189.979 69.3047C189.979 69.7383 190.078 70.1309 190.277 70.4824C190.477 70.8223 190.764 71.0918 191.139 71.291C191.514 71.4785 191.953 71.5723 192.457 71.5723C193.219 71.5723 193.881 71.4199 194.443 71.1152C195.006 70.8105 195.439 70.4355 195.744 69.9902C196.061 69.5449 196.225 69.123 196.236 68.7246L197.572 70.8691C197.385 71.3496 197.127 71.8477 196.799 72.3633C196.482 72.8789 196.078 73.3652 195.586 73.8223C195.094 74.2676 194.502 74.6367 193.811 74.9297C193.119 75.2109 192.299 75.3516 191.35 75.3516C190.143 75.3516 189.047 75.1113 188.062 74.6309C187.09 74.1387 186.316 73.4648 185.742 72.6094C185.18 71.7422 184.898 70.7578 184.898 69.6562C184.898 68.6602 185.086 67.7754 185.461 67.002C185.836 66.2285 186.387 65.5781 187.113 65.0508C187.852 64.5117 188.771 64.1074 189.873 63.8379C190.975 63.5566 192.252 63.416 193.705 63.416H196.641ZM235.277 61.6055V62.8184C235.277 64.7637 235.014 66.5098 234.486 68.0566C233.959 69.6035 233.215 70.9219 232.254 72.0117C231.293 73.0898 230.145 73.916 228.809 74.4902C227.484 75.0645 226.014 75.3516 224.396 75.3516C222.791 75.3516 221.32 75.0645 219.984 74.4902C218.66 73.916 217.512 73.0898 216.539 72.0117C215.566 70.9219 214.811 69.6035 214.271 68.0566C213.744 66.5098 213.48 64.7637 213.48 62.8184V61.6055C213.48 59.6484 213.744 57.9023 214.271 56.3672C214.799 54.8203 215.543 53.502 216.504 52.4121C217.477 51.3223 218.625 50.4902 219.949 49.916C221.285 49.3418 222.756 49.0547 224.361 49.0547C225.979 49.0547 227.449 49.3418 228.773 49.916C230.109 50.4902 231.258 51.3223 232.219 52.4121C233.191 53.502 233.941 54.8203 234.469 56.3672C235.008 57.9023 235.277 59.6484 235.277 61.6055ZM229.951 62.8184V61.5703C229.951 60.2109 229.828 59.0156 229.582 57.9844C229.336 56.9531 228.973 56.0859 228.492 55.3828C228.012 54.6797 227.426 54.1523 226.734 53.8008C226.043 53.4375 225.252 53.2559 224.361 53.2559C223.471 53.2559 222.68 53.4375 221.988 53.8008C221.309 54.1523 220.729 54.6797 220.248 55.3828C219.779 56.0859 219.422 56.9531 219.176 57.9844C218.93 59.0156 218.807 60.2109 218.807 61.5703V62.8184C218.807 64.166 218.93 65.3613 219.176 66.4043C219.422 67.4355 219.785 68.3086 220.266 69.0234C220.746 69.7266 221.332 70.2598 222.023 70.623C222.715 70.9863 223.506 71.168 224.396 71.168C225.287 71.168 226.078 70.9863 226.77 70.623C227.461 70.2598 228.041 69.7266 228.51 69.0234C228.979 68.3086 229.336 67.4355 229.582 66.4043C229.828 65.3613 229.951 64.166 229.951 62.8184ZM243.715 60.041V75H238.652V55.9805H243.398L243.715 60.041ZM242.977 64.8223H241.605C241.605 63.416 241.787 62.1504 242.15 61.0254C242.514 59.8887 243.023 58.9219 243.68 58.125C244.336 57.3164 245.115 56.7012 246.018 56.2793C246.932 55.8457 247.951 55.6289 249.076 55.6289C249.967 55.6289 250.781 55.7578 251.52 56.0156C252.258 56.2734 252.891 56.6836 253.418 57.2461C253.957 57.8086 254.367 58.5527 254.648 59.4785C254.941 60.4043 255.088 61.5352 255.088 62.8711V75H249.99V62.8535C249.99 62.0098 249.873 61.3535 249.639 60.8848C249.404 60.416 249.059 60.0879 248.602 59.9004C248.156 59.7012 247.605 59.6016 246.949 59.6016C246.27 59.6016 245.678 59.7363 245.174 60.0059C244.682 60.2754 244.271 60.6504 243.943 61.1309C243.627 61.5996 243.387 62.1504 243.223 62.7832C243.059 63.416 242.977 64.0957 242.977 64.8223ZM267.691 75.3516C266.215 75.3516 264.891 75.1172 263.719 74.6484C262.547 74.168 261.551 73.5059 260.73 72.6621C259.922 71.8184 259.301 70.8398 258.867 69.7266C258.434 68.6016 258.217 67.4062 258.217 66.1406V65.4375C258.217 63.9961 258.422 62.6777 258.832 61.4824C259.242 60.2871 259.828 59.25 260.59 58.3711C261.363 57.4922 262.301 56.8184 263.402 56.3496C264.504 55.8691 265.746 55.6289 267.129 55.6289C268.477 55.6289 269.672 55.8516 270.715 56.2969C271.758 56.7422 272.631 57.375 273.334 58.1953C274.049 59.0156 274.588 60 274.951 61.1484C275.314 62.2852 275.496 63.5508 275.496 64.9453V67.0547H260.379V63.6797H270.521V63.293C270.521 62.5898 270.393 61.9629 270.135 61.4121C269.889 60.8496 269.514 60.4043 269.01 60.0762C268.506 59.748 267.861 59.584 267.076 59.584C266.408 59.584 265.834 59.7305 265.354 60.0234C264.873 60.3164 264.48 60.7266 264.176 61.2539C263.883 61.7812 263.66 62.4023 263.508 63.1172C263.367 63.8203 263.297 64.5938 263.297 65.4375V66.1406C263.297 66.9023 263.402 67.6055 263.613 68.25C263.836 68.8945 264.146 69.4512 264.545 69.9199C264.955 70.3887 265.447 70.752 266.021 71.0098C266.607 71.2676 267.27 71.3965 268.008 71.3965C268.922 71.3965 269.771 71.2207 270.557 70.8691C271.354 70.5059 272.039 69.9609 272.613 69.2344L275.074 71.9062C274.676 72.4805 274.131 73.0312 273.439 73.5586C272.76 74.0859 271.939 74.5195 270.979 74.8594C270.018 75.1875 268.922 75.3516 267.691 75.3516ZM283.723 55.9805V75H278.643V55.9805H283.723ZM278.326 51.0234C278.326 50.2852 278.584 49.6758 279.1 49.1953C279.615 48.7148 280.307 48.4746 281.174 48.4746C282.029 48.4746 282.715 48.7148 283.23 49.1953C283.758 49.6758 284.021 50.2852 284.021 51.0234C284.021 51.7617 283.758 52.3711 283.23 52.8516C282.715 53.332 282.029 53.5723 281.174 53.5723C280.307 53.5723 279.615 53.332 279.1 52.8516C278.584 52.3711 278.326 51.7617 278.326 51.0234ZM298.189 69.7441C298.189 69.3809 298.084 69.0527 297.873 68.7598C297.662 68.4668 297.27 68.1973 296.695 67.9512C296.133 67.6934 295.318 67.459 294.252 67.248C293.291 67.0371 292.395 66.7734 291.562 66.457C290.742 66.1289 290.027 65.7363 289.418 65.2793C288.82 64.8223 288.352 64.2832 288.012 63.6621C287.672 63.0293 287.502 62.3086 287.502 61.5C287.502 60.7031 287.672 59.9531 288.012 59.25C288.363 58.5469 288.861 57.9258 289.506 57.3867C290.162 56.8359 290.959 56.4082 291.896 56.1035C292.846 55.7871 293.912 55.6289 295.096 55.6289C296.748 55.6289 298.166 55.8926 299.35 56.4199C300.545 56.9473 301.459 57.6738 302.092 58.5996C302.736 59.5137 303.059 60.5566 303.059 61.7285H297.996C297.996 61.2363 297.891 60.7969 297.68 60.4102C297.48 60.0117 297.164 59.7012 296.73 59.4785C296.309 59.2441 295.758 59.127 295.078 59.127C294.516 59.127 294.029 59.2266 293.619 59.4258C293.209 59.6133 292.893 59.8711 292.67 60.1992C292.459 60.5156 292.354 60.8672 292.354 61.2539C292.354 61.5469 292.412 61.8105 292.529 62.0449C292.658 62.2676 292.863 62.4727 293.145 62.6602C293.426 62.8477 293.789 63.0234 294.234 63.1875C294.691 63.3398 295.254 63.4805 295.922 63.6094C297.293 63.8906 298.518 64.2598 299.596 64.7168C300.674 65.1621 301.529 65.7715 302.162 66.5449C302.795 67.3066 303.111 68.3086 303.111 69.5508C303.111 70.3945 302.924 71.168 302.549 71.8711C302.174 72.5742 301.635 73.1895 300.932 73.7168C300.229 74.2324 299.385 74.6367 298.4 74.9297C297.428 75.2109 296.332 75.3516 295.113 75.3516C293.344 75.3516 291.844 75.0352 290.613 74.4023C289.395 73.7695 288.469 72.9668 287.836 71.9941C287.215 71.0098 286.904 70.002 286.904 68.9707H291.703C291.727 69.6621 291.902 70.2188 292.23 70.6406C292.57 71.0625 292.998 71.3672 293.514 71.5547C294.041 71.7422 294.609 71.8359 295.219 71.8359C295.875 71.8359 296.42 71.748 296.854 71.5723C297.287 71.3848 297.615 71.1387 297.838 70.834C298.072 70.5176 298.189 70.1543 298.189 69.7441Z" fill="#888888"/>
<path d="M100.793 100.188H108.613L117.5 127.887L126.387 100.188H134.207L120.672 140H114.328L100.793 100.188ZM96.0352 100.188H104.129L105.633 130.703V140H96.0352V100.188ZM130.871 100.188H138.992V140H129.367V130.703L130.871 100.188ZM159.035 140.547C156.629 140.547 154.478 140.173 152.582 139.426C150.686 138.66 149.082 137.612 147.77 136.281C146.475 134.951 145.482 133.419 144.789 131.688C144.115 129.956 143.777 128.124 143.777 126.191V125.152C143.777 122.983 144.078 120.978 144.68 119.137C145.281 117.277 146.174 115.655 147.359 114.27C148.544 112.884 150.03 111.809 151.816 111.043C153.603 110.259 155.681 109.867 158.051 109.867C160.147 109.867 162.025 110.204 163.684 110.879C165.342 111.553 166.746 112.52 167.895 113.777C169.061 115.035 169.945 116.557 170.547 118.344C171.167 120.13 171.477 122.135 171.477 124.359V128.105H147.305V122.336H162.48V121.625C162.499 120.641 162.326 119.802 161.961 119.109C161.615 118.417 161.104 117.888 160.43 117.523C159.755 117.159 158.935 116.977 157.969 116.977C156.966 116.977 156.137 117.195 155.48 117.633C154.842 118.07 154.341 118.672 153.977 119.438C153.63 120.185 153.384 121.051 153.238 122.035C153.092 123.02 153.02 124.059 153.02 125.152V126.191C153.02 127.285 153.165 128.279 153.457 129.172C153.767 130.065 154.204 130.831 154.77 131.469C155.353 132.089 156.046 132.572 156.848 132.918C157.668 133.264 158.598 133.438 159.637 133.438C160.895 133.438 162.134 133.201 163.355 132.727C164.577 132.253 165.625 131.469 166.5 130.375L170.684 135.352C170.082 136.208 169.225 137.038 168.113 137.84C167.02 138.642 165.707 139.298 164.176 139.809C162.645 140.301 160.931 140.547 159.035 140.547ZM192.23 133.219V98H201.5V140H193.188L192.23 133.219ZM174.074 125.562V124.988C174.074 122.746 174.32 120.704 174.812 118.863C175.305 117.004 176.034 115.409 177 114.078C177.966 112.729 179.169 111.69 180.609 110.961C182.049 110.232 183.708 109.867 185.586 109.867C187.263 109.867 188.73 110.259 189.988 111.043C191.246 111.809 192.322 112.884 193.215 114.27C194.108 115.655 194.837 117.277 195.402 119.137C195.967 120.978 196.396 122.965 196.688 125.098V125.781C196.396 127.786 195.967 129.682 195.402 131.469C194.837 133.237 194.108 134.805 193.215 136.172C192.322 137.539 191.237 138.615 189.961 139.398C188.703 140.164 187.227 140.547 185.531 140.547C183.654 140.547 181.995 140.173 180.555 139.426C179.133 138.678 177.939 137.63 176.973 136.281C176.025 134.932 175.305 133.346 174.812 131.523C174.32 129.701 174.074 127.714 174.074 125.562ZM183.289 124.988V125.562C183.289 126.674 183.362 127.704 183.508 128.652C183.654 129.6 183.9 130.439 184.246 131.168C184.611 131.879 185.085 132.435 185.668 132.836C186.27 133.237 187.008 133.438 187.883 133.438C189.068 133.438 190.043 133.155 190.809 132.59C191.592 132.025 192.167 131.223 192.531 130.184C192.914 129.145 193.078 127.923 193.023 126.52V124.359C193.06 123.156 192.978 122.099 192.777 121.188C192.577 120.258 192.258 119.483 191.82 118.863C191.401 118.243 190.863 117.779 190.207 117.469C189.569 117.141 188.812 116.977 187.938 116.977C187.081 116.977 186.352 117.177 185.75 117.578C185.167 117.979 184.693 118.544 184.328 119.273C183.964 119.984 183.699 120.832 183.535 121.816C183.371 122.783 183.289 123.84 183.289 124.988ZM229.801 126.52H239.371C239.243 129.29 238.496 131.733 237.129 133.848C235.762 135.962 233.866 137.612 231.441 138.797C229.035 139.964 226.191 140.547 222.91 140.547C220.249 140.547 217.87 140.1 215.773 139.207C213.695 138.314 211.927 137.029 210.469 135.352C209.029 133.674 207.926 131.642 207.16 129.254C206.413 126.866 206.039 124.177 206.039 121.188V119.027C206.039 116.038 206.431 113.349 207.215 110.961C208.017 108.555 209.147 106.513 210.605 104.836C212.082 103.141 213.85 101.846 215.91 100.953C217.97 100.06 220.258 99.6133 222.773 99.6133C226.237 99.6133 229.163 100.233 231.551 101.473C233.939 102.712 235.789 104.417 237.102 106.586C238.414 108.737 239.189 111.189 239.426 113.941H229.855C229.819 112.447 229.564 111.198 229.09 110.195C228.616 109.174 227.868 108.409 226.848 107.898C225.827 107.388 224.469 107.133 222.773 107.133C221.589 107.133 220.559 107.352 219.684 107.789C218.809 108.227 218.079 108.919 217.496 109.867C216.913 110.815 216.475 112.046 216.184 113.559C215.91 115.053 215.773 116.858 215.773 118.973V121.188C215.773 123.302 215.901 125.107 216.156 126.602C216.411 128.096 216.822 129.318 217.387 130.266C217.952 131.214 218.681 131.915 219.574 132.371C220.486 132.809 221.598 133.027 222.91 133.027C224.368 133.027 225.599 132.799 226.602 132.344C227.604 131.87 228.379 131.159 228.926 130.211C229.473 129.245 229.764 128.014 229.801 126.52ZM242.324 125.508V124.934C242.324 122.764 242.634 120.768 243.254 118.945C243.874 117.104 244.785 115.509 245.988 114.16C247.191 112.811 248.677 111.763 250.445 111.016C252.214 110.25 254.255 109.867 256.57 109.867C258.904 109.867 260.954 110.25 262.723 111.016C264.509 111.763 266.004 112.811 267.207 114.16C268.41 115.509 269.322 117.104 269.941 118.945C270.561 120.768 270.871 122.764 270.871 124.934V125.508C270.871 127.659 270.561 129.655 269.941 131.496C269.322 133.319 268.41 134.914 267.207 136.281C266.004 137.63 264.518 138.678 262.75 139.426C260.982 140.173 258.94 140.547 256.625 140.547C254.31 140.547 252.259 140.173 250.473 139.426C248.686 138.678 247.191 137.63 245.988 136.281C244.785 134.914 243.874 133.319 243.254 131.496C242.634 129.655 242.324 127.659 242.324 125.508ZM251.539 124.934V125.508C251.539 126.62 251.621 127.659 251.785 128.625C251.949 129.591 252.223 130.439 252.605 131.168C252.988 131.879 253.508 132.435 254.164 132.836C254.82 133.237 255.641 133.438 256.625 133.438C257.591 133.438 258.393 133.237 259.031 132.836C259.688 132.435 260.207 131.879 260.59 131.168C260.973 130.439 261.246 129.591 261.41 128.625C261.574 127.659 261.656 126.62 261.656 125.508V124.934C261.656 123.858 261.574 122.846 261.41 121.898C261.246 120.932 260.973 120.085 260.59 119.355C260.207 118.608 259.688 118.025 259.031 117.605C258.375 117.186 257.555 116.977 256.57 116.977C255.604 116.977 254.793 117.186 254.137 117.605C253.499 118.025 252.988 118.608 252.605 119.355C252.223 120.085 251.949 120.932 251.785 121.898C251.621 122.846 251.539 123.858 251.539 124.934ZM284.023 116.73V140H274.809V110.414H283.449L284.023 116.73ZM282.93 124.195L280.77 124.25C280.77 121.99 281.043 119.975 281.59 118.207C282.137 116.421 282.911 114.908 283.914 113.668C284.917 112.428 286.111 111.49 287.496 110.852C288.9 110.195 290.458 109.867 292.172 109.867C293.539 109.867 294.788 110.068 295.918 110.469C297.066 110.87 298.051 111.517 298.871 112.41C299.71 113.303 300.348 114.488 300.785 115.965C301.241 117.423 301.469 119.228 301.469 121.379V140H292.199V121.352C292.199 120.167 292.035 119.264 291.707 118.645C291.379 118.007 290.905 117.569 290.285 117.332C289.665 117.095 288.909 116.977 288.016 116.977C287.068 116.977 286.266 117.159 285.609 117.523C284.953 117.888 284.424 118.398 284.023 119.055C283.641 119.693 283.358 120.449 283.176 121.324C283.012 122.199 282.93 123.156 282.93 124.195ZM315.633 116.73V140H306.418V110.414H315.059L315.633 116.73ZM314.539 124.195L312.379 124.25C312.379 121.99 312.652 119.975 313.199 118.207C313.746 116.421 314.521 114.908 315.523 113.668C316.526 112.428 317.72 111.49 319.105 110.852C320.509 110.195 322.068 109.867 323.781 109.867C325.148 109.867 326.397 110.068 327.527 110.469C328.676 110.87 329.66 111.517 330.48 112.41C331.319 113.303 331.957 114.488 332.395 115.965C332.85 117.423 333.078 119.228 333.078 121.379V140H323.809V121.352C323.809 120.167 323.645 119.264 323.316 118.645C322.988 118.007 322.514 117.569 321.895 117.332C321.275 117.095 320.518 116.977 319.625 116.977C318.677 116.977 317.875 117.159 317.219 117.523C316.562 117.888 316.034 118.398 315.633 119.055C315.25 119.693 314.967 120.449 314.785 121.324C314.621 122.199 314.539 123.156 314.539 124.195ZM352.52 140.547C350.113 140.547 347.962 140.173 346.066 139.426C344.171 138.66 342.566 137.612 341.254 136.281C339.96 134.951 338.966 133.419 338.273 131.688C337.599 129.956 337.262 128.124 337.262 126.191V125.152C337.262 122.983 337.562 120.978 338.164 119.137C338.766 117.277 339.659 115.655 340.844 114.27C342.029 112.884 343.514 111.809 345.301 111.043C347.087 110.259 349.165 109.867 351.535 109.867C353.632 109.867 355.509 110.204 357.168 110.879C358.827 111.553 360.23 112.52 361.379 113.777C362.546 115.035 363.43 116.557 364.031 118.344C364.651 120.13 364.961 122.135 364.961 124.359V128.105H340.789V122.336H355.965V121.625C355.983 120.641 355.81 119.802 355.445 119.109C355.099 118.417 354.589 117.888 353.914 117.523C353.24 117.159 352.419 116.977 351.453 116.977C350.451 116.977 349.621 117.195 348.965 117.633C348.327 118.07 347.826 118.672 347.461 119.438C347.115 120.185 346.868 121.051 346.723 122.035C346.577 123.02 346.504 124.059 346.504 125.152V126.191C346.504 127.285 346.65 128.279 346.941 129.172C347.251 130.065 347.689 130.831 348.254 131.469C348.837 132.089 349.53 132.572 350.332 132.918C351.152 133.264 352.082 133.438 353.121 133.438C354.379 133.438 355.618 133.201 356.84 132.727C358.061 132.253 359.109 131.469 359.984 130.375L364.168 135.352C363.566 136.208 362.71 137.038 361.598 137.84C360.504 138.642 359.191 139.298 357.66 139.809C356.129 140.301 354.415 140.547 352.52 140.547ZM381.203 133.438C382.06 133.438 382.789 133.283 383.391 132.973C384.01 132.645 384.475 132.189 384.785 131.605C385.113 131.004 385.268 130.284 385.25 129.445H393.918C393.936 131.669 393.389 133.62 392.277 135.297C391.184 136.956 389.689 138.25 387.793 139.18C385.915 140.091 383.792 140.547 381.422 140.547C379.107 140.547 377.083 140.173 375.352 139.426C373.62 138.66 372.171 137.603 371.004 136.254C369.855 134.887 368.99 133.292 368.406 131.469C367.841 129.646 367.559 127.668 367.559 125.535V124.906C367.559 122.773 367.841 120.796 368.406 118.973C368.99 117.132 369.855 115.536 371.004 114.188C372.171 112.82 373.611 111.763 375.324 111.016C377.056 110.25 379.07 109.867 381.367 109.867C383.828 109.867 385.997 110.332 387.875 111.262C389.771 112.191 391.257 113.54 392.332 115.309C393.408 117.077 393.936 119.219 393.918 121.734H385.25C385.268 120.841 385.132 120.039 384.84 119.328C384.548 118.617 384.092 118.052 383.473 117.633C382.871 117.195 382.096 116.977 381.148 116.977C380.201 116.977 379.435 117.186 378.852 117.605C378.268 118.025 377.822 118.608 377.512 119.355C377.22 120.085 377.02 120.923 376.91 121.871C376.819 122.819 376.773 123.831 376.773 124.906V125.535C376.773 126.629 376.819 127.659 376.91 128.625C377.02 129.573 377.229 130.411 377.539 131.141C377.849 131.852 378.296 132.417 378.879 132.836C379.462 133.237 380.237 133.438 381.203 133.438ZM413.441 110.414V116.812H395.613V110.414H413.441ZM399.359 103.059H408.574V130.348C408.574 131.132 408.665 131.742 408.848 132.18C409.03 132.599 409.34 132.9 409.777 133.082C410.233 133.246 410.835 133.328 411.582 133.328C412.111 133.328 412.548 133.319 412.895 133.301C413.241 133.264 413.569 133.219 413.879 133.164V139.754C413.095 140.009 412.275 140.201 411.418 140.328C410.561 140.474 409.65 140.547 408.684 140.547C406.715 140.547 405.029 140.237 403.625 139.617C402.24 138.997 401.182 138.022 400.453 136.691C399.724 135.361 399.359 133.629 399.359 131.496V103.059Z" fill="black"/>
<rect x="93" y="178" width="917" height="77" rx="10" fill="#D3D3D3"/>
<rect x="111" y="196" width="98" height="41" rx="3" fill="#424242"/>
<rect x="111" y="196" width="98" height="41" rx="3" stroke="#424242" stroke-width="4"/>
<path d="M137.078 210.203V223H133.993V210.203H137.078ZM142.053 215.529V217.902H136.199V215.529H142.053ZM142.554 210.203V212.585H136.199V210.203H142.554ZM146.825 209.5V223H143.854V209.5H146.825ZM154.208 220.688V213.49H157.179V223H154.401L154.208 220.688ZM154.489 218.755L155.263 218.737C155.263 219.376 155.187 219.968 155.034 220.513C154.882 221.052 154.656 221.521 154.357 221.919C154.064 222.317 153.701 222.628 153.268 222.851C152.84 223.067 152.345 223.176 151.782 223.176C151.313 223.176 150.883 223.111 150.49 222.982C150.104 222.848 149.77 222.64 149.488 222.358C149.207 222.071 148.987 221.705 148.829 221.26C148.677 220.809 148.601 220.27 148.601 219.643V213.49H151.562V219.66C151.562 219.871 151.589 220.053 151.642 220.205C151.694 220.357 151.771 220.486 151.87 220.592C151.97 220.691 152.093 220.768 152.239 220.82C152.392 220.867 152.564 220.891 152.758 220.891C153.203 220.891 153.552 220.797 153.804 220.609C154.056 220.422 154.231 220.167 154.331 219.845C154.437 219.522 154.489 219.159 154.489 218.755ZM163.823 213.49V215.547H158.093V213.49H163.823ZM159.297 211.126H162.259V219.897C162.259 220.149 162.288 220.346 162.347 220.486C162.405 220.621 162.505 220.718 162.646 220.776C162.792 220.829 162.985 220.855 163.226 220.855C163.396 220.855 163.536 220.853 163.647 220.847C163.759 220.835 163.864 220.82 163.964 220.803V222.921C163.712 223.003 163.448 223.064 163.173 223.105C162.897 223.152 162.604 223.176 162.294 223.176C161.661 223.176 161.119 223.076 160.668 222.877C160.223 222.678 159.883 222.364 159.648 221.937C159.414 221.509 159.297 220.952 159.297 220.267V211.126ZM170.011 213.49V215.547H164.28V213.49H170.011ZM165.484 211.126H168.446V219.897C168.446 220.149 168.476 220.346 168.534 220.486C168.593 220.621 168.692 220.718 168.833 220.776C168.979 220.829 169.173 220.855 169.413 220.855C169.583 220.855 169.724 220.853 169.835 220.847C169.946 220.835 170.052 220.82 170.151 220.803V222.921C169.899 223.003 169.636 223.064 169.36 223.105C169.085 223.152 168.792 223.176 168.481 223.176C167.849 223.176 167.307 223.076 166.855 222.877C166.41 222.678 166.07 222.364 165.836 221.937C165.602 221.509 165.484 220.952 165.484 220.267V211.126ZM175.794 223.176C175.021 223.176 174.329 223.056 173.72 222.815C173.11 222.569 172.595 222.232 172.173 221.805C171.757 221.377 171.438 220.885 171.215 220.328C170.998 219.771 170.89 219.183 170.89 218.562V218.228C170.89 217.53 170.986 216.886 171.18 216.294C171.373 215.696 171.66 215.175 172.041 214.729C172.422 214.284 172.899 213.938 173.474 213.692C174.048 213.44 174.716 213.314 175.478 213.314C176.151 213.314 176.755 213.423 177.288 213.64C177.821 213.856 178.272 214.167 178.642 214.571C179.017 214.976 179.301 215.465 179.494 216.039C179.693 216.613 179.793 217.258 179.793 217.973V219.177H172.023V217.322H176.901V217.094C176.907 216.777 176.852 216.508 176.734 216.285C176.623 216.062 176.459 215.893 176.242 215.775C176.025 215.658 175.762 215.6 175.451 215.6C175.129 215.6 174.862 215.67 174.651 215.811C174.446 215.951 174.285 216.145 174.168 216.391C174.057 216.631 173.978 216.909 173.931 217.226C173.884 217.542 173.86 217.876 173.86 218.228V218.562C173.86 218.913 173.907 219.232 174.001 219.52C174.101 219.807 174.241 220.053 174.423 220.258C174.61 220.457 174.833 220.612 175.091 220.724C175.354 220.835 175.653 220.891 175.987 220.891C176.392 220.891 176.79 220.814 177.183 220.662C177.575 220.51 177.912 220.258 178.193 219.906L179.538 221.506C179.345 221.781 179.069 222.048 178.712 222.306C178.36 222.563 177.938 222.774 177.446 222.938C176.954 223.097 176.403 223.176 175.794 223.176ZM183.985 215.846V223H181.023V213.49H183.792L183.985 215.846ZM186.798 213.42L186.745 216.171C186.628 216.159 186.47 216.145 186.271 216.127C186.071 216.109 185.904 216.101 185.77 216.101C185.424 216.101 185.125 216.142 184.873 216.224C184.627 216.3 184.422 216.417 184.258 216.575C184.1 216.728 183.982 216.921 183.906 217.155C183.836 217.39 183.804 217.662 183.81 217.973L183.273 217.621C183.273 216.982 183.335 216.402 183.458 215.881C183.587 215.354 183.769 214.899 184.003 214.519C184.237 214.132 184.521 213.836 184.855 213.631C185.189 213.42 185.564 213.314 185.98 213.314C186.127 213.314 186.271 213.323 186.411 213.341C186.558 213.358 186.687 213.385 186.798 213.42Z" fill="white"/>
<rect x="229" y="196" width="124" height="41" rx="3" fill="#424242"/>
<rect x="229" y="196" width="124" height="41" rx="3" stroke="#424242" stroke-width="4"/>
<path d="M253.585 210.203H256.099L258.955 219.106L261.812 210.203H264.325L259.975 223H257.936L253.585 210.203ZM252.056 210.203H254.657L255.141 220.012V223H252.056V210.203ZM263.253 210.203H265.863V223H262.77V220.012L263.253 210.203ZM267.331 218.342V218.157C267.331 217.46 267.431 216.818 267.63 216.232C267.829 215.641 268.122 215.128 268.509 214.694C268.896 214.261 269.373 213.924 269.941 213.684C270.51 213.438 271.166 213.314 271.91 213.314C272.66 213.314 273.319 213.438 273.888 213.684C274.462 213.924 274.942 214.261 275.329 214.694C275.716 215.128 276.009 215.641 276.208 216.232C276.407 216.818 276.507 217.46 276.507 218.157V218.342C276.507 219.033 276.407 219.675 276.208 220.267C276.009 220.853 275.716 221.365 275.329 221.805C274.942 222.238 274.465 222.575 273.896 222.815C273.328 223.056 272.672 223.176 271.928 223.176C271.184 223.176 270.524 223.056 269.95 222.815C269.376 222.575 268.896 222.238 268.509 221.805C268.122 221.365 267.829 220.853 267.63 220.267C267.431 219.675 267.331 219.033 267.331 218.342ZM270.293 218.157V218.342C270.293 218.699 270.319 219.033 270.372 219.344C270.425 219.654 270.513 219.927 270.636 220.161C270.759 220.39 270.926 220.568 271.137 220.697C271.348 220.826 271.611 220.891 271.928 220.891C272.238 220.891 272.496 220.826 272.701 220.697C272.912 220.568 273.079 220.39 273.202 220.161C273.325 219.927 273.413 219.654 273.466 219.344C273.519 219.033 273.545 218.699 273.545 218.342V218.157C273.545 217.812 273.519 217.486 273.466 217.182C273.413 216.871 273.325 216.599 273.202 216.364C273.079 216.124 272.912 215.937 272.701 215.802C272.49 215.667 272.227 215.6 271.91 215.6C271.6 215.6 271.339 215.667 271.128 215.802C270.923 215.937 270.759 216.124 270.636 216.364C270.513 216.599 270.425 216.871 270.372 217.182C270.319 217.486 270.293 217.812 270.293 218.157ZM280.734 215.521V223H277.772V213.49H280.55L280.734 215.521ZM280.383 217.92L279.688 217.938C279.688 217.211 279.776 216.563 279.952 215.995C280.128 215.421 280.377 214.935 280.699 214.536C281.021 214.138 281.405 213.836 281.851 213.631C282.302 213.42 282.803 213.314 283.354 213.314C283.793 213.314 284.194 213.379 284.558 213.508C284.927 213.637 285.243 213.845 285.507 214.132C285.776 214.419 285.981 214.8 286.122 215.274C286.269 215.743 286.342 216.323 286.342 217.015V223H283.362V217.006C283.362 216.625 283.31 216.335 283.204 216.136C283.099 215.931 282.946 215.79 282.747 215.714C282.548 215.638 282.305 215.6 282.018 215.6C281.713 215.6 281.455 215.658 281.244 215.775C281.033 215.893 280.863 216.057 280.734 216.268C280.611 216.473 280.521 216.716 280.462 216.997C280.409 217.278 280.383 217.586 280.383 217.92ZM293.962 213.49H296.651V222.631C296.651 223.51 296.449 224.254 296.045 224.863C295.641 225.479 295.075 225.944 294.349 226.261C293.628 226.583 292.784 226.744 291.817 226.744C291.39 226.744 290.953 226.688 290.508 226.577C290.062 226.472 289.646 226.313 289.26 226.103C288.873 225.892 288.548 225.631 288.284 225.32L289.523 223.58C289.764 223.85 290.065 224.078 290.429 224.266C290.792 224.459 291.22 224.556 291.712 224.556C292.14 224.556 292.497 224.479 292.784 224.327C293.077 224.175 293.3 223.952 293.452 223.659C293.604 223.372 293.681 223.023 293.681 222.613V215.74L293.962 213.49ZM287.643 218.359V218.175C287.643 217.454 287.73 216.798 287.906 216.206C288.088 215.608 288.346 215.096 288.68 214.668C289.02 214.234 289.43 213.9 289.91 213.666C290.391 213.432 290.933 213.314 291.536 213.314C292.187 213.314 292.72 213.44 293.136 213.692C293.558 213.938 293.895 214.284 294.146 214.729C294.404 215.175 294.604 215.696 294.744 216.294C294.891 216.886 295.014 217.524 295.113 218.21V218.43C295.014 219.074 294.876 219.684 294.7 220.258C294.53 220.826 294.308 221.33 294.032 221.77C293.757 222.209 293.411 222.555 292.995 222.807C292.585 223.053 292.093 223.176 291.519 223.176C290.921 223.176 290.382 223.056 289.901 222.815C289.427 222.575 289.02 222.238 288.68 221.805C288.346 221.371 288.088 220.861 287.906 220.275C287.73 219.689 287.643 219.051 287.643 218.359ZM290.604 218.175V218.359C290.604 218.717 290.637 219.048 290.701 219.353C290.771 219.657 290.877 219.927 291.018 220.161C291.158 220.39 291.331 220.568 291.536 220.697C291.747 220.826 291.993 220.891 292.274 220.891C292.702 220.891 293.048 220.8 293.312 220.618C293.575 220.437 293.766 220.179 293.883 219.845C294 219.511 294.05 219.118 294.032 218.667V217.973C294.044 217.586 294.018 217.246 293.953 216.953C293.889 216.654 293.786 216.405 293.646 216.206C293.511 216.007 293.329 215.857 293.101 215.758C292.878 215.652 292.608 215.6 292.292 215.6C292.017 215.6 291.773 215.664 291.562 215.793C291.352 215.922 291.176 216.104 291.035 216.338C290.895 216.566 290.786 216.839 290.71 217.155C290.64 217.466 290.604 217.806 290.604 218.175ZM297.987 218.342V218.157C297.987 217.46 298.087 216.818 298.286 216.232C298.485 215.641 298.778 215.128 299.165 214.694C299.552 214.261 300.029 213.924 300.598 213.684C301.166 213.438 301.822 213.314 302.566 213.314C303.316 213.314 303.976 213.438 304.544 213.684C305.118 213.924 305.599 214.261 305.985 214.694C306.372 215.128 306.665 215.641 306.864 216.232C307.063 216.818 307.163 217.46 307.163 218.157V218.342C307.163 219.033 307.063 219.675 306.864 220.267C306.665 220.853 306.372 221.365 305.985 221.805C305.599 222.238 305.121 222.575 304.553 222.815C303.984 223.056 303.328 223.176 302.584 223.176C301.84 223.176 301.181 223.056 300.606 222.815C300.032 222.575 299.552 222.238 299.165 221.805C298.778 221.365 298.485 220.853 298.286 220.267C298.087 219.675 297.987 219.033 297.987 218.342ZM300.949 218.157V218.342C300.949 218.699 300.976 219.033 301.028 219.344C301.081 219.654 301.169 219.927 301.292 220.161C301.415 220.39 301.582 220.568 301.793 220.697C302.004 220.826 302.268 220.891 302.584 220.891C302.895 220.891 303.152 220.826 303.357 220.697C303.568 220.568 303.735 220.39 303.858 220.161C303.981 219.927 304.069 219.654 304.122 219.344C304.175 219.033 304.201 218.699 304.201 218.342V218.157C304.201 217.812 304.175 217.486 304.122 217.182C304.069 216.871 303.981 216.599 303.858 216.364C303.735 216.124 303.568 215.937 303.357 215.802C303.146 215.667 302.883 215.6 302.566 215.6C302.256 215.6 301.995 215.667 301.784 215.802C301.579 215.937 301.415 216.124 301.292 216.364C301.169 216.599 301.081 216.871 301.028 217.182C300.976 217.486 300.949 217.812 300.949 218.157ZM312.779 223H309.94L309.958 220.627H312.779C313.365 220.627 313.86 220.486 314.265 220.205C314.675 219.924 314.985 219.505 315.196 218.948C315.413 218.386 315.521 217.694 315.521 216.874V216.32C315.521 215.705 315.46 215.166 315.337 214.703C315.22 214.234 315.044 213.845 314.81 213.534C314.575 213.218 314.282 212.98 313.931 212.822C313.585 212.664 313.187 212.585 312.735 212.585H309.888V210.203H312.735C313.603 210.203 314.396 210.353 315.117 210.651C315.844 210.944 316.471 211.366 316.998 211.917C317.531 212.462 317.941 213.109 318.229 213.859C318.521 214.604 318.668 215.43 318.668 216.338V216.874C318.668 217.776 318.521 218.603 318.229 219.353C317.941 220.103 317.534 220.75 317.007 221.295C316.479 221.84 315.855 222.262 315.135 222.561C314.42 222.854 313.635 223 312.779 223ZM311.707 210.203V223H308.622V210.203H311.707ZM325.497 217.56H322.201L322.184 215.538H324.855C325.336 215.538 325.72 215.485 326.007 215.38C326.294 215.269 326.502 215.107 326.631 214.896C326.766 214.686 326.833 214.422 326.833 214.105C326.833 213.742 326.766 213.449 326.631 213.227C326.496 213.004 326.282 212.843 325.989 212.743C325.702 212.638 325.33 212.585 324.873 212.585H323.361V223H320.276V210.203H324.873C325.664 210.203 326.37 210.276 326.991 210.423C327.612 210.563 328.14 210.78 328.573 211.073C329.013 211.366 329.347 211.735 329.575 212.181C329.804 212.62 329.918 213.139 329.918 213.736C329.918 214.258 329.807 214.747 329.584 215.204C329.361 215.661 328.989 216.033 328.468 216.32C327.952 216.602 327.246 216.748 326.35 216.76L325.497 217.56ZM325.374 223H321.454L322.509 220.627H325.374C325.796 220.627 326.133 220.562 326.385 220.434C326.643 220.299 326.827 220.123 326.938 219.906C327.056 219.684 327.114 219.438 327.114 219.168C327.114 218.84 327.059 218.556 326.947 218.315C326.842 218.075 326.672 217.891 326.438 217.762C326.203 217.627 325.89 217.56 325.497 217.56H322.904L322.922 215.538H326.024L326.745 216.347C327.601 216.312 328.277 216.432 328.775 216.707C329.279 216.982 329.64 217.346 329.856 217.797C330.073 218.248 330.182 218.72 330.182 219.212C330.182 220.05 330 220.75 329.637 221.312C329.279 221.875 328.743 222.297 328.028 222.578C327.313 222.859 326.429 223 325.374 223Z" fill="white"/>
<rect x="373" y="196" width="109" height="41" rx="3" fill="#424242"/>
<rect x="373" y="196" width="109" height="41" rx="3" stroke="#424242" stroke-width="4"/>
<path d="M407.118 210.203V223H404.042L399.516 215.037V223H396.431V210.203H399.516L404.042 218.166V210.203H407.118ZM408.56 218.342V218.157C408.56 217.46 408.659 216.818 408.858 216.232C409.058 215.641 409.351 215.128 409.737 214.694C410.124 214.261 410.602 213.924 411.17 213.684C411.738 213.438 412.395 213.314 413.139 213.314C413.889 213.314 414.548 213.438 415.116 213.684C415.69 213.924 416.171 214.261 416.558 214.694C416.944 215.128 417.237 215.641 417.437 216.232C417.636 216.818 417.735 217.46 417.735 218.157V218.342C417.735 219.033 417.636 219.675 417.437 220.267C417.237 220.853 416.944 221.365 416.558 221.805C416.171 222.238 415.693 222.575 415.125 222.815C414.557 223.056 413.9 223.176 413.156 223.176C412.412 223.176 411.753 223.056 411.179 222.815C410.604 222.575 410.124 222.238 409.737 221.805C409.351 221.365 409.058 220.853 408.858 220.267C408.659 219.675 408.56 219.033 408.56 218.342ZM411.521 218.157V218.342C411.521 218.699 411.548 219.033 411.601 219.344C411.653 219.654 411.741 219.927 411.864 220.161C411.987 220.39 412.154 220.568 412.365 220.697C412.576 220.826 412.84 220.891 413.156 220.891C413.467 220.891 413.725 220.826 413.93 220.697C414.141 220.568 414.308 220.39 414.431 220.161C414.554 219.927 414.642 219.654 414.694 219.344C414.747 219.033 414.773 218.699 414.773 218.342V218.157C414.773 217.812 414.747 217.486 414.694 217.182C414.642 216.871 414.554 216.599 414.431 216.364C414.308 216.124 414.141 215.937 413.93 215.802C413.719 215.667 413.455 215.6 413.139 215.6C412.828 215.6 412.567 215.667 412.356 215.802C412.151 215.937 411.987 216.124 411.864 216.364C411.741 216.599 411.653 216.871 411.601 217.182C411.548 217.486 411.521 217.812 411.521 218.157ZM424.521 220.82V209.5H427.5V223H424.828L424.521 220.82ZM418.685 218.359V218.175C418.685 217.454 418.764 216.798 418.922 216.206C419.08 215.608 419.314 215.096 419.625 214.668C419.936 214.234 420.322 213.9 420.785 213.666C421.248 213.432 421.781 213.314 422.385 213.314C422.924 213.314 423.396 213.44 423.8 213.692C424.204 213.938 424.55 214.284 424.837 214.729C425.124 215.175 425.358 215.696 425.54 216.294C425.722 216.886 425.859 217.524 425.953 218.21V218.43C425.859 219.074 425.722 219.684 425.54 220.258C425.358 220.826 425.124 221.33 424.837 221.77C424.55 222.209 424.201 222.555 423.791 222.807C423.387 223.053 422.912 223.176 422.367 223.176C421.764 223.176 421.23 223.056 420.768 222.815C420.311 222.575 419.927 222.238 419.616 221.805C419.312 221.371 419.08 220.861 418.922 220.275C418.764 219.689 418.685 219.051 418.685 218.359ZM421.646 218.175V218.359C421.646 218.717 421.67 219.048 421.717 219.353C421.764 219.657 421.843 219.927 421.954 220.161C422.071 220.39 422.224 220.568 422.411 220.697C422.604 220.826 422.842 220.891 423.123 220.891C423.504 220.891 423.817 220.8 424.063 220.618C424.315 220.437 424.5 220.179 424.617 219.845C424.74 219.511 424.793 219.118 424.775 218.667V217.973C424.787 217.586 424.761 217.246 424.696 216.953C424.632 216.654 424.529 216.405 424.389 216.206C424.254 216.007 424.081 215.857 423.87 215.758C423.665 215.652 423.422 215.6 423.141 215.6C422.865 215.6 422.631 215.664 422.438 215.793C422.25 215.922 422.098 216.104 421.98 216.338C421.863 216.566 421.778 216.839 421.726 217.155C421.673 217.466 421.646 217.806 421.646 218.175ZM433.784 223.176C433.011 223.176 432.319 223.056 431.71 222.815C431.101 222.569 430.585 222.232 430.163 221.805C429.747 221.377 429.428 220.885 429.205 220.328C428.988 219.771 428.88 219.183 428.88 218.562V218.228C428.88 217.53 428.977 216.886 429.17 216.294C429.363 215.696 429.65 215.175 430.031 214.729C430.412 214.284 430.89 213.938 431.464 213.692C432.038 213.44 432.706 213.314 433.468 213.314C434.142 213.314 434.745 213.423 435.278 213.64C435.812 213.856 436.263 214.167 436.632 214.571C437.007 214.976 437.291 215.465 437.484 216.039C437.684 216.613 437.783 217.258 437.783 217.973V219.177H430.014V217.322H434.892V217.094C434.897 216.777 434.842 216.508 434.725 216.285C434.613 216.062 434.449 215.893 434.232 215.775C434.016 215.658 433.752 215.6 433.441 215.6C433.119 215.6 432.853 215.67 432.642 215.811C432.437 215.951 432.275 216.145 432.158 216.391C432.047 216.631 431.968 216.909 431.921 217.226C431.874 217.542 431.851 217.876 431.851 218.228V218.562C431.851 218.913 431.897 219.232 431.991 219.52C432.091 219.807 432.231 220.053 432.413 220.258C432.601 220.457 432.823 220.612 433.081 220.724C433.345 220.835 433.644 220.891 433.978 220.891C434.382 220.891 434.78 220.814 435.173 220.662C435.565 220.51 435.902 220.258 436.184 219.906L437.528 221.506C437.335 221.781 437.06 222.048 436.702 222.306C436.351 222.563 435.929 222.774 435.437 222.938C434.944 223.097 434.394 223.176 433.784 223.176ZM444.217 218.983V210.203H447.293V218.983C447.293 219.839 447.097 220.58 446.704 221.207C446.317 221.834 445.79 222.32 445.122 222.666C444.46 223.006 443.716 223.176 442.89 223.176C442.034 223.176 441.272 223.032 440.604 222.745C439.942 222.458 439.421 222.016 439.04 221.418C438.665 220.82 438.478 220.059 438.478 219.133H441.571C441.571 219.566 441.621 219.906 441.721 220.152C441.82 220.393 441.967 220.562 442.16 220.662C442.359 220.756 442.603 220.803 442.89 220.803C443.171 220.803 443.408 220.732 443.602 220.592C443.801 220.445 443.953 220.237 444.059 219.968C444.164 219.692 444.217 219.364 444.217 218.983ZM455.845 219.599C455.845 219.399 455.815 219.221 455.757 219.062C455.698 218.898 455.59 218.746 455.432 218.605C455.273 218.465 455.045 218.324 454.746 218.184C454.453 218.037 454.066 217.885 453.586 217.727C453.023 217.539 452.481 217.328 451.96 217.094C451.438 216.854 450.973 216.575 450.562 216.259C450.152 215.937 449.827 215.562 449.587 215.134C449.347 214.7 449.227 214.196 449.227 213.622C449.227 213.071 449.35 212.576 449.596 212.137C449.842 211.691 450.185 211.313 450.624 211.003C451.069 210.687 451.591 210.446 452.188 210.282C452.786 210.112 453.439 210.027 454.148 210.027C455.086 210.027 455.912 210.191 456.627 210.52C457.348 210.842 457.91 211.302 458.314 211.899C458.725 212.491 458.93 213.191 458.93 214H455.862C455.862 213.678 455.795 213.394 455.66 213.147C455.531 212.901 455.335 212.708 455.071 212.567C454.808 212.427 454.477 212.356 454.078 212.356C453.691 212.356 453.366 212.415 453.103 212.532C452.839 212.649 452.64 212.808 452.505 213.007C452.37 213.2 452.303 213.414 452.303 213.648C452.303 213.842 452.355 214.018 452.461 214.176C452.572 214.328 452.728 214.472 452.927 214.606C453.132 214.741 453.378 214.87 453.665 214.993C453.958 215.116 454.286 215.236 454.649 215.354C455.329 215.57 455.933 215.813 456.46 216.083C456.993 216.347 457.441 216.648 457.805 216.988C458.174 217.322 458.452 217.703 458.64 218.131C458.833 218.559 458.93 219.042 458.93 219.581C458.93 220.155 458.818 220.665 458.596 221.11C458.373 221.556 458.054 221.934 457.638 222.244C457.222 222.549 456.724 222.78 456.144 222.938C455.563 223.097 454.916 223.176 454.201 223.176C453.545 223.176 452.897 223.094 452.259 222.93C451.626 222.76 451.052 222.502 450.536 222.156C450.021 221.805 449.607 221.356 449.297 220.812C448.992 220.261 448.84 219.607 448.84 218.852H451.934C451.934 219.227 451.983 219.543 452.083 219.801C452.183 220.059 452.329 220.267 452.522 220.425C452.716 220.577 452.953 220.688 453.234 220.759C453.516 220.823 453.838 220.855 454.201 220.855C454.594 220.855 454.91 220.8 455.15 220.688C455.391 220.571 455.566 220.419 455.678 220.231C455.789 220.038 455.845 219.827 455.845 219.599Z" fill="white"/>
<rect x="502" y="196" width="109" height="41" rx="3" fill="#424242"/>
<rect x="502" y="196" width="109" height="41" rx="3" stroke="#424242" stroke-width="4"/>
<path d="M534.079 220.627V223H527.259V220.627H534.079ZM528.357 210.203V223H525.272V210.203H528.357ZM533.2 215.283V217.577H527.259V215.283H533.2ZM534.105 210.203V212.585H527.259V210.203H534.105ZM537.718 213.49L539.054 216.109L540.434 213.49H543.51L541.014 218.122L543.642 223H540.539L539.054 220.188L537.577 223H534.475L537.103 218.122L534.615 213.49H537.718ZM547.474 215.318V226.656H544.512V213.49H547.271L547.474 215.318ZM553.31 218.131V218.315C553.31 219.007 553.23 219.648 553.072 220.24C552.914 220.832 552.68 221.348 552.369 221.787C552.059 222.227 551.672 222.569 551.209 222.815C550.752 223.056 550.222 223.176 549.618 223.176C549.05 223.176 548.561 223.05 548.15 222.798C547.74 222.546 547.397 222.197 547.122 221.752C546.847 221.307 546.624 220.797 546.454 220.223C546.284 219.648 546.149 219.042 546.05 218.403V218.166C546.149 217.48 546.284 216.845 546.454 216.259C546.624 215.667 546.847 215.151 547.122 214.712C547.397 214.272 547.737 213.93 548.142 213.684C548.552 213.438 549.041 213.314 549.609 213.314C550.213 213.314 550.743 213.429 551.2 213.657C551.663 213.886 552.05 214.214 552.36 214.642C552.677 215.063 552.914 215.57 553.072 216.162C553.23 216.754 553.31 217.41 553.31 218.131ZM550.348 218.315V218.131C550.348 217.762 550.321 217.425 550.269 217.12C550.216 216.81 550.131 216.54 550.014 216.312C549.902 216.083 549.753 215.907 549.565 215.784C549.378 215.661 549.146 215.6 548.871 215.6C548.555 215.6 548.288 215.649 548.071 215.749C547.86 215.843 547.69 215.989 547.562 216.188C547.438 216.382 547.351 216.625 547.298 216.918C547.251 217.205 547.23 217.542 547.236 217.929V218.649C547.225 219.095 547.269 219.487 547.368 219.827C547.468 220.161 547.641 220.422 547.887 220.609C548.133 220.797 548.467 220.891 548.889 220.891C549.17 220.891 549.404 220.826 549.592 220.697C549.779 220.562 549.929 220.378 550.04 220.144C550.151 219.903 550.23 219.628 550.277 219.317C550.324 219.007 550.348 218.673 550.348 218.315ZM557.616 215.846V223H554.654V213.49H557.423L557.616 215.846ZM560.429 213.42L560.376 216.171C560.259 216.159 560.101 216.145 559.901 216.127C559.702 216.109 559.535 216.101 559.4 216.101C559.055 216.101 558.756 216.142 558.504 216.224C558.258 216.3 558.053 216.417 557.889 216.575C557.73 216.728 557.613 216.921 557.537 217.155C557.467 217.39 557.435 217.662 557.44 217.973L556.904 217.621C556.904 216.982 556.966 216.402 557.089 215.881C557.218 215.354 557.399 214.899 557.634 214.519C557.868 214.132 558.152 213.836 558.486 213.631C558.82 213.42 559.195 213.314 559.611 213.314C559.758 213.314 559.901 213.323 560.042 213.341C560.188 213.358 560.317 213.385 560.429 213.42ZM565.878 223.176C565.104 223.176 564.413 223.056 563.804 222.815C563.194 222.569 562.679 222.232 562.257 221.805C561.841 221.377 561.521 220.885 561.299 220.328C561.082 219.771 560.974 219.183 560.974 218.562V218.228C560.974 217.53 561.07 216.886 561.264 216.294C561.457 215.696 561.744 215.175 562.125 214.729C562.506 214.284 562.983 213.938 563.558 213.692C564.132 213.44 564.8 213.314 565.562 213.314C566.235 213.314 566.839 213.423 567.372 213.64C567.905 213.856 568.356 214.167 568.726 214.571C569.101 214.976 569.385 215.465 569.578 216.039C569.777 216.613 569.877 217.258 569.877 217.973V219.177H562.107V217.322H566.985V217.094C566.991 216.777 566.936 216.508 566.818 216.285C566.707 216.062 566.543 215.893 566.326 215.775C566.109 215.658 565.846 215.6 565.535 215.6C565.213 215.6 564.946 215.67 564.735 215.811C564.53 215.951 564.369 216.145 564.252 216.391C564.141 216.631 564.062 216.909 564.015 217.226C563.968 217.542 563.944 217.876 563.944 218.228V218.562C563.944 218.913 563.991 219.232 564.085 219.52C564.185 219.807 564.325 220.053 564.507 220.258C564.694 220.457 564.917 220.612 565.175 220.724C565.438 220.835 565.737 220.891 566.071 220.891C566.476 220.891 566.874 220.814 567.267 220.662C567.659 220.51 567.996 220.258 568.277 219.906L569.622 221.506C569.429 221.781 569.153 222.048 568.796 222.306C568.444 222.563 568.022 222.774 567.53 222.938C567.038 223.097 566.487 223.176 565.878 223.176ZM576.064 220.328C576.064 220.164 576.009 220.023 575.897 219.906C575.792 219.783 575.604 219.672 575.335 219.572C575.065 219.467 574.688 219.361 574.201 219.256C573.738 219.156 573.302 219.024 572.892 218.86C572.487 218.696 572.133 218.497 571.828 218.263C571.523 218.028 571.283 217.75 571.107 217.428C570.938 217.105 570.853 216.736 570.853 216.32C570.853 215.916 570.938 215.535 571.107 215.178C571.283 214.814 571.538 214.495 571.872 214.22C572.212 213.938 572.625 213.719 573.111 213.561C573.598 213.396 574.151 213.314 574.772 213.314C575.628 213.314 576.366 213.446 576.987 213.71C577.608 213.968 578.086 214.331 578.42 214.8C578.76 215.263 578.93 215.799 578.93 216.408H575.968C575.968 216.168 575.927 215.963 575.845 215.793C575.769 215.623 575.643 215.494 575.467 215.406C575.291 215.312 575.057 215.266 574.764 215.266C574.559 215.266 574.371 215.304 574.201 215.38C574.037 215.456 573.905 215.562 573.806 215.696C573.706 215.831 573.656 215.989 573.656 216.171C573.656 216.3 573.686 216.417 573.744 216.522C573.809 216.622 573.905 216.716 574.034 216.804C574.163 216.886 574.327 216.962 574.526 217.032C574.726 217.097 574.966 217.155 575.247 217.208C575.886 217.325 576.483 217.492 577.04 217.709C577.597 217.926 578.048 218.233 578.394 218.632C578.745 219.03 578.921 219.566 578.921 220.24C578.921 220.662 578.824 221.052 578.631 221.409C578.438 221.761 578.159 222.071 577.796 222.341C577.433 222.604 576.996 222.81 576.486 222.956C575.977 223.103 575.402 223.176 574.764 223.176C573.855 223.176 573.088 223.015 572.461 222.692C571.834 222.364 571.359 221.954 571.037 221.462C570.721 220.964 570.562 220.46 570.562 219.95H573.322C573.334 220.243 573.404 220.483 573.533 220.671C573.668 220.858 573.847 220.996 574.069 221.084C574.292 221.172 574.55 221.216 574.843 221.216C575.112 221.216 575.335 221.178 575.511 221.102C575.692 221.025 575.83 220.923 575.924 220.794C576.018 220.659 576.064 220.504 576.064 220.328ZM585.293 220.328C585.293 220.164 585.237 220.023 585.126 219.906C585.021 219.783 584.833 219.672 584.563 219.572C584.294 219.467 583.916 219.361 583.43 219.256C582.967 219.156 582.53 219.024 582.12 218.86C581.716 218.696 581.361 218.497 581.057 218.263C580.752 218.028 580.512 217.75 580.336 217.428C580.166 217.105 580.081 216.736 580.081 216.32C580.081 215.916 580.166 215.535 580.336 215.178C580.512 214.814 580.767 214.495 581.101 214.22C581.44 213.938 581.854 213.719 582.34 213.561C582.826 213.396 583.38 213.314 584.001 213.314C584.856 213.314 585.595 213.446 586.216 213.71C586.837 213.968 587.314 214.331 587.648 214.8C587.988 215.263 588.158 215.799 588.158 216.408H585.196C585.196 216.168 585.155 215.963 585.073 215.793C584.997 215.623 584.871 215.494 584.695 215.406C584.52 215.312 584.285 215.266 583.992 215.266C583.787 215.266 583.6 215.304 583.43 215.38C583.266 215.456 583.134 215.562 583.034 215.696C582.935 215.831 582.885 215.989 582.885 216.171C582.885 216.3 582.914 216.417 582.973 216.522C583.037 216.622 583.134 216.716 583.263 216.804C583.392 216.886 583.556 216.962 583.755 217.032C583.954 217.097 584.194 217.155 584.476 217.208C585.114 217.325 585.712 217.492 586.269 217.709C586.825 217.926 587.276 218.233 587.622 218.632C587.974 219.03 588.149 219.566 588.149 220.24C588.149 220.662 588.053 221.052 587.859 221.409C587.666 221.761 587.388 222.071 587.024 222.341C586.661 222.604 586.225 222.81 585.715 222.956C585.205 223.103 584.631 223.176 583.992 223.176C583.084 223.176 582.316 223.015 581.689 222.692C581.062 222.364 580.588 221.954 580.266 221.462C579.949 220.964 579.791 220.46 579.791 219.95H582.551C582.562 220.243 582.633 220.483 582.762 220.671C582.896 220.858 583.075 220.996 583.298 221.084C583.521 221.172 583.778 221.216 584.071 221.216C584.341 221.216 584.563 221.178 584.739 221.102C584.921 221.025 585.059 220.923 585.152 220.794C585.246 220.659 585.293 220.504 585.293 220.328Z" fill="white"/>
<path d="M1066 0H1348C1356.28 0 1363 6.71573 1363 15V282C1363 290.284 1356.28 297 1348 297H1066V0Z" fill="white"/>
<path d="M1147.73 72.6334L1206.04 24.2597C1209.72 21.2048 1215.05 21.1862 1218.75 24.2154L1299.43 90.2067C1301.06 91.5361 1302 93.5251 1302 95.625V125.893C1302 131.416 1297.52 135.893 1292 135.893H1143.03C1137.51 135.893 1133.03 140.37 1133.03 145.893V155.614C1133.03 161.137 1137.51 165.614 1143.03 165.614H1292C1297.52 165.614 1302 170.092 1302 175.614V187.41C1302 192.933 1297.52 197.41 1292 197.41H1222.37C1216.85 197.41 1212.37 201.888 1212.37 207.41V213.862" stroke="#0D4C92" stroke-width="9"/>
<circle cx="1152" cy="78.1511" r="20.5" fill="white" stroke="#0D4C92" stroke-width="9"/>
<path d="M1161.75 78.0489C1161.75 83.8936 1157.19 88.5978 1151.62 88.5978C1146.05 88.5978 1141.5 83.8936 1141.5 78.0489C1141.5 72.2042 1146.05 67.5 1151.62 67.5C1157.19 67.5 1161.75 72.2042 1161.75 78.0489Z" fill="#0D4C92" stroke="#0D4C92"/>
<path d="M1186 281V241.5C1186 227.417 1197.42 216 1211.5 216V216C1225.58 216 1237 227.417 1237 241.5V281" stroke="#0D4C92" stroke-width="9"/>
<path d="M1195 277C1195 274.791 1193.21 273 1191 273H1183V281H1191C1193.21 281 1195 279.209 1195 277Z" fill="#0D4C92"/>
<path d="M1227 277C1227 279.209 1228.79 281 1231 281H1239V273H1231C1228.79 273 1227 274.791 1227 277Z" fill="#0D4C92"/>
<rect x="1202.01" y="45.1156" width="9.65692" height="10.0445" rx="1" fill="#0D4C92"/>
<rect x="1202.01" y="57.1689" width="9.65692" height="10.0445" rx="1" fill="#0D4C92"/>
<rect x="1212.99" y="45.1156" width="9.65692" height="10.0445" rx="1" fill="#0D4C92"/>
<rect x="1212.99" y="57.1689" width="9.65692" height="10.0445" rx="1" fill="#0D4C92"/>
</svg>
