<svg width="63" height="64" viewBox="0 0 63 64" fill="none" xmlns="http://www.w3.org/2000/svg">
<g clip-path="url(#clip0_521_164)">
<path d="M39.6321 39.203C39.6303 40.0363 39.2992 40.8352 38.7111 41.4256C38.123 42.0159 37.3254 42.35 36.4921 42.355C35.6585 42.3498 34.8607 42.0157 34.272 41.4255C33.6832 40.8353 33.3512 40.0366 33.3481 39.203V38.845H31.7561V39.203C31.7564 40.4601 32.2552 41.6657 33.1433 42.5555C34.0313 43.4452 35.236 43.9464 36.4931 43.949C39.1011 43.949 41.2221 41.82 41.2221 39.203V38.845H39.6321V39.203ZM39.7311 28.774C39.9426 28.773 40.1451 28.6884 40.2946 28.5388C40.444 28.3891 40.5283 28.1865 40.5291 27.975V24.528C40.533 24.4222 40.5151 24.3167 40.4764 24.2181C40.4376 24.1195 40.379 24.0299 40.3041 23.955C40.2292 23.8801 40.1397 23.8215 40.0411 23.7828C39.9425 23.7441 39.837 23.7261 39.7311 23.73C39.5195 23.7305 39.3168 23.8148 39.1671 23.9643C39.0174 24.1138 38.9329 24.3164 38.9321 24.528V27.975C38.9321 28.388 39.3191 28.774 39.7311 28.774Z" fill="#0D4C92"/>
<path d="M55.1251 0.625977H8.7651C4.2221 0.625977 0.5271 4.32298 0.5271 8.86598V55.222C0.5271 59.767 4.2221 63.462 8.7651 63.462H55.1251C59.6681 63.462 63.3631 59.767 63.3631 55.222V8.86598C63.3631 4.32298 59.6681 0.625977 55.1251 0.625977ZM7.3671 12.454C10.6451 15.408 15.3681 13.044 16.2951 12.529C18.6751 11.208 20.9981 10.872 23.2041 11.529C25.8261 12.308 27.5321 14.309 28.3251 15.448C28.4771 15.429 28.6281 15.412 28.7781 15.412C30.1441 15.412 31.4931 16.2 33.3621 17.287C33.8661 17.582 34.4071 17.896 34.9951 18.225C35.3791 18.436 35.8221 19.144 35.7481 19.561V19.578L35.7341 19.67C35.6921 20.248 35.3251 20.628 34.6211 20.833L25.4511 23.431C25.4441 23.433 24.7521 23.661 24.1841 23.661C24.07 23.6671 23.9558 23.6522 23.8471 23.617C23.2741 23.372 22.9401 22.952 22.8411 22.407C22.8171 22.282 22.7931 22.158 22.7971 22.018C22.8361 19.875 23.8551 17.903 25.5091 16.666C24.8631 15.865 23.7861 14.81 22.3341 14.385C20.9331 13.974 19.3891 14.228 17.7441 15.14C16.6671 15.738 11.7631 18.177 7.3681 16.031L7.3671 12.454ZM40.8071 52.888C38.4276 52.8894 36.0789 52.3497 33.9387 51.3095C31.7986 50.2693 29.9231 48.756 28.4541 46.884H17.4801C15.1531 50.123 11.5191 52.361 7.3461 52.804V24.228C11.5051 24.668 15.1271 26.892 17.4581 30.114L19.9261 30.116L19.9241 27.656C19.9253 26.2335 20.4193 24.8553 21.3221 23.756C21.6941 24.463 22.3091 25.028 23.1491 25.387C23.4511 25.506 23.7901 25.564 24.1851 25.564C24.9251 25.564 25.6781 25.354 25.9821 25.259L35.1541 22.661C36.8471 22.168 37.3871 21.04 37.5601 20.28L40.5361 21.46C40.5361 21.46 43.9591 21.804 45.2711 22.108C51.1671 23.475 56.5231 30.043 56.5231 37.175C56.5201 45.855 49.4871 52.886 40.8071 52.888Z" fill="#0D4C92"/>
</g>
<defs>
<clipPath id="clip0_521_164">
<rect width="63" height="64" fill="white"/>
</clipPath>
</defs>
</svg>
