<svg width="30" height="34" viewBox="0 0 30 34" fill="none" xmlns="http://www.w3.org/2000/svg">
<g clip-path="url(#clip0_199_2790)">
<path fill-rule="evenodd" clip-rule="evenodd" d="M19.884 5.51933C21.0291 4.0885 21.8977 2.06479 21.5838 0C19.7113 0.126083 17.5228 1.28562 16.246 2.7965C15.0825 4.16642 14.1255 6.20358 14.4994 8.18054C16.546 8.24287 18.6584 7.055 19.884 5.51933ZM29.9999 24.9454C29.1804 26.7127 28.7867 27.5025 27.7316 29.0679C26.2594 31.2531 24.1843 33.9738 21.6101 33.9936C19.3257 34.0177 18.736 32.5444 15.6343 32.5628C12.5325 32.5784 11.8864 34.022 9.59767 34C7.02498 33.978 5.05889 31.523 3.58669 29.3377C-0.530626 23.2319 -0.964529 16.065 1.5745 12.2527C3.38181 9.54621 6.23108 7.96237 8.90767 7.96237C11.6318 7.96237 13.3455 9.418 15.6021 9.418C17.7899 9.418 19.1216 7.95883 22.273 7.95883C24.6584 7.95883 27.1857 9.22392 28.9835 11.407C23.0882 14.5541 24.043 22.7524 29.9999 24.9454Z" fill="#0B0B0A"/>
</g>
<defs>
<clipPath id="clip0_199_2790">
<rect width="30" height="34" fill="white"/>
</clipPath>
</defs>
</svg>
