<svg width="15" height="17" viewBox="0 0 15 17" fill="none" xmlns="http://www.w3.org/2000/svg">
<path d="M2 16.25C2 16.6642 2.33579 17 2.75 17H9C10.9786 17 12.5041 16.1773 13.5198 14.9258C14.5207 13.6926 15 12.0799 15 10.5C15 8.9201 14.5207 7.3074 13.5198 6.07425C12.5041 4.82266 10.9786 4 9 4H2.56066L5.0303 1.53033C5.3232 1.23744 5.3232 0.762558 5.0303 0.469668C4.73744 0.176777 4.26256 0.176777 3.96967 0.469668L0.219668 4.21967C-0.0732225 4.51256 -0.0732225 4.98744 0.219668 5.28033L3.96967 9.0303C4.26256 9.3232 4.73744 9.3232 5.0303 9.0303C5.3232 8.7374 5.3232 8.2626 5.0303 7.9697L2.56066 5.5H9C10.5214 5.5 11.6209 6.11484 12.3552 7.0195C13.1043 7.9426 13.5 9.2049 13.5 10.5C13.5 11.7951 13.1043 13.0574 12.3552 13.9805C11.6209 14.8852 10.5214 15.5 9 15.5H2.75C2.33579 15.5 2 15.8358 2 16.25Z" fill="#212121"/>
</svg>
