<svg width="25" height="25" viewBox="0 0 25 25" fill="none" xmlns="http://www.w3.org/2000/svg">
<path fill-rule="evenodd" clip-rule="evenodd" d="M19.505 4.49413H18.5043V2.49268H16.5029V4.49413H8.49704V2.49268H6.49559V4.49413H5.49486C4.38405 4.49413 3.49341 5.39478 3.49341 6.49558V20.5058C3.49341 21.6066 4.38405 22.5072 5.49486 22.5072H19.505C20.6058 22.5072 21.5065 21.6066 21.5065 20.5058V6.49558C21.5065 5.39478 20.6058 4.49413 19.505 4.49413ZM19.505 20.5058H5.49486V9.49776H19.505V20.5058ZM6.99595 13.5007C6.99595 12.1197 8.11677 10.9989 9.49777 10.9989C10.8788 10.9989 11.9996 12.1197 11.9996 13.5007C11.9996 14.8817 10.8788 16.0025 9.49777 16.0025C8.11677 16.0025 6.99595 14.8817 6.99595 13.5007Z" fill="#0D4C92"/>
</svg>
