<svg width="28" height="28" viewBox="0 0 28 28" fill="none" xmlns="http://www.w3.org/2000/svg">
<path d="M8.48133 11.6776C7.49695 10.467 6.57255 10.2072 5.70813 10.8979C4.41153 11.9341 4.03915 15.5457 5.08256 18.7301C6.126 21.9145 8.1549 26.251 12.2508 26.251C16.3466 26.251 17.3155 21.888 18.9865 19.2501C20.6574 16.6122 21.5415 14.0673 19.9036 10.8979" stroke="#0D4C92" stroke-width="2" stroke-linecap="round" stroke-linejoin="round"/>
<path d="M6.41658 10.5216C5.42321 9.00836 4.64543 7.83457 4.08323 7.00017C3.23993 5.7486 5.39637 4.13102 6.41658 5.23144C7.09669 5.96505 8.00022 7.04556 9.1271 8.47297" stroke="#0D4C92" stroke-width="2" stroke-linecap="round"/>
<path d="M8.7636 14.9565C8.48098 11.4193 8.71093 9.11616 9.45345 8.04697C10.5672 6.44327 12.6366 5.83521 14.5852 5.83521C15.7454 5.83521 16.8049 6.32935 17.7638 7.31763" stroke="#0D4C92" stroke-width="2" stroke-linecap="round" stroke-linejoin="round"/>
<path d="M23.9168 7.35751C24.2583 8.54541 23.7004 9.63071 21.9825 9.87647C20.2645 10.1223 18.9765 10.9861 18.0475 11.7129C17.1186 12.4395 15.4573 14.6444 15.1293 15.7514C14.8013 16.8584 12.9267 15.8403 12.4232 15.3984C11.9197 14.9564 11.4248 13.9887 12.4232 12.9767C13.4216 11.9647 13.2056 11.7627 13.2056 10.7364C13.2056 9.71016 18.6668 6.31539 21.7424 6.00494C22.4261 5.96504 23.5752 6.16961 23.9168 7.35751Z" stroke="#0D4C92" stroke-width="2"/>
<path d="M13.4211 2.33347V5.40337" stroke="#0D4C92" stroke-width="2" stroke-linecap="round"/>
<path d="M11.8454 6.2521C10.085 4.03983 8.66557 2.80512 7.58716 2.54794" stroke="#0D4C92" stroke-width="2" stroke-linecap="round"/>
<path d="M9.91895 4.10026L10.4967 1.72763" stroke="#0D4C92" stroke-width="2" stroke-linecap="round"/>
<path d="M20.7741 6.25186C20.5861 6.89615 20.5861 7.50025 20.7741 8.0641C20.962 8.62801 21.3648 9.23211 21.9824 9.8764" stroke="#0D4C92" stroke-width="2" stroke-linecap="round"/>
</svg>
