<svg width="24" height="24" viewBox="0 0 24 24" fill="none" xmlns="http://www.w3.org/2000/svg">
<path d="M12.0549 0.342407C18.5233 0.342407 23.7672 5.58619 23.7672 12.0547C23.7672 18.5232 18.5233 23.7671 12.0549 23.7671C10.1595 23.7671 8.32778 23.3157 6.68225 22.4646L2.20132 23.7147C1.42255 23.9322 0.614935 23.4772 0.397472 22.6984C0.3255 22.4408 0.325535 22.1682 0.397519 21.9108L1.648 17.4333C0.795058 15.7863 0.342529 13.9525 0.342529 12.0547C0.342529 5.58619 5.58631 0.342407 12.0549 0.342407ZM12.0549 2.09926C6.5566 2.09926 2.09938 6.55647 2.09938 12.0547C2.09938 13.776 2.53598 15.4319 3.35615 16.9007L3.53259 17.2166L2.22934 21.883L6.89856 20.5804L7.21426 20.7564C8.68178 21.5746 10.3357 22.0102 12.0549 22.0102C17.5531 22.0102 22.0103 17.553 22.0103 12.0547C22.0103 6.55647 17.5531 2.09926 12.0549 2.09926ZM8.24835 13.226H13.5169C14.002 13.226 14.3953 13.6193 14.3953 14.1044C14.3953 14.5491 14.0648 14.9166 13.636 14.9748L13.5169 14.9828H8.24835C7.76321 14.9828 7.36993 14.5895 7.36993 14.1044C7.36993 13.6597 7.70039 13.2921 8.12915 13.2339L8.24835 13.226ZM8.24835 9.12665H15.8666C16.3518 9.12665 16.7451 9.51994 16.7451 10.0051C16.7451 10.4498 16.4145 10.8173 15.9859 10.8755L15.8666 10.8835H8.24835C7.76321 10.8835 7.36993 10.4902 7.36993 10.0051C7.36993 9.56036 7.70039 9.19284 8.12915 9.13467L8.24835 9.12665Z" fill="#0D4C92"/>
</svg>
