<svg width="30" height="30" viewBox="0 0 30 30" fill="none" xmlns="http://www.w3.org/2000/svg">
<g clip-path="url(#clip0_199_2770)">
<path fill-rule="evenodd" clip-rule="evenodd" d="M3.62183 5.2256C10.595 -2.89003 23.525 -1.28753 28.3581 8.19185C24.9556 8.1931 19.6275 8.19122 16.7418 8.19185C14.6487 8.19247 13.2981 8.14497 11.8343 8.9156C10.1137 9.82122 8.81558 11.5 8.36245 13.4718L3.62183 5.22497V5.2256Z" fill="#EA4335"/>
<path fill-rule="evenodd" clip-rule="evenodd" d="M10.0094 15C10.0094 17.75 12.2463 19.9875 14.995 19.9875C17.7438 19.9875 19.98 17.75 19.98 15C19.98 12.2494 17.7438 10.0112 14.995 10.0112C12.2463 10.0112 10.0094 12.2494 10.0094 15Z" fill="#4285F4"/>
<path fill-rule="evenodd" clip-rule="evenodd" d="M16.93 21.5288C14.1318 22.36 10.8568 21.4382 9.0631 18.3413C6.84773 14.5009 4.63752 10.6576 2.43247 6.81128C-3.32628 15.6375 1.63748 27.665 12.0912 29.7188L16.93 21.5288Z" fill="#34A853"/>
<path fill-rule="evenodd" clip-rule="evenodd" d="M19.6257 10.0112C21.9569 12.1787 22.4644 15.6887 20.8857 18.4106C19.6963 20.4606 15.9 26.8675 14.0607 29.97C24.8313 30.6344 32.6838 20.0775 29.1375 10.0112H19.6257Z" fill="#FBBC05"/>
</g>
<defs>
<clipPath id="clip0_199_2770">
<rect width="30" height="30" fill="white"/>
</clipPath>
</defs>
</svg>
