<svg width="28" height="28" viewBox="0 0 28 28" fill="none" xmlns="http://www.w3.org/2000/svg">
<path d="M7.65163 2.91666H8.16847C10.8903 3.31916 11.6282 4.86382 14.0001 4.86382C16.3719 4.86382 17.1098 3.31916 19.8322 2.91666H20.1251C20.8528 2.91666 21.5734 3.06 22.2458 3.33849C22.9181 3.61699 23.529 4.02518 24.0436 4.53977C24.5582 5.05436 24.9664 5.66527 25.2449 6.33762C25.5234 7.00997 25.6667 7.73058 25.6667 8.45832V8.82349C25.6667 10.5169 23.8642 12.4501 23.3334 14.2817C22.7705 16.2266 22.3849 17.8167 22.2717 19.4798C22.0063 23.3771 20.6775 25.0833 19.2501 25.0833C17.1186 25.0833 15.2262 16.3479 14.0368 16.3479C12.8468 16.3479 10.4872 25.0833 8.75005 25.0833C7.69013 25.0833 6.31755 24.4562 5.80189 19.4798C5.59655 17.5 5.25005 16.2989 4.66672 14.2817C4.15339 12.5084 2.42205 10.3897 2.33339 8.48807C2.29994 7.76886 2.41271 7.05034 2.66489 6.37597C2.91707 5.70159 3.30341 5.08536 3.80054 4.56456C4.29768 4.04376 4.89528 3.6292 5.55721 3.34596C6.21915 3.06271 6.93165 2.91667 7.65163 2.91666Z" stroke="#0D4C92" stroke-width="2" stroke-linecap="round" stroke-linejoin="round"/>
<path d="M9.03125 7.27008L18.6673 10.3769M9.03125 10.3769L18.6673 7.27008" stroke="#0D4C92" stroke-width="2" stroke-linecap="round" stroke-linejoin="round"/>
</svg>
