<svg width="28" height="22" viewBox="0 0 28 22" fill="none" xmlns="http://www.w3.org/2000/svg">
<path d="M0.666748 21.625V11.5C0.666748 10.8813 0.928081 10.3518 1.45075 9.91151C1.97341 9.47126 2.60097 9.25076 3.33341 9.25001H10.0001V11.5C10.0001 12.4375 10.389 13.2344 11.1667 13.8906C11.9445 14.5469 12.889 14.875 14.0001 14.875C15.1112 14.875 16.0556 14.5469 16.8334 13.8906C17.6112 13.2344 18.0001 12.4375 18.0001 11.5V9.25001H24.6667C25.4001 9.25001 26.0281 9.47051 26.5507 9.91151C27.0734 10.3525 27.3343 10.882 27.3334 11.5V21.625H0.666748ZM3.33341 19.375H24.6667V11.5H20.6667C20.6667 13.0563 20.0165 14.383 18.7161 15.4803C17.4156 16.5775 15.8436 17.1258 14.0001 17.125C12.1556 17.125 10.5836 16.5764 9.28408 15.4791C7.98453 14.3819 7.3343 13.0555 7.33341 11.5H3.33341V19.375ZM14.0001 12.625C13.6223 12.625 13.3059 12.517 13.0507 12.301C12.7956 12.085 12.6676 11.818 12.6667 11.5C12.6667 9.45626 12.9445 7.44064 13.5001 5.45314C14.0556 3.46564 15.2667 1.82501 17.1334 0.531262C17.4223 0.325012 17.7445 0.235762 18.1001 0.263512C18.4556 0.291262 18.7556 0.427387 19.0001 0.671887C19.2445 0.915637 19.3503 1.18751 19.3174 1.48751C19.2845 1.78751 19.1232 2.04064 18.8334 2.24689C17.2779 3.35314 16.3059 4.74064 15.9174 6.40939C15.529 8.07814 15.3343 9.77501 15.3334 11.5C15.3334 11.8188 15.2054 12.0861 14.9494 12.3021C14.6934 12.5181 14.377 12.6258 14.0001 12.625ZM5.66675 15.4375C5.95564 15.4375 6.19475 15.3576 6.38408 15.1979C6.57342 15.0381 6.66764 14.8368 6.66675 14.5938C6.66675 14.35 6.57208 14.1486 6.38275 13.9896C6.19342 13.8306 5.95475 13.7508 5.66675 13.75C5.37786 13.75 5.13919 13.8299 4.95075 13.9896C4.7623 14.1494 4.66764 14.3508 4.66675 14.5938C4.66675 14.8375 4.76141 15.0393 4.95075 15.199C5.14008 15.3588 5.37875 15.4383 5.66675 15.4375ZM7.00008 18.25C7.28897 18.25 7.52808 18.1701 7.71742 18.0104C7.90675 17.8506 8.00097 17.6493 8.00008 17.4063C8.00008 17.1625 7.90542 16.9611 7.71608 16.8021C7.52675 16.6431 7.28808 16.5633 7.00008 16.5625C6.71119 16.5625 6.47253 16.6424 6.28408 16.8021C6.09564 16.9619 6.00097 17.1633 6.00008 17.4063C6.00008 17.65 6.09475 17.8518 6.28408 18.0115C6.47341 18.1713 6.71208 18.2508 7.00008 18.25ZM22.3334 15.4375C22.6223 15.4375 22.8614 15.3576 23.0507 15.1979C23.2401 15.0381 23.3343 14.8368 23.3334 14.5938C23.3334 14.35 23.2387 14.1486 23.0494 13.9896C22.8601 13.8306 22.6214 13.7508 22.3334 13.75C22.0445 13.75 21.8059 13.8299 21.6174 13.9896C21.429 14.1494 21.3343 14.3508 21.3334 14.5938C21.3334 14.8375 21.4281 15.0393 21.6174 15.199C21.8067 15.3588 22.0454 15.4383 22.3334 15.4375Z" fill="#0D4C92"/>
</svg>
