<svg width="23" height="23" viewBox="0 0 23 23" fill="none" xmlns="http://www.w3.org/2000/svg">
<mask id="path-1-inside-1_522_133" fill="white">
<path d="M1.03244 23C0.739408 23 0.494074 22.8982 0.296445 22.6947C0.098815 22.4912 0 22.2385 0 21.9368V13.2913C0 12.6966 0.202315 12.1921 0.606944 11.7781C1.01072 11.364 1.49628 11.157 2.06361 11.157H7.32294C7.45328 11.157 7.57978 11.1855 7.70244 11.2425C7.82426 11.3004 7.92733 11.3728 8.01167 11.4596C8.09685 11.5465 8.16713 11.6526 8.2225 11.7781C8.27787 11.9044 8.30556 12.0347 8.30556 12.1689V12.4729C8.30556 13.387 8.61606 14.1633 9.23706 14.802C9.8572 15.4424 10.6107 15.7626 11.4974 15.7626C12.3834 15.7626 13.1377 15.4424 13.7604 14.802C14.3831 14.1633 14.6944 13.387 14.6944 12.4729V12.1702C14.6944 12.0351 14.7221 11.9044 14.7775 11.7781C14.8337 11.6526 14.904 11.5465 14.9883 11.4596C15.0727 11.3719 15.1757 11.2995 15.2976 11.2425C15.4202 11.1855 15.5467 11.157 15.6771 11.157H20.9364C21.5037 11.157 21.9893 11.3653 22.3931 11.782C22.7977 12.1978 23 12.6979 23 13.2821V21.9354C23 22.2425 22.9012 22.4969 22.7036 22.6987C22.5059 22.8996 22.2606 23 21.9676 23H1.03244ZM1.27778 21.6841H21.7222V13.2821C21.7222 13.0461 21.6485 12.8523 21.5012 12.7005C21.3538 12.5487 21.1655 12.4729 20.9364 12.4729H15.9722C15.9722 13.7537 15.5361 14.8415 14.6638 15.7363C13.7915 16.6311 12.7369 17.0785 11.5 17.0785C10.2623 17.0785 9.20767 16.6293 8.33622 15.731C7.46393 14.8327 7.02778 13.7466 7.02778 12.4729H2.06361C1.83446 12.4729 1.6462 12.5487 1.49883 12.7005C1.35146 12.8523 1.27778 13.0461 1.27778 13.2821V21.6841ZM11.5 13.1308C11.3186 13.1308 11.1665 13.0676 11.0438 12.9413C10.922 12.8159 10.8611 12.6597 10.8611 12.4729C10.8611 10.192 11.115 7.94179 11.6227 5.72232C12.1304 3.50284 13.2216 1.64524 14.8963 0.149509C15.0411 0.0424835 15.1983 -0.00708172 15.3678 0.000813645C15.5365 0.00870901 15.6805 0.0832761 15.7997 0.224515C15.919 0.366632 15.9714 0.528926 15.9569 0.711396C15.9407 0.892989 15.8598 1.03686 15.7141 1.14301C14.1578 2.50452 13.173 4.20597 12.7599 6.24736C12.3459 8.28787 12.1389 10.363 12.1389 12.4729C12.1389 12.6597 12.0776 12.8159 11.9549 12.9413C11.8322 13.0676 11.6802 13.1308 11.4987 13.1308M3.50878 16.9772C3.75581 16.9772 3.96196 16.8938 4.12722 16.7271C4.29163 16.5605 4.37383 16.3499 4.37383 16.0955C4.37383 15.8411 4.29291 15.6292 4.13106 15.4599C3.9692 15.2906 3.76476 15.206 3.51772 15.206C3.27068 15.206 3.06496 15.2893 2.90056 15.456C2.73615 15.6227 2.65394 15.8332 2.65394 16.0876C2.65394 16.342 2.73487 16.5539 2.89672 16.7232C3.05857 16.8925 3.26302 16.9772 3.51006 16.9772M4.78783 20.2669C5.03487 20.2669 5.24059 20.1835 5.405 20.0169C5.56941 19.8502 5.65161 19.6396 5.65161 19.3852C5.65161 19.1308 5.57068 18.919 5.40883 18.7497C5.24698 18.5804 5.04254 18.4957 4.7955 18.4957C4.54846 18.4957 4.34274 18.579 4.17833 18.7457C4.01393 18.9124 3.93172 19.1229 3.93172 19.3773C3.93172 19.6318 4.01265 19.8436 4.1745 20.0129C4.33635 20.1822 4.5408 20.2669 4.78783 20.2669ZM19.4823 16.9772C19.7293 16.9772 19.935 16.8938 20.0994 16.7271C20.2639 16.5605 20.3461 16.3499 20.3461 16.0955C20.3461 15.8411 20.2651 15.6292 20.1033 15.4599C19.9414 15.2906 19.737 15.206 19.4899 15.206C19.2429 15.206 19.0372 15.2893 18.8728 15.456C18.7084 15.6227 18.6262 15.8332 18.6262 16.0876C18.6262 16.342 18.7071 16.5539 18.8689 16.7232C19.0308 16.8925 19.2352 16.9772 19.4823 16.9772Z"/>
</mask>
<path d="M1.03244 23C0.739408 23 0.494074 22.8982 0.296445 22.6947C0.098815 22.4912 0 22.2385 0 21.9368V13.2913C0 12.6966 0.202315 12.1921 0.606944 11.7781C1.01072 11.364 1.49628 11.157 2.06361 11.157H7.32294C7.45328 11.157 7.57978 11.1855 7.70244 11.2425C7.82426 11.3004 7.92733 11.3728 8.01167 11.4596C8.09685 11.5465 8.16713 11.6526 8.2225 11.7781C8.27787 11.9044 8.30556 12.0347 8.30556 12.1689V12.4729C8.30556 13.387 8.61606 14.1633 9.23706 14.802C9.8572 15.4424 10.6107 15.7626 11.4974 15.7626C12.3834 15.7626 13.1377 15.4424 13.7604 14.802C14.3831 14.1633 14.6944 13.387 14.6944 12.4729V12.1702C14.6944 12.0351 14.7221 11.9044 14.7775 11.7781C14.8337 11.6526 14.904 11.5465 14.9883 11.4596C15.0727 11.3719 15.1757 11.2995 15.2976 11.2425C15.4202 11.1855 15.5467 11.157 15.6771 11.157H20.9364C21.5037 11.157 21.9893 11.3653 22.3931 11.782C22.7977 12.1978 23 12.6979 23 13.2821V21.9354C23 22.2425 22.9012 22.4969 22.7036 22.6987C22.5059 22.8996 22.2606 23 21.9676 23H1.03244ZM1.27778 21.6841H21.7222V13.2821C21.7222 13.0461 21.6485 12.8523 21.5012 12.7005C21.3538 12.5487 21.1655 12.4729 20.9364 12.4729H15.9722C15.9722 13.7537 15.5361 14.8415 14.6638 15.7363C13.7915 16.6311 12.7369 17.0785 11.5 17.0785C10.2623 17.0785 9.20767 16.6293 8.33622 15.731C7.46393 14.8327 7.02778 13.7466 7.02778 12.4729H2.06361C1.83446 12.4729 1.6462 12.5487 1.49883 12.7005C1.35146 12.8523 1.27778 13.0461 1.27778 13.2821V21.6841ZM11.5 13.1308C11.3186 13.1308 11.1665 13.0676 11.0438 12.9413C10.922 12.8159 10.8611 12.6597 10.8611 12.4729C10.8611 10.192 11.115 7.94179 11.6227 5.72232C12.1304 3.50284 13.2216 1.64524 14.8963 0.149509C15.0411 0.0424835 15.1983 -0.00708172 15.3678 0.000813645C15.5365 0.00870901 15.6805 0.0832761 15.7997 0.224515C15.919 0.366632 15.9714 0.528926 15.9569 0.711396C15.9407 0.892989 15.8598 1.03686 15.7141 1.14301C14.1578 2.50452 13.173 4.20597 12.7599 6.24736C12.3459 8.28787 12.1389 10.363 12.1389 12.4729C12.1389 12.6597 12.0776 12.8159 11.9549 12.9413C11.8322 13.0676 11.6802 13.1308 11.4987 13.1308M3.50878 16.9772C3.75581 16.9772 3.96196 16.8938 4.12722 16.7271C4.29163 16.5605 4.37383 16.3499 4.37383 16.0955C4.37383 15.8411 4.29291 15.6292 4.13106 15.4599C3.9692 15.2906 3.76476 15.206 3.51772 15.206C3.27068 15.206 3.06496 15.2893 2.90056 15.456C2.73615 15.6227 2.65394 15.8332 2.65394 16.0876C2.65394 16.342 2.73487 16.5539 2.89672 16.7232C3.05857 16.8925 3.26302 16.9772 3.51006 16.9772M4.78783 20.2669C5.03487 20.2669 5.24059 20.1835 5.405 20.0169C5.56941 19.8502 5.65161 19.6396 5.65161 19.3852C5.65161 19.1308 5.57068 18.919 5.40883 18.7497C5.24698 18.5804 5.04254 18.4957 4.7955 18.4957C4.54846 18.4957 4.34274 18.579 4.17833 18.7457C4.01393 18.9124 3.93172 19.1229 3.93172 19.3773C3.93172 19.6318 4.01265 19.8436 4.1745 20.0129C4.33635 20.1822 4.5408 20.2669 4.78783 20.2669ZM19.4823 16.9772C19.7293 16.9772 19.935 16.8938 20.0994 16.7271C20.2639 16.5605 20.3461 16.3499 20.3461 16.0955C20.3461 15.8411 20.2651 15.6292 20.1033 15.4599C19.9414 15.2906 19.737 15.206 19.4899 15.206C19.2429 15.206 19.0372 15.2893 18.8728 15.456C18.7084 15.6227 18.6262 15.8332 18.6262 16.0876C18.6262 16.342 18.7071 16.5539 18.8689 16.7232C19.0308 16.8925 19.2352 16.9772 19.4823 16.9772Z" fill="#0D4C92"/>
<path d="M0.606944 11.7781L6.32864 17.3693L6.33452 17.3633L0.606944 11.7781ZM7.70244 11.2425L11.1367 4.01713L11.1058 4.00243L11.0747 3.98799L7.70244 11.2425ZM8.01167 11.4596L2.2723 17.0327L2.2863 17.0472L2.30037 17.0615L8.01167 11.4596ZM8.2225 11.7781L15.5496 8.5665L15.5454 8.55709L15.5413 8.5477L8.2225 11.7781ZM9.23706 14.802L14.9841 9.23674L14.9783 9.23083L14.9726 9.22493L9.23706 14.802ZM13.7604 14.802L8.03249 9.21707L8.02484 9.22494L13.7604 14.802ZM14.7775 11.7781L7.47714 8.50626L7.46366 8.53633L7.45043 8.5665L14.7775 11.7781ZM14.9883 11.4596L20.7277 17.0327L20.7417 17.0183L20.7556 17.0038L14.9883 11.4596ZM15.2976 11.2425L11.9253 3.98799L11.9156 3.9925L11.9059 3.99702L15.2976 11.2425ZM22.3931 11.782L16.6478 17.3491L16.6537 17.3551L16.6596 17.3612L22.3931 11.782ZM22.7036 22.6987L28.4065 28.309L28.4127 28.3028L28.4187 28.2966L22.7036 22.6987ZM1.27778 21.6841H-6.72222V29.6841H1.27778V21.6841ZM21.7222 21.6841V29.6841H29.7222V21.6841H21.7222ZM15.9722 12.4729V4.47285H7.97222V12.4729H15.9722ZM8.33622 15.731L14.0783 10.1607L14.0756 10.1579L8.33622 15.731ZM7.02778 12.4729H15.0278V4.47285H7.02778V12.4729ZM11.0438 12.9413L16.7832 7.36819L11.0438 12.9413ZM14.8963 0.149509L10.1415 -6.28413L9.84363 -6.06398L9.56736 -5.81723L14.8963 0.149509ZM15.3678 0.000813645L15.7419 -7.99044L15.74 -7.99052L15.3678 0.000813645ZM15.7997 0.224515L21.9279 -4.91802L21.92 -4.92737L21.9122 -4.93669L15.7997 0.224515ZM15.9569 0.711396L23.9253 1.42161L23.9287 1.38298L23.9318 1.34431L15.9569 0.711396ZM15.7141 1.14301L11.0027 -5.32246L10.7148 -5.11268L10.4467 -4.87814L15.7141 1.14301ZM12.7599 6.24736L20.6001 7.83807L20.6009 7.83427L12.7599 6.24736ZM11.9549 12.9413L6.23497 7.34823L6.22523 7.35819L6.21552 7.36819L11.9549 12.9413ZM4.12722 16.7271L9.80823 22.3597L9.81551 22.3524L9.82277 22.345L4.12722 16.7271ZM1.03244 15C1.82884 15 2.74897 15.1423 3.69379 15.5342C4.64408 15.9283 5.4285 16.4962 6.03581 17.1216L-5.44292 28.2678C-3.68397 30.0792 -1.34309 31 1.03244 31V15ZM6.03581 17.1216C6.64406 17.748 7.16854 18.5284 7.52454 19.4386C7.87693 20.3396 8 21.2024 8 21.9368H-8C-8 24.1731 -7.18921 26.4695 -5.44292 28.2678L6.03581 17.1216ZM8 21.9368V13.2913H-8V21.9368H8ZM8 13.2913C8 13.9176 7.88981 14.6645 7.57678 15.445C7.2621 16.2295 6.81159 16.8751 6.32863 17.3693L-5.11474 6.18679C-7.02391 8.14049 -8 10.6705 -8 13.2913H8ZM6.33452 17.3633C5.86969 17.84 5.23017 18.3222 4.41171 18.6712C3.59004 19.0216 2.77676 19.157 2.06361 19.157V3.15696C-0.707059 3.15696 -3.24411 4.26848 -5.12063 6.19282L6.33452 17.3633ZM2.06361 19.157H7.32294V3.15696H2.06361V19.157ZM7.32294 19.157C6.24384 19.157 5.22282 18.9119 4.33016 18.497L11.0747 3.98799C9.93673 3.45899 8.66271 3.15696 7.32294 3.15696V19.157ZM4.26819 18.4679C3.62713 18.1632 2.92325 17.7031 2.2723 17.0327L13.751 5.88649C12.9314 5.04243 12.0214 4.43762 11.1367 4.01713L4.26819 18.4679ZM2.30037 17.0615C1.63123 16.3793 1.18803 15.6526 0.903706 15.0084L15.5413 8.5477C15.1462 7.65263 14.5625 6.71364 13.723 5.85773L2.30037 17.0615ZM0.895434 14.9896C0.519564 14.1321 0.305556 13.171 0.305556 12.1689H16.3056C16.3056 10.8983 16.0362 9.67669 15.5496 8.5665L0.895434 14.9896ZM0.305556 12.1689V12.4729H16.3056V12.1689H0.305556ZM0.305556 12.4729C0.305556 15.4091 1.38662 18.204 3.50152 20.379L14.9726 9.22493C15.343 9.60581 15.7084 10.1249 15.9664 10.77C16.2229 11.4112 16.3056 12.0075 16.3056 12.4729H0.305556ZM3.49005 20.3672C5.60821 22.5546 8.43147 23.7626 11.4974 23.7626V7.76259C12.039 7.76259 12.7035 7.86534 13.3962 8.15971C14.088 8.4537 14.617 8.85766 14.9841 9.23674L3.49005 20.3672ZM11.4974 23.7626C14.564 23.7626 17.3811 22.554 19.4959 20.379L8.02484 9.22494C8.38846 8.85098 8.91359 8.45053 9.60167 8.15844C10.2911 7.86577 10.9543 7.76259 11.4974 7.76259V23.7626ZM19.4883 20.3869C21.6076 18.2133 22.6944 15.4159 22.6944 12.4729H6.69444C6.69444 12.0048 6.77788 11.406 7.03576 10.763C7.29513 10.1162 7.66202 9.59703 8.03249 9.21708L19.4883 20.3869ZM22.6944 12.4729V12.1702H6.69444V12.4729H22.6944ZM22.6944 12.1702C22.6944 13.1641 22.4835 14.1252 22.1046 14.9896L7.45043 8.5665C6.9608 9.68359 6.69444 10.9061 6.69444 12.1702H22.6944ZM22.0779 15.0499C21.8033 15.6625 21.3759 16.3652 20.7277 17.0327L9.24897 5.88649C8.43207 6.72775 7.86414 7.64274 7.47714 8.50626L22.0779 15.0499ZM20.7556 17.0038C20.0911 17.6951 19.3634 18.1724 18.6892 18.488L11.9059 3.99702C10.9881 4.42667 10.0542 5.0487 9.22105 5.91539L20.7556 17.0038ZM18.6698 18.497C17.7772 18.9119 16.7562 19.157 15.6771 19.157V3.15696C14.3373 3.15696 13.0633 3.45899 11.9253 3.98799L18.6698 18.497ZM15.6771 19.157H20.9364V3.15696H15.6771V19.157ZM20.9364 19.157C20.2164 19.157 19.3972 19.0193 18.5714 18.665C17.7495 18.3123 17.1102 17.8262 16.6478 17.3491L28.1383 6.21493C26.2662 4.28297 23.724 3.15696 20.9364 3.15696V19.157ZM16.6596 17.3612C16.1945 16.8832 15.7483 16.2504 15.4323 15.4694C15.1167 14.6894 15 13.9323 15 13.2821H31C31 10.6302 29.9958 8.12385 28.1265 6.20284L16.6596 17.3612ZM15 13.2821V21.9354H31V13.2821H15ZM15 21.9354C15 21.2213 15.1173 20.3646 15.4687 19.46C15.8249 18.5428 16.3567 17.7456 16.9884 17.1008L28.4187 28.2966C30.2154 26.4623 31 24.1351 31 21.9354H15ZM17.0006 17.0883C17.6131 16.4657 18.3977 15.907 19.3401 15.5212C20.2761 15.1379 21.1843 15 21.9676 15V31C24.3094 31 26.6393 30.1054 28.4065 28.309L17.0006 17.0883ZM21.9676 15H1.03244V31H21.9676V15ZM1.27778 29.6841H21.7222V13.6841H1.27778V29.6841ZM29.7222 21.6841V13.2821H13.7222V21.6841H29.7222ZM29.7222 13.2821C29.7222 11.227 29.0104 8.94999 27.2405 7.12738L15.7618 18.2736C15.0914 17.5832 14.5473 16.745 14.1889 15.8019C13.8365 14.8749 13.7222 14.0029 13.7222 13.2821H29.7222ZM27.2405 7.12738C25.4532 5.28669 23.1286 4.47285 20.9364 4.47285V20.4729C20.1576 20.4729 19.2299 20.3412 18.2586 19.9497C17.274 19.5528 16.4319 18.9637 15.7618 18.2736L27.2405 7.12738ZM20.9364 4.47285H15.9722V20.4729H20.9364V4.47285ZM7.97222 12.4729C7.97222 12.1884 8.02437 11.7593 8.21972 11.2721C8.41655 10.7812 8.6897 10.4039 8.93533 10.1519L20.3922 21.3206C22.761 18.8907 23.9722 15.782 23.9722 12.4729H7.97222ZM8.93533 10.1519C9.17264 9.90849 9.55833 9.60562 10.0942 9.37827C10.6318 9.1502 11.1314 9.07848 11.5 9.07848V25.0785C14.9189 25.0785 18.0317 23.742 20.3922 21.3206L8.93533 10.1519ZM11.5 9.07848C11.8716 9.07848 12.3747 9.15103 12.9155 9.38137C13.4545 9.61091 13.8413 9.91632 14.0783 10.1607L2.59414 21.3013C4.95326 23.7332 8.07128 25.0785 11.5 25.0785V9.07848ZM14.0756 10.1579C14.3129 10.4022 14.5826 10.7733 14.7786 11.2614C14.9736 11.747 15.0278 12.179 15.0278 12.4729H-0.972222C-0.972222 15.7875 0.247092 18.8843 2.59686 21.3041L14.0756 10.1579ZM7.02778 4.47285H2.06361V20.4729H7.02778V4.47285ZM2.06361 4.47285C-0.128556 4.47285 -2.45316 5.28669 -4.24053 7.12738L7.2382 18.2736C6.56808 18.9637 5.72595 19.5528 4.74137 19.9497C3.77014 20.3412 2.84244 20.4729 2.06361 20.4729V4.47285ZM-4.24053 7.12738C-6.01036 8.95 -6.72222 11.227 -6.72222 13.2821H9.27778C9.27778 14.0029 9.16348 14.8749 8.81115 15.8019C8.45273 16.745 7.90859 17.5832 7.2382 18.2736L-4.24053 7.12738ZM-6.72222 13.2821V21.6841H9.27778V13.2821H-6.72222ZM11.5 5.1308C12.3548 5.1308 13.3273 5.28361 14.3188 5.69547C15.3153 6.10944 16.1403 6.7061 16.7832 7.36819L5.30447 18.5144C6.98439 20.2445 9.23004 21.1308 11.5 21.1308V5.1308ZM16.7832 7.36819C17.4328 8.03721 17.9859 8.86412 18.3599 9.82303C18.7301 10.772 18.8611 11.6856 18.8611 12.4729H2.86111C2.86111 14.5833 3.62684 16.7868 5.30447 18.5144L16.7832 7.36819ZM18.8611 12.4729C18.8611 10.7912 19.0476 9.13945 19.4212 7.50624L3.8241 3.9384C3.18229 6.74413 2.86111 9.59274 2.86111 12.4729H18.8611ZM19.4212 7.50624C19.5647 6.87909 19.8058 6.49094 20.2253 6.11625L9.56736 -5.81723C6.63741 -3.20046 4.69605 0.126596 3.8241 3.9384L19.4212 7.50624ZM19.6511 6.58315C18.4142 7.49735 16.7807 8.07529 14.9956 7.99215L15.74 -7.99052C13.6159 -8.08946 11.6681 -7.41238 10.1415 -6.28413L19.6511 6.58315ZM14.9938 7.99206C13.9742 7.94434 12.9184 7.68198 11.9229 7.16631C10.9431 6.65884 10.2095 6.00418 9.68728 5.38572L21.9122 -4.93669C20.5086 -6.59895 18.358 -7.86798 15.7419 -7.99044L14.9938 7.99206ZM9.67157 5.36705C9.12625 4.71722 8.6331 3.89493 8.31529 2.91038C7.99678 1.9237 7.9125 0.953805 7.98196 0.078479L23.9318 1.34431C24.1149 -0.962636 23.3762 -3.19209 21.9279 -4.91802L9.67157 5.36705ZM7.98848 0.0011813C8.07042 -0.918243 8.3405 -1.95155 8.91141 -2.96653C9.48359 -3.98376 10.2343 -4.76254 11.0027 -5.32246L20.4256 7.60848C22.4606 6.12552 23.707 3.87116 23.9253 1.42161L7.98848 0.0011813ZM10.4467 -4.87814C7.55895 -2.35189 5.67747 0.912143 4.91886 4.66045L20.6009 7.83427C20.6686 7.4998 20.7566 7.36093 20.9815 7.16416L10.4467 -4.87814ZM4.91963 4.65665C4.39799 7.22769 4.13889 9.83594 4.13889 12.4729H20.1389C20.1389 10.8901 20.2938 9.34805 20.6001 7.83807L4.91963 4.65665ZM4.13889 12.4729C4.13889 11.679 4.27204 10.7592 4.64668 9.8054C5.02506 8.84204 5.58315 8.01484 6.23497 7.34823L17.6748 18.5344C19.3608 16.8101 20.1389 14.6003 20.1389 12.4729H4.13889ZM6.21552 7.36819C6.85843 6.7061 7.68338 6.10944 8.67994 5.69547C9.67145 5.28361 10.644 5.1308 11.4987 5.1308V21.1308C13.7687 21.1308 16.0143 20.2445 17.6943 18.5144L6.21552 7.36819ZM3.50878 24.9772C5.76473 24.9772 8.05519 24.1278 9.80823 22.3597L-1.55379 11.0945C-0.915678 10.4509 -0.107998 9.88521 0.850238 9.49782C1.80021 9.11377 2.71867 8.97716 3.50878 8.97716V24.9772ZM9.82277 22.345C11.5988 20.5444 12.3738 18.2522 12.3738 16.0955H-3.62617C-3.62617 15.3515 -3.50353 14.4658 -3.13995 13.5346C-2.77141 12.5907 -2.22163 11.7716 -1.56832 11.1092L9.82277 22.345ZM12.3738 16.0955C12.3738 13.976 11.6275 11.7246 9.91387 9.9319L-1.65176 20.988C-2.28198 20.3287 -2.80816 19.5221 -3.1602 18.6005C-3.50771 17.6907 -3.62617 16.8259 -3.62617 16.0955H12.3738ZM9.91387 9.9319C8.15273 8.0896 5.81529 7.20596 3.51772 7.20596V23.206C2.71318 23.206 1.77072 23.0646 0.795709 22.6608C-0.188535 22.2533 -1.01036 21.6589 -1.65176 20.988L9.91387 9.9319ZM3.51772 7.20596C1.26146 7.20596 -1.03733 8.05614 -2.79499 9.83809L8.5961 21.0739C7.9555 21.7233 7.1442 22.2933 6.18192 22.6831C5.2284 23.0694 4.30756 23.206 3.51772 23.206V7.20596ZM-2.79499 9.83809C-4.57103 11.6387 -5.34606 13.9309 -5.34606 16.0876H10.6539C10.6539 16.8316 10.5313 17.7173 10.1677 18.6485C9.79918 19.5924 9.2494 20.4115 8.5961 21.0739L-2.79499 9.83809ZM-5.34606 16.0876C-5.34606 18.2071 -4.59977 20.4585 -2.88609 22.2512L8.67954 11.1952C9.30976 11.8544 9.83594 12.661 10.188 13.5826C10.5355 14.4924 10.6539 15.3572 10.6539 16.0876H-5.34606ZM-2.88609 22.2512C-1.12496 24.0935 1.21249 24.9772 3.51006 24.9772V8.97716C4.3146 8.97716 5.25706 9.11855 6.23207 9.52228C7.21631 9.92983 8.03813 10.5242 8.67954 11.1952L-2.88609 22.2512ZM4.78783 28.2669C7.0441 28.2669 9.34289 27.4167 11.1005 25.6348L-0.290546 14.399C0.350054 13.7495 1.16136 13.1795 2.12364 12.7897C3.07716 12.4034 3.998 12.2669 4.78783 12.2669V28.2669ZM11.1005 25.6348C12.8766 23.8342 13.6516 21.5419 13.6516 19.3852H-2.34839C-2.34839 18.6413 -2.22575 17.7556 -1.86218 16.8244C-1.49363 15.8804 -0.943849 15.0613 -0.290546 14.399L11.1005 25.6348ZM13.6516 19.3852C13.6516 17.2657 12.9053 15.0143 11.1916 13.2216L-0.37398 24.2777C-1.0042 23.6184 -1.53038 22.8118 -1.88243 21.8902C-2.22993 20.9805 -2.34839 20.1156 -2.34839 19.3852H13.6516ZM11.1916 13.2216C9.43051 11.3793 7.09307 10.4957 4.7955 10.4957V26.4957C3.99096 26.4957 3.0485 26.3543 2.07349 25.9506C1.08924 25.543 0.267422 24.9487 -0.37398 24.2777L11.1916 13.2216ZM4.7955 10.4957C2.53923 10.4957 0.240443 11.3459 -1.51721 13.1278L9.87388 24.3636C9.23328 25.0131 8.42198 25.583 7.4597 25.9729C6.50617 26.3592 5.58534 26.4957 4.7955 26.4957V10.4957ZM-1.51721 13.1278C-3.29325 14.9284 -4.06828 17.2207 -4.06828 19.3773H11.9317C11.9317 20.1213 11.8091 21.007 11.4455 21.9382C11.077 22.8822 10.5272 23.7013 9.87388 24.3636L-1.51721 13.1278ZM-4.06828 19.3773C-4.06828 21.4969 -3.32199 23.7483 -1.60831 25.5409L9.95731 14.4849C10.5875 15.1442 11.1137 15.9507 11.4658 16.8724C11.8133 17.7821 11.9317 18.647 11.9317 19.3773H-4.06828ZM-1.60831 25.5409C0.152822 27.3833 2.49027 28.2669 4.78783 28.2669V12.2669C5.59238 12.2669 6.53484 12.4083 7.50985 12.812C8.49409 13.2196 9.31591 13.8139 9.95731 14.4849L-1.60831 25.5409ZM19.4823 24.9772C21.7385 24.9772 24.0373 24.127 25.795 22.345L14.4039 11.1092C15.0445 10.4598 15.8558 9.88981 16.8181 9.49998C17.7716 9.11369 18.6924 8.97716 19.4823 8.97716V24.9772ZM25.795 22.345C27.571 20.5445 28.3461 18.2522 28.3461 16.0955H12.3461C12.3461 15.3515 12.4687 14.4658 12.8323 13.5346C13.2008 12.5907 13.7506 11.7716 14.4039 11.1092L25.795 22.345ZM28.3461 16.0955C28.3461 13.976 27.5998 11.7246 25.8861 9.9319L14.3205 20.988C13.6902 20.3287 13.1641 19.5221 12.812 18.6005C12.4645 17.6907 12.3461 16.8259 12.3461 16.0955H28.3461ZM25.8861 9.9319C24.125 8.0896 21.7875 7.20596 19.4899 7.20596V23.206C18.6854 23.206 17.7429 23.0646 16.7679 22.6608C15.7837 22.2533 14.9619 21.6589 14.3205 20.988L25.8861 9.9319ZM19.4899 7.20596C17.2337 7.20596 14.9349 8.05614 13.1772 9.83809L24.5683 21.0739C23.9277 21.7233 23.1164 22.2933 22.1541 22.6831C21.2006 23.0694 20.2798 23.206 19.4899 23.206V7.20596ZM13.1772 9.83809C11.4012 11.6387 10.6262 13.9309 10.6262 16.0876H26.6262C26.6262 16.8316 26.5035 17.7173 26.1399 18.6485C25.7714 19.5924 25.2216 20.4116 24.5683 21.0739L13.1772 9.83809ZM10.6262 16.0876C10.6262 18.2071 11.3725 20.4586 13.0861 22.2512L24.6518 11.1952C25.282 11.8544 25.8082 12.661 26.1602 13.5826C26.5077 14.4924 26.6262 15.3572 26.6262 16.0876H10.6262ZM13.0861 22.2512C14.8473 24.0935 17.1847 24.9772 19.4823 24.9772V8.97716C20.2868 8.97716 21.2293 9.11855 22.2043 9.52228C23.1885 9.92984 24.0104 10.5242 24.6518 11.1952L13.0861 22.2512Z" fill="#0D4C92" mask="url(#path-1-inside-1_522_133)"/>
</svg>
