<svg width="26" height="26" viewBox="0 0 26 26" fill="none" xmlns="http://www.w3.org/2000/svg">
<path d="M22.3248 3.67527C20.869 2.21952 18.5088 2.21958 17.0531 3.67542L4.60516 16.1248C4.1819 16.5482 3.8844 17.0806 3.74575 17.6629L2.60451 22.4561C2.54168 22.7201 2.62025 22.9977 2.81208 23.1894C3.00393 23.3813 3.28155 23.4598 3.54547 23.397L8.33844 22.2559C8.92094 22.1171 9.45352 21.8195 9.87691 21.3961L22.3249 8.94663C23.7804 7.49091 23.7804 5.13089 22.3248 3.67527ZM18.158 4.7802C19.0035 3.93463 20.3744 3.93459 21.2199 4.78012C22.0653 5.62558 22.0654 6.99633 21.22 7.84184L20.2916 8.77043L17.2297 5.70862L18.158 4.7802ZM16.1249 6.81354L19.1868 9.87535L8.77199 20.2913C8.55308 20.5103 8.27771 20.6641 7.97653 20.7359L4.41857 21.583L5.26576 18.0248C5.33744 17.7237 5.49125 17.4485 5.71007 17.2296L16.1249 6.81354Z" fill="#0D4C92"/>
</svg>
