<svg width="22" height="22" viewBox="0 0 22 22" fill="none" xmlns="http://www.w3.org/2000/svg">
<path d="M11.0001 21.025C10.7334 21.025 10.4791 20.975 10.2371 20.875C9.9951 20.775 9.77443 20.6333 9.5751 20.45L1.5501 12.425C1.36676 12.225 1.2251 12.004 1.1251 11.762C1.0251 11.52 0.975098 11.266 0.975098 11C0.975098 10.7333 1.0251 10.475 1.1251 10.225C1.2251 9.97501 1.36676 9.75835 1.5501 9.57501L9.5751 1.55001C9.7751 1.35001 9.9961 1.20401 10.2381 1.11201C10.4801 1.02001 10.7341 0.974347 11.0001 0.975013C11.2668 0.975013 11.5251 1.02101 11.7751 1.11301C12.0251 1.20501 12.2418 1.35068 12.4251 1.55001L20.4501 9.57501C20.6501 9.75835 20.7961 9.97501 20.8881 10.225C20.9801 10.475 21.0258 10.7333 21.0251 11C21.0251 11.2667 20.9794 11.521 20.8881 11.763C20.7968 12.005 20.6508 12.2257 20.4501 12.425L12.4251 20.45C12.2418 20.6333 12.0251 20.775 11.7751 20.875C11.5251 20.975 11.2668 21.025 11.0001 21.025ZM11.0001 19.025L19.0251 11L11.0001 2.97501L2.9751 11L11.0001 19.025ZM10.0001 12H12.0001V6.00001H10.0001V12ZM11.0001 15C11.2834 15 11.5211 14.904 11.7131 14.712C11.9051 14.52 12.0008 14.2827 12.0001 14C12.0001 13.7167 11.9041 13.4793 11.7121 13.288C11.5201 13.0967 11.2828 13.0007 11.0001 13C10.7168 13 10.4794 13.096 10.2881 13.288C10.0968 13.48 10.0008 13.7173 10.0001 14C10.0001 14.2833 10.0961 14.521 10.2881 14.713C10.4801 14.905 10.7174 15.0007 11.0001 15Z" fill="#0D4C92"/>
</svg>
