<svg width="22" height="20" viewBox="0 0 22 20" fill="none" xmlns="http://www.w3.org/2000/svg">
<path d="M9.00005 16C9.28338 16 9.52105 15.904 9.71305 15.712C9.90505 15.52 10.0007 15.2827 10 15C10 14.25 9.82105 13.5627 9.46305 12.938C9.10505 12.3133 8.61738 11.8173 8.00005 11.45V15C8.00005 15.2833 8.09605 15.521 8.28805 15.713C8.48005 15.905 8.71738 16.0007 9.00005 16ZM13 16C13.2834 16 13.521 15.904 13.713 15.712C13.905 15.52 14.0007 15.2827 14 15V11.45C13.3834 11.8167 12.8957 12.3127 12.537 12.938C12.1784 13.5633 11.9994 14.2507 12 15C12 15.2833 12.096 15.521 12.288 15.713C12.48 15.905 12.7174 16.0007 13 16ZM1.30005 19.95L0.675049 18.05C1.37505 17.8167 1.93772 17.4083 2.36305 16.825C2.78838 16.2417 3.00072 15.5833 3.00005 14.85V4.40001C2.60005 3.96667 2.23738 3.50001 1.91205 3.00001C1.58672 2.50001 1.30772 1.96667 1.07505 1.40001L2.92505 0.600006C3.62505 2.23334 4.70438 3.54167 6.16305 4.52501C7.62172 5.50834 9.23405 6.00001 11 6.00001C12.7667 6.00001 14.3794 5.50834 15.838 4.52501C17.2967 3.54167 18.3757 2.23334 19.0751 0.600006L20.925 1.40001C20.6917 1.96667 20.4084 2.50001 20.0751 3.00001C19.7417 3.50001 19.3834 3.96667 19 4.40001V14.85C19 15.5833 19.2084 16.2417 19.625 16.825C20.0417 17.4083 20.6 17.8167 21.3 18.05L20.675 19.95C19.575 19.5833 18.6877 18.9333 18.0131 18C17.3384 17.0667 17.0007 16.0167 17 14.85V6.15001C16.1167 6.73334 15.1707 7.18767 14.162 7.51301C13.1534 7.83834 12.0994 8.00067 11 8.00001C9.90005 8.00001 8.84172 7.83734 7.82505 7.51201C6.80838 7.18667 5.86672 6.73267 5.00005 6.15001V14.85C5.00005 16.0167 4.65838 17.0667 3.97505 18C3.29172 18.9333 2.40005 19.5833 1.30005 19.95ZM9.00005 18C8.16672 18 7.45838 17.7083 6.87505 17.125C6.29172 16.5417 6.00005 15.8333 6.00005 15V8.72501L7.35005 9.05001C8.11672 9.23334 8.81272 9.55434 9.43805 10.013C10.0634 10.4717 10.584 11.0173 11 11.65C11.4167 11.0167 11.9377 10.4707 12.563 10.012C13.1884 9.55334 13.884 9.23267 14.65 9.05001L16 8.72501V15C16 15.8333 15.7084 16.5417 15.125 17.125C14.5417 17.7083 13.8334 18 13 18C12.6167 18 12.254 17.929 11.912 17.787C11.57 17.645 11.266 17.458 11 17.226C10.7334 17.4593 10.429 17.647 10.087 17.789C9.74505 17.931 9.38272 18.0013 9.00005 18Z" fill="#0D4C92"/>
</svg>
