<svg width="18" height="20" viewBox="0 0 18 20" fill="none" xmlns="http://www.w3.org/2000/svg">
<path d="M0 20V14C0 13.1667 0.291667 12.4583 0.875 11.875C1.45833 11.2917 2.16667 11 3 11H5C5.83333 11 6.54167 10.7083 7.125 10.125C7.70833 9.54167 8 8.83333 8 8C8 7.71667 7.904 7.47933 7.712 7.288C7.52 7.09667 7.28267 7.00067 7 7C6.45 7 5.97933 6.80433 5.588 6.413C5.19667 6.02167 5.00067 5.55067 5 5V0H7V5C7.83333 5 8.54167 5.29167 9.125 5.875C9.70833 6.45833 10 7.16667 10 8C10 9.38333 9.51233 10.5627 8.537 11.538C7.56167 12.5133 6.38267 13.0007 5 13H3C2.71667 13 2.47933 13.096 2.288 13.288C2.09667 13.48 2.00067 13.7173 2 14V20H0ZM6 20H4V18C4 17.1667 4.29167 16.4583 4.875 15.875C5.45833 15.2917 6.16667 15 7 15H11C12.3833 15 13.5627 14.5123 14.538 13.537C15.5133 12.5617 16.0007 11.3827 16 10V9C16 7.61667 15.5123 6.43767 14.537 5.463C13.5617 4.48833 12.3827 4.00067 11 4C10.45 4 9.97933 3.80433 9.588 3.413C9.19667 3.02167 9.00067 2.55067 9 2V0H11V2C12.95 2 14.6043 2.67933 15.963 4.038C17.3217 5.39667 18.0007 7.05067 18 9V10C18 11.95 17.321 13.6043 15.963 14.963C14.605 16.3217 12.9507 17.0007 11 17H7C6.71667 17 6.47933 17.096 6.288 17.288C6.09667 17.48 6.00067 17.7173 6 18V20ZM2 14C2.00067 13.7173 2.09667 13.48 2.288 13.288C2.47933 13.096 2.71667 13 3 13H5C6.38333 13 7.56267 12.5123 8.538 11.537C9.51333 10.5617 10.0007 9.38267 10 8C10 9.38333 9.51233 10.5627 8.537 11.538C7.56167 12.5133 6.38267 13.0007 5 13H3C2.71667 13 2.47933 13.096 2.288 13.288C2.09667 13.48 2.00067 13.7173 2 14Z" fill="#0D4C92"/>
</svg>
