<svg width="24" height="23" viewBox="0 0 24 23" fill="none" xmlns="http://www.w3.org/2000/svg">
<path d="M16 19.5H6.5V18.5C6.5 17.7044 6.81607 16.9413 7.37868 16.3787C7.94129 15.8161 8.70435 15.5 9.5 15.5C10.5 15.5 23.9 17 23.9 17M0 22.5H24M14.5 13.5L11.582 11.415C11.3243 11.2308 11.1373 10.9642 11.0518 10.6592C10.9663 10.3543 10.9876 10.0293 11.112 9.738L12.097 7.441C12.466 7.226 13.87 6.5 16 6.5C18.13 6.5 19.534 7.226 19.903 7.44L20.888 9.738C21.0127 10.0294 21.0341 10.3546 20.9486 10.6598C20.8631 10.965 20.6759 11.2318 20.418 11.416L17.5 13.5M0.5 0.5L2.166 2.166M2.166 2.166C1.90119 2.43071 1.70647 2.75657 1.59785 3.1149C1.48924 3.47322 1.47074 3.85281 1.544 4.22L2 6.5H2.25L6.5 2.25V2L4.221 1.544C3.85384 1.4706 3.47424 1.48896 3.11588 1.59744C2.75751 1.70592 2.43081 1.90129 2.166 2.166ZM4.5 17.9C4.5 17.9 3.5 19.5 2.25 19.5C1.78587 19.5 1.34075 19.3156 1.01256 18.9874C0.684374 18.6592 0.5 18.2141 0.5 17.75C0.5 16.784 1.283 16.004 2.25 16.004C3.5 16.004 4.5 17.6 4.5 17.6V17.9ZM15.852 4.5C15.852 4.5 14.252 3.5 14.252 2.25C14.252 1.284 15.036 0.5 16.002 0.5C16.969 0.5 17.748 1.284 17.748 2.25C17.748 3.5 16.152 4.5 16.152 4.5H15.852Z" stroke="#0D4C92"/>
</svg>
