<svg width="30" height="30" viewBox="0 0 30 30" fill="none" xmlns="http://www.w3.org/2000/svg">
<path d="M11.9427 25.0894C12.0244 25.7524 12.243 26.4017 12.5987 26.9916C8.86215 26.9175 6.01434 25.7864 4.12285 23.5712C3.39815 22.7226 3 21.6432 3 20.5272V19.8052C3 18.2526 4.25857 16.9941 5.8111 16.9941H17.4025L15.5275 18.8691H5.8111C5.29411 18.8691 4.875 19.2882 4.875 19.8052V20.5272C4.875 21.1969 5.11389 21.8445 5.54871 22.3537C6.94979 23.9944 9.06329 24.9134 11.9427 25.0894ZM12.9955 2C16.4472 2 19.2455 4.79822 19.2455 8.25C19.2455 11.7018 16.4472 14.5 12.9955 14.5C9.5438 14.5 6.74557 11.7018 6.74557 8.25C6.74557 4.79822 9.5438 2 12.9955 2ZM12.9955 3.875C10.5792 3.875 8.62057 5.83376 8.62057 8.25C8.62057 10.6663 10.5792 12.625 12.9955 12.625C15.4117 12.625 17.3705 10.6663 17.3705 8.25C17.3705 5.83376 15.4117 3.875 12.9955 3.875ZM25.5334 15.7069C24.1316 14.3052 21.8591 14.3052 20.4575 15.7069L14.2075 21.9569C12.8059 23.3585 12.8059 25.631 14.2075 27.0327C15.6091 28.4344 17.8816 28.4344 19.2834 27.0327L25.5334 20.7827C26.935 19.381 26.935 17.1085 25.5334 15.7069ZM21.7834 17.0327C22.4527 16.3632 23.5381 16.3632 24.2075 17.0327C24.8769 17.7021 24.8769 18.7875 24.2075 19.4569L21.7454 21.919L19.3212 19.4947L21.7834 17.0327ZM19.2834 23.2066C19.6495 23.5727 19.6495 24.1662 19.2834 24.5324L18.0334 25.7824C17.6672 26.1485 17.0736 26.1485 16.7075 25.7824C16.3414 25.4162 16.3414 24.8227 16.7075 24.4566L17.9575 23.2066C18.3236 22.8405 18.9172 22.8405 19.2834 23.2066Z" fill="#0D4C92"/>
</svg>
