<svg width="22" height="20" viewBox="0 0 22 20" fill="none" xmlns="http://www.w3.org/2000/svg">
<path fill-rule="evenodd" clip-rule="evenodd" d="M20.8113 8.15369L11.6094 0.347232C11.0633 -0.115744 10.2625 -0.115744 9.71637 0.347232L0.5145 8.15369C0.0575423 8.54303 -0.11535 9.17192 0.078361 9.74014C0.272072 10.3084 0.793106 10.7007 1.39273 10.7298V18.5363C1.39273 19.3447 2.04805 20 2.85644 20H18.4694C19.2777 20 19.9331 19.3447 19.9331 18.5363V10.7347C20.5327 10.7056 21.0537 10.3132 21.2474 9.74502C21.4412 9.1768 21.2683 8.54791 20.8113 8.15857V8.15369ZM10.175 18.5412H9.19919V14.15H12.1266V18.5412H10.175ZM18.4694 9.27099V18.5412H13.5903V14.15C13.5903 13.3416 12.935 12.6863 12.1266 12.6863H9.19919C8.3908 12.6863 7.73548 13.3416 7.73548 14.15V18.5412H2.85644V9.27099H1.46103L10.6629 1.46453L19.8648 9.27099H18.4694Z" fill="#0D4C92"/>
</svg>
