<svg width="23" height="20" viewBox="0 0 23 20" fill="none" xmlns="http://www.w3.org/2000/svg">
<path fill-rule="evenodd" clip-rule="evenodd" d="M20.6624 9.87138C20.463 9.67203 20.1994 9.55627 19.9228 9.55627C19.6206 9.55627 19.3569 9.67203 19.1704 9.87138C18.9711 10.0514 18.8682 10.3215 18.8682 10.6109C18.8682 10.9003 18.9711 11.1576 19.1704 11.3505C19.3569 11.5434 19.6206 11.6527 19.9228 11.6527C20.1994 11.6527 20.463 11.5434 20.6624 11.3505C20.8489 11.1576 20.9646 10.9003 20.9646 10.6109C20.9646 10.3215 20.8489 10.0514 20.6624 9.87138ZM2.30225 1.06109H1.68489C1.50482 1.06109 1.35691 1.13183 1.24116 1.24116C1.13183 1.35691 1.06752 1.50482 1.06752 1.67203C1.06752 1.84566 1.13183 2.00643 1.24116 2.11576C1.35691 2.23151 1.50482 2.29582 1.68489 2.29582H2.30225V1.06109ZM19.9228 7.78778C20.6881 7.78778 21.3955 8.10289 21.9035 8.61736C22.4116 9.13183 22.7267 9.81994 22.7267 10.6109C22.7267 11.3891 22.4116 12.0965 21.9035 12.6045C21.3955 13.1125 20.6881 13.4277 19.9228 13.4277C19.1318 13.4277 18.4244 13.1125 17.9164 12.6045C17.7428 12.4309 17.582 12.2186 17.4534 12.0064C17.1254 12.2701 16.836 12.5981 16.6174 12.9518C16.2379 13.5498 16.0129 14.2637 16.0129 15.0289V15.0418V15.0547V15.0675C16 16.4309 15.4469 17.6463 14.5531 18.5531C13.6592 19.4405 12.4244 20 11.0547 20C9.68489 20 8.4373 19.4405 7.54984 18.5531C6.64309 17.6463 6.09003 16.4116 6.09003 15.0418V12.6559C4.46945 12.5209 3.02894 11.8199 1.94212 10.7395C0.73955 9.54341 0 7.88424 0 6.05145V1.70418V1.67203C0 1.21543 0.186495 0.803859 0.501608 0.501608C0.803859 0.186495 1.22186 0 1.68489 0H2.83601C3.11897 0 3.36977 0.237942 3.36977 0.527331V0.540193V2.82315C3.36977 3.11897 3.11897 3.36334 2.83601 3.36334H2.81672H1.76849V6.05145C1.76849 7.38907 2.30868 8.6045 3.18971 9.4791C4.07074 10.3601 5.28617 10.9132 6.61093 10.9132H8.05145C9.38264 10.9132 10.6045 10.3601 11.4791 9.4791C12.3537 8.6045 12.8939 7.38907 12.8939 6.05145V3.36334H11.8521H11.8392C11.5434 3.36334 11.3055 3.11897 11.3055 2.82315V0.540193V0.527331C11.3055 0.237942 11.5434 0 11.8392 0H12.9904C13.4534 0 13.8778 0.186495 14.1801 0.501608C14.4823 0.803859 14.6688 1.21543 14.6688 1.67203V1.70418V6.05145C14.6688 7.88424 13.9293 9.54341 12.7267 10.7395C11.5305 11.9293 9.87138 12.6752 8.05145 12.6752H7.14469V15.0418C7.14469 16.1158 7.58842 17.0932 8.28296 17.7942C9.00321 18.5016 9.97428 18.9389 11.0547 18.9389C12.135 18.9389 13.0932 18.5016 13.8071 17.7942C14.508 17.0932 14.9453 16.1286 14.9453 15.0547V15.0418V15.0289C14.9582 14.0514 15.2347 13.1511 15.7106 12.3859C16.0707 11.8199 16.5466 11.3183 17.1061 10.9453C17.1061 10.8296 17.0932 10.7138 17.0932 10.6109C17.0932 9.81994 17.4084 9.13183 17.9164 8.61736C18.4244 8.10289 19.1318 7.78778 19.9228 7.78778ZM12.9904 1.06109H12.373V2.29582H12.9904C13.164 2.29582 13.3119 2.23151 13.4277 2.11576C13.537 2.00643 13.6141 1.84566 13.6141 1.67203C13.6141 1.50482 13.537 1.35691 13.4277 1.24116C13.3119 1.13183 13.164 1.06109 12.9904 1.06109Z" fill="#0D4C92"/>
</svg>
