<svg width="30" height="30" viewBox="0 0 30 30" fill="none" xmlns="http://www.w3.org/2000/svg">
<path d="M10.6277 14.3744C11.3195 14.3744 11.8804 14.9352 11.8804 15.6271C11.8804 16.319 11.3195 16.8797 10.6277 16.8797C9.93585 16.8797 9.375 16.319 9.375 15.6271C9.375 14.9352 9.93585 14.3744 10.6277 14.3744ZM15 5.44212V13.1244L15.0006 13.7556L24.3025 13.7544L22.1495 11.5997C21.8168 11.2668 21.7865 10.746 22.0589 10.379L22.1498 10.2739C22.4826 9.94111 23.0034 9.91093 23.3704 10.1833L23.4755 10.2741L27.2213 14.0211C27.5538 14.3537 27.5843 14.874 27.3125 15.241L27.2219 15.3461L23.4761 19.1004C23.1105 19.467 22.5169 19.4676 22.1504 19.102C21.8171 18.7695 21.7862 18.2487 22.0581 17.8814L22.1489 17.7761L24.29 15.6294L15.0006 15.6306L15 24.0619C15 24.6449 14.4735 25.0865 13.8995 24.9851L3.27444 23.1085C2.82651 23.0294 2.5 22.6401 2.5 22.1852V7.18691C2.5 6.72777 2.83251 6.3362 3.28559 6.2618L13.9106 4.51701C14.4814 4.42329 15 4.86371 15 5.44212ZM13.125 6.54612L4.375 7.98301V21.3989L13.125 22.9444V6.54612ZM16.25 23.126L17.2065 23.1262L17.3337 23.1176C17.7919 23.0554 18.1447 22.6624 18.144 22.1871L18.135 16.8744H16.25V23.126ZM16.2525 12.4994L16.25 10.9061V6.2494L17.1816 6.24941C17.6556 6.24941 18.0476 6.60131 18.1104 7.0583L18.1191 7.18536L18.1275 12.4994H16.2525Z" fill="#0D4C92"/>
</svg>
