<svg width="25" height="25" viewBox="0 0 25 25" fill="none" xmlns="http://www.w3.org/2000/svg">
<path d="M10.6771 3.646H14.3229C14.7544 3.646 15.1042 3.99578 15.1042 4.42725V6.25016H9.89583V4.42725C9.89583 3.99578 10.2456 3.646 10.6771 3.646ZM8.33333 4.42725V6.25016H6.51042C4.6407 6.25016 3.125 7.76586 3.125 9.63558V17.4481C3.125 19.3178 4.6407 20.8335 6.51042 20.8335H18.4896C20.3593 20.8335 21.875 19.3178 21.875 17.4481V9.63558C21.875 7.76586 20.3593 6.25016 18.4896 6.25016H16.6667V4.42725C16.6667 3.13283 15.6173 2.0835 14.3229 2.0835H10.6771C9.38267 2.0835 8.33333 3.13283 8.33333 4.42725ZM18.4896 7.81266C19.4964 7.81266 20.3125 8.62881 20.3125 9.63558V17.4481C20.3125 18.4548 19.4964 19.271 18.4896 19.271H6.51042C5.50365 19.271 4.6875 18.4548 4.6875 17.4481V9.63558C4.6875 8.62881 5.50365 7.81266 6.51042 7.81266H18.4896ZM11.9792 11.1981V13.021H10.1562C9.72478 13.021 9.375 13.3708 9.375 13.8022C9.375 14.2337 9.72478 14.5835 10.1562 14.5835H11.9792V16.4064C11.9792 16.8379 12.329 17.1877 12.7604 17.1877C13.1919 17.1877 13.5417 16.8379 13.5417 16.4064V14.5835H15.3646C15.796 14.5835 16.1458 14.2337 16.1458 13.8022C16.1458 13.3708 15.796 13.021 15.3646 13.021H13.5417V11.1981C13.5417 10.7666 13.1919 10.4168 12.7604 10.4168C12.329 10.4168 11.9792 10.7666 11.9792 11.1981Z" fill="#0D4C92"/>
</svg>
