<svg width="34" height="30" viewBox="0 0 34 30" fill="none" xmlns="http://www.w3.org/2000/svg">
<path d="M17 1.875C16.3923 1.875 15.7845 2.05781 15.2926 2.4225C14.5276 2.98875 14.3629 3.85969 14.5594 4.6875H12.2188C12.0779 4.6875 11.9427 4.73689 11.8431 4.82479C11.7435 4.9127 11.6875 5.03193 11.6875 5.15625V5.625H8.5C7.33125 5.625 6.375 6.46875 6.375 7.5V27.1875C6.375 28.2188 7.33125 29.0625 8.5 29.0625H25.5C26.6688 29.0625 27.625 28.2188 27.625 27.1875V7.5C27.625 6.46875 26.6688 5.625 25.5 5.625H22.3125V5.15625C22.3125 5.03193 22.2565 4.9127 22.1569 4.82479C22.0573 4.73689 21.9221 4.6875 21.7812 4.6875H19.4406C19.6371 3.85969 19.4724 2.98875 18.7074 2.4225C18.229 2.06839 17.6244 1.87452 17 1.875ZM17 2.81063C17.3634 2.81063 17.7278 2.92031 18.0253 3.14063C18.6203 3.58125 18.7691 4.32844 18.3802 4.92188C18.3336 4.99313 18.309 5.07397 18.309 5.15625C18.309 5.23853 18.3336 5.31936 18.3802 5.39062C18.4268 5.46188 18.4939 5.52105 18.5746 5.5622C18.6554 5.60334 18.747 5.625 18.8403 5.625H21.25V6.01688C21.2404 6.06778 21.2404 6.11973 21.25 6.17063V7.89188C21.2404 7.94278 21.2404 7.99473 21.25 8.04563V8.4375H12.75V8.04188C12.7591 7.9922 12.7591 7.94155 12.75 7.89188V6.16688C12.7591 6.1172 12.7591 6.06655 12.75 6.01688V5.625H15.1597C15.253 5.625 15.3446 5.60334 15.4254 5.5622C15.5061 5.52105 15.5732 5.46188 15.6198 5.39062C15.6664 5.31936 15.691 5.23853 15.691 5.15625C15.691 5.07397 15.6664 4.99313 15.6198 4.92188C15.4313 4.63576 15.3634 4.30002 15.4284 3.97404C15.4933 3.64806 15.6868 3.35285 15.9747 3.14063C16.2722 2.92031 16.6366 2.81063 17 2.81063ZM17 3.74813C16.8591 3.74813 16.724 3.79751 16.6243 3.88542C16.5247 3.97333 16.4688 4.09256 16.4688 4.21688C16.4688 4.3412 16.5247 4.46042 16.6243 4.54833C16.724 4.63624 16.8591 4.68563 17 4.68563C17.1409 4.68563 17.276 4.63624 17.3757 4.54833C17.4753 4.46042 17.5312 4.3412 17.5312 4.21688C17.5312 4.09256 17.4753 3.97333 17.3757 3.88542C17.276 3.79751 17.1409 3.74813 17 3.74813ZM8.5 6.5625H11.6875V7.5H10.0938C9.22038 7.5 8.5 8.13563 8.5 8.90625V25.7812C8.5 26.5519 9.22038 27.1875 10.0938 27.1875H23.9062C24.7796 27.1875 25.5 26.5519 25.5 25.7812V8.90625C25.5 8.13563 24.7796 7.5 23.9062 7.5H22.3125V6.5625H25.5C26.0982 6.5625 26.5625 6.97219 26.5625 7.5V27.1875C26.5625 27.7153 26.0982 28.125 25.5 28.125H8.5C7.90181 28.125 7.4375 27.7153 7.4375 27.1875V7.5C7.4375 6.97219 7.90181 6.5625 8.5 6.5625ZM10.0938 8.4375H11.6875V8.90625C11.6875 9.03057 11.7435 9.1498 11.8431 9.23771C11.9427 9.32562 12.0779 9.375 12.2188 9.375H21.7812C21.9221 9.375 22.0573 9.32562 22.1569 9.23771C22.2565 9.1498 22.3125 9.03057 22.3125 8.90625V8.4375H23.9062C24.2101 8.4375 24.4375 8.63813 24.4375 8.90625V25.7812C24.4375 26.0494 24.2101 26.25 23.9062 26.25H10.0938C10.0235 26.2515 9.95364 26.2405 9.8884 26.2175C9.82315 26.1945 9.76389 26.16 9.7142 26.1161C9.66452 26.0723 9.62545 26.02 9.59937 25.9624C9.5733 25.9049 9.56075 25.8432 9.5625 25.7812V8.90625C9.5625 8.63813 9.78988 8.4375 10.0938 8.4375ZM11.1106 11.25C10.9697 11.2562 10.8373 11.3116 10.7427 11.4039C10.648 11.4962 10.5988 11.6179 10.6059 11.7422C10.6129 11.8665 10.6756 11.9833 10.7803 12.0668C10.8849 12.1503 11.0228 12.1937 11.1637 12.1875H12.2102C12.3511 12.1875 12.4863 12.1381 12.5859 12.0502C12.6855 11.9623 12.7415 11.8431 12.7415 11.7188C12.7415 11.5944 12.6855 11.4752 12.5859 11.3873C12.4863 11.2994 12.3511 11.25 12.2102 11.25H11.1648C11.1467 11.2492 11.1286 11.2492 11.1106 11.25ZM14.2959 11.25C14.155 11.2562 14.0227 11.3116 13.9281 11.4039C13.8334 11.4962 13.7842 11.6179 13.7912 11.7422C13.7983 11.8665 13.861 11.9833 13.9656 12.0668C14.0702 12.1503 14.2082 12.1937 14.3491 12.1875H19.6478C19.7886 12.1875 19.9238 12.1381 20.0234 12.0502C20.123 11.9623 20.179 11.8431 20.179 11.7188C20.179 11.5944 20.123 11.4752 20.0234 11.3873C19.9238 11.2994 19.7886 11.25 19.6478 11.25H14.3501C14.3324 11.2492 14.3147 11.2492 14.297 11.25H14.2959ZM11.1106 14.0625C10.9697 14.0687 10.8373 14.1241 10.7427 14.2164C10.648 14.3087 10.5988 14.4304 10.6059 14.5547C10.6129 14.679 10.6756 14.7958 10.7803 14.8793C10.8849 14.9628 11.0228 15.0062 11.1637 15H12.2102C12.3511 15 12.4863 14.9506 12.5859 14.8627C12.6855 14.7748 12.7415 14.6556 12.7415 14.5313C12.7415 14.4069 12.6855 14.2877 12.5859 14.1998C12.4863 14.1119 12.3511 14.0625 12.2102 14.0625H11.1648C11.1467 14.0617 11.1286 14.0617 11.1106 14.0625ZM14.2959 14.0625C14.155 14.0687 14.0227 14.1241 13.9281 14.2164C13.8334 14.3087 13.7842 14.4304 13.7912 14.5547C13.7983 14.679 13.861 14.7958 13.9656 14.8793C14.0702 14.9628 14.2082 15.0062 14.3491 15H19.6478C19.7886 15 19.9238 14.9506 20.0234 14.8627C20.123 14.7748 20.179 14.6556 20.179 14.5313C20.179 14.4069 20.123 14.2877 20.0234 14.1998C19.9238 14.1119 19.7886 14.0625 19.6478 14.0625H14.3501C14.3324 14.0617 14.3147 14.0617 14.297 14.0625H14.2959ZM11.1106 16.875C10.9697 16.8812 10.8373 16.9366 10.7427 17.0289C10.648 17.1212 10.5988 17.2429 10.6059 17.3672C10.6129 17.4915 10.6756 17.6083 10.7803 17.6918C10.8849 17.7753 11.0228 17.8187 11.1637 17.8125H12.2102C12.3511 17.8125 12.4863 17.7631 12.5859 17.6752C12.6855 17.5873 12.7415 17.4681 12.7415 17.3438C12.7415 17.2194 12.6855 17.1002 12.5859 17.0123C12.4863 16.9244 12.3511 16.875 12.2102 16.875H11.1648C11.1467 16.8742 11.1286 16.8742 11.1106 16.875ZM14.2959 16.875C14.155 16.8812 14.0227 16.9366 13.9281 17.0289C13.8334 17.1212 13.7842 17.2429 13.7913 17.3672C13.7983 17.4915 13.861 17.6083 13.9656 17.6918C14.0702 17.7753 14.2082 17.8187 14.3491 17.8125H19.6478C19.7886 17.8125 19.9238 17.7631 20.0234 17.6752C20.123 17.5873 20.179 17.4681 20.179 17.3438C20.179 17.2194 20.123 17.1002 20.0234 17.0123C19.9238 16.9244 19.7886 16.875 19.6478 16.875H14.3501C14.3324 16.8742 14.3147 16.8742 14.297 16.875H14.2959ZM17.5312 21.5625C17.2189 21.5625 16.9936 21.69 16.8194 21.8156C16.6592 21.9344 16.5158 22.0698 16.3923 22.2188C16.1585 22.4897 16.0055 22.7531 16.0055 22.7531C15.9404 22.8634 15.9276 22.992 15.97 23.1106C16.0123 23.2291 16.1063 23.328 16.2313 23.3855C16.3563 23.4429 16.502 23.4542 16.6364 23.4168C16.7708 23.3795 16.8828 23.2965 16.9479 23.1863C16.9479 23.1863 17.0712 22.98 17.2412 22.7831C17.3209 22.6912 17.408 22.6088 17.4771 22.5572C17.5089 22.6022 17.5334 22.6369 17.5791 22.7147C17.6481 22.8328 17.7267 22.9791 17.8713 23.1272C18.0168 23.2772 18.2835 23.4375 18.5938 23.4375C18.904 23.4375 19.1707 23.2772 19.3162 23.1281C19.4608 22.9781 19.5394 22.8328 19.6084 22.7147C19.6297 22.6772 19.6371 22.6706 19.6562 22.6406C19.6754 22.6706 19.6828 22.6781 19.7041 22.7147C19.7731 22.8328 19.8517 22.9791 19.9963 23.1272C20.1418 23.2772 20.4085 23.4375 20.7188 23.4375C21.029 23.4375 21.2957 23.2772 21.4412 23.1281C21.5858 22.9781 21.6644 22.8328 21.7334 22.7147C21.7802 22.635 21.8067 22.5994 21.8376 22.5553C21.9087 22.6078 22.0012 22.6912 22.0841 22.7859C22.2572 22.9828 22.3826 23.19 22.3826 23.19C22.4131 23.2477 22.4566 23.2994 22.5105 23.3418C22.5643 23.3842 22.6274 23.4165 22.6959 23.4367C22.7643 23.4569 22.8368 23.4645 22.9087 23.4592C22.9806 23.4539 23.0506 23.4357 23.1143 23.4057C23.178 23.3757 23.2341 23.3346 23.2791 23.2848C23.3242 23.2351 23.3573 23.1777 23.3765 23.1163C23.3956 23.0549 23.4003 22.9907 23.3904 22.9276C23.3805 22.8645 23.3561 22.8039 23.3187 22.7494C23.3187 22.7494 23.1614 22.4859 22.9256 22.215C22.8001 22.0665 22.6549 21.9318 22.4931 21.8137C22.3178 21.6891 22.0947 21.5625 21.7812 21.5625C21.4689 21.5625 21.2054 21.7331 21.0672 21.8813C20.9291 22.0294 20.8569 22.17 20.7889 22.2853C20.7581 22.3378 20.7443 22.3528 20.7188 22.3922C20.6932 22.3538 20.6794 22.3388 20.6486 22.2853C20.5806 22.17 20.5073 22.0294 20.3703 21.8813C20.2321 21.7331 19.9697 21.5625 19.6562 21.5625C19.3428 21.5625 19.0793 21.7331 18.9422 21.8813C18.8041 22.0294 18.7319 22.17 18.6639 22.2853C18.6331 22.3378 18.6193 22.3528 18.5938 22.3922C18.5682 22.3538 18.5544 22.3388 18.5236 22.2853C18.4556 22.17 18.3823 22.0294 18.2453 21.8813C18.1071 21.7331 17.8447 21.5625 17.5312 21.5625ZM16.4231 24.375C16.2822 24.3812 16.1498 24.4366 16.0552 24.5289C15.9605 24.6212 15.9113 24.7429 15.9184 24.8672C15.9254 24.9915 15.9881 25.1083 16.0928 25.1918C16.1974 25.2753 16.3353 25.3187 16.4762 25.3125H22.8512C22.9921 25.3125 23.1272 25.2631 23.2268 25.1752C23.3265 25.0873 23.3824 24.9681 23.3824 24.8438C23.3824 24.7194 23.3265 24.6002 23.2268 24.5123C23.1272 24.4244 22.9921 24.375 22.8512 24.375H16.4762C16.4585 24.3742 16.4408 24.3742 16.4231 24.375Z" fill="#0D4C92"/>
</svg>
