<svg width="30" height="30" viewBox="0 0 30 30" fill="none" xmlns="http://www.w3.org/2000/svg">
<path d="M21.082 1.89258C19.2246 1.89258 17.4375 2.63086 16.125 3.94922C14.8125 5.26172 14.0684 7.04883 14.0684 8.90625V9.93164C14.0684 10.3184 14.3848 10.6348 14.7715 10.6348C15.1582 10.6348 15.4746 10.3184 15.4746 9.93164V8.90625C15.4746 7.41797 16.0664 5.98828 17.1152 4.93945C18.1699 3.88477 19.5937 3.29883 21.082 3.29883C24.1816 3.29883 26.6895 5.8125 26.6895 8.91211V14.291H19.9629C19.5762 14.291 19.2598 14.6074 19.2598 14.9941C19.2598 15.3809 19.5762 15.6973 19.9629 15.6973H26.6953V21.0762C26.6953 22.5645 26.1035 23.9883 25.0547 25.043C24.0059 26.0977 22.5762 26.6836 21.0879 26.6836C20.1621 26.6836 19.2891 26.4609 18.5156 26.0625C18.1699 25.8867 17.748 26.0215 17.5723 26.3613C17.3965 26.707 17.5312 27.1289 17.8711 27.3047C18.832 27.8027 19.9277 28.084 21.0879 28.084C22.9453 28.084 24.7324 27.3457 26.0449 26.0273C27.3574 24.7148 28.1016 22.9277 28.1016 21.0703V8.90625C28.0957 5.0332 24.9551 1.89258 21.082 1.89258Z" fill="#0D4C92"/>
<path d="M10.4355 11.0098C5.72461 11.0098 1.9043 14.8301 1.9043 19.541C1.9043 24.252 5.72461 28.0723 10.4355 28.0723C15.1465 28.0723 18.9668 24.252 18.9668 19.541C18.9668 14.8359 15.1465 11.0098 10.4355 11.0098ZM10.4355 12.4102C14.1328 12.4102 17.1797 15.2344 17.5312 18.8379H3.33984C3.69141 15.2344 6.73828 12.4102 10.4355 12.4102ZM10.4355 26.6719C6.73828 26.6719 3.69141 23.8477 3.33984 20.2441H17.5312C17.1797 23.8477 14.1328 26.6719 10.4355 26.6719Z" fill="#0D4C92"/>
</svg>
