<svg width="20" height="18" viewBox="0 0 20 18" fill="none" xmlns="http://www.w3.org/2000/svg">
<path d="M7 18V13.825C6.83333 13.8917 6.67067 13.9377 6.512 13.963C6.35333 13.9883 6.18267 14.0007 6 14C4.33333 14 2.91667 13.4167 1.75 12.25C0.583333 11.0833 0 9.66667 0 8V6C0 4.33333 0.583333 2.91667 1.75 1.75C2.91667 0.583333 4.33333 0 6 0C6.83333 0 7.54167 0.291667 8.125 0.875C8.70833 1.45833 9 2.16667 9 3C9 3.83333 8.70833 4.54167 8.125 5.125C7.54167 5.70833 6.83333 6 6 6H4V4H6C6.28333 4 6.521 3.904 6.713 3.712C6.905 3.52 7.00067 3.28267 7 3C7 2.71667 6.904 2.47933 6.712 2.288C6.52 2.09667 6.28267 2.00067 6 2C4.9 2 3.95833 2.39167 3.175 3.175C2.39167 3.95833 2 4.9 2 6V8C2 9.1 2.39167 10.0417 3.175 10.825C3.95833 11.6083 4.9 12 6 12C6.28333 12 6.521 11.904 6.713 11.712C6.905 11.52 7.00067 11.2827 7 11C7 10.7167 6.904 10.4793 6.712 10.288C6.52 10.0967 6.28267 10.0007 6 10H4V8H6C6.83333 8 7.54167 8.29167 8.125 8.875C8.70833 9.45833 9 10.1667 9 11V18H7ZM11 18V11C11 10.1667 11.2917 9.45833 11.875 8.875C12.4583 8.29167 13.1667 8 14 8H16V10H14C13.7167 10 13.4793 10.096 13.288 10.288C13.0967 10.48 13.0007 10.7173 13 11C13 11.2833 13.096 11.521 13.288 11.713C13.48 11.905 13.7173 12.0007 14 12C15.1 12 16.0417 11.6083 16.825 10.825C17.6083 10.0417 18 9.1 18 8V6C18 4.9 17.6083 3.95833 16.825 3.175C16.0417 2.39167 15.1 2 14 2C13.7167 2 13.4793 2.096 13.288 2.288C13.0967 2.48 13.0007 2.71733 13 3C13 3.28333 13.096 3.521 13.288 3.713C13.48 3.905 13.7173 4.00067 14 4H16V6H14C13.1667 6 12.4583 5.70833 11.875 5.125C11.2917 4.54167 11 3.83333 11 3C11 2.16667 11.2917 1.45833 11.875 0.875C12.4583 0.291667 13.1667 0 14 0C15.6667 0 17.0833 0.583333 18.25 1.75C19.4167 2.91667 20 4.33333 20 6V8C20 9.66667 19.4167 11.0833 18.25 12.25C17.0833 13.4167 15.6667 14 14 14C13.8167 14 13.6457 13.9873 13.487 13.962C13.3283 13.9367 13.166 13.891 13 13.825V18H11Z" fill="#0D4C92"/>
</svg>
