<svg width="18" height="18" viewBox="0 0 18 18" fill="none" xmlns="http://www.w3.org/2000/svg">
<path d="M6.75 18C5.9 18 5.16667 17.704 4.55 17.112C3.93333 16.52 3.58333 15.808 3.5 14.976C2.5 14.842 1.66667 14.4 1 13.65C0.333333 12.9 0 12.0167 0 11C0 10.65 0.046 10.3043 0.138 9.963C0.23 9.62167 0.367333 9.30067 0.55 9C0.366667 8.7 0.229333 8.38333 0.138 8.05C0.0466667 7.71667 0.000666667 7.36667 0 7C0 5.98333 0.333333 5.10433 1 4.363C1.66667 3.62167 2.49167 3.184 3.475 3.05C3.525 2.2 3.86667 1.47933 4.5 0.888C5.13333 0.296667 5.88333 0.000666667 6.75 0C7.18333 0 7.58767 0.0833333 7.963 0.25C8.33833 0.416667 8.684 0.641667 9 0.925C9.3 0.641667 9.64167 0.416667 10.025 0.25C10.4083 0.0833333 10.8167 0 11.25 0C12.1167 0 12.8627 0.291667 13.488 0.875C14.1133 1.45833 14.4507 2.175 14.5 3.025C15.4833 3.15833 16.3127 3.6 16.988 4.35C17.6633 5.1 18.0007 5.98333 18 7C18 7.36667 17.9543 7.71667 17.863 8.05C17.7717 8.38333 17.634 8.7 17.45 9C17.6333 9.3 17.771 9.621 17.863 9.963C17.955 10.305 18.0007 10.6507 18 11C18 12.0333 17.6627 12.921 16.988 13.663C16.3133 14.405 15.4757 14.8423 14.475 14.975C14.3917 15.8083 14.046 16.521 13.438 17.113C12.83 17.705 12.1007 18.0007 11.25 18C10.8333 18 10.429 17.9207 10.037 17.762C9.645 17.6033 9.29933 17.3827 9 17.1C8.68333 17.3833 8.33333 17.6043 7.95 17.763C7.56667 17.9217 7.16667 18.0007 6.75 18ZM10 3.25V14.75C10 15.1 10.121 15.396 10.363 15.638C10.605 15.88 10.9007 16.0007 11.25 16C11.5833 16 11.871 15.8667 12.113 15.6C12.355 15.3333 12.484 15.0333 12.5 14.7C12.15 14.5667 11.8293 14.3877 11.538 14.163C11.2467 13.9383 10.984 13.6673 10.75 13.35C10.5833 13.1167 10.521 12.8667 10.563 12.6C10.605 12.3333 10.7423 12.1167 10.975 11.95C11.2083 11.7833 11.4583 11.721 11.725 11.763C11.9917 11.805 12.2083 11.9423 12.375 12.175C12.5583 12.4417 12.7917 12.646 13.075 12.788C13.3583 12.93 13.6667 13.0007 14 13C14.55 13 15.021 12.8043 15.413 12.413C15.805 12.0217 16.0007 11.5507 16 11C16 10.9167 15.996 10.8333 15.988 10.75C15.98 10.6667 15.959 10.5833 15.925 10.5C15.6417 10.6667 15.3373 10.7917 15.012 10.875C14.6867 10.9583 14.3493 11 14 11C13.7167 11 13.4793 10.904 13.288 10.712C13.0967 10.52 13.0007 10.2827 13 10C13 9.71667 13.096 9.47933 13.288 9.288C13.48 9.09667 13.7173 9.00067 14 9C14.55 9 15.021 8.80433 15.413 8.413C15.805 8.02167 16.0007 7.55067 16 7C16 6.45 15.8043 5.98333 15.413 5.6C15.0217 5.21667 14.5507 5.01667 14 5C13.8167 5.3 13.5793 5.56267 13.288 5.788C12.9967 6.01333 12.6757 6.19233 12.325 6.325C12.0583 6.425 11.8 6.41667 11.55 6.3C11.3 6.18333 11.1333 5.99167 11.05 5.725C10.9667 5.45833 10.9793 5.2 11.088 4.95C11.1967 4.7 11.384 4.53333 11.65 4.45C11.9 4.36667 12.1043 4.21667 12.263 4C12.4217 3.78333 12.5007 3.53333 12.5 3.25C12.5 2.9 12.3793 2.60433 12.138 2.363C11.8967 2.12167 11.6007 2.00067 11.25 2C10.9 2 10.604 2.121 10.362 2.363C10.12 2.605 9.99933 2.90067 10 3.25ZM8 14.75V3.25C8 2.9 7.879 2.604 7.637 2.362C7.395 2.12 7.09933 1.99933 6.75 2C6.4 2 6.104 2.121 5.862 2.363C5.62 2.605 5.49933 2.90067 5.5 3.25C5.5 3.51667 5.575 3.76267 5.725 3.988C5.875 4.21333 6.075 4.36733 6.325 4.45C6.59167 4.53333 6.78333 4.7 6.9 4.95C7.01667 5.2 7.03333 5.45833 6.95 5.725C6.85 5.99167 6.675 6.18333 6.425 6.3C6.175 6.41667 5.91667 6.425 5.65 6.325C5.3 6.19167 4.979 6.01267 4.687 5.788C4.395 5.56333 4.15767 5.30067 3.975 5C3.44167 5.01667 2.97933 5.221 2.588 5.613C2.19667 6.005 2.00067 6.46733 2 7C2 7.55 2.196 8.021 2.588 8.413C2.98 8.805 3.45067 9.00067 4 9C4.28333 9 4.521 9.096 4.713 9.288C4.905 9.48 5.00067 9.71733 5 10C5 10.2833 4.904 10.521 4.712 10.713C4.52 10.905 4.28267 11.0007 4 11C3.65 11 3.31267 10.9583 2.988 10.875C2.66333 10.7917 2.359 10.6667 2.075 10.5C2.04167 10.5833 2.021 10.6667 2.013 10.75C2.005 10.8333 2.00067 10.9167 2 11C2 11.55 2.196 12.021 2.588 12.413C2.98 12.805 3.45067 13.0007 4 13C4.33333 13 4.64167 12.929 4.925 12.787C5.20833 12.645 5.44167 12.441 5.625 12.175C5.79167 11.9417 6.00833 11.804 6.275 11.762C6.54167 11.72 6.79167 11.7827 7.025 11.95C7.25833 12.1167 7.396 12.3333 7.438 12.6C7.48 12.8667 7.41733 13.1167 7.25 13.35C7.01667 13.6667 6.75 13.9417 6.45 14.175C6.15 14.4083 5.825 14.5917 5.475 14.725C5.49167 15.0583 5.625 15.3543 5.875 15.613C6.125 15.8717 6.41667 16.0007 6.75 16C7.1 16 7.396 15.879 7.638 15.637C7.88 15.395 8.00067 15.0993 8 14.75Z" fill="#0D4C92"/>
</svg>
