<svg width="25" height="25" viewBox="0 0 25 25" fill="none" xmlns="http://www.w3.org/2000/svg">
<path d="M18.75 8.33334C18.75 6.67574 18.0915 5.08603 16.9194 3.91393C15.7473 2.74182 14.1576 2.08334 12.5 2.08334C10.8424 2.08334 9.25268 2.74182 8.08058 3.91393C6.90848 5.08603 6.25 6.67574 6.25 8.33334C6.25 15.625 3.125 17.7083 3.125 17.7083H21.875C21.875 17.7083 18.75 15.625 18.75 8.33334Z" stroke="black" stroke-width="1.5" stroke-linecap="round" stroke-linejoin="round"/>
<path d="M14.3022 21.875C14.119 22.1907 13.8562 22.4528 13.5399 22.6349C13.2236 22.8171 12.8651 22.913 12.5001 22.913C12.1351 22.913 11.7765 22.8171 11.4603 22.6349C11.144 22.4528 10.8811 22.1907 10.698 21.875" stroke="black" stroke-width="1.5" stroke-linecap="round" stroke-linejoin="round"/>
</svg>
