<svg width="22" height="19" viewBox="0 0 22 19" fill="none" xmlns="http://www.w3.org/2000/svg">
<path d="M6.95 15.2C6.95 14.8167 7.00433 14.4377 7.113 14.063C7.22167 13.6883 7.39233 13.334 7.625 13C7.75833 12.8167 7.85833 12.621 7.925 12.413C7.99167 12.205 8.025 11.984 8.025 11.75C8.025 11.4833 7.975 11.2333 7.875 11L7.575 10.3C7.40833 9.98333 7.27067 9.65833 7.162 9.325C7.05333 8.99167 6.99933 8.65 7 8.3V4.5C7 4.08333 6.85433 3.72933 6.563 3.438C6.27167 3.14667 5.91733 3.00067 5.5 3C5.15 3 4.84167 3.11667 4.575 3.35C4.30833 3.58333 4.13333 3.86667 4.05 4.2C4.61667 4.41667 5.08333 4.779 5.45 5.287C5.81667 5.795 6 6.366 6 7C6 7.83333 5.70833 8.54167 5.125 9.125C4.54167 9.70833 3.83333 10 3 10C2.16667 10 1.45833 9.70833 0.875 9.125C0.291667 8.54167 0 7.83333 0 7C0 6.33333 0.191667 5.74167 0.575 5.225C0.958333 4.70833 1.45 4.35 2.05 4.15C2.13333 3.25 2.50433 2.5 3.163 1.9C3.82167 1.3 4.60067 1 5.5 1C5.61667 1 5.73333 1.004 5.85 1.012C5.96667 1.02 6.08333 1.041 6.2 1.075C6.93333 0.691666 7.704 0.416667 8.512 0.25C9.32 0.0833333 10.1493 0 11 0C11.8333 0 12.6543 0.0833333 13.463 0.25C14.2717 0.416667 15.0423 0.691666 15.775 1.075C15.8917 1.04167 16.0083 1.02067 16.125 1.012C16.2417 1.00333 16.3583 0.999333 16.475 1C17.3917 1 18.1793 1.3 18.838 1.9C19.4967 2.5 19.8673 3.25 19.95 4.15C20.55 4.35 21.0417 4.70833 21.425 5.225C21.8083 5.74167 22 6.33333 22 7C22 7.83333 21.7083 8.54167 21.125 9.125C20.5417 9.70833 19.8333 10 19 10C18.1667 10 17.4583 9.70833 16.875 9.125C16.2917 8.54167 16 7.83333 16 7C16 6.36667 16.1833 5.79567 16.55 5.287C16.9167 4.77833 17.3833 4.416 17.95 4.2C17.8667 3.86667 17.6917 3.58333 17.425 3.35C17.1583 3.11667 16.8417 3 16.475 3C16.0583 3 15.7083 3.146 15.425 3.438C15.1417 3.73 15 4.084 15 4.5V8.3C15 8.65 14.9417 8.99167 14.825 9.325C14.7083 9.65833 14.575 9.98333 14.425 10.3C14.3083 10.5333 14.204 10.7667 14.112 11C14.02 11.2333 13.9743 11.4833 13.975 11.75C13.975 11.9833 14.0083 12.2043 14.075 12.413C14.1417 12.6217 14.2417 12.8173 14.375 13C14.5917 13.3333 14.7583 13.6877 14.875 14.063C14.9917 14.4383 15.05 14.8173 15.05 15.2C15.05 15.5167 15.0127 15.825 14.938 16.125C14.8633 16.425 14.759 16.7167 14.625 17L14.35 17.55C14.2167 17.9 13.9583 18.1043 13.575 18.163L13 18.25C12.7667 18.0167 12.6 17.7623 12.5 17.487C12.4 17.2117 12.4167 16.9327 12.55 16.65L12.825 16.1C12.9083 15.9667 12.9667 15.825 13 15.675C13.0333 15.525 13.05 15.3667 13.05 15.2C13.05 15 13.0167 14.8083 12.95 14.625C12.8833 14.4417 12.8 14.2667 12.7 14.1C12.4667 13.7667 12.2877 13.4 12.163 13C12.0383 12.6 11.9757 12.1917 11.975 11.775C11.975 11.3917 12.0293 11.029 12.138 10.687C12.2467 10.345 12.3923 10.0077 12.575 9.675C12.675 9.44167 12.771 9.21267 12.863 8.988C12.955 8.76333 13.0007 8.534 13 8.3V4.5C13 4.1 13.0627 3.721 13.188 3.363C13.3133 3.005 13.4923 2.67567 13.725 2.375C13.2917 2.24167 12.846 2.14567 12.388 2.087C11.93 2.02833 11.4673 1.99933 11 2C10.5333 2 10.0707 2.02933 9.612 2.088C9.15333 2.14667 8.70767 2.24233 8.275 2.375C8.50833 2.675 8.68767 3.00433 8.813 3.363C8.93833 3.72167 9.00067 4.10067 9 4.5V8.3C9 8.53333 9.04167 8.76667 9.125 9C9.20833 9.23333 9.30833 9.45833 9.425 9.675C9.59167 10.0083 9.73333 10.346 9.85 10.688C9.96667 11.03 10.025 11.3923 10.025 11.775C10.025 12.1917 9.96267 12.596 9.838 12.988C9.71333 13.38 9.534 13.7507 9.3 14.1C9.18333 14.2667 9.096 14.4417 9.038 14.625C8.98 14.8083 8.95067 15 8.95 15.2C8.95 15.3667 8.96667 15.525 9 15.675C9.03333 15.825 9.09167 15.9667 9.175 16.1L9.45 16.65C9.58333 16.9 9.60433 17.1543 9.513 17.413C9.42167 17.6717 9.25067 17.8673 9 18C8.75 18.1333 8.49567 18.1543 8.237 18.063C7.97833 17.9717 7.78267 17.8007 7.65 17.55L7.375 17C7.225 16.7167 7.11667 16.425 7.05 16.125C6.98333 15.825 6.95 15.5167 6.95 15.2ZM3 8C3.28333 8 3.521 7.904 3.713 7.712C3.905 7.52 4.00067 7.28267 4 7C4 6.71667 3.904 6.47933 3.712 6.288C3.52 6.09667 3.28267 6.00067 3 6C2.71667 6 2.47933 6.096 2.288 6.288C2.09667 6.48 2.00067 6.71733 2 7C2 7.28333 2.096 7.521 2.288 7.713C2.48 7.905 2.71733 8.00067 3 8ZM19 8C19.2833 8 19.521 7.904 19.713 7.712C19.905 7.52 20.0007 7.28267 20 7C20 6.71667 19.904 6.47933 19.712 6.288C19.52 6.09667 19.2827 6.00067 19 6C18.7167 6 18.4793 6.096 18.288 6.288C18.0967 6.48 18.0007 6.71733 18 7C18 7.28333 18.096 7.521 18.288 7.713C18.48 7.905 18.7173 8.00067 19 8Z" fill="#0D4C92"/>
</svg>
