<svg width="20" height="21" viewBox="0 0 20 21" fill="none" xmlns="http://www.w3.org/2000/svg">
<path d="M0 20V14C0 13.1667 0.291667 12.4583 0.875 11.875C1.45833 11.2917 2.16667 11 3 11H5C5.83333 11 6.54167 10.7083 7.125 10.125C7.70833 9.54167 8 8.83333 8 8C8 7.71667 7.904 7.47933 7.712 7.288C7.52 7.09667 7.28267 7.00067 7 7C6.45 7 5.97933 6.80433 5.588 6.413C5.19667 6.02167 5.00067 5.55067 5 5V0H7V5C7.83333 5 8.54167 5.29167 9.125 5.875C9.70833 6.45833 10 7.16667 10 8C10 9.38333 9.51233 10.5627 8.537 11.538C7.56167 12.5133 6.38267 13.0007 5 13H3C2.71667 13 2.47933 13.096 2.288 13.288C2.09667 13.48 2.00067 13.7173 2 14V20H0ZM9.125 5.875C9.70833 6.45833 10 7.16667 10 8C10 9.38333 9.51233 10.5627 8.537 11.538C7.56167 12.5133 6.38267 13.0007 5 13C6.38333 13 7.56267 12.5123 8.538 11.537C9.51333 10.5617 10.0007 9.38267 10 8C10 7.16667 9.70833 6.45833 9.125 5.875ZM18 10.525C17.7167 10.2583 17.4083 10.0293 17.075 9.838C16.7417 9.64667 16.3833 9.484 16 9.35V9C16 7.61667 15.5123 6.43767 14.537 5.463C13.5617 4.48833 12.3827 4.00067 11 4C10.45 4 9.97933 3.80433 9.588 3.413C9.19667 3.02167 9.00067 2.55067 9 2V0H11V2C12.95 2 14.6043 2.67933 15.963 4.038C17.3217 5.39667 18.0007 7.05067 18 9V10.525ZM4 20V18C4 17.1667 4.29167 16.4583 4.875 15.875C5.45833 15.2917 6.16667 15 7 15H8C8 15.35 8.02933 15.6917 8.088 16.025C8.14667 16.3583 8.234 16.6833 8.35 17H7C6.71667 17 6.47933 17.096 6.288 17.288C6.09667 17.48 6.00067 17.7173 6 18V20H4ZM14 17C14.55 17 15.021 16.8043 15.413 16.413C15.805 16.0217 16.0007 15.5507 16 15C16 14.45 15.8043 13.9793 15.413 13.588C15.0217 13.1967 14.5507 13.0007 14 13C13.45 13 12.9793 13.196 12.588 13.588C12.1967 13.98 12.0007 14.4507 12 15C12 15.55 12.196 16.021 12.588 16.413C12.98 16.805 13.4507 17.0007 14 17ZM18.575 21L16.025 18.45C15.725 18.6333 15.4083 18.771 15.075 18.863C14.7417 18.955 14.3833 19.0007 14 19C12.9 19 11.9583 18.6083 11.175 17.825C10.3917 17.0417 10 16.1 10 15C10 13.9 10.3917 12.9583 11.175 12.175C11.9583 11.3917 12.9 11 14 11C15.1 11 16.0417 11.3917 16.825 12.175C17.6083 12.9583 18 13.9 18 15C18 15.3833 17.95 15.746 17.85 16.088C17.75 16.43 17.6083 16.7507 17.425 17.05L19.975 19.6L18.575 21Z" fill="#0D4C92"/>
</svg>
