<svg width="18" height="20" viewBox="0 0 18 20" fill="none" xmlns="http://www.w3.org/2000/svg">
<path d="M0 8.99999V6.99999H1.575C2.05833 5.84999 2.76267 4.86232 3.688 4.03699C4.61333 3.21165 5.67567 2.63265 6.875 2.29999L6.3 1.69999L7.7 0.299988L8.95 1.52499C9.15 1.72499 9.27933 1.96265 9.338 2.23799C9.39667 2.51332 9.384 2.78399 9.3 3.04999C9.21667 3.33332 9.06667 3.56665 8.85 3.74999C8.63333 3.93332 8.38333 4.04165 8.1 4.07499C6.95 4.25832 5.93767 4.72932 5.063 5.48799C4.18833 6.24665 3.584 7.18399 3.25 8.29999L3.05 8.99999H0ZM12 9.99999C12 9.26665 12.1377 8.56665 12.413 7.89999C12.6883 7.23332 13.134 6.71665 13.75 6.34999C13.3667 5.84999 12.9207 5.42099 12.412 5.06299C11.9033 4.70499 11.341 4.43399 10.725 4.24999L11.3 2.32499C12.3333 2.62499 13.25 3.11665 14.05 3.79999C14.85 4.48332 15.5 5.29999 16 6.24999C16.7 6.58332 17.2083 7.09599 17.525 7.78799C17.8417 8.47999 18 9.21732 18 9.99999C18 10.7833 17.8417 11.525 17.525 12.225C17.2083 12.925 16.7 13.4333 16 13.75C15.5 14.7 14.8417 15.5167 14.025 16.2C13.2083 16.8833 12.2917 17.375 11.275 17.675L10.7 15.75C11.3 15.5667 11.8627 15.296 12.388 14.938C12.9133 14.58 13.3673 14.1507 13.75 13.65C13.1333 13.2833 12.6873 12.7667 12.412 12.1C12.1367 11.4333 11.9993 10.7333 12 9.99999ZM15 12C15.25 12 15.4793 11.796 15.688 11.388C15.8967 10.98 16.0007 10.5173 16 9.99999C16 9.48332 15.896 9.02065 15.688 8.61199C15.48 8.20332 15.2507 7.99932 15 7.99999C14.75 7.99999 14.521 8.20432 14.313 8.61299C14.105 9.02165 14.0007 9.48399 14 9.99999C14 10.5167 14.1043 10.9793 14.313 11.388C14.5217 11.7967 14.7507 12.0007 15 12ZM7.575 19.825L6.175 18.4L6.875 17.7C5.675 17.3667 4.60833 16.7877 3.675 15.963C2.74167 15.1383 2.04167 14.1507 1.575 13H0V11H3.05L3.25 11.7C3.58333 12.8167 4.18767 13.7543 5.063 14.513C5.93833 15.2717 6.95067 15.7423 8.1 15.925C8.38333 15.9583 8.63333 16.071 8.85 16.263C9.06667 16.455 9.21667 16.684 9.3 16.95C9.38333 17.2167 9.396 17.4833 9.338 17.75C9.28 18.0167 9.15067 18.25 8.95 18.45L7.575 19.825Z" fill="#0D4C92"/>
</svg>
