<svg width="16" height="21" viewBox="0 0 16 21" fill="none" xmlns="http://www.w3.org/2000/svg">
<path d="M8 20.2C7.23333 20.2 6.271 20.0833 5.113 19.85C3.955 19.6167 3.11733 19.375 2.6 19.125C2.41667 19.0417 2.271 18.9167 2.163 18.75C2.055 18.5833 2.00067 18.4 2 18.2V17.2H1C0.716667 17.2 0.479333 17.104 0.288 16.912C0.0966668 16.72 0.000666667 16.4827 0 16.2V14.7C0 14.4167 0.0960001 14.1793 0.288 13.988C0.48 13.7967 0.717333 13.7007 1 13.7H2V11.7H1C0.716667 11.7 0.479333 11.6043 0.288 11.413C0.0966668 11.2217 0.000666667 10.984 0 10.7V9.2C0 8.91667 0.0960001 8.67933 0.288 8.488C0.48 8.29667 0.717333 8.20067 1 8.2H2V6.2H1C0.716667 6.2 0.479333 6.10433 0.288 5.913C0.0966668 5.72167 0.000666667 5.484 0 5.2V3.7C0 3.41667 0.0960001 3.17933 0.288 2.988C0.48 2.79667 0.717333 2.70067 1 2.7H2V1.2C2 0.833334 2.15 0.558334 2.45 0.375C2.75 0.191667 3.06667 0.166667 3.4 0.3C3.41667 0.3 3.875 0.45 4.775 0.75C5.675 1.05 6.75 1.2 8 1.2C9.25 1.2 10.325 1.05 11.225 0.75C12.125 0.45 12.5833 0.3 12.6 0.3C12.9333 0.166667 13.25 0.196 13.55 0.388C13.85 0.58 14 0.850667 14 1.2V2.7H15C15.2833 2.7 15.521 2.79567 15.713 2.987C15.905 3.17833 16.0007 3.416 16 3.7V5.2C16 5.48333 15.904 5.721 15.712 5.913C15.52 6.105 15.2827 6.20067 15 6.2H14V8.2H15C15.2833 8.2 15.521 8.296 15.713 8.488C15.905 8.68 16.0007 8.91733 16 9.2V10.7C16 10.9833 15.904 11.221 15.712 11.413C15.52 11.605 15.2827 11.7007 15 11.7H14V13.7H15C15.2833 13.7 15.521 13.796 15.713 13.988C15.905 14.18 16.0007 14.4173 16 14.7V16.2C16 16.4833 15.904 16.721 15.712 16.913C15.52 17.105 15.2827 17.2007 15 17.2H14V18.2C14 18.4 13.946 18.5833 13.838 18.75C13.73 18.9167 13.584 19.0417 13.4 19.125C12.8833 19.375 12.046 19.6167 10.888 19.85C9.73 20.0833 8.76733 20.2 8 20.2ZM8 6.85C8.63333 6.85 9.30433 6.79167 10.013 6.675C10.7217 6.55833 11.384 6.39167 12 6.175V2.6C11.3667 2.78333 10.7043 2.92933 10.013 3.038C9.32167 3.14667 8.65067 3.20067 8 3.2C7.36667 3.2 6.70433 3.146 6.013 3.038C5.32167 2.93 4.65067 2.784 4 2.6V6.175C4.6 6.39167 5.25833 6.55833 5.975 6.675C6.69167 6.79167 7.36667 6.85 8 6.85ZM8 12.55C8.61667 12.55 9.27933 12.4917 9.988 12.375C10.6967 12.2583 11.3673 12.0833 12 11.85V8.25C11.2667 8.45 10.571 8.6 9.913 8.7C9.255 8.8 8.61733 8.85 8 8.85C7.35 8.85 6.68333 8.8 6 8.7C5.31667 8.6 4.65 8.45 4 8.25V11.85C4.63333 12.0833 5.30433 12.2583 6.013 12.375C6.72167 12.4917 7.384 12.55 8 12.55ZM8 18.2C8.63333 18.2 9.30433 18.1417 10.013 18.025C10.7217 17.9083 11.384 17.7417 12 17.525V13.95C11.3667 14.1333 10.7043 14.2793 10.013 14.388C9.32167 14.4967 8.65067 14.5507 8 14.55C7.36667 14.55 6.70433 14.496 6.013 14.388C5.32167 14.28 4.65067 14.134 4 13.95V17.525C4.6 17.7417 5.25833 17.9083 5.975 18.025C6.69167 18.1417 7.36667 18.2 8 18.2Z" fill="#0D4C92"/>
</svg>
