<svg width="10" height="20" viewBox="0 0 10 20" fill="none" xmlns="http://www.w3.org/2000/svg">
<path d="M1 5C0.716667 5 0.479333 4.904 0.288 4.712C0.0966668 4.52 0.000666667 4.28267 0 4C0 3.71667 0.0960001 3.47933 0.288 3.288C0.48 3.09667 0.717333 3.00067 1 3H4V1C4 0.716667 4.096 0.479333 4.288 0.288C4.48 0.0966668 4.71733 0.000666667 5 0C5.28333 0 5.521 0.0960001 5.713 0.288C5.905 0.48 6.00067 0.717333 6 1V3H9C9.28333 3 9.521 3.096 9.713 3.288C9.905 3.48 10.0007 3.71733 10 4C10 4.28333 9.904 4.521 9.712 4.713C9.52 4.905 9.28267 5.00067 9 5H1ZM2 20C1.45 20 0.979333 19.8043 0.588 19.413C0.196666 19.0217 0.000666667 18.5507 0 18V9C0 8.16667 0.291667 7.45833 0.875 6.875C1.45833 6.29167 2.16667 6 3 6H7C7.83333 6 8.54167 6.29167 9.125 6.875C9.70833 7.45833 10 8.16667 10 9V18C10 18.55 9.80433 19.021 9.413 19.413C9.02167 19.805 8.55067 20.0007 8 20H2ZM2 18H8V9C8 8.71667 7.904 8.47933 7.712 8.288C7.52 8.09667 7.28267 8.00067 7 8H3C2.71667 8 2.47933 8.096 2.288 8.288C2.09667 8.48 2.00067 8.71733 2 9V10H4C4.28333 10 4.521 10.096 4.713 10.288C4.905 10.48 5.00067 10.7173 5 11C5 11.2833 4.904 11.521 4.712 11.713C4.52 11.905 4.28267 12.0007 4 12H2V14H4C4.28333 14 4.521 14.096 4.713 14.288C4.905 14.48 5.00067 14.7173 5 15C5 15.2833 4.904 15.521 4.712 15.713C4.52 15.905 4.28267 16.0007 4 16H2V18Z" fill="#0D4C92"/>
</svg>
