<svg width="30" height="30" viewBox="0 0 30 30" fill="none" xmlns="http://www.w3.org/2000/svg">
<path d="M14.1419 19.3749C14.3574 18.7082 14.6566 18.0789 15.0274 17.4999H6.56597C5.01345 17.4999 3.75488 18.7586 3.75488 20.3111V21.0332C3.75488 22.1492 4.15302 23.2286 4.87773 24.0772C6.83561 26.3699 9.81812 27.5014 13.7505 27.5014C14.5006 27.5014 15.2162 27.4602 15.8969 27.3777C15.408 26.8468 14.9889 26.2506 14.6541 25.6037C14.3607 25.6188 14.0595 25.6264 13.7505 25.6264C10.3276 25.6264 7.87022 24.6942 6.30358 22.8596C5.86877 22.3503 5.62988 21.7028 5.62988 21.0332V20.3111C5.62988 19.7941 6.04898 19.3749 6.56597 19.3749H14.1419ZM13.7505 2.50586C17.2022 2.50586 20.0005 5.30407 20.0005 8.75586C20.0005 12.2076 17.2022 15.0058 13.7505 15.0058C10.2987 15.0058 7.50045 12.2076 7.50045 8.75586C7.50045 5.30407 10.2987 2.50586 13.7505 2.50586ZM13.7505 4.38086C11.3342 4.38086 9.37545 6.33961 9.37545 8.75586C9.37545 11.1721 11.3342 13.1308 13.7505 13.1308C16.1667 13.1308 18.1255 11.1721 18.1255 8.75586C18.1255 6.33961 16.1667 4.38086 13.7505 4.38086ZM28.75 21.8751C28.75 25.6721 25.672 28.7501 21.875 28.7501C18.078 28.7501 15 25.6721 15 21.8751C15 18.0781 18.078 15.0001 21.875 15.0001C25.672 15.0001 28.75 18.0781 28.75 21.8751ZM16.875 21.8751C16.875 24.6366 19.1136 26.8751 21.875 26.8751C24.6364 26.8751 26.875 24.6366 26.875 21.8751C26.875 19.1137 24.6364 16.8751 21.875 16.8751C19.1136 16.8751 16.875 19.1137 16.875 21.8751ZM23.125 19.3751C23.125 20.0654 22.5654 20.6251 21.875 20.6251C21.1846 20.6251 20.625 20.0654 20.625 19.3751C20.625 18.6847 21.1846 18.1251 21.875 18.1251C22.5654 18.1251 23.125 18.6847 23.125 19.3751ZM22.8125 22.5001C22.8125 21.9823 22.3927 21.5626 21.875 21.5626C21.3572 21.5626 20.9375 21.9823 20.9375 22.5001V24.6876C20.9375 25.2053 21.3572 25.6251 21.875 25.6251C22.3927 25.6251 22.8125 25.2053 22.8125 24.6876V22.5001Z" fill="#0D4C92"/>
</svg>
