<svg width="28" height="28" viewBox="0 0 28 28" fill="none" xmlns="http://www.w3.org/2000/svg">
<path d="M21.7001 11.4567C21.0934 11.2117 20.3584 11.165 19.9034 11.6317L11.6551 19.8683C11.2001 20.3233 11.2351 21.07 11.4801 21.665C11.6201 22.015 11.6667 22.365 11.6667 22.75C11.6667 23.5236 11.3594 24.2654 10.8125 24.8124C10.2655 25.3594 9.52361 25.6667 8.75006 25.6667C7.97651 25.6667 7.23464 25.3594 6.68766 24.8124C6.14068 24.2654 5.83339 23.5236 5.83339 22.75C5.83339 22.4467 5.55339 22.1667 5.25006 22.1667C4.82161 22.1617 4.39951 22.0624 4.01379 21.8758C3.62807 21.6892 3.28819 21.42 3.01833 21.0871C2.74847 20.7543 2.55526 20.3661 2.45242 19.9502C2.34959 19.5342 2.33968 19.1007 2.42337 18.6805C2.50707 18.2603 2.68232 17.8636 2.93668 17.5188C3.19103 17.174 3.51824 16.8895 3.89502 16.6854C4.27181 16.4814 4.68892 16.3629 5.11669 16.3383C5.54447 16.3138 5.9724 16.3838 6.37006 16.5433C6.95339 16.7883 7.70006 16.835 8.15506 16.3683L16.4034 8.13168C16.8584 7.67668 16.8234 6.93001 16.5784 6.33501C16.4384 5.98501 16.3334 5.63501 16.3334 5.25001C16.3334 4.47646 16.6407 3.7346 17.1877 3.18762C17.7346 2.64063 18.4765 2.33334 19.2501 2.33334C20.0236 2.33334 20.7655 2.64063 21.3125 3.18762C21.8594 3.7346 22.1667 4.47646 22.1667 5.25001C22.1784 5.55334 22.4467 5.82168 22.7501 5.83334C23.1815 5.828 23.6087 5.91842 24.0009 6.0981C24.3931 6.27777 24.7406 6.54222 25.0183 6.87239C25.296 7.20256 25.497 7.59022 25.6068 8.00744C25.7166 8.42466 25.7325 8.86104 25.6533 9.28514C25.5741 9.70924 25.4018 10.1105 25.1489 10.46C24.8959 10.8094 24.5686 11.0985 24.1904 11.3062C23.8123 11.5139 23.3928 11.6351 22.9621 11.6611C22.5315 11.6872 22.1005 11.6173 21.7001 11.4567V11.4567Z" stroke="#0D4C92" stroke-width="2" stroke-linecap="round" stroke-linejoin="round"/>
</svg>
