<svg width="18" height="18" viewBox="0 0 18 18" fill="none" xmlns="http://www.w3.org/2000/svg">
<path d="M8 18V10.025C6.93333 10.025 5.90833 9.821 4.925 9.413C3.94167 9.005 3.075 8.42567 2.325 7.675C1.575 6.925 1 6.05833 0.6 5.075C0.2 4.09167 0 3.06667 0 2V0H2C3.05 0 4.06667 0.204333 5.05 0.613C6.03333 1.02167 6.9 1.60067 7.65 2.35C8.16667 2.86667 8.596 3.43333 8.938 4.05C9.28 4.66667 9.54233 5.325 9.725 6.025C9.80833 5.90833 9.9 5.796 10 5.688C10.1 5.58 10.2083 5.46733 10.325 5.35C11.075 4.6 11.9417 4.021 12.925 3.613C13.9083 3.205 14.9333 3.00067 16 3H18V5C18 6.06667 17.796 7.09167 17.388 8.075C16.98 9.05833 16.4007 9.925 15.65 10.675C14.9 11.425 14.0377 12 13.063 12.4C12.0883 12.8 11.0673 13 10 13V18H8ZM8 8C8 7.2 7.846 6.43767 7.538 5.713C7.23 4.98833 6.792 4.34233 6.224 3.775C5.65733 3.20833 5.01167 2.771 4.287 2.463C3.56233 2.155 2.8 2.00067 2 2C2 2.8 2.15 3.56667 2.45 4.3C2.75 5.03333 3.18333 5.68333 3.75 6.25C4.31667 6.81667 4.96667 7.25 5.7 7.55C6.43333 7.85 7.2 8 8 8ZM10 11C10.8 11 11.5627 10.85 12.288 10.55C13.0133 10.25 13.659 9.81667 14.225 9.25C14.7917 8.68333 15.2293 8.03333 15.538 7.3C15.8467 6.56667 16.0007 5.8 16 5C15.2 5 14.4333 5.15433 13.7 5.463C12.9667 5.77167 12.3167 6.209 11.75 6.775C11.1833 7.34167 10.75 7.98767 10.45 8.713C10.15 9.43833 10 10.2007 10 11Z" fill="#0D4C92"/>
</svg>
