<svg width="28" height="28" viewBox="0 0 28 28" fill="none" xmlns="http://www.w3.org/2000/svg">
<path d="M14.8751 2.625C14.8751 2.39294 14.7829 2.17038 14.6188 2.00628C14.4547 1.84219 14.2321 1.75 14.0001 1.75C13.768 1.75 13.5454 1.84219 13.3813 2.00628C13.2172 2.17038 13.1251 2.39294 13.1251 2.625V11.8003L12.2501 12.425V8.26C12.2501 6.5975 10.9026 5.25 9.24006 5.25C8.32306 5.25 7.44981 5.7225 6.71481 6.286C5.96056 6.867 5.23256 7.63875 4.58681 8.43675C3.29881 10.0258 2.22956 11.8423 1.82181 12.7768C1.51381 13.4855 1.13406 14.8068 0.848811 16.296C0.560061 17.7958 0.353561 19.5458 0.427061 21.1243C0.497061 22.6415 0.834811 24.2568 1.89356 25.2018C3.06606 26.2518 4.73206 26.1748 6.69031 25.1948L9.83156 23.625C10.5583 23.2617 11.1694 22.7031 11.5966 22.012C12.0238 21.3209 12.25 20.5245 12.2501 19.712V18.375C12.2501 18.1429 12.1579 17.9204 11.9938 17.7563C11.8297 17.5922 11.6071 17.5 11.3751 17.5C11.143 17.5 10.9204 17.5922 10.7563 17.7563C10.5922 17.9204 10.5001 18.1429 10.5001 18.375V19.712C10.5 20.1998 10.3641 20.6779 10.1076 21.0927C9.85101 21.5075 9.48395 21.8426 9.04756 22.0605L5.90806 23.6303C4.19656 24.486 3.43181 24.2305 3.05906 23.8963C2.56906 23.4588 2.24181 22.4945 2.17531 21.0438C2.11056 19.6525 2.29431 18.0513 2.56731 16.625C2.84206 15.19 3.19206 14.0158 3.42656 13.475C3.75906 12.7085 4.73906 11.025 5.94656 9.5375C6.54506 8.799 7.17681 8.13925 7.78231 7.67375C8.40881 7.19075 8.90056 7 9.24006 7C9.57424 7 9.89472 7.13275 10.131 7.36905C10.3673 7.60534 10.5001 7.92583 10.5001 8.26V13.6745L7.36756 15.9145C7.19189 16.054 7.07648 16.2555 7.04517 16.4776C7.01385 16.6997 7.06902 16.9254 7.19929 17.108C7.32955 17.2906 7.52495 17.4162 7.74515 17.4588C7.96535 17.5015 8.19353 17.458 8.38256 17.3373L14.0001 13.3245L19.6176 17.3373C19.7108 17.4083 19.8174 17.4598 19.931 17.4889C20.0446 17.5179 20.1629 17.5238 20.2788 17.5062C20.3947 17.4886 20.5059 17.4479 20.6058 17.3866C20.7057 17.3252 20.7922 17.2443 20.8602 17.1488C20.9283 17.0534 20.9764 16.9452 21.0018 16.8307C21.0273 16.7163 21.0294 16.5979 21.0082 16.4826C20.9869 16.3673 20.9427 16.2574 20.8782 16.1595C20.8137 16.0616 20.7302 15.9777 20.6326 15.9128L17.5001 13.6745V8.26C17.5001 7.92583 17.6328 7.60534 17.8691 7.36905C18.1054 7.13275 18.4259 7 18.7601 7C19.0996 7 19.5913 7.1925 20.2178 7.67375C20.8233 8.13925 21.4533 8.799 22.0553 9.53925C23.2593 11.0268 24.2393 12.7085 24.5736 13.475C24.8081 14.0158 25.1581 15.19 25.4328 16.625C25.7058 18.0495 25.8878 19.6525 25.8248 21.0438C25.7583 22.4945 25.4328 23.4588 24.9411 23.8963C24.5683 24.2288 23.8036 24.486 22.0921 23.6303L18.9508 22.0605C18.5147 21.8424 18.148 21.5072 17.8918 21.0923C17.6356 20.6775 17.4999 20.1996 17.5001 19.712V18.375C17.5001 18.1429 17.4079 17.9204 17.2438 17.7563C17.0797 17.5922 16.8571 17.5 16.6251 17.5C16.393 17.5 16.1704 17.5922 16.0063 17.7563C15.8422 17.9204 15.7501 18.1429 15.7501 18.375V19.712C15.7501 20.5245 15.9764 21.3209 16.4035 22.012C16.8307 22.7031 17.4419 23.2617 18.1686 23.625L21.3098 25.1948C23.2698 26.1748 24.9323 26.25 26.1066 25.2018C27.1653 24.2568 27.5031 22.6415 27.5731 21.1243C27.6466 19.5458 27.4401 17.7958 27.1531 16.296C26.8661 14.805 26.4881 13.4855 26.1766 12.775C25.7706 11.8423 24.7013 10.0258 23.4133 8.43675C22.7658 7.63875 22.0396 6.867 21.2853 6.286C20.5503 5.7225 19.6771 5.25 18.7601 5.25C17.0976 5.25 15.7501 6.5975 15.7501 8.26V12.425L14.8751 11.8003V2.625Z" fill="#0D4C92"/>
</svg>
