<svg width="20" height="19" viewBox="0 0 20 19" fill="none" xmlns="http://www.w3.org/2000/svg">
<path d="M3 19C2.15 19 1.43767 18.7127 0.863 18.138C0.288333 17.5633 0.000666667 16.8507 0 16V11.825L2.625 4.8C2.825 4.25 3.175 3.81267 3.675 3.488C4.175 3.16333 4.71667 3.00067 5.3 3C6.05 3 6.68767 3.271 7.213 3.813C7.73833 4.355 8.00067 5.009 8 5.775V7H6V5.775C6 5.55833 5.925 5.375 5.775 5.225C5.625 5.075 5.45 5 5.25 5C5.08333 5 4.92933 5.046 4.788 5.138C4.64667 5.23 4.55067 5.35067 4.5 5.5L2 12.2V16C2 16.2833 2.096 16.521 2.288 16.713C2.48 16.905 2.71733 17.0007 3 17H6C6.28333 17 6.521 16.904 6.713 16.712C6.905 16.52 7.00067 16.2827 7 16V14H9V16C9 16.85 8.70833 17.5627 8.125 18.138C7.54167 18.7133 6.83333 19.0007 6 19H3ZM16.975 19H13.975C13.1417 19 12.4333 18.7127 11.85 18.138C11.2667 17.5633 10.975 16.8507 10.975 16V14H12.975V16C12.975 16.2833 13.071 16.521 13.263 16.713C13.455 16.905 13.6923 17.0007 13.975 17H16.975C17.2583 17 17.496 16.904 17.688 16.712C17.88 16.52 17.9757 16.2827 17.975 16V12.2L15.475 5.5C15.4083 5.35 15.3083 5.229 15.175 5.137C15.0417 5.045 14.8917 4.99933 14.725 5C14.5083 5 14.3293 5.075 14.188 5.225C14.0467 5.375 13.9757 5.55833 13.975 5.775V7H11.975V5.775C11.975 5.00833 12.2377 4.354 12.763 3.812C13.2883 3.27 13.9257 2.99933 14.675 3C15.2583 3 15.796 3.16267 16.288 3.488C16.78 3.81333 17.134 4.25067 17.35 4.8L19.975 11.825V16C19.975 16.85 19.6833 17.5627 19.1 18.138C18.5167 18.7133 17.8083 19.0007 16.975 19ZM10 9.425L7.4 12L6 10.6L9 7.6V0H11V7.6L14 10.6L12.575 12L10 9.425Z" fill="#0D4C92"/>
</svg>
