<svg width="18" height="20" viewBox="0 0 18 20" fill="none" xmlns="http://www.w3.org/2000/svg">
<path d="M2 20C1.45 20 0.979333 19.8043 0.588 19.413C0.196667 19.0217 0.000666667 18.5507 0 18V4C0 3.45 0.196 2.97933 0.588 2.588C0.98 2.19667 1.45067 2.00067 2 2H3V0H5V2H13V0H15V2H16C16.55 2 17.021 2.196 17.413 2.588C17.805 2.98 18.0007 3.45067 18 4V18C18 18.55 17.8043 19.021 17.413 19.413C17.0217 19.805 16.5507 20.0007 16 20H2ZM2 18H16V4H2V18ZM6 18V16.2L4.2 14.1C4.01667 13.9167 3.854 13.6667 3.712 13.35C3.57 13.0333 3.49933 12.6667 3.5 12.25C3.5 12.0333 3.521 11.8207 3.563 11.612C3.605 11.4033 3.67567 11.1993 3.775 11C3.69167 10.8167 3.625 10.621 3.575 10.413C3.525 10.205 3.5 9.984 3.5 9.75C3.5 9.33333 3.571 8.96667 3.713 8.65C3.855 8.33333 4.01733 8.08333 4.2 7.9L6 5.8V4H7.5V6.075C7.5 6.15833 7.44167 6.31667 7.325 6.55L5.325 8.9C5.20833 9.03333 5.125 9.171 5.075 9.313C5.025 9.455 5 9.60067 5 9.75C5 10.0833 5.10833 10.371 5.325 10.613C5.54167 10.855 5.81667 10.9757 6.15 10.975C6.3 10.975 6.44167 10.95 6.575 10.9C6.70833 10.85 6.825 10.7667 6.925 10.65C7.20833 10.3667 7.529 10.15 7.887 10C8.245 9.85 8.616 9.775 9 9.775C9.38333 9.775 9.75433 9.85 10.113 10C10.4717 10.15 10.7923 10.3667 11.075 10.65C11.1917 10.7667 11.3167 10.85 11.45 10.9C11.5833 10.95 11.7167 10.975 11.85 10.975C12.1833 10.975 12.4583 10.8543 12.675 10.613C12.8917 10.3717 13 10.0923 13 9.775C13 9.625 12.9707 9.47933 12.912 9.338C12.8533 9.19667 12.7743 9.059 12.675 8.925L10.675 6.55C10.6083 6.48333 10.5627 6.40833 10.538 6.325C10.5133 6.24167 10.5007 6.15833 10.5 6.075V4H12V5.8L13.825 7.95C14.0583 8.21667 14.2293 8.50433 14.338 8.813C14.4467 9.12167 14.5007 9.44233 14.5 9.775C14.5 9.99167 14.4707 10.2043 14.412 10.413C14.3533 10.6217 14.2827 10.8173 14.2 11C14.3 11.2 14.375 11.4043 14.425 11.613C14.475 11.8217 14.5 12.034 14.5 12.25C14.5 12.6667 14.429 13.0333 14.287 13.35C14.145 13.6667 13.9827 13.9167 13.8 14.1L12 16.2V18H10.5V15.925C10.5 15.825 10.5583 15.6667 10.675 15.45L12.675 13.1C12.7917 12.9667 12.875 12.825 12.925 12.675C12.975 12.525 13 12.375 13 12.225C12.8167 12.3083 12.6333 12.371 12.45 12.413C12.2667 12.455 12.075 12.4757 11.875 12.475C11.5417 12.475 11.2083 12.4083 10.875 12.275C10.5417 12.1417 10.25 11.9417 10 11.675C9.88333 11.5417 9.73767 11.4417 9.563 11.375C9.38833 11.3083 9.20067 11.275 9 11.275C8.81667 11.275 8.63767 11.3083 8.463 11.375C8.28833 11.4417 8.134 11.5417 8 11.675C7.75 11.9417 7.46267 12.1417 7.138 12.275C6.81333 12.4083 6.484 12.475 6.15 12.475C5.95 12.475 5.754 12.4543 5.562 12.413C5.37 12.3717 5.18267 12.3087 5 12.224C5 12.374 5.025 12.524 5.075 12.674C5.125 12.824 5.20833 12.9657 5.325 13.099L7.325 15.449C7.375 15.5323 7.41667 15.6117 7.45 15.687C7.48333 15.7623 7.5 15.8413 7.5 15.924V18H6Z" fill="#0D4C92"/>
</svg>
