<svg width="20" height="20" viewBox="0 0 20 20" fill="none" xmlns="http://www.w3.org/2000/svg">
<path d="M18.65 15.225L13.775 13.625L14.425 11.7L19.3 13.325L18.65 15.225ZM19 11H14.375V9H19V11ZM19.275 6.625L14.375 8.275L13.775 6.35L18.675 4.725L19.275 6.625ZM3.125 12C2.25833 12 1.521 11.6957 0.913 11.087C0.305 10.4783 0.000666667 9.74133 0 8.876C0 8.44267 0.0833333 8.03833 0.25 7.663C0.416667 7.28767 0.641667 6.95867 0.925 6.676L3 4.575V0H5V5C5 5.13333 4.97067 5.26267 4.912 5.388C4.85333 5.51333 4.78267 5.62567 4.7 5.725L2.325 8.1C2.225 8.2 2.146 8.31667 2.088 8.45C2.03 8.58333 2.00067 8.725 2 8.875C2 9.175 2.11267 9.43767 2.338 9.663C2.56333 9.88833 2.82567 10.0007 3.125 10C3.325 10 3.48333 9.96667 3.6 9.9C3.71667 9.83333 3.875 9.71667 4.075 9.55C4.44167 9.25 4.80433 9.025 5.163 8.875C5.52167 8.725 5.884 8.65 6.25 8.65C6.61667 8.65 6.97933 8.725 7.338 8.875C7.69667 9.025 8.059 9.25 8.425 9.55C8.625 9.71667 8.78333 9.83333 8.9 9.9C9.01667 9.96667 9.175 10 9.375 10C9.69167 10 9.95833 9.88767 10.175 9.663C10.3917 9.43833 10.5 9.17567 10.5 8.875C10.5 8.725 10.4707 8.57933 10.412 8.438C10.3533 8.29667 10.2743 8.17567 10.175 8.075L7.8 5.7C7.71667 5.6 7.64567 5.49167 7.587 5.375C7.52833 5.25833 7.49933 5.13333 7.5 5V0H9.5V4.55L11.6 6.65C11.8833 6.93333 12.1043 7.26667 12.263 7.65C12.4217 8.03333 12.5007 8.44167 12.5 8.875C12.5 9.74167 12.2 10.4793 11.6 11.088C11 11.6967 10.2583 12.0007 9.375 12C8.825 12 8.379 11.896 8.037 11.688C7.695 11.48 7.40767 11.2757 7.175 11.075C6.925 10.875 6.72933 10.7543 6.588 10.713C6.44667 10.6717 6.334 10.6507 6.25 10.65C6.1 10.65 5.946 10.7 5.788 10.8C5.63 10.9 5.484 10.9917 5.35 11.075C5.11667 11.275 4.82933 11.4793 4.488 11.688C4.14667 11.8967 3.693 12.0007 3.125 12ZM7.499 20V15.25C7.499 15.1167 7.52833 14.9877 7.587 14.863C7.64567 14.7383 7.71633 14.6257 7.799 14.525L10.174 12.15C10.274 12.05 10.3533 11.9333 10.412 11.8C10.4707 11.6667 10.4997 11.525 10.499 11.375C10.499 11.2083 10.47 11.0583 10.412 10.925C10.354 10.7917 10.2747 10.675 10.174 10.575L11.6 9.15C11.8833 9.43333 12.1043 9.76667 12.263 10.15C12.4217 10.5333 12.5007 10.9417 12.5 11.375C12.5 11.8083 12.421 12.2083 12.263 12.575C12.105 12.9417 11.884 13.2667 11.6 13.55L9.5 15.65V20H7.499ZM3 20V15.65L0.925 13.55C0.641667 13.2667 0.416667 12.9417 0.25 12.575C0.0833333 12.2083 0 11.8083 0 11.375C0 10.9417 0.0833333 10.5333 0.25 10.15C0.416667 9.76667 0.641667 9.43333 0.925 9.15L2.35 10.575C2.23333 10.675 2.146 10.7917 2.088 10.925C2.03 11.0583 2.00067 11.2083 2 11.375C2 11.525 2.029 11.6667 2.087 11.8C2.145 11.9333 2.22433 12.05 2.325 12.15L4.7 14.525C4.78333 14.625 4.85433 14.7377 4.913 14.863C4.97167 14.9883 5.00067 15.1173 5 15.25V20H3Z" fill="#0D4C92"/>
</svg>
