<svg width="20" height="22" viewBox="0 0 20 22" fill="none" xmlns="http://www.w3.org/2000/svg">
<path d="M7 22V19.975C6.58333 19.8917 6.225 19.7043 5.925 19.413C5.625 19.1217 5.43333 18.759 5.35 18.325L5.025 16.325C4.925 15.7083 5.075 15.1667 5.475 14.7C5.875 14.2333 6.38333 14 7 14V12.825C6.83333 12.8917 6.67067 12.9377 6.512 12.963C6.35333 12.9883 6.18267 13.0007 6 13C4.33333 13 2.91667 12.4167 1.75 11.25C0.583333 10.0833 0 8.66667 0 7V6C0 4.33333 0.583333 2.91667 1.75 1.75C2.91667 0.583333 4.33333 0 6 0C6.83333 0 7.54167 0.291667 8.125 0.875C8.70833 1.45833 9 2.16667 9 3C9 3.83333 8.70833 4.54167 8.125 5.125C7.54167 5.70833 6.83333 6 6 6H4V4H6C6.28333 4 6.521 3.904 6.713 3.712C6.905 3.52 7.00067 3.28267 7 3C7 2.71667 6.904 2.47933 6.712 2.288C6.52 2.09667 6.28267 2.00067 6 2C4.9 2 3.95833 2.39167 3.175 3.175C2.39167 3.95833 2 4.9 2 6V7C2 8.1 2.39167 9.04167 3.175 9.825C3.95833 10.6083 4.9 11 6 11C6.28333 11 6.521 10.904 6.713 10.712C6.905 10.52 7.00067 10.2827 7 10C7 9.71667 6.904 9.47933 6.712 9.288C6.52 9.09667 6.28267 9.00067 6 9H4V7H6C6.83333 7 7.54167 7.29167 8.125 7.875C8.70833 8.45833 9 9.16667 9 10V14H11V10C11 9.16667 11.2917 8.45833 11.875 7.875C12.4583 7.29167 13.1667 7 14 7H16V9H14C13.7167 9 13.4793 9.096 13.288 9.288C13.0967 9.48 13.0007 9.71733 13 10C13 10.2833 13.096 10.521 13.288 10.713C13.48 10.905 13.7173 11.0007 14 11C15.1 11 16.0417 10.6083 16.825 9.825C17.6083 9.04167 18 8.1 18 7V6C18 4.9 17.6083 3.95833 16.825 3.175C16.0417 2.39167 15.1 2 14 2C13.7167 2 13.4793 2.09567 13.288 2.287C13.0967 2.47833 13.0007 2.716 13 3C13 3.28333 13.096 3.521 13.288 3.713C13.48 3.905 13.7173 4.00067 14 4H16V6H14C13.1667 6 12.4583 5.70833 11.875 5.125C11.2917 4.54167 11 3.83333 11 3C11 2.16667 11.2917 1.45833 11.875 0.875C12.4583 0.291667 13.1667 0 14 0C15.6667 0 17.0833 0.583333 18.25 1.75C19.4167 2.91667 20 4.33333 20 6V7C20 8.66667 19.4167 10.0833 18.25 11.25C17.0833 12.4167 15.6667 13 14 13C13.8167 13 13.6457 12.9873 13.487 12.962C13.3283 12.9367 13.166 12.8913 13 12.826V14C13.6167 14 14.125 14.2333 14.525 14.7C14.925 15.1667 15.075 15.7083 14.975 16.325L14.65 18.325C14.5667 18.7583 14.375 19.121 14.075 19.413C13.775 19.705 13.4167 19.8923 13 19.975V22H11V20H9V22H7ZM7 16L7.325 18H12.675L13 16H7Z" fill="#0D4C92"/>
</svg>
