<svg width="30" height="30" viewBox="0 0 30 30" fill="none" xmlns="http://www.w3.org/2000/svg">
<path fill-rule="evenodd" clip-rule="evenodd" d="M22.4071 10.1566C22.8708 10.668 22.7287 11.4539 22.1635 11.8504L19.1183 13.9863C18.5531 14.3828 17.7809 14.2228 17.2225 13.8169C17.0796 13.713 16.9291 13.619 16.7721 13.5357C16.2451 13.256 15.6594 13.1051 15.0629 13.0951C14.4664 13.0852 13.876 13.2166 13.3401 13.4786C13.1803 13.5566 13.0268 13.6456 12.8805 13.7447C12.3089 14.1318 11.5318 14.2659 10.9801 13.8509L8.0077 11.6148C7.45601 11.1998 7.34007 10.4096 7.82064 9.91395C8.62382 9.08557 9.56664 8.40007 10.609 7.89063C12.0268 7.1977 13.5885 6.85013 15.1664 6.87638C16.7443 6.90263 18.2936 7.30195 19.6875 8.0417C20.7123 8.58551 21.6318 9.30201 22.4071 10.1566ZM21.3723 10.8786C20.7173 10.1826 19.9508 9.59651 19.1016 9.14588C17.8819 8.49857 16.5263 8.1492 15.1456 8.1262C13.7649 8.10326 12.3984 8.40738 11.1579 9.0137C10.2942 9.43582 9.50857 9.99607 8.83082 10.6699L11.7291 12.8502C11.7385 12.8533 11.7628 12.8579 11.811 12.8536C11.909 12.8448 12.0465 12.7998 12.1797 12.7096C12.3744 12.5778 12.5787 12.4594 12.7911 12.3555C13.5044 12.0069 14.29 11.8321 15.0837 11.8453C15.1156 11.8458 15.1475 11.8467 15.1793 11.8478C15.2032 11.7978 15.2341 11.75 15.2723 11.7061L16.9888 9.73245C17.2154 9.47201 17.6101 9.44451 17.8706 9.67101C18.1311 9.89757 18.1586 10.2923 17.932 10.5528L16.5855 12.101C16.851 12.1891 17.1094 12.2996 17.358 12.4315C17.5669 12.5424 17.7672 12.6675 17.9574 12.8058C18.0875 12.9003 18.2234 12.9499 18.3211 12.9619C18.3691 12.9678 18.3936 12.9639 18.403 12.9612L21.3723 10.8786ZM18.4078 12.9592C18.408 12.9593 18.4063 12.9603 18.403 12.9612C18.4058 12.9596 18.4077 12.959 18.4078 12.9592ZM11.7244 12.8479C11.7245 12.8478 11.7264 12.8485 11.7291 12.8502C11.7259 12.8491 11.7242 12.8481 11.7244 12.8479Z" fill="#0D4C92"/>
<path fill-rule="evenodd" clip-rule="evenodd" d="M22.635 26.25C23.9618 26.25 25.0575 25.2135 25.1311 23.8887L26.1033 6.38869C26.1829 4.95568 25.0424 3.75 23.6072 3.75H6.39266C4.95744 3.75 3.81689 4.95567 3.89651 6.38869L4.86873 23.8887C4.94233 25.2134 6.03804 26.25 7.36484 26.25H22.635ZM7.36484 25H22.635C23.2983 25 23.8462 24.4818 23.883 23.8193L24.8552 6.31931C24.895 5.60284 24.3248 5 23.6072 5H6.39266C5.67505 5 5.10478 5.60284 5.14458 6.31931L6.1168 23.8193C6.1536 24.4818 6.70147 25 7.36484 25Z" fill="#0D4C92"/>
</svg>
